<svg version="1.2" xmlns="http://www.w3.org/2000/svg" viewBox="0 0 247 67" width="500" height="136">
	<title>image</title>
	<style>
		.s0 { fill: none;stroke: #000000;stroke-linecap: round;stroke-width: 3 } 
	</style>
	<path fill-rule="evenodd" class="s0" d="m34 16.5c-9.9 5-39.9 18.1-28.8 17 24.2-2.3 49.8-13.2 72.9-20 7.8-2.2 15.5-4.6 23.3-6.9 4.1-1.2 8.3-2.5 12.5-3.6 0.8-0.2 2.4-1 2.6-0.2 0.8 4-36.9 21.7-38.4 22.5-11.3 5.9-24.2 10.9-35 17.8-1.4 0.9 3.3 0.9 4.9 0.6 16.5-2.8 32.9-6.4 49.4-9.6 27.5-5.4 63.1-17.6 91.7-15.6 4.9 0.4-7.5 6.5-11.8 8.7-13.2 6.6-20.7 10.1-34.4 16.4-3.7 1.7-47.3 19.7-17.6 11.9 17.3-4.6 64.9-29.5 50-19.7-3.8 2.5-8.6 4.7-11.8 7.9-2.1 2.1 5.8-1.4 8.5-2.6 10.1-4.2 26.6-11.7 35.9-16.1 11.6-5.5 25.9-11 36.5-18.6 3.5-2.5-8.3 2.2-12.4 3.5-26.9 8.5-43.9 13.9-72.8 22.2-36.4 10.3-74.2 22.2-112 27-2.4 0.3-5.5 1.4-7.2-0.3-1.2-1.3 1.7-3 3.1-4 4-3.2 8.5-5.7 12.8-8.4 15.6-9.8 32.3-17.8 47.8-27.6 6.9-4.4 2.4-4-3.6-3.4-6.3 0.5-41.7 5.9-44.7 6.3q-13.2 2-26.3 4.1c-8.6 1.4-32.9 8.7-25.7 3.9 8.7-5.8 20.3-5.1 30.6-7.3 24.2-5.3 38.7-8.3 63.3-12.4 14.3-2.4 34.5-7.4 49.8-6.6 8.4 0.4-13.6 9.9-20.5 14.7-6.1 4.2-8.8 6.7 1.3 5.6 16-1.7 61.5-17.2 47.4-9.5-18 9.7-44.3 15.4-63 21.5-23.4 7.6-47.9 15.3-71.4 22.5-7.9 2.4-15.6 6.2-23.8 6.9-8.9 0.8 16.4-7.2 24.8-10.3 36.3-13.6 73.1-25.6 110.3-36.5 39.7-11.7-81.1 16.5-121.5 25.9"/>
</svg>