<?xml version="1.0" encoding="iso-8859-1"?>
<!-- Uploaded to: SVG Repo, www.svgrepo.com, Generator: SVG Repo Mixer Tools -->
<!DOCTYPE svg PUBLIC "-//W3C//DTD SVG 1.1//EN" "http://www.w3.org/Graphics/SVG/1.1/DTD/svg11.dtd">
<svg fill="#000000" version="1.1" id="Capa_1" xmlns="http://www.w3.org/2000/svg" xmlns:xlink="http://www.w3.org/1999/xlink" 
	 width="800px" height="800px" viewBox="0 0 31.712 31.712"
	 xml:space="preserve">
<g>
	<g>
		<path d="M5.658,7.635h4.796v1.59H7.569v0.773h2.477v1.478H7.569v2.363H5.658V7.635z"/>
		<path d="M15.042,9.946c-0.012-0.058-0.032-0.138-0.061-0.239c-0.029-0.102-0.082-0.201-0.157-0.3
			c-0.075-0.099-0.175-0.186-0.3-0.261s-0.285-0.112-0.482-0.112c-0.226,0-0.415,0.049-0.565,0.147
			c-0.151,0.099-0.271,0.229-0.36,0.391c-0.09,0.162-0.155,0.345-0.196,0.548s-0.061,0.408-0.061,0.617
			c0,0.208,0.02,0.414,0.061,0.616c0.041,0.203,0.105,0.386,0.196,0.548c0.089,0.162,0.209,0.292,0.36,0.391
			c0.15,0.099,0.339,0.147,0.565,0.147c0.162,0,0.3-0.025,0.413-0.078c0.113-0.052,0.208-0.124,0.287-0.217
			c0.079-0.093,0.142-0.203,0.191-0.33c0.049-0.128,0.088-0.264,0.117-0.408h1.877c0,0.312-0.063,0.622-0.187,0.93
			c-0.125,0.307-0.307,0.583-0.547,0.829c-0.24,0.247-0.537,0.445-0.891,0.596c-0.354,0.151-0.756,0.226-1.208,0.226
			c-0.504,0-0.95-0.084-1.338-0.252c-0.388-0.168-0.715-0.397-0.985-0.687c-0.269-0.289-0.474-0.633-0.612-1.029
			c-0.139-0.396-0.208-0.824-0.208-1.281c0-0.487,0.074-0.931,0.221-1.33c0.147-0.4,0.359-0.742,0.634-1.026
			c0.275-0.283,0.605-0.504,0.991-0.66c0.386-0.156,0.818-0.234,1.299-0.234c0.857,0.006,1.519,0.222,1.985,0.647
			c0.466,0.425,0.74,1.029,0.821,1.812h-1.86V9.946z"/>
		<path d="M17.727,7.635h5.135v1.59h-3.224v0.773h2.928v1.478h-2.928v0.773h3.318v1.59h-5.23L17.727,7.635L17.727,7.635z"/>
	</g>
	<g>
		<polygon points="25.802,23.262 20.132,27.742 23.272,31.712 24.768,27.777 28.941,27.232 		"/>
		<polygon points="10.161,25.051 14.096,26.545 14.641,30.718 18.61,27.578 14.131,21.91 		"/>
		<path d="M20.132,18.741c-1.76,0-3.19,1.431-3.19,3.19c0,1.758,1.431,3.188,3.19,3.188c1.759,0,3.19-1.431,3.19-3.188
			C23.323,20.172,21.892,18.741,20.132,18.741z M21.651,23.973l-1.52-0.801l-1.52,0.801l0.29-1.69l-1.229-1.198l1.699-0.247
			l0.76-1.539l0.76,1.539l1.699,0.247l-1.229,1.198L21.651,23.973z"/>
		<path d="M24.007,21.911c0-2.144-1.735-3.877-3.877-3.877c-2.139,0-3.875,1.733-3.875,3.877c0,2.14,1.736,3.873,3.875,3.873
			C22.271,25.784,24.007,24.051,24.007,21.911z M20.132,25.336c-1.877,0-3.406-1.527-3.406-3.404s1.527-3.406,3.406-3.406
			c1.877,0,3.404,1.529,3.404,3.406C23.538,23.809,22.009,25.336,20.132,25.336z"/>
	</g>
	<path d="M21.228,0l-0.204,0.02L21.003,0H2.771v28.132h23.59V7.569V5.356V5.134L21.228,0z M25.098,26.869H4.034V1.264h16.122v5.025
		h4.943L25.098,26.869L25.098,26.869z"/>
	<rect x="5.795" y="16.277" width="8.769" height="1.192"/>
	<rect x="5.795" y="18.873" width="8.769" height="1.193"/>
</g>
</svg>