<?xml version="1.0" encoding="utf-8"?>
<!-- Generator: Adobe Illustrator 23.0.3, SVG Export Plug-In . SVG Version: 6.00 Build 0)  -->
<svg version="1.1" id="Layer_1" xmlns="http://www.w3.org/2000/svg" xmlns:xlink="http://www.w3.org/1999/xlink" x="0px" y="0px"
	 viewBox="0 0 2000 2000" style="enable-background:new 0 0 2000 2000;" xml:space="preserve">
<style type="text/css">
	.st0{fill:#410B09;}
	.st1{fill:none;stroke:#410B09;stroke-width:24.1459;stroke-linecap:round;stroke-linejoin:round;stroke-miterlimit:10;}
	.st2{fill:#63C070;}
	.st3{fill:none;stroke:#410B09;stroke-width:21.1276;stroke-linecap:round;stroke-linejoin:round;stroke-miterlimit:10;}
	.st4{opacity:0.74;fill:#177D59;}
	.st5{fill:#B1E188;}
	.st6{fill:#51B672;}
	.st7{fill:#FE4153;}
	.st8{fill:#FBFCEE;}
	.st9{opacity:0.74;fill:#D30B2F;}
	.st10{fill:none;stroke:#410B09;stroke-width:17.6941;stroke-linecap:round;stroke-linejoin:round;stroke-miterlimit:10;}
	.st11{fill:#FEA6A4;}
	.st12{fill:#FFFFF6;}
	.st13{fill:#FFCF63;}
	.st14{fill:#FFB04A;}
	.st15{fill:#548DF4;}
	.st16{fill:#546AF4;}
	.st17{fill:#98CCF8;}
	.st18{fill:none;stroke:#410B09;stroke-width:12.0729;stroke-linecap:round;stroke-linejoin:round;stroke-miterlimit:10;}
</style>
<g>
	<path class="st0" d="M789.6,1580.9c11.7,4,24.3,4.2,36.4,2.2c22-3.7,42.6-14.1,61.1-26.2c4.2-2.8,16.9-8.5,9.5-13.9
		c-4.9-3.6-12.5-4.1-18.2-5.3c-8.4-1.8-16.9-2.9-25.4-3.2c-11.6-0.4-23.2,0.6-34.6,3.2c-19.3,4.5-49.9,16.3-49.2,28.2
		C769.6,1574.1,784.9,1579.3,789.6,1580.9z"/>
	<path class="st0" d="M1110.6,1547.2c15.4,7.8,30.9,25.1,26.9,32.8c-2.2,4.3-9,4.4-13.1,4.4c-13.6,0-27.3-3.5-40.4-6.9
		c-7.6-1.9-15.1-4.1-22.6-6.3c-4.5-1.3-9-2.7-13.5-4.1c-2.4-0.7-4.7-1.5-7.1-2.2c-1.5-0.5-4.3-0.6-4.4-2.7c-0.1-2.2,4.4-4.8,5.9-5.9
		c4.8-3.7,10.1-6.8,15.6-9.2c10.4-4.5,21.8-6.6,33.1-5.5C1097.8,1542.2,1104.5,1544.1,1110.6,1547.2z"/>
	<path class="st1" d="M859.8,1326.2c-0.8,29.8,0.8,67.8,9.3,111c8.7,44,22.1,80.4,34.4,107.9c-39.8-14.9-69.7-11-85.2-7.4
		c-19.3,4.5-49.9,16.3-49.2,28.2c0.5,8.2,15.7,13.3,20.4,14.9c43.6,14.8,95.5-21.5,114-35.7"/>
	<path class="st1" d="M1036.7,1328.2c16,36.5,20.1,77.2,17.7,117c-2.4,39.7-11.1,78.8-19.7,117.6c22.1-21.7,52.7-27.5,76-15.7
		c15.4,7.8,30.9,25.1,26.9,32.8c-3.6,6.8-23.9,8.7-102.9-17.1"/>
	<path class="st2" d="M1077.3,541.9c3.3-27,10.2-53.5,20.4-78.7c6.8-16.8,15.3-33.5,28.7-45.8c1.1-1,2.4-2.1,3.9-2.4
		c1.8-0.4,3.6,0.4,5.2,1.1c13.5,6.3,25.5,15.7,34.8,27.3c2.4,3,4.8,7,3.4,10.6c-0.6,1.6-1.9,2.9-3.2,4.1
		c-27.9,27.1-51.1,59.1-68.2,94"/>
	<path class="st3" d="M1077.3,541.9c3.3-27,10.2-53.5,20.4-78.7c6.8-16.8,15.3-33.5,28.7-45.8c1.1-1,2.4-2.1,3.9-2.4
		c1.8-0.4,3.6,0.4,5.2,1.1c13.5,6.3,25.5,15.7,34.8,27.3c2.4,3,4.8,7,3.4,10.6c-0.6,1.6-1.9,2.9-3.2,4.1
		c-27.9,27.1-51.1,59.1-68.2,94"/>
	<path class="st2" d="M1474.6,769.7c-5-12.8-24.1-16.8-34.2-24.3c-12.5-9.3-23.9-20-34.1-31.8c-17.8-20.8-26.9-47.3-45.3-67.5
		c-10.1-11.1-21.8-20.8-34.8-28.4c-13.8-8.1-28.5-10.5-44.1-13.9c-2.4-0.5-4.8-1-7.2-1.5c10.4-13,18.3-28.1,22.9-44.1
		c1.3-4.5,2.4-9.2,1.7-13.9c-0.7-4.6-3.5-9.2-7.9-10.8c-3.8-1.4-8-0.4-12,0.6c-28.7,6.6-59,6.4-87.7-0.6
		c-13.5-3.3-26.7-8.1-40.3-11.2c-35.2-8-72-3-104.7,12.4c-18.2-19.4-43.3-31.3-69.2-37.2c-14.8-3.4-29.9-5-44.7-8.5
		c-23.9-5.6-41.4-20.4-63.3-28.6c-29-10.8-15.2,49.4-11.6,60.3c1.7,5.2,3.7,10.3,6,15.2c-19.9-2.5-39.8-4.3-60.1-3.4
		c-28.1,1.3-56.6,4.6-84.2-0.5c-11.5-2.2-22.7-5.8-33.2-11c-4.3-2.1-8.9-4.6-13.7-3.8c-4.9,0.8-8.7,5.1-10.2,9.9
		c-1.5,4.8-0.9,9.9,0.2,14.8c3,12.9,9.9,24.5,17.2,35.6c7.6,11.6,16,22.9,26.4,32s23.3,15.9,37.1,17.3l589,164
		c23.4,9.4,43.3,12.6,56.4,13.8c15.7,1.4,32.6,1,48.1-1.9C1450.9,800,1482.2,789.1,1474.6,769.7z"/>
	<path class="st4" d="M1286,648.4c-5.6-7.2-10.3-15-12.7-23.7c-3.6-13-0.7-28.7,10.2-36.6c-36.1,2.8-72.7-1.1-107.5-11.3
		c-17.4-5.1-34.3-11.7-50.5-19.9c-6-3-12.9-5.4-16.3-11.2c-1.2-2-5.4-20.3-1.3-20.5c-23.1,1-43.7,14-66,20.2
		c-38,10.5-78.8,0.6-115.5-13.9C900,521.2,873,507,859.4,482.3c-3.3,21.9,8.8,42.7,14.5,64.1c1,3.7,1.8,7.8,0.3,11.3
		c-2.2,5.4-8.5,7.6-14.2,9c-64.2,16.3-133.7,10.8-194.5-15.4c3.8,9.6,8.9,17.3,14.6,25.9c7.6,11.6,16,22.9,26.4,32
		s23.3,15.9,37.1,17.3l589,164c23.4,9.4,43.3,12.6,56.4,13.8c15.7,1.4,32.6,1,48.1-1.9c13.7-2.5,45-13.4,37.4-32.9
		c-5.4-13.8-24.1-17.7-36.9-19.5c-28.7-3.9-55.8-16.2-79.6-32.7c-23.8-16.5-44.5-37.1-63.5-58.9
		C1291.6,655.3,1288.7,651.9,1286,648.4z"/>
	<path class="st5" d="M1474.6,769.7c-5-12.8-24.1-16.8-34.2-24.3c-12.5-9.3-23.9-20-34.1-31.8c-17.8-20.8-26.9-47.3-45.3-67.5
		c-10.1-11.1-21.8-20.8-34.8-28.4c-13.8-8.1-28.5-10.5-44.1-13.9c-2.4-0.5-4.8-1-7.2-1.5c10.4-13,18.3-28.1,22.9-44.1
		c1.3-4.5,2.4-9.2,1.7-13.9c-0.7-4.6-3.5-9.2-7.9-10.8c-3.8-1.4-8-0.4-12,0.6c-28.7,6.6-59,6.4-87.7-0.6
		c-13.5-3.3-26.7-8.1-40.3-11.2c-35.2-8-72-3-104.7,12.4c-18.2-19.4-43.3-31.3-69.2-37.2c-14.8-3.4-29.9-5-44.7-8.5
		c-23.9-5.6-41.4-20.4-63.3-28.6c-29-10.8-15.2,49.4-11.6,60.3c1.7,5.2,3.7,10.3,6,15.2c-19.9-2.5-39.8-4.3-60.1-3.4
		c-28.1,1.3-56.6,4.6-84.2-0.5c-11.5-2.2-22.7-5.8-33.2-11c-4.3-2.1-8.9-4.6-13.7-3.8c-4.9,0.8-8.7,5.1-10.2,9.9
		c-2.9,9.4,1.7,19.5,5.4,28c-0.2-3.6-0.3-7.5,1.7-10.5c2.4-3.9,7.6-5.3,12.1-4.7c4.5,0.6,8.7,2.7,12.8,4.6
		c23.4,10.6,49.6,13.4,75.3,13.2c25.7-0.1,51.3-3,77-3.3c9.3-0.1,18.6,0.6,27.8,1.2c-8.3-19.8-16.7-40-18.7-61.4
		c-0.3-3.1-0.4-6.3,0.6-9.3c1-2.9,3.5-5.6,6.6-5.9c2.5-0.3,4.9,0.9,7.1,2c11.4,5.7,23,11,34.8,15.8c9.3,3.8,18.7,7.4,28.5,9.9
		c13.4,3.5,27.2,5.1,40.6,8.4c23.9,6,46.2,17.7,64.7,33.9c5.2-2.3,9.1-6.7,13.7-9.9c-7.4,6.1-12.6,14.8-14.5,24.1
		c4.8-1.5,8.6-4.8,12.7-7.7c12.2-8.5,25.8-10.8,39.8-14.6c12.8-3.5,28.2-0.6,41.3,1.2c29.6,4.2,58.6,12.4,88.5,15.1
		c11.8,1.1,23.7,1.2,35.5-0.1c12-1.3,23.9-4.2,35.2-8.5c3.1,7.2-0.1,15.5-3.6,22.6c-7.9,16.3-16.8,32-26.8,47.1
		c3.7-5.6,25.5,2.4,30.1,3.8c10.8,3.3,21.2,8,30.5,14.6c7.9,5.7,14.8,12.6,21.7,19.5c5.4,5.5,10.9,10.9,15.6,17.1
		c5.1,6.7,9.2,14.1,13.5,21.4c4.3,7.4,8.9,14.6,13.6,21.8c16.3,24.6,37,49,65.5,56.7c4.5,1.2,9.3,2.1,12.7,5.2
		c3.4,3.1,4.3,9.5,0.4,12.1c1.2-0.8,2.9-0.9,4.4-2c1.7-1.3,3.3-3.2,4.4-5.1C1476,779.1,1476.4,774.3,1474.6,769.7z"/>
	<path class="st6" d="M1056.2,532.3c-2,0.3-3.7,1.6-5.3,2.8c-6.2,4.8-12.1,10-16.7,16.4c-7.7,10.8-10.9,24.2-13.8,37.1"/>
	<path class="st3" d="M860.6,535.9c-18.3-4.2-37.7-4.4-56.6-3.6c-28.1,1.3-56.6,4.6-84.2-0.5c-11.5-2.2-22.7-5.8-33.2-11
		c-4.3-2.1-8.9-4.6-13.7-3.8c-4.9,0.8-8.7,5.1-10.2,9.9s-0.9,9.9,0.2,14.8c3,12.9,9.9,24.5,17.2,35.6c7.6,11.6,16,22.9,26.4,32
		s23.3,15.9,37.1,17.3"/>
	<path class="st3" d="M909,592.2c-23.7-18-41.5-43.5-50.8-71.7c-3.6-10.9-17.4-71.1,11.6-60.3c22,8.2,39.4,22.9,63.3,28.6
		c14.8,3.5,29.9,5.1,44.7,8.5c25.9,6,51,17.8,69.2,37.2c32.6-15.4,69.5-20.4,104.7-12.4c13.6,3.1,26.7,7.9,40.3,11.2
		c28.6,7,58.9,7.3,87.7,0.6c4-0.9,8.2-1.9,12-0.6c4.4,1.6,7.2,6.2,7.9,10.8c0.7,4.6-0.4,9.4-1.7,13.9c-7,24-20.9,46.1-40.3,61.8
		c-19.4,15.7-44.3,24.8-69.3,24.3"/>
	<path class="st3" d="M1056.2,532.3c-2,0.3-3.7,1.6-5.3,2.8c-6.2,4.8-12.1,10-16.7,16.4c-7.7,10.8-10.9,24.2-13.8,37.1"/>
	<path class="st3" d="M1275,602.3c33.5,1.3,63.8,19.5,86,43.9c18.4,20.2,27.4,46.7,45.3,67.5c10.1,11.8,21.6,22.5,34.1,31.8
		c10.1,7.5,29.2,11.5,34.2,24.3c7.6,19.5-23.7,30.4-37.4,32.9c-15.5,2.9-32.4,3.3-48.1,1.9c-13.1-1.2-33-4.4-56.4-13.8"/>
	<path class="st7" d="M1072.5,582.3c-79-14.4-161.4-12.8-234.2,5.6c-65.4,16.6-125.3,54.6-166.1,108.5
		c-99.6,131.7-53.5,334.5,27,464.1c17.3,27.9,36.9,54.8,58.6,79.4c44.6,50.6,99,99.2,167.3,112.1c82.1,15.6,149.7-18.5,196.6-43
		c135.5-70.7,269.5-208.8,285.6-367.3c16-158.1-101.9-281.6-242.4-334.1C1135,596.5,1104,588.1,1072.5,582.3z"/>
	
		<ellipse transform="matrix(0.4318 -0.902 0.902 0.4318 -269.6429 1044.1021)" class="st8" cx="693.9" cy="736.1" rx="62.6" ry="30.7"/>
	
		<ellipse transform="matrix(0.2907 -0.9568 0.9568 0.2907 -313.3567 1234.3527)" class="st8" cx="675.9" cy="828.5" rx="21" ry="10.3"/>
	<path class="st8" d="M941,1351.5c-66.2-12.6-118.9-59.6-162.2-108.7c-21-23.8-40-50-56.8-77c-78-125.6-122.7-322.2-26.2-449.8
		c39.6-52.3,97.6-89.1,160.9-105.2c70.6-17.9,150.5-19.5,227-5.5c30.5,5.6,60.6,13.8,89.6,24.7c119.9,44.8,222.8,143.1,235.1,270.5
		c-6.3-138.2-115.6-245-243.5-292.8c-30-11.2-61-19.7-92.5-25.4c-79-14.4-161.4-12.8-234.2,5.6c-65.4,16.6-125.3,54.6-166.1,108.5
		c-99.6,131.7-53.5,334.5,27,464.1c17.3,27.9,36.9,54.8,58.6,79.4c44.6,50.6,99,99.2,167.3,112.1c21.5,4.1,41.9,4.7,61.3,3.1
		C971.9,1355.6,956.7,1354.5,941,1351.5z"/>
	<path class="st9" d="M1165,607.7c-30-11.2-61-19.7-92.5-25.4c-54.4-9.9-110.4-12.3-163.8-6.7c36.1-1,72.9,1.9,108.9,8.4
		c28.2,5.1,55.9,12.7,82.7,22.7c125.6,47,231.1,157.4,216.7,298.8c-14.3,141.8-134.2,265.2-255.4,328.5
		c-41.9,21.9-102.4,52.4-175.8,38.5c-61.1-11.6-109.7-55-149.7-100.3c-19.4-22-36.9-46.1-52.4-71c-27.1-43.6-49.8-96.5-62.9-151.8
		c11.6,76.5,41.4,151.6,78.4,211.2c17.3,27.9,36.9,54.8,58.6,79.4c44.6,50.6,99,99.2,167.3,112.1c82.1,15.6,149.7-18.5,196.6-43
		c135.5-70.7,269.5-208.8,285.6-367.3C1423.3,783.8,1305.4,660.3,1165,607.7z"/>
	<path class="st10" d="M810.2,857c-11.8-2.7-23.2-9.2-29.2-19.6"/>
	<path class="st10" d="M795.5,875.8c-4.1,0.7-11.7,1.4-20.5-1.5c-5.2-1.7-9.1-4.2-11.8-6.2"/>
	<path class="st3" d="M1072.5,582.3c-79-14.4-161.4-12.8-234.2,5.6c-65.4,16.6-125.3,54.6-166.1,108.5
		c-99.6,131.7-53.5,334.5,27,464.1c17.3,27.9,36.9,54.8,58.6,79.4c44.6,50.6,99,99.2,167.3,112.1c82.1,15.6,149.7-18.5,196.6-43
		c135.5-70.7,269.5-208.8,285.6-367.3c16-158.1-101.9-281.6-242.4-334.1C1135,596.5,1104,588.1,1072.5,582.3z"/>
	
		<ellipse transform="matrix(0.1563 -0.9877 0.9877 0.1563 -288.7448 1605.7401)" class="st11" cx="795.6" cy="971.9" rx="23.3" ry="37"/>
	
		<ellipse transform="matrix(0.1563 -0.9877 0.9877 0.1563 -193.0377 1573.197)" class="st0" cx="824.4" cy="899.6" rx="58.6" ry="50.3"/>
	
		<ellipse transform="matrix(0.1563 -0.9877 0.9877 0.1563 -177.1578 1526.8981)" class="st12" cx="805.2" cy="867.2" rx="10.3" ry="9.5"/>
	
		<ellipse transform="matrix(0.1563 -0.9877 0.9877 0.1563 -228.6721 1585.3278)" class="st12" cx="813.7" cy="926.5" rx="17.6" ry="15.9"/>
	
		<ellipse transform="matrix(0.1563 -0.9877 0.9877 0.1563 -49.3607 1996.2408)" class="st11" cx="1143.8" cy="1027" rx="23.3" ry="37"/>
	
		<ellipse transform="matrix(0.1563 -0.9877 0.9877 0.1563 29.3356 1935.9485)" class="st0" cx="1147.9" cy="950.8" rx="58.6" ry="50.3"/>
	
		<ellipse transform="matrix(0.1563 -0.9877 0.9877 0.1563 45.2155 1889.6495)" class="st12" cx="1128.7" cy="918.4" rx="10.3" ry="9.5"/>
	
		<ellipse transform="matrix(0.1563 -0.9877 0.9877 0.1563 -6.2988 1948.0791)" class="st12" cx="1137.2" cy="977.7" rx="17.6" ry="15.9"/>
	<path class="st10" d="M949.6,927.1c-6.4,25.8,11.4,50.9,35.5,54.1c23.3,3.1,46.4-15.3,48.2-40.9"/>
	<path class="st10" d="M1169.5,912.3c12.1-0.3,24.6-4.3,32.5-13.4"/>
	<path class="st10" d="M1180.6,933.7c3.8,1.5,11.2,3.7,20.3,2.6c5.4-0.6,9.8-2.3,12.8-3.7"/>
	<g>
		<path class="st13" d="M809,729.1c-0.5,0.4-12.6,10.1-22.7,5.3c-9.2-4.4-10.1-17.8-10.1-19.5c-1.1-22.7,26-46.5,37.2-41.8
			C824.7,677.9,826.6,714.7,809,729.1z"/>
		<path class="st14" d="M813.4,673.1c-1.3-0.6-2.8-0.7-4.5-0.5c6.8,8.1,6.7,33.5-6.3,44.2c-0.4,0.3-10.5,8.4-18.8,4.4
			c-4.5-2.1-6.5-6.8-7.5-10.6c-0.1,1.5-0.2,2.9-0.1,4.4c0.1,1.7,0.9,15.1,10.1,19.5c10.1,4.8,22.2-4.9,22.7-5.3
			C826.6,714.7,824.7,677.9,813.4,673.1z"/>
		<g>
			<path class="st0" d="M812.6,733.4l-0.7,0.6l-0.6,0.5c-0.4,0.3-0.8,0.6-1.3,0.9c-0.8,0.6-1.7,1.1-2.6,1.7c-1.8,1-3.6,2-5.7,2.8
				c-2,0.8-4.2,1.4-6.5,1.7c-2.3,0.3-4.8,0.3-7.4-0.4c-2.5-0.5-4.9-1.7-7-3.2c-0.5-0.4-1-0.8-1.5-1.2l-1.3-1.3
				c-0.5-0.4-0.8-0.9-1.2-1.4c-0.4-0.5-0.8-1-1.1-1.4c-1.4-2-2.3-4-3-6.1c-0.7-2-1.2-4.1-1.6-6.1c-0.7-4-0.7-8.5,0-12.6
				c0.7-4.1,2.2-7.9,3.9-11.5c1.7-3.6,3.9-6.9,6.3-9.9c2.4-3.1,5.1-5.9,8-8.4c2.9-2.6,6.1-4.9,9.7-6.8c1.8-0.9,3.7-1.8,5.8-2.4
				c2.1-0.6,4.4-1,7.1-0.7c0.7,0.1,1.3,0.2,2,0.5l1,0.3c0.3,0.1,0.6,0.3,1,0.5c0.7,0.3,1.2,0.7,1.7,1.1c0.6,0.4,1,0.9,1.5,1.3
				c1.8,1.8,2.9,3.8,3.8,5.7c0.9,1.9,1.6,3.9,2.1,5.8c0.5,1.9,0.9,3.9,1.2,5.8c0.5,3.9,0.7,7.8,0.4,11.6c-0.2,3.9-0.7,7.7-1.7,11.6
				c-1,3.8-2.4,7.6-4.4,11.2C818.5,727.2,815.9,730.6,812.6,733.4z M805.5,724.7c2.2-1.7,4.1-4,5.8-6.5c1.6-2.6,2.9-5.5,3.9-8.6
				c1.9-6.1,2.7-12.9,2.1-19.3c-0.1-1.6-0.4-3.2-0.8-4.7c-0.4-1.5-0.8-3-1.4-4.3c-0.6-1.3-1.3-2.5-2.1-3.2c-0.2-0.2-0.4-0.4-0.5-0.5
				c-0.2-0.1-0.3-0.3-0.5-0.3c-0.1,0-0.1-0.1-0.2-0.1c-0.1,0-0.2,0-0.3-0.1c-0.1-0.1-0.4-0.1-0.6-0.1c-0.9-0.1-2.2,0-3.5,0.5
				c-1.3,0.4-2.7,1-4.1,1.8c-2.7,1.5-5.3,3.5-7.7,5.8c-2.4,2.3-4.5,4.8-6.4,7.4c-1.9,2.7-3.5,5.5-4.8,8.4c-1.2,2.9-2.1,5.9-2.5,8.9
				c-0.4,3-0.2,5.7,0.4,8.8c0.6,2.9,1.7,5.7,3.1,7.7c1.4,2,3.1,3.1,5,3.5c1,0.3,2.1,0.2,3.3,0.1c1.2-0.1,2.5-0.4,3.9-0.8
				c1.3-0.4,2.7-1,4.1-1.7c0.7-0.4,1.3-0.7,2-1.1c0.3-0.2,0.6-0.4,0.9-0.6L805.5,724.7z"/>
		</g>
	</g>
	<g>
		<path class="st13" d="M706.5,918.7c-0.4,0.5-10.7,12.2-21.4,9.2c-9.8-2.7-13-15.8-13.4-17.5c-5.1-22.1,17.5-50.4,29.3-47.6
			C712.9,865.5,721.2,901.4,706.5,918.7z"/>
		<path class="st14" d="M701,862.7c-1.4-0.3-2.9-0.2-4.5,0.3c8.1,6.8,12.4,31.9,1.5,44.6c-0.4,0.4-8.8,10.1-17.7,7.6
			c-4.8-1.3-7.6-5.6-9.3-9.2c0.1,1.5,0.3,2.9,0.6,4.3c0.4,1.7,3.6,14.7,13.4,17.5c10.7,3,21-8.7,21.4-9.2
			C721.2,901.4,712.9,865.5,701,862.7z"/>
		<g>
			<path class="st0" d="M710.7,922.3l-0.6,0.7l-0.5,0.6c-0.4,0.4-0.7,0.7-1.1,1.1c-0.7,0.7-1.5,1.4-2.3,2.1
				c-1.6,1.3-3.2,2.6-5.1,3.7c-1.9,1.1-3.9,2.1-6.1,2.8c-2.3,0.7-4.7,1.1-7.3,0.9c-2.6-0.1-5.2-0.8-7.5-1.9
				c-0.6-0.3-1.1-0.6-1.7-0.9l-1.5-1.1c-0.5-0.4-1-0.8-1.4-1.2c-0.4-0.4-0.9-0.8-1.3-1.2c-1.7-1.7-2.9-3.6-4-5.4
				c-1.1-1.9-1.9-3.8-2.6-5.8c-1.4-3.8-2.2-8.3-2.2-12.4c0-4.2,0.7-8.2,1.8-12c1.1-3.8,2.6-7.4,4.5-10.9c1.8-3.4,4-6.7,6.4-9.7
				c2.4-3,5.1-5.9,8.3-8.4c1.6-1.2,3.3-2.4,5.3-3.4c2-1,4.2-1.8,6.9-1.9c0.7,0,1.3,0,2.1,0.1l1.1,0.2c0.3,0.1,0.7,0.2,1,0.3
				c0.7,0.2,1.3,0.5,1.9,0.8c0.6,0.3,1.1,0.7,1.7,1c2,1.5,3.5,3.2,4.7,4.9c1.2,1.7,2.2,3.5,3,5.4c0.8,1.8,1.5,3.7,2.1,5.5
				c1.2,3.7,2,7.5,2.5,11.4c0.5,3.8,0.6,7.7,0.3,11.7c-0.3,3.9-1,7.9-2.3,11.8C715.4,915.1,713.5,918.9,710.7,922.3z M702.2,915
				c1.9-2.1,3.4-4.6,4.5-7.5c1.1-2.8,1.9-5.9,2.3-9.1c0.8-6.4,0.4-13.1-1.3-19.4c-0.4-1.6-0.9-3.1-1.6-4.5c-0.6-1.4-1.3-2.8-2.1-4
				c-0.8-1.2-1.7-2.2-2.6-2.8c-0.2-0.1-0.4-0.3-0.6-0.4c-0.2-0.1-0.4-0.2-0.5-0.2c-0.1,0-0.2-0.1-0.2-0.1c-0.1,0-0.2,0-0.3,0
				c-0.2-0.1-0.4,0-0.6,0c-0.9,0-2.1,0.4-3.3,1.1c-1.2,0.6-2.5,1.5-3.7,2.4c-2.4,2-4.6,4.4-6.6,7c-1.9,2.6-3.6,5.5-5,8.4
				c-1.4,3-2.5,6-3.2,9.1c-0.7,3.1-1.1,6.2-0.9,9.2c0.2,3,0.8,5.7,2,8.5c1.1,2.8,2.7,5.3,4.4,7c1.8,1.7,3.6,2.5,5.6,2.5
				c1,0.1,2.1-0.1,3.3-0.4c1.2-0.3,2.4-0.9,3.7-1.5c1.2-0.7,2.5-1.5,3.7-2.4c0.6-0.5,1.2-1,1.7-1.5c0.3-0.3,0.6-0.5,0.8-0.8
				L702.2,915z"/>
		</g>
	</g>
	<g>
		<path class="st13" d="M943.4,788.7c-0.4,0.5-10.4,12.4-21.3,9.6c-9.9-2.6-13.3-15.5-13.7-17.2c-5.5-22,16.6-50.7,28.4-48.2
			C948.9,735.4,957.8,771.2,943.4,788.7z"/>
		<path class="st14" d="M936.9,732.9c-1.4-0.3-2.9-0.1-4.5,0.4c8.2,6.6,13,31.6,2.4,44.6c-0.3,0.4-8.6,10.2-17.6,7.9
			c-4.8-1.2-7.7-5.4-9.4-9c0.1,1.5,0.4,2.9,0.7,4.3c0.4,1.7,3.8,14.7,13.7,17.2c10.8,2.8,20.8-9.1,21.3-9.6
			C957.8,771.2,948.9,735.4,936.9,732.9z"/>
		<g>
			<path class="st0" d="M947.7,792.3l-0.6,0.7l-0.5,0.6c-0.4,0.4-0.7,0.8-1.1,1.1c-0.7,0.7-1.5,1.4-2.2,2.1c-1.5,1.4-3.2,2.7-5,3.8
				c-1.9,1.1-3.8,2.2-6.1,2.9c-2.2,0.7-4.7,1.2-7.3,1.1c-2.6,0-5.2-0.7-7.5-1.8c-0.6-0.3-1.1-0.6-1.7-0.9l-1.6-1
				c-0.5-0.3-1-0.7-1.4-1.1c-0.5-0.4-0.9-0.8-1.3-1.2c-1.7-1.7-3-3.5-4.1-5.4c-1.1-1.9-2-3.8-2.7-5.7c-1.5-3.8-2.3-8.2-2.4-12.3
				c-0.1-4.2,0.6-8.2,1.6-12.1c1-3.8,2.5-7.5,4.3-11c1.8-3.5,3.8-6.7,6.2-9.8c2.3-3.1,5-6,8.2-8.5c1.6-1.3,3.3-2.5,5.2-3.5
				c1.9-1,4.2-1.9,6.8-2c0.7,0,1.3-0.1,2.1,0.1l1.1,0.1c0.4,0.1,0.7,0.2,1,0.3c0.7,0.2,1.3,0.5,1.9,0.8c0.6,0.3,1.1,0.6,1.7,1
				c2.1,1.4,3.5,3.1,4.8,4.9c1.3,1.7,2.3,3.5,3.1,5.3c0.9,1.8,1.6,3.6,2.3,5.5c1.3,3.7,2.2,7.5,2.7,11.3c0.5,3.8,0.8,7.7,0.5,11.7
				c-0.2,3.9-0.9,7.9-2.1,11.8C952.3,785,950.4,788.9,947.7,792.3z M939,785.1c1.8-2.1,3.3-4.7,4.4-7.5c1.1-2.9,1.7-6,2.1-9.1
				c0.7-6.4,0.2-13.1-1.7-19.4c-0.5-1.6-1-3.1-1.7-4.5c-0.6-1.4-1.4-2.8-2.2-4c-0.8-1.2-1.8-2.2-2.6-2.8c-0.2-0.1-0.4-0.3-0.6-0.4
				c-0.2-0.1-0.4-0.2-0.5-0.2c-0.1,0-0.2-0.1-0.2-0.1c-0.1,0-0.2,0-0.3,0c-0.2-0.1-0.4,0-0.6,0c-0.9,0.1-2.1,0.5-3.3,1.1
				c-1.2,0.7-2.5,1.5-3.6,2.5c-2.4,2-4.5,4.5-6.4,7.1c-1.9,2.7-3.5,5.5-4.9,8.5c-1.3,3-2.4,6.1-3.1,9.2c-0.6,3.1-1,6.2-0.7,9.2
				c0.2,3,0.9,5.7,2.1,8.5c1.2,2.8,2.8,5.2,4.6,6.9c1.8,1.7,3.6,2.4,5.6,2.4c1,0.1,2.1-0.2,3.3-0.5c1.2-0.3,2.4-0.9,3.6-1.6
				c1.2-0.7,2.5-1.5,3.6-2.5c0.6-0.5,1.2-1,1.7-1.5c0.3-0.3,0.6-0.5,0.8-0.8L939,785.1z"/>
		</g>
	</g>
	<g>
		<path class="st13" d="M1112.8,750.1c-0.4,0.5-9.1,13.4-20.1,11.8c-10.1-1.5-14.9-14-15.5-15.7c-7.8-21.3,11.1-52.2,23.2-50.9
			C1112.6,696.5,1125.3,731.1,1112.8,750.1z"/>
		<path class="st14" d="M1100.4,695.3c-1.4-0.1-2.9,0.2-4.5,0.8c8.9,5.7,16.3,30.1,7.1,44.1c-0.3,0.5-7.5,11.1-16.6,9.7
			c-4.9-0.7-8.3-4.6-10.3-7.9c0.3,1.4,0.7,2.8,1.2,4.2c0.6,1.6,5.4,14.2,15.5,15.7c11,1.6,19.8-11.2,20.1-11.8
			C1125.3,731.1,1112.6,696.5,1100.4,695.3z"/>
		<g>
			<path class="st0" d="M1117.5,753.2l-0.5,0.8l-0.5,0.7c-0.3,0.4-0.6,0.8-0.9,1.2c-0.6,0.8-1.3,1.6-2,2.4c-1.4,1.5-2.9,3-4.6,4.3
				c-1.7,1.3-3.6,2.6-5.7,3.6c-2.2,0.9-4.6,1.7-7.1,1.8c-2.6,0.2-5.2-0.2-7.6-1c-0.6-0.2-1.2-0.5-1.8-0.7l-1.7-0.9
				c-0.6-0.3-1-0.6-1.5-1c-0.5-0.3-1-0.7-1.4-1.1c-1.9-1.5-3.3-3.2-4.7-4.9c-1.3-1.7-2.4-3.5-3.3-5.4c-1.9-3.6-3.2-7.9-3.7-12
				c-0.5-4.1-0.3-8.2,0.3-12.2c0.6-3.9,1.7-7.7,3.1-11.3c1.4-3.6,3.1-7.1,5.1-10.4c2-3.3,4.4-6.5,7.2-9.3c1.4-1.4,3-2.8,4.8-4
				c1.8-1.2,3.9-2.3,6.6-2.7c0.7-0.1,1.3-0.2,2.1-0.2l1.1,0c0.4,0,0.7,0.1,1.1,0.2c0.7,0.1,1.4,0.3,2,0.6c0.7,0.2,1.2,0.5,1.8,0.8
				c2.2,1.2,3.9,2.8,5.3,4.3c1.4,1.6,2.6,3.2,3.7,4.9c1.1,1.7,2,3.4,2.8,5.2c1.7,3.5,2.9,7.2,3.8,11c0.9,3.8,1.6,7.6,1.8,11.6
				c0.2,3.9,0,8-0.9,12C1121.2,745.5,1119.8,749.5,1117.5,753.2z M1108.1,747c1.6-2.3,2.8-5,3.6-8c0.8-3,1.1-6.1,1.2-9.3
				c0-6.4-1.2-13.1-3.7-19.1c-0.6-1.5-1.3-3-2.1-4.3c-0.8-1.4-1.7-2.6-2.6-3.7c-0.9-1.1-2-2-2.9-2.5c-0.2-0.1-0.5-0.3-0.7-0.3
				c-0.2-0.1-0.4-0.2-0.6-0.2c-0.1,0-0.2,0-0.3-0.1c-0.1,0-0.2,0-0.3,0c-0.2,0-0.4,0-0.6,0.1c-0.9,0.1-2,0.7-3.2,1.5
				c-1.1,0.8-2.3,1.8-3.4,2.9c-2.1,2.3-4,4.9-5.6,7.8c-1.6,2.9-2.9,5.9-3.9,9c-1,3.1-1.8,6.3-2.1,9.4c-0.3,3.2-0.3,6.3,0.2,9.2
				c0.5,3,1.5,5.5,3,8.2c1.5,2.6,3.3,4.9,5.3,6.4c2,1.5,3.8,2,5.8,1.8c1,0,2.1-0.4,3.2-0.8c1.1-0.4,2.3-1.2,3.4-1.9
				c1.2-0.8,2.3-1.8,3.4-2.8c0.5-0.5,1.1-1.1,1.6-1.7c0.2-0.3,0.5-0.6,0.7-0.9L1108.1,747z"/>
		</g>
	</g>
	<g>
		<path class="st13" d="M1072.7,1132.5c-0.5,0.4-12.5,10.3-22.6,5.6c-9.3-4.3-10.3-17.6-10.4-19.4c-1.5-22.7,25.3-46.9,36.6-42.4
			C1087.5,1081,1090,1117.8,1072.7,1132.5z"/>
		<path class="st14" d="M1076.2,1076.4c-1.3-0.5-2.8-0.7-4.5-0.5c6.9,8,7.2,33.4-5.6,44.3c-0.4,0.4-10.3,8.5-18.7,4.7
			c-4.5-2.1-6.6-6.7-7.7-10.5c-0.1,1.5-0.2,2.9-0.1,4.4c0.1,1.7,1.2,15.1,10.4,19.4c10.1,4.7,22.1-5.2,22.6-5.6
			C1090,1117.8,1087.5,1081,1076.2,1076.4z"/>
		<g>
			<path class="st0" d="M1076.3,1136.8l-0.7,0.6l-0.6,0.5c-0.4,0.3-0.8,0.6-1.3,0.9c-0.8,0.6-1.7,1.2-2.6,1.7
				c-1.8,1.1-3.6,2.1-5.6,2.9c-2,0.8-4.2,1.5-6.5,1.8c-2.3,0.3-4.8,0.3-7.4-0.2c-2.5-0.5-5-1.6-7-3.1c-0.5-0.4-1-0.8-1.5-1.2
				l-1.3-1.3c-0.5-0.4-0.8-0.9-1.2-1.4c-0.4-0.5-0.8-0.9-1.1-1.4c-1.4-1.9-2.3-4-3.1-6c-0.8-2-1.3-4.1-1.7-6.1
				c-0.8-4-0.8-8.5-0.2-12.6c0.7-4.1,2-8,3.7-11.6c1.7-3.6,3.8-6.9,6.1-10c2.3-3.1,5-5.9,7.9-8.5c2.9-2.6,6-5,9.6-6.9
				c1.8-1,3.7-1.8,5.8-2.5c2.1-0.6,4.4-1.1,7.1-0.8c0.7,0.1,1.3,0.2,2,0.4l1,0.3c0.3,0.1,0.7,0.3,1,0.5c0.7,0.3,1.2,0.7,1.8,1.1
				c0.6,0.4,1,0.8,1.5,1.3c1.8,1.8,2.9,3.7,3.9,5.6c0.9,1.9,1.6,3.9,2.1,5.8c0.5,1.9,0.9,3.9,1.2,5.8c0.6,3.9,0.8,7.7,0.6,11.6
				c-0.2,3.9-0.6,7.7-1.6,11.6c-0.9,3.8-2.3,7.6-4.2,11.3C1082.1,1130.4,1079.6,1133.9,1076.3,1136.8z M1069,1128.2
				c2.2-1.8,4.1-4,5.7-6.6c1.6-2.6,2.8-5.6,3.7-8.6c1.9-6.1,2.5-12.9,1.8-19.4c-0.2-1.6-0.4-3.2-0.8-4.7c-0.4-1.5-0.9-3-1.5-4.3
				c-0.6-1.3-1.4-2.5-2.1-3.2c-0.2-0.2-0.4-0.4-0.5-0.5c-0.2-0.1-0.3-0.3-0.5-0.3c-0.1,0-0.1-0.1-0.2-0.1c-0.1,0-0.2,0-0.3-0.1
				c-0.1-0.1-0.4-0.1-0.6-0.1c-0.9-0.1-2.2,0.1-3.5,0.5c-1.3,0.4-2.7,1.1-4,1.8c-2.7,1.6-5.3,3.6-7.6,5.9c-2.3,2.3-4.5,4.8-6.3,7.5
				c-1.8,2.7-3.5,5.5-4.7,8.5c-1.2,2.9-2.1,6-2.4,8.9c-0.3,3-0.1,5.7,0.6,8.8c0.7,2.9,1.8,5.7,3.3,7.6c1.5,2,3.1,3,5.1,3.4
				c1,0.3,2.1,0.2,3.3,0.1c1.2-0.1,2.5-0.5,3.9-0.9c1.3-0.5,2.7-1.1,4-1.8c0.7-0.4,1.3-0.7,2-1.2c0.3-0.2,0.6-0.4,0.9-0.6
				L1069,1128.2z"/>
		</g>
	</g>
	<g>
		<path class="st13" d="M909.6,1072.5c-0.4,0.5-9.2,13.3-20.2,11.6c-10.1-1.6-14.7-14.2-15.3-15.8c-7.6-21.4,11.5-52.1,23.6-50.7
			C909.8,1019,922.2,1053.7,909.6,1072.5z"/>
		<path class="st14" d="M897.6,1017.6c-1.4-0.2-2.9,0.1-4.5,0.8c8.8,5.8,16.1,30.2,6.7,44.1c-0.3,0.5-7.6,11-16.7,9.6
			c-4.9-0.8-8.2-4.7-10.3-8c0.3,1.4,0.7,2.9,1.1,4.2c0.6,1.6,5.2,14.2,15.3,15.8c11,1.7,19.8-11.1,20.2-11.6
			C922.2,1053.7,909.8,1019,897.6,1017.6z"/>
		<g>
			<path class="st0" d="M914.2,1075.7l-0.5,0.7l-0.5,0.6c-0.3,0.4-0.6,0.8-0.9,1.2c-0.6,0.8-1.3,1.6-2,2.3c-1.4,1.5-2.9,3-4.6,4.3
				c-1.7,1.3-3.6,2.6-5.8,3.5c-2.2,0.9-4.6,1.6-7.2,1.8c-2.6,0.2-5.2-0.2-7.6-1c-0.6-0.2-1.2-0.5-1.8-0.7l-1.7-0.9
				c-0.6-0.3-1-0.6-1.5-1c-0.5-0.3-1-0.7-1.4-1.1c-1.9-1.5-3.3-3.2-4.6-4.9c-1.3-1.7-2.4-3.6-3.3-5.4c-1.9-3.6-3.1-7.9-3.6-12.1
				c-0.5-4.1-0.2-8.2,0.4-12.2c0.6-3.9,1.8-7.7,3.2-11.3c1.4-3.6,3.2-7.1,5.2-10.4c2-3.3,4.4-6.4,7.3-9.3c1.5-1.4,3-2.8,4.9-4
				c1.8-1.2,4-2.3,6.6-2.7c0.7-0.1,1.3-0.2,2.1-0.2l1.1,0c0.4,0,0.7,0.1,1.1,0.2c0.7,0.1,1.4,0.3,2,0.6c0.7,0.2,1.2,0.5,1.8,0.8
				c2.2,1.2,3.8,2.8,5.3,4.4c1.4,1.6,2.6,3.3,3.6,5c1,1.7,2,3.5,2.8,5.2c1.6,3.6,2.9,7.2,3.8,11c0.9,3.8,1.5,7.6,1.7,11.6
				c0.2,3.9-0.1,8-1,12C918.1,1068,916.6,1072,914.2,1075.7z M904.9,1069.4c1.6-2.3,2.8-5,3.6-7.9c0.8-2.9,1.2-6.1,1.2-9.3
				c0.1-6.4-1.1-13.1-3.6-19.1c-0.6-1.5-1.3-3-2.1-4.3c-0.8-1.4-1.7-2.6-2.6-3.7c-0.9-1.1-2-2-2.9-2.5c-0.2-0.1-0.5-0.3-0.7-0.3
				c-0.2-0.1-0.4-0.2-0.6-0.2c-0.1,0-0.2,0-0.3-0.1c-0.1,0-0.2,0-0.3,0c-0.2,0-0.4,0-0.6,0.1c-0.9,0.1-2.1,0.7-3.2,1.4
				c-1.2,0.8-2.3,1.8-3.4,2.8c-2.1,2.3-4.1,4.9-5.7,7.7c-1.6,2.8-3,5.9-4,9c-1,3.1-1.8,6.3-2.2,9.4c-0.3,3.2-0.3,6.3,0.2,9.2
				c0.5,3,1.5,5.6,2.9,8.3c1.4,2.6,3.3,4.9,5.2,6.4c1.9,1.5,3.8,2,5.8,1.9c1,0,2.1-0.4,3.2-0.8c1.1-0.4,2.3-1.1,3.5-1.9
				c1.2-0.8,2.3-1.8,3.4-2.8c0.5-0.5,1.1-1.1,1.6-1.6c0.2-0.3,0.5-0.6,0.7-0.9L904.9,1069.4z"/>
		</g>
	</g>
	<g>
		<path class="st13" d="M781.8,1134.1c-0.3,0.6-7,14.6-18.2,14.6c-10.2,0-16.8-11.7-17.6-13.2c-10.8-20,3.4-53.2,15.5-53.8
			C773.8,1081.2,791.4,1113.6,781.8,1134.1z"/>
		<path class="st14" d="M761.6,1081.7c-1.4,0.1-2.9,0.6-4.3,1.5c9.6,4.4,20.5,27.4,13.4,42.6c-0.2,0.5-5.8,12.1-15,12.1
			c-5,0-8.9-3.3-11.4-6.3c0.5,1.4,1.1,2.7,1.8,4c0.8,1.5,7.4,13.2,17.6,13.2c11.2,0,17.9-14,18.2-14.6
			C791.4,1113.6,773.8,1081.2,761.6,1081.7z"/>
		<g>
			<path class="st0" d="M787,1136.5l-0.4,0.8l-0.4,0.7c-0.2,0.5-0.5,0.9-0.7,1.4c-0.5,0.9-1.1,1.8-1.6,2.6c-1.2,1.7-2.4,3.4-3.9,5
				c-1.5,1.6-3.2,3.1-5.2,4.4c-2,1.2-4.3,2.3-6.8,2.9c-2.5,0.6-5.2,0.6-7.7,0.1c-0.6-0.1-1.3-0.3-1.9-0.4l-1.8-0.6
				c-0.6-0.2-1.1-0.5-1.7-0.7c-0.5-0.3-1.1-0.5-1.6-0.8c-2.1-1.2-3.8-2.7-5.3-4.2c-1.5-1.5-2.9-3.2-4.1-4.8
				c-2.4-3.3-4.3-7.4-5.4-11.4c-1.1-4-1.5-8.1-1.5-12.1c0-4,0.6-7.9,1.4-11.7c0.8-3.8,2-7.5,3.6-11c1.5-3.6,3.4-7,5.8-10.3
				c1.2-1.6,2.6-3.2,4.2-4.7c1.6-1.4,3.6-2.8,6.1-3.7c0.7-0.2,1.3-0.4,2-0.5l1.1-0.1c0.4,0,0.7,0,1.1,0c0.7,0,1.4,0.1,2.1,0.3
				c0.7,0.1,1.3,0.3,1.9,0.5c2.4,0.9,4.2,2.2,5.9,3.5c1.7,1.4,3.1,2.8,4.4,4.4c1.3,1.5,2.5,3.1,3.6,4.7c2.2,3.3,4,6.7,5.4,10.3
				c1.5,3.6,2.7,7.3,3.4,11.2c0.8,3.9,1.1,7.9,0.9,12C789.6,1128.3,788.7,1132.5,787,1136.5z M776.7,1131.8c1.2-2.5,2-5.4,2.4-8.4
				c0.3-3,0.2-6.2-0.2-9.4c-0.9-6.4-3.1-12.8-6.5-18.3c-0.8-1.4-1.7-2.7-2.7-3.9c-1-1.2-2-2.4-3.1-3.3c-1.1-0.9-2.3-1.7-3.2-2
				c-0.2-0.1-0.5-0.2-0.7-0.2c-0.2,0-0.4-0.1-0.6-0.1c-0.1,0-0.2,0-0.3,0c-0.1,0-0.2,0-0.3,0c-0.2,0-0.4,0.1-0.6,0.1
				c-0.8,0.3-1.9,1-2.9,1.9c-1,0.9-2,2.1-2.9,3.3c-1.8,2.6-3.3,5.5-4.4,8.5c-1.2,3.1-2,6.3-2.6,9.5c-0.5,3.2-0.8,6.5-0.7,9.6
				c0.1,3.2,0.6,6.3,1.6,9.1c1,2.9,2.3,5.3,4.2,7.7c1.8,2.4,4,4.4,6.1,5.5c2.1,1.2,4.1,1.4,6,0.9c1-0.2,2-0.7,3-1.3
				c1.1-0.6,2.1-1.5,3.1-2.4c1-1,2-2.1,2.9-3.3c0.5-0.6,0.9-1.2,1.3-1.9c0.2-0.3,0.4-0.6,0.6-1L776.7,1131.8z"/>
		</g>
	</g>
	<g>
		<path class="st13" d="M901.8,1253.2c-0.2,0.6-4.5,15.5-15.5,17.4c-10.1,1.7-18.5-8.8-19.5-10.2c-14-17.9-5.4-53,6.4-55.6
			C885.1,1202.3,907.8,1231.3,901.8,1253.2z"/>
		<path class="st14" d="M873.1,1204.8c-1.4,0.3-2.7,1.1-4,2.2c10.2,2.7,24.7,23.6,20.3,39.8c-0.1,0.5-3.7,12.9-12.9,14.4
			c-4.9,0.8-9.3-1.8-12.3-4.4c0.7,1.3,1.5,2.5,2.4,3.7c1.1,1.4,9.5,11.8,19.5,10.2c11-1.8,15.4-16.7,15.5-17.4
			C907.8,1231.3,885.1,1202.3,873.1,1204.8z"/>
		<g>
			<path class="st0" d="M907.2,1254.7l-0.3,0.9l-0.2,0.8c-0.2,0.5-0.3,1-0.5,1.5c-0.4,1-0.7,1.9-1.2,2.9c-0.9,1.9-1.8,3.7-3,5.5
				c-1.2,1.8-2.6,3.6-4.4,5.1c-1.8,1.6-3.8,3-6.2,3.9c-2.4,1-5,1.4-7.6,1.4c-0.6,0-1.3-0.1-1.9-0.1l-1.8-0.3
				c-0.6-0.1-1.2-0.3-1.8-0.5c-0.6-0.2-1.2-0.3-1.7-0.6c-2.2-0.8-4.2-2-5.9-3.2c-1.8-1.3-3.4-2.6-4.8-4.1c-2.9-2.8-5.5-6.6-7.2-10.3
				c-1.8-3.8-2.8-7.7-3.4-11.7c-0.6-3.9-0.7-7.9-0.6-11.7c0.2-3.9,0.8-7.7,1.7-11.5c0.9-3.8,2.2-7.5,4-11.1c0.9-1.8,2-3.6,3.4-5.3
				c1.4-1.7,3.1-3.4,5.4-4.6c0.6-0.3,1.2-0.6,1.9-0.8l1-0.3c0.3-0.1,0.7-0.1,1.1-0.2c0.7-0.1,1.4-0.1,2.1-0.1c0.7,0,1.3,0.1,1.9,0.2
				c2.5,0.5,4.5,1.4,6.4,2.5c1.9,1.1,3.5,2.3,5,3.6c1.5,1.3,3,2.7,4.3,4.1c2.7,2.9,5,6,7,9.3c2,3.3,3.8,6.8,5.2,10.5
				c1.4,3.7,2.4,7.6,2.9,11.7C908.4,1246.2,908.2,1250.5,907.2,1254.7z M896.3,1251.7c0.8-2.7,1.1-5.6,1-8.7c-0.2-3-0.8-6.2-1.8-9.2
				c-1.9-6.1-5.2-12.1-9.4-17c-1-1.2-2.2-2.4-3.3-3.4c-1.2-1.1-2.4-2-3.6-2.7c-1.2-0.7-2.5-1.3-3.5-1.5c-0.2,0-0.5-0.1-0.7-0.1
				c-0.2,0-0.4,0-0.6,0c-0.1,0-0.2,0-0.3,0c-0.1,0-0.2,0.1-0.2,0.1c-0.2,0-0.4,0.2-0.6,0.2c-0.8,0.4-1.7,1.3-2.6,2.4
				c-0.9,1.1-1.6,2.4-2.3,3.8c-1.3,2.8-2.3,5.9-3,9.1c-0.7,3.2-1,6.5-1,9.8c0,3.3,0.2,6.5,0.9,9.6c0.7,3.1,1.6,6.1,3.1,8.7
				c1.4,2.7,3.1,4.8,5.4,6.9c2.2,2,4.7,3.7,7,4.5c2.3,0.8,4.3,0.7,6.1-0.1c0.9-0.3,1.8-1,2.8-1.8c0.9-0.8,1.8-1.8,2.7-2.9
				c0.8-1.1,1.6-2.4,2.3-3.7c0.3-0.7,0.7-1.4,1-2.1c0.1-0.3,0.3-0.7,0.4-1L896.3,1251.7z"/>
		</g>
	</g>
	<g>
		<path class="st13" d="M1284.4,846.2c-0.3,0.6-6.7,14.7-17.8,15c-10.2,0.2-17-11.3-17.9-12.8c-11.3-19.7,2.1-53.3,14.2-54.1
			C1275.1,793.4,1293.5,825.4,1284.4,846.2z"/>
		<path class="st14" d="M1262.9,794.3c-1.4,0.1-2.8,0.7-4.3,1.6c9.7,4.1,21.2,26.9,14.5,42.2c-0.2,0.5-5.5,12.2-14.7,12.4
			c-5,0.1-8.9-3.1-11.5-6.1c0.5,1.4,1.1,2.7,1.9,4c0.9,1.5,7.7,13.1,17.9,12.8c11.2-0.3,17.6-14.4,17.8-15
			C1293.5,825.4,1275.1,793.4,1262.9,794.3z"/>
		<g>
			<path class="st0" d="M1289.6,848.4l-0.4,0.8l-0.3,0.7c-0.2,0.5-0.5,0.9-0.7,1.4c-0.5,0.9-1,1.8-1.6,2.7c-1.1,1.7-2.3,3.4-3.8,5.1
				c-1.5,1.6-3.1,3.1-5.1,4.5c-2,1.3-4.2,2.4-6.7,3c-2.5,0.7-5.2,0.7-7.7,0.3c-0.6-0.1-1.3-0.2-1.9-0.4l-1.8-0.6
				c-0.6-0.2-1.1-0.5-1.7-0.7c-0.5-0.3-1.1-0.5-1.6-0.8c-2.1-1.1-3.8-2.6-5.4-4c-1.6-1.5-3-3.1-4.2-4.7c-2.5-3.2-4.5-7.3-5.7-11.2
				c-1.2-4-1.7-8.1-1.7-12c-0.1-4,0.4-7.9,1.1-11.7c0.7-3.8,1.9-7.5,3.3-11.1c1.4-3.6,3.2-7.1,5.5-10.4c1.2-1.7,2.5-3.3,4.1-4.8
				c1.6-1.5,3.5-2.9,6-3.8c0.7-0.2,1.3-0.4,2-0.5l1.1-0.2c0.4,0,0.7,0,1.1,0c0.7,0,1.4,0.1,2.1,0.2c0.7,0.1,1.3,0.3,1.9,0.5
				c2.4,0.8,4.3,2.1,6,3.4c1.7,1.3,3.2,2.7,4.5,4.3c1.3,1.5,2.5,3.1,3.7,4.7c2.2,3.2,4.1,6.6,5.7,10.2c1.6,3.5,2.8,7.2,3.7,11.1
				c0.9,3.8,1.3,7.9,1.2,12C1292,840.2,1291.2,844.4,1289.6,848.4z M1279.2,843.9c1.2-2.5,1.9-5.4,2.2-8.5c0.2-3,0.1-6.2-0.4-9.4
				c-1-6.3-3.4-12.7-6.9-18.2c-0.9-1.4-1.8-2.7-2.8-3.9c-1-1.2-2.1-2.3-3.2-3.2c-1.1-0.9-2.3-1.6-3.3-1.9c-0.2-0.1-0.5-0.2-0.7-0.2
				c-0.2,0-0.4-0.1-0.6-0.1c-0.1,0-0.2,0-0.3,0c-0.1,0-0.2,0-0.3,0c-0.2,0-0.4,0.1-0.6,0.2c-0.8,0.3-1.9,1-2.9,2
				c-1,1-1.9,2.1-2.8,3.4c-1.7,2.6-3.1,5.5-4.2,8.6c-1.1,3.1-1.9,6.3-2.3,9.5c-0.5,3.2-0.7,6.5-0.4,9.7c0.2,3.2,0.8,6.3,1.8,9.1
				c1,2.8,2.4,5.2,4.4,7.6c1.9,2.3,4.1,4.3,6.3,5.4c2.2,1.1,4.1,1.3,6.1,0.8c1-0.2,2-0.7,3-1.4c1-0.6,2.1-1.5,3.1-2.5
				c1-1,2-2.1,2.8-3.4c0.4-0.6,0.9-1.3,1.2-1.9c0.2-0.3,0.4-0.7,0.6-1L1279.2,843.9z"/>
		</g>
	</g>
	<g>
		<path class="st13" d="M1293.3,1059.7c-0.5,0.5-11.3,11.5-21.9,8c-9.7-3.3-12.1-16.5-12.4-18.2c-3.8-22.4,20.3-49.3,32-45.9
			C1302.8,1007,1309,1043.4,1293.3,1059.7z"/>
		<path class="st14" d="M1291,1003.6c-1.4-0.4-2.9-0.4-4.5,0c7.7,7.2,10.6,32.5-1,44.6c-0.4,0.4-9.4,9.5-18.1,6.6
			c-4.7-1.6-7.3-6-8.7-9.7c0,1.5,0.2,2.9,0.4,4.4c0.3,1.7,2.7,14.9,12.4,18.2c10.6,3.6,21.5-7.5,21.9-8
			C1309,1043.4,1302.8,1007,1291,1003.6z"/>
		<g>
			<path class="st0" d="M1297.4,1063.6l-0.6,0.6l-0.6,0.6c-0.4,0.4-0.8,0.7-1.1,1.1c-0.8,0.7-1.6,1.3-2.4,2
				c-1.6,1.3-3.4,2.4-5.3,3.5c-1.9,1-4,1.9-6.3,2.5c-2.3,0.5-4.8,0.8-7.4,0.5c-2.6-0.2-5.1-1.1-7.3-2.3c-0.6-0.3-1.1-0.7-1.6-1
				l-1.5-1.2c-0.5-0.4-0.9-0.8-1.3-1.2c-0.4-0.4-0.9-0.9-1.2-1.3c-1.6-1.8-2.7-3.7-3.7-5.7c-1-1.9-1.7-3.9-2.3-5.9
				c-1.2-3.9-1.7-8.4-1.5-12.5c0.3-4.2,1.2-8.1,2.5-11.9c1.3-3.8,3.1-7.3,5.1-10.6c2-3.3,4.3-6.4,6.9-9.3c2.6-2.9,5.5-5.6,8.8-7.9
				c1.7-1.1,3.5-2.2,5.5-3.1c2-0.8,4.3-1.5,7-1.5c0.7,0,1.3,0,2.1,0.2l1.1,0.2c0.3,0.1,0.7,0.2,1,0.4c0.7,0.2,1.3,0.6,1.9,0.9
				c0.6,0.3,1.1,0.7,1.6,1.1c2,1.6,3.3,3.4,4.4,5.2c1.1,1.8,2,3.7,2.7,5.5c0.7,1.9,1.3,3.7,1.8,5.6c1,3.8,1.6,7.6,1.8,11.5
				c0.2,3.9,0.2,7.8-0.4,11.7c-0.5,3.9-1.5,7.8-3,11.6C1302.5,1056.7,1300.3,1060.4,1297.4,1063.6z M1289.2,1055.8
				c2-2,3.6-4.4,5-7.2c1.3-2.8,2.2-5.8,2.8-9c1.2-6.3,1.1-13.1-0.2-19.4c-0.3-1.6-0.8-3.1-1.3-4.6c-0.5-1.5-1.2-2.9-1.9-4.1
				c-0.7-1.2-1.6-2.3-2.4-3c-0.2-0.1-0.4-0.3-0.6-0.4c-0.2-0.1-0.4-0.2-0.5-0.3c-0.1,0-0.2-0.1-0.2-0.1c-0.1,0-0.2,0-0.3,0
				c-0.1-0.1-0.4,0-0.6-0.1c-0.9,0-2.1,0.3-3.4,0.9c-1.3,0.6-2.6,1.3-3.8,2.2c-2.5,1.9-4.9,4.1-6.9,6.6c-2.1,2.5-3.9,5.3-5.5,8.1
				c-1.6,2.9-2.9,5.9-3.8,8.9c-0.9,3-1.4,6.1-1.4,9.1c0,3,0.5,5.7,1.5,8.6c1,2.8,2.4,5.4,4,7.2c1.7,1.8,3.4,2.7,5.4,2.8
				c1,0.2,2.1,0,3.3-0.2c1.2-0.2,2.5-0.7,3.7-1.3c1.3-0.6,2.6-1.3,3.8-2.2c0.6-0.4,1.2-0.9,1.8-1.4c0.3-0.2,0.6-0.5,0.9-0.7
				L1289.2,1055.8z"/>
		</g>
	</g>
	<g>
		<path class="st13" d="M1125.6,1257.2c-0.6,0.3-14.2,7.8-23.3,1.3c-8.3-5.9-6.9-19.3-6.6-21c2.8-22.5,33.6-41.4,43.8-34.8
			C1149.8,1209.4,1145.4,1246,1125.6,1257.2z"/>
		<path class="st14" d="M1139.5,1202.8c-1.2-0.8-2.7-1.2-4.3-1.3c5.3,9.1,0.9,34.2-13.7,42.5c-0.5,0.3-11.7,6.5-19.2,1.1
			c-4-2.9-5.3-7.9-5.6-11.8c-0.4,1.4-0.7,2.8-0.9,4.3c-0.2,1.7-1.7,15.1,6.6,21c9.1,6.5,22.7-1,23.3-1.3
			C1145.4,1246,1149.8,1209.4,1139.5,1202.8z"/>
		<g>
			<path class="st0" d="M1128.4,1262.1l-0.8,0.4l-0.7,0.4c-0.5,0.2-0.9,0.5-1.4,0.7c-0.9,0.4-1.9,0.8-2.8,1.2
				c-1.9,0.7-3.9,1.4-6.1,1.8c-2.1,0.4-4.4,0.7-6.7,0.6c-2.3-0.1-4.8-0.6-7.2-1.6c-2.4-0.9-4.6-2.5-6.4-4.4
				c-0.4-0.5-0.9-0.9-1.3-1.4l-1.1-1.5c-0.4-0.5-0.6-1-0.9-1.6c-0.3-0.5-0.6-1.1-0.8-1.6c-1-2.2-1.5-4.3-1.9-6.5
				c-0.4-2.1-0.5-4.2-0.5-6.3c0-4.1,0.7-8.5,2.2-12.4c1.4-3.9,3.5-7.5,5.8-10.7c2.3-3.2,5-6.1,7.9-8.7c2.9-2.6,6-4.9,9.3-6.9
				c3.3-2,6.8-3.8,10.7-5c1.9-0.6,4-1.1,6.1-1.4c2.2-0.2,4.5-0.2,7.1,0.6c0.6,0.2,1.3,0.4,1.9,0.8l0.9,0.5c0.3,0.2,0.6,0.4,0.9,0.6
				c0.6,0.4,1.1,0.9,1.5,1.4c0.5,0.5,0.8,1,1.2,1.5c1.4,2.1,2.2,4.2,2.8,6.3c0.6,2.1,0.9,4.1,1,6.1c0.2,2,0.2,4,0.1,5.9
				c-0.1,3.9-0.7,7.8-1.6,11.5c-0.9,3.8-2.1,7.5-3.7,11.1c-1.6,3.6-3.7,7.1-6.2,10.3C1135.3,1257,1132.1,1259.9,1128.4,1262.1z
				 M1122.9,1252.3c2.5-1.3,4.8-3.2,6.8-5.5c2-2.3,3.8-4.9,5.3-7.8c3-5.7,4.8-12.2,5.3-18.7c0.1-1.6,0.2-3.2,0.1-4.8
				c-0.1-1.6-0.3-3.1-0.7-4.5c-0.3-1.4-0.9-2.7-1.5-3.5c-0.2-0.2-0.3-0.5-0.4-0.6c-0.1-0.2-0.3-0.3-0.4-0.4c-0.1,0-0.1-0.1-0.2-0.2
				c-0.1,0-0.2-0.1-0.2-0.1c-0.1-0.1-0.4-0.1-0.6-0.2c-0.9-0.3-2.1-0.3-3.5-0.1c-1.4,0.2-2.8,0.5-4.3,1c-2.9,1.1-5.8,2.6-8.6,4.4
				c-2.7,1.8-5.3,3.9-7.6,6.2c-2.3,2.3-4.4,4.8-6.1,7.5c-1.7,2.7-3.1,5.5-4,8.3c-0.9,2.9-1.2,5.6-1.1,8.7c0.1,3,0.7,5.9,1.8,8.1
				c1.1,2.2,2.5,3.5,4.4,4.3c0.9,0.4,2,0.6,3.2,0.7c1.2,0.1,2.6,0,4-0.2c1.4-0.2,2.8-0.5,4.3-1c0.7-0.2,1.4-0.5,2.1-0.8
				c0.3-0.1,0.7-0.3,1-0.4L1122.9,1252.3z"/>
		</g>
	</g>
	<g>
		<path class="st8" d="M1141.7,1174.2c-41.8,9.8-82.1,25.9-119.2,47.6c-23,13.5-45.2,29.3-71.1,35.9c-21.1,5.4-43.2,4.4-64.9,2.3
			c-37.9-3.6-76.3-10.3-110.1-28c-25.2-13.1-46.9-31.9-68.4-50.5c-46-39.7-92.2-79.6-132-125.5c-8.2-9.4-16.4-19.5-20.8-31.3
			c-4.7-12.5,3.9-18.1,12.6-26.6c16.9-16.3,37-29.3,58.9-38c16.3-6.5,44,11,58.3,18.4c19.8,10.3,38.6,22.7,55.7,37
			c34.4,28.5,62.8,64.4,81.9,104.8c31.6-20.5,77.2-45.1,135.8-61.8c82.6-23.6,154-21,198.1-15.8c9.5,20.1,19,40.2,28.5,60.2"/>
		<path class="st15" d="M1004.6,1363.3c-28.6,4-54.4,9.9-77.2,16.5c-14.3,5.6-46,15.3-81.1,4.3c-8.4-2.6-15.7-6.1-21.9-9.6
			c-17.2-13.7-45-32.6-83.2-45.9c-39.6-13.7-74.2-15.8-96.6-15.5c-40.3-101.3-80.5-202.6-120.8-303.8
			c65.5,13.9,144.9,42.6,216.4,103.1c8.7,7.4,16.9,14.9,24.6,22.4c11.9,7.5,34.4,19.4,65,22.5c21.2,2.2,38.9-0.6,50.8-3.5
			c14-8.1,29.1-15.8,45.3-22.8c103.3-44.9,203.7-41.7,271.6-31.5c-12.6,87.9-25.2,175.8-37.8,263.8
			C1118.5,1357.5,1065.3,1354.7,1004.6,1363.3z"/>
		<path class="st16" d="M1004.6,1363.3c-28.6,4-54.4,9.9-77.2,16.5c-14.3,5.6-46,15.3-81.1,4.3c-8.4-2.6-15.7-6.1-21.9-9.6
			c-17.2-13.7-45-32.6-83.2-45.9c-39.6-13.7-74.2-15.8-96.6-15.5c-28-70.3-60.2-140.4-82.2-212.7c14.3,27.2,28.6,54.3,43,81.5
			c7.3,13.8,14.6,27.7,23.3,40.8c17,25.5,39.2,47.8,66,62.7c15,8.4,31.5,14.4,48.4,17.4c17.5,3.1,39.2,4.7,40.9-18.6
			c2.1-27.7-1.6-57.1-6.5-84.4c10.1,23,19.2,46,29.7,68.9c8.7,19,17.9,38.7,33.9,52.2c4.5,3.8,9.5,7.1,15.3,8.2
			c5.7,1.1,12.2-0.3,16.1-4.7c1.9-2.2,3-4.9,4.1-7.5c7.9-20.3,14.5-46.4,9.4-68c-5.9-25.2-10.3-50.1-10.7-76
			c-0.4-29.7,35.6-31.5,54.3-42c2.7,14.4,5.3,28.9,8,43.3c1.9,10.3,3.8,20.6,6.9,30.6c13.4,42.9,48.8,76.7,90.1,94.5
			c41.2,17.8,87.6,20.7,132.2,15.6c-2,0.2-6.5,44.1-7.1,48.5C1118.5,1357.5,1065.3,1354.7,1004.6,1363.3z"/>
		<path class="st17" d="M1197.5,1099.5c-1,7.3,0.8,24.6-10.5,22.3c-32.3-6.7-65.7-7.1-98.7-5.4c-28.5,1.5-57.1,4.4-84.9,10.8
			c-21.3,4.9-42.1,11.8-62.1,20.6c-19.5,8.6-37,20.9-57.5,26.9c-25.7,7.6-53.3,6.3-78.9-1c-13-3.7-25.5-9-37.2-15.5
			c-12.8-7.1-22.9-16.3-34-25.7c-52.2-44.5-114.1-77.3-180.2-95.6c-3.4-0.9-6.9-1.8-10.3-0.8s-6.2,4.6-5,7.8
			c-2.2-6.1-4-12.6-7.1-18.2c-1.2-2.1-5.9-16.1-7.3-16.3c65.5,13.9,144.9,42.6,216.4,103.1c8.7,7.4,16.9,14.9,24.6,22.4
			c11.9,7.5,34.4,19.4,65,22.5c21.2,2.2,38.9-0.6,50.8-3.5c14-8.1,29.1-15.8,45.3-22.8C1029.1,1086.1,1129.6,1089.3,1197.5,1099.5z"
			/>
		<path class="st3" d="M1004.6,1363.3c-28.6,4-54.4,9.9-77.2,16.5c-14.3,5.6-46,15.3-81.1,4.3c-8.4-2.6-15.7-6.1-21.9-9.6
			c-17.2-13.7-45-32.6-83.2-45.9c-39.6-13.7-74.2-15.8-96.6-15.5c-40.3-101.3-80.5-202.6-120.8-303.8
			c65.5,13.9,144.9,42.6,216.4,103.1c8.7,7.4,16.9,14.9,24.6,22.4c11.9,7.5,34.4,19.4,65,22.5c21.2,2.2,38.9-0.6,50.8-3.5
			c14-8.1,29.1-15.8,45.3-22.8c103.3-44.9,203.7-41.7,271.6-31.5c-12.6,87.9-25.2,175.8-37.8,263.8
			C1118.5,1357.5,1065.3,1354.7,1004.6,1363.3z"/>
		<line class="st18" x1="767.5" y1="1137.3" x2="818" y2="1369.6"/>
		<line class="st18" x1="880.6" y1="1153.8" x2="908.1" y2="1381.2"/>
		<path class="st3" d="M552.2,1015.4c19.5-24.4,45.5-43.6,74.6-55.1c16.3-6.5,44,11,58.3,18.4c19.8,10.3,38.6,22.7,55.7,37
			c34.4,28.5,62.8,64.4,81.9,104.8c30.9-20,74.2-43.4,129.2-59.9c85.2-25.6,159.2-23,204.7-17.7c9.3,18.3,18.6,36.6,27.9,54.9"/>
		<path class="st3" d="M823.9,1116.6c-1.9,5.5-3.7,11.8-5.1,18.9c-1.4,6.9-2.2,13.3-2.6,18.9"/>
	</g>
	<path class="st0" d="M1157.7,1267.6c-3.6-6.6-7.6-12.9-12.3-18.7c-3.6-4.4-7.8-11.4-14.3-11.2c-3.5,0.1-6.9,2.3-8.4,5.4
		c-1.5,3.1-1.3,6.8-0.8,10.2c0.9,6.9,2.7,13.7,5.1,20.2c-12.4-2.3-25.3-2.1-37.6,0.6c-3.6,0.8-7.3,1.9-10.4,4
		c-9.7,6.7-7.4,21.4-1.6,29.8c11.8,17,33.4,24.9,54.1,25.6c7.2,0.3,14.8-0.3,21.1-3.7c10.2-5.5,15.4-17.7,15.3-29.3
		C1167.9,1288.9,1163.2,1277.8,1157.7,1267.6z"/>
	<path class="st0" d="M575.8,1202.5c0.1-0.3,0.1-0.6,0.2-0.9c1.9-9.1,9.1-30.4,21.2-30c3.5,0.1,6.9,2.3,8.4,5.4
		c1.5,3.1,1.3,6.8,0.8,10.2c-0.9,6.9-2.7,13.7-5.1,20.2c7.2-1.4,14.6-1.9,21.9-1.5c6.7,0.3,11.8,0.1,16.4,5.6
		c8.3,10.1,12.8,24,9.6,36.7c-1.1,4.6-3.3,9.1-6.7,12.5c-14.8,14.7-41.1,2.1-52.9-10.4c-10.1-10.7-15.6-25.7-14.8-40.4
		C575,1207.5,575.3,1205,575.8,1202.5z"/>
	<path class="st3" d="M1112.8,1291.7c31,16.8,58.5,24.3,78.2,28.1c30.5,5.8,38.2,1.6,41-0.3c17.2-11.5,18.8-46.3,5.1-88.2"/>
</g>
</svg>
