<svg xmlns="http://www.w3.org/2000/svg" xmlns:xlink="http://www.w3.org/1999/xlink" version="1.1" width="1000" height="1000" viewBox="0 0 1000 1000" xml:space="preserve">
<desc>Created with Fabric.js 3.5.0</desc>
<defs>
</defs>
<rect x="0" y="0" width="100%" height="100%" fill="rgba(255,255,255,0)"/>
<g transform="matrix(-0.9091 0 0 0.9091 500 500)" id="166112">
<g style="" vector-effect="non-scaling-stroke">
		<g transform="matrix(1 0 0 1 -84.9583 460.799)" id="Layer_1">
<path style="stroke: none; stroke-width: 1; stroke-dasharray: none; stroke-linecap: butt; stroke-dashoffset: 0; stroke-linejoin: miter; stroke-miterlimit: 4; is-custom-font: none; font-file-url: none; fill: rgb(65,11,9); fill-rule: nonzero; opacity: 1;" transform=" translate(-915.0417, -1460.799)" d="M 879.3 1469.9 c 6.6 3.3 14.4 3.8 21.8 3.8 c 11.5 0 23 -0.9 34.3 -3.2 c 4.9 -1 9.7 -1.9 14 -4.5 c 2.1 -1.3 7.1 -3.8 6.2 -7 c -0.2 -0.8 -0.9 -1.5 -1.6 -2 c -3.6 -2.6 -8.4 -3.8 -12.7 -4.8 c -5.4 -1.3 -10.9 -2.4 -16.4 -3.2 c -9.4 -1.2 -18.8 -1.1 -28.3 -1.1 c -2.4 0 -4.9 0 -7.2 0.6 c -3.8 0.9 -7.2 3.1 -10 5.8 c -2.6 2.5 -4.8 5.6 -5 9.1 c -0.1 1.2 0.1 2.5 0.9 3.5 c 0.5 0.8 1.4 1.3 2.2 1.8 C 878.1 1469.3 878.7 1469.6 879.3 1469.9 z" stroke-linecap="round"/>
</g>
		<g transform="matrix(1 0 0 1 101.5965 472.3267)" id="Layer_1">
<path style="stroke: none; stroke-width: 1; stroke-dasharray: none; stroke-linecap: butt; stroke-dashoffset: 0; stroke-linejoin: miter; stroke-miterlimit: 4; is-custom-font: none; font-file-url: none; fill: rgb(65,11,9); fill-rule: nonzero; opacity: 1;" transform=" translate(-1101.5965, -1472.3267)" d="M 1119.7 1460.2 c 11.9 6.1 23.9 19.4 20.8 25.4 c -1.7 3.3 -7 3.4 -10.2 3.4 c -10.5 0 -21.2 -2.7 -31.3 -5.3 c -5.9 -1.5 -11.7 -3.1 -17.5 -4.9 c -3.5 -1 -7 -2.1 -10.4 -3.2 c -1.8 -0.6 -3.6 -1.2 -5.5 -1.7 c -1.2 -0.4 -3.3 -0.5 -3.4 -2.1 c -0.1 -1.7 3.4 -3.7 4.6 -4.6 c 3.7 -2.8 7.8 -5.3 12.1 -7.1 c 8 -3.5 16.9 -5.1 25.6 -4.2 C 1109.8 1456.3 1115 1457.8 1119.7 1460.2 z" stroke-linecap="round"/>
</g>
		<g transform="matrix(1 0 0 1 -84.4018 382.9663)" id="Layer_1">
<path style="stroke: rgb(65,11,9); stroke-width: 17.9247; stroke-dasharray: none; stroke-linecap: round; stroke-dashoffset: 0; stroke-linejoin: round; stroke-miterlimit: 10; is-custom-font: none; font-file-url: none; fill: none; fill-rule: nonzero; opacity: 1;" transform=" translate(-915.5982, -1382.9663)" d="M 925.6 1289.2 c -0.6 23 0.6 52.5 7.2 85.9 c 6.7 34.1 17.1 62.2 26.6 83.5 c -2.5 -0.8 -53.3 -17.5 -73.2 -9.3 c -2.9 1.2 -9.1 3.7 -12.3 9.9 c -2.5 4.9 -2.6 11 -1.2 13.7 c 3.4 6.3 22.5 6.9 86.7 -14.4" stroke-linecap="round"/>
</g>
		<g transform="matrix(1 0 0 1 100.9476 389.8104)" id="Layer_1">
<path style="stroke: rgb(65,11,9); stroke-width: 17.9247; stroke-dasharray: none; stroke-linecap: round; stroke-dashoffset: 0; stroke-linejoin: round; stroke-miterlimit: 10; is-custom-font: none; font-file-url: none; fill: none; fill-rule: nonzero; opacity: 1;" transform=" translate(-1100.9476, -1389.8105)" d="M 1062.5 1290.7 c 12.4 28.2 15.5 59.8 13.7 90.5 c -1.9 30.8 -8.6 61 -15.3 91 c 17.1 -16.8 40.8 -21.3 58.8 -12.1 c 11.9 6.1 23.9 19.4 20.8 25.4 c -2.8 5.3 -18.5 6.8 -79.6 -13.3" stroke-linecap="round"/>
</g>
		<g transform="matrix(1 0 0 1 142.032 -320.8864)" id="Layer_1">
<path style="stroke: none; stroke-width: 1; stroke-dasharray: none; stroke-linecap: butt; stroke-dashoffset: 0; stroke-linejoin: miter; stroke-miterlimit: 4; is-custom-font: none; font-file-url: none; fill: rgb(99,192,112); fill-rule: nonzero; opacity: 1;" transform=" translate(-1142.032, -679.1135)" d="M 1439.8 772.3 c -24.3 -7 -47.3 -26.5 -73.6 -24.9 c -0.6 0 -1.2 0.1 -1.6 -0.3 c -1 -0.7 -0.4 -2.2 0.1 -3.2 c 0.8 -1.4 1.4 -2.8 2 -4.1 c 20.1 -18.1 29.8 -39 33.1 -46.2 c 2.8 -6.1 4.7 -11.4 5.8 -14.9 c -10.2 4.7 -21.9 4.1 -33 3 c -14.1 -1.3 -26.2 -2.6 -50.3 -7.1 c -17.5 -3.3 -21.8 -4.8 -31.6 -5 c -1.8 0 -3.5 0 -5.2 0 c -6.7 -0.9 -13.5 -1.6 -20.3 -2.5 c 11.3 -16.9 18.9 -36.3 24 -56 c 2.3 -8.9 4.1 -18.2 2.6 -27.3 c -17.4 8.4 -36.3 13.6 -55.6 15 c -12.8 1 -25.6 0.3 -38.5 0.2 c -12.4 -0.2 -24.9 0.2 -37.3 1.4 c 3.3 -6.4 6.9 -12.7 11.1 -18.8 c 10.2 -14.4 21.1 -28.3 32.8 -41.6 c 0.4 -0.5 0.8 -1 0.8 -1.6 c 0 -0.5 -0.3 -1 -0.5 -1.5 c -7.1 -11.5 -18.1 -20.6 -30.8 -25.2 c -1.8 -0.6 -3.6 -1.2 -5.5 -1 c -3.5 0.5 -6 3.6 -8 6.5 c -5.7 8.2 -11.4 16.5 -16.4 25.1 c -8.2 14.2 -14.6 29.5 -19 45.3 c -2.1 7.4 -4 14.3 -6.5 21.5 c -17.7 6.3 -34.3 15.9 -47.2 29.6 c -6.7 -15.6 -16.5 -29.9 -28.7 -41.8 c -11.3 -11 -24.4 -19.8 -35.9 -30.5 c -8 -7.5 -15.1 -15.9 -21.8 -24.5 c -3.4 -4.5 -12.1 -21.9 -18.4 -20.6 c -1.6 0.3 -2.9 1.4 -4.1 2.5 c -22.5 20.4 -34.6 51.3 -33.1 81.6 c -0.5 -0.1 -0.9 -0.3 -1.3 -0.4 c -13.1 -3.6 -24.1 -11.5 -37 -16.4 c -14.9 -5.7 -21.8 -6.3 -34.4 -11.3 c -10.8 -4.3 -25.8 -11.8 -42.2 -26.1 c -3.1 13 -3.5 24.3 -2.9 33.5 c 4.4 61 60.6 97.7 70.8 104.2 l 465.2 156.5 c 10.2 2 37.3 6 67 -7.2 c 40 -17.8 55.3 -53.5 58.5 -61.4 C 1458.6 776.9 1447.4 774.4 1439.8 772.3 z" stroke-linecap="round"/>
</g>
		<g transform="matrix(1 0 0 1 134.1 -298.7169)" id="Layer_1">
<path style="stroke: none; stroke-width: 1; stroke-dasharray: none; stroke-linecap: butt; stroke-dashoffset: 0; stroke-linejoin: miter; stroke-miterlimit: 4; is-custom-font: none; font-file-url: none; fill: rgb(23,125,89); fill-rule: nonzero; opacity: 0.74;" transform=" translate(-1134.1, -701.2831)" d="M 1445.2 811.1 c -41.2 5.8 -84.4 -2.9 -120 -24.5 c -6.7 -4 -14 -11.8 -10 -18.5 c 1.8 -3 5.2 -4.4 8.4 -5.7 c 32.6 -13.8 60.4 -38.7 77.7 -69.6 c -29.4 17.6 -61 32.3 -94.7 38.4 s -69.8 2.8 -99.9 -13.6 c 29.1 -23.5 53.8 -52.5 72.3 -84.9 c -43 49.7 -123.1 62.2 -179.2 27.9 c -3.1 -1.9 -6.1 -3.9 -8 -7 c -5.6 -9 1.7 -20.3 8.6 -28.3 c -11.3 9.1 -22.6 18.3 -33.9 27.4 c -2.9 2.3 -5.8 4.7 -9.3 6.1 c -5.6 2.2 -12 1.6 -17.9 0.5 c -50.1 -9.6 -91.5 -54 -97.5 -104.6 c -11.5 27.8 -14.2 59.2 -7.6 88.5 c 0.5 2.2 1 4.8 -0.5 6.5 c -1.3 1.5 -3.5 1.7 -5.4 1.8 c -44.3 1.3 -88.7 -20.1 -115.3 -55.6 c 7.6 25.1 16.5 45.8 35 65.2 c 8.6 9 22 24 34.3 28.1 c 0.1 0 465.2 156.5 465.2 156.5 c 10.2 2 37.3 6 67 -7.2 c 14.3 -6.3 29.6 -17.9 40.7 -28.9 C 1452 810.1 1448.6 810.6 1445.2 811.1 z" stroke-linecap="round"/>
</g>
		<g transform="matrix(1 0 0 1 58.8662 20.81)" id="Layer_1">
<path style="stroke: none; stroke-width: 1; stroke-dasharray: none; stroke-linecap: butt; stroke-dashoffset: 0; stroke-linejoin: miter; stroke-miterlimit: 4; is-custom-font: none; font-file-url: none; fill: rgb(254,65,83); fill-rule: nonzero; opacity: 1;" transform=" translate(-1058.8662, -1020.81)" d="M 898.9 682.8 c -27.7 9.1 -53.2 24.3 -75.8 47.4 c -101.1 103.6 -94.5 269.8 -54.3 398.6 c 20.9 66.7 52.6 130.2 96.1 185.1 c 108.4 136.8 282.7 -9.8 366.8 -98.6 c 28.6 -30.2 54.9 -62.6 78.7 -96.7 c 38.3 -54.8 72 -119.5 65 -188.4 c -13.1 -129.2 -139.7 -203.8 -253.2 -235.5 c -37.2 -10.4 -75.7 -16.9 -114.1 -20.9 C 969.8 669.8 932.8 671.7 898.9 682.8 z" stroke-linecap="round"/>
</g>
		<g transform="matrix(1 0 0 1 136.3137 30.2084)" id="Layer_1">
<path style="stroke: none; stroke-width: 1; stroke-dasharray: none; stroke-linecap: butt; stroke-dashoffset: 0; stroke-linejoin: miter; stroke-miterlimit: 4; is-custom-font: none; font-file-url: none; fill: rgb(211,11,47); fill-rule: nonzero; opacity: 0.74;" transform=" translate(-1136.3137, -1030.2084)" d="M 1375.5 930.2 c -13.1 -129.2 -139.7 -203.8 -253.2 -235.5 c -5 -1.4 -10 -2.7 -15.1 -4 c 93.7 39 180.9 108.3 191.7 214.3 c 7 68.9 -26.7 133.6 -65 188.4 c -23.9 34.1 -50.1 66.5 -78.7 96.7 c -59.5 62.9 -164.4 154.8 -259 154.4 c 108.3 79.9 259.2 -48.5 335.6 -129.2 c 28.6 -30.2 54.9 -62.6 78.7 -96.7 C 1348.8 1063.8 1382.5 999.1 1375.5 930.2 z" stroke-linecap="round"/>
</g>
		<g transform="matrix(1 0 0 1 -91.8212 -244.5925)" id="Layer_1">
<path style="stroke: none; stroke-width: 1; stroke-dasharray: none; stroke-linecap: butt; stroke-dashoffset: 0; stroke-linejoin: miter; stroke-miterlimit: 4; is-custom-font: none; font-file-url: none; fill: rgb(255,207,99); fill-rule: nonzero; opacity: 1;" transform=" translate(-908.1788, -755.4075)" d="M 913.5 781.1 c -0.6 0.3 -14.1 7.7 -23.1 1.2 c -8.2 -5.9 -6.7 -19.1 -6.5 -20.8 c 2.8 -22.3 33.4 -40.9 43.5 -34.3 C 937.6 733.9 933.1 770.1 913.5 781.1 z" stroke-linecap="round"/>
</g>
		<g transform="matrix(1 0 0 1 -91.8071 -244.64)" id="Layer_1">
<path style="stroke: none; stroke-width: 1; stroke-dasharray: none; stroke-linecap: butt; stroke-dashoffset: 0; stroke-linejoin: miter; stroke-miterlimit: 4; is-custom-font: none; font-file-url: none; fill: rgb(255,176,74); fill-rule: nonzero; opacity: 1;" transform=" translate(-908.1928, -755.36)" d="M 927.5 727.2 c -1.2 -0.8 -2.6 -1.2 -4.3 -1.3 c 5.2 9.1 0.7 33.9 -13.8 42 c -0.5 0.3 -11.6 6.4 -19.1 1 c -4 -2.9 -5.2 -7.8 -5.5 -11.7 c -0.4 1.4 -0.7 2.8 -0.9 4.2 c -0.2 1.7 -1.7 14.9 6.5 20.8 c 9 6.4 22.5 -0.9 23.1 -1.2 C 933.1 770.1 937.6 733.9 927.5 727.2 z" stroke-linecap="round"/>
</g>
		<g transform="matrix(1 0 0 1 -92.4172 -243.6237)" id="Layer_1">
<path style="stroke: none; stroke-width: 1; stroke-dasharray: none; stroke-linecap: butt; stroke-dashoffset: 0; stroke-linejoin: miter; stroke-miterlimit: 4; is-custom-font: none; font-file-url: none; fill: rgb(65,11,9); fill-rule: nonzero; opacity: 1;" transform=" translate(-907.5828, -756.3763)" d="M 916.3 786 l -0.8 0.4 l -0.7 0.4 c -0.5 0.2 -0.9 0.5 -1.4 0.7 c -0.9 0.4 -1.9 0.8 -2.8 1.2 c -1.9 0.7 -3.9 1.3 -6 1.8 c -2.1 0.4 -4.3 0.7 -6.7 0.5 c -2.3 -0.1 -4.8 -0.6 -7.1 -1.6 c -2.4 -0.9 -4.5 -2.5 -6.3 -4.3 c -0.4 -0.5 -0.8 -0.9 -1.3 -1.4 l -1.1 -1.5 c -0.4 -0.5 -0.6 -1 -0.9 -1.6 c -0.3 -0.5 -0.6 -1.1 -0.8 -1.6 c -1 -2.1 -1.5 -4.3 -1.9 -6.4 c -0.4 -2.1 -0.5 -4.2 -0.5 -6.3 c 0 -4 0.8 -8.4 2.2 -12.3 c 1.4 -3.9 3.5 -7.4 5.8 -10.6 c 2.3 -3.2 5 -6 7.9 -8.6 c 2.9 -2.6 6 -4.9 9.3 -6.8 c 3.3 -2 6.8 -3.7 10.6 -4.9 c 1.9 -0.6 3.9 -1.1 6.1 -1.3 c 2.2 -0.2 4.5 -0.2 7 0.6 c 0.6 0.2 1.3 0.4 1.9 0.8 l 0.9 0.5 c 0.3 0.2 0.6 0.4 0.9 0.6 c 0.6 0.4 1.1 0.9 1.5 1.4 c 0.5 0.5 0.8 1 1.2 1.5 c 1.4 2.1 2.2 4.2 2.7 6.2 c 0.6 2 0.9 4.1 1 6 c 0.2 2 0.2 3.9 0.1 5.9 c -0.1 3.9 -0.7 7.7 -1.6 11.4 c -0.9 3.7 -2.1 7.4 -3.7 11 c -1.6 3.6 -3.6 7 -6.2 10.2 C 923.1 780.9 920 783.8 916.3 786 z M 910.8 776.3 c 2.5 -1.3 4.7 -3.2 6.8 -5.4 c 2 -2.3 3.7 -4.9 5.2 -7.7 c 3 -5.6 4.8 -12.1 5.4 -18.5 c 0.1 -1.6 0.2 -3.2 0.1 -4.7 c -0.1 -1.6 -0.3 -3.1 -0.6 -4.5 c -0.3 -1.4 -0.9 -2.6 -1.4 -3.5 c -0.2 -0.2 -0.3 -0.4 -0.4 -0.6 c -0.1 -0.2 -0.3 -0.3 -0.4 -0.4 c -0.1 0 -0.1 -0.1 -0.2 -0.2 c -0.1 0 -0.2 -0.1 -0.2 -0.1 c -0.1 -0.1 -0.4 -0.1 -0.6 -0.2 c -0.8 -0.3 -2.1 -0.3 -3.5 -0.2 c -1.4 0.2 -2.8 0.5 -4.3 1 c -2.9 1 -5.8 2.5 -8.5 4.3 c -2.7 1.8 -5.2 3.9 -7.5 6.1 c -2.3 2.3 -4.4 4.7 -6.1 7.4 c -1.7 2.6 -3.1 5.4 -4 8.2 c -0.9 2.9 -1.2 5.6 -1.1 8.6 c 0.1 3 0.7 5.8 1.7 8 c 1.1 2.2 2.5 3.5 4.3 4.2 c 0.9 0.4 2 0.6 3.2 0.7 c 1.2 0.1 2.5 0 3.9 -0.1 c 1.4 -0.2 2.8 -0.5 4.3 -1 c 0.7 -0.2 1.4 -0.5 2.1 -0.8 c 0.3 -0.1 0.7 -0.3 1 -0.4 L 910.8 776.3 z" stroke-linecap="round"/>
</g>
		<g transform="matrix(1 0 0 1 -112.6583 230.7961)" id="Layer_1">
<path style="stroke: none; stroke-width: 1; stroke-dasharray: none; stroke-linecap: butt; stroke-dashoffset: 0; stroke-linejoin: miter; stroke-miterlimit: 4; is-custom-font: none; font-file-url: none; fill: rgb(255,207,99); fill-rule: nonzero; opacity: 1;" transform=" translate(-887.3417, -1230.7961)" d="M 905.8 1249.3 c -0.3 0.6 -6.8 14.5 -17.8 14.7 c -10.1 0.1 -16.8 -11.4 -17.6 -12.9 c -11 -19.6 2.6 -52.8 14.6 -53.5 C 897.1 1197 915 1228.8 905.8 1249.3 z" stroke-linecap="round"/>
</g>
		<g transform="matrix(1 0 0 1 -111.5325 230.8946)" id="Layer_1">
<path style="stroke: none; stroke-width: 1; stroke-dasharray: none; stroke-linecap: butt; stroke-dashoffset: 0; stroke-linejoin: miter; stroke-miterlimit: 4; is-custom-font: none; font-file-url: none; fill: rgb(255,176,74); fill-rule: nonzero; opacity: 1;" transform=" translate(-888.4675, -1230.8946)" d="M 885 1197.7 c -1.4 0.1 -2.8 0.6 -4.2 1.5 c 9.6 4.2 20.7 26.8 13.9 42 c -0.2 0.5 -5.6 12 -14.7 12.2 c -4.9 0.1 -8.8 -3.2 -11.4 -6.1 c 0.5 1.4 1.1 2.7 1.8 3.9 c 0.8 1.5 7.5 13 17.6 12.9 c 11.1 -0.2 17.5 -14.1 17.8 -14.7 C 915 1228.8 897.1 1197 885 1197.7 z" stroke-linecap="round"/>
</g>
		<g transform="matrix(1 0 0 1 -112.6924 231.6101)" id="Layer_1">
<path style="stroke: none; stroke-width: 1; stroke-dasharray: none; stroke-linecap: butt; stroke-dashoffset: 0; stroke-linejoin: miter; stroke-miterlimit: 4; is-custom-font: none; font-file-url: none; fill: rgb(65,11,9); fill-rule: nonzero; opacity: 1;" transform=" translate(-887.3076, -1231.6101)" d="M 910.8 1251.6 l -0.4 0.8 l -0.4 0.7 c -0.2 0.5 -0.5 0.9 -0.7 1.4 c -0.5 0.9 -1 1.8 -1.6 2.6 c -1.1 1.7 -2.4 3.4 -3.8 5 c -1.5 1.6 -3.1 3.1 -5 4.4 c -2 1.3 -4.2 2.4 -6.7 2.9 c -2.5 0.6 -5.1 0.7 -7.6 0.2 c -0.6 -0.1 -1.2 -0.3 -1.9 -0.4 l -1.8 -0.6 c -0.6 -0.2 -1.1 -0.5 -1.7 -0.7 c -0.5 -0.3 -1.1 -0.5 -1.6 -0.8 c -2.1 -1.1 -3.8 -2.6 -5.3 -4.1 c -1.6 -1.5 -2.9 -3.1 -4.1 -4.7 c -2.4 -3.2 -4.4 -7.2 -5.5 -11.2 c -1.1 -4 -1.6 -8 -1.6 -11.9 c 0 -3.9 0.4 -7.8 1.2 -11.6 c 0.8 -3.8 1.9 -7.4 3.4 -11 c 1.4 -3.6 3.3 -7 5.6 -10.3 c 1.2 -1.6 2.5 -3.2 4.1 -4.7 c 1.6 -1.5 3.5 -2.9 6 -3.7 c 0.7 -0.2 1.3 -0.4 2 -0.5 l 1.1 -0.1 c 0.4 0 0.7 0 1.1 0 c 0.7 0 1.4 0.1 2 0.2 c 0.7 0.1 1.3 0.3 1.9 0.5 c 2.4 0.8 4.2 2.1 5.9 3.4 c 1.7 1.3 3.1 2.8 4.4 4.3 c 1.3 1.5 2.5 3.1 3.6 4.7 c 2.2 3.2 4 6.6 5.5 10.1 c 1.5 3.5 2.7 7.2 3.5 11 c 0.8 3.8 1.2 7.8 1.1 11.9 C 913.3 1243.4 912.5 1247.6 910.8 1251.6 z M 900.7 1247 c 1.2 -2.5 1.9 -5.4 2.2 -8.4 c 0.3 -3 0.1 -6.2 -0.3 -9.3 c -1 -6.3 -3.3 -12.6 -6.7 -18.1 c -0.8 -1.4 -1.7 -2.7 -2.8 -3.9 c -1 -1.2 -2.1 -2.3 -3.2 -3.2 c -1.1 -0.9 -2.3 -1.6 -3.2 -2 c -0.2 -0.1 -0.5 -0.2 -0.7 -0.2 c -0.2 0 -0.4 -0.1 -0.6 -0.1 c -0.1 0 -0.2 0 -0.3 0 c -0.1 0 -0.2 0 -0.3 0 c -0.2 0 -0.4 0.1 -0.6 0.2 c -0.8 0.3 -1.9 1 -2.9 1.9 c -1 0.9 -1.9 2.1 -2.8 3.3 c -1.7 2.6 -3.2 5.5 -4.3 8.5 c -1.1 3 -1.9 6.2 -2.4 9.4 c -0.5 3.2 -0.7 6.4 -0.5 9.6 c 0.2 3.1 0.7 6.2 1.7 9 c 1 2.8 2.3 5.2 4.3 7.6 c 1.8 2.3 4 4.3 6.2 5.4 c 2.1 1.1 4.1 1.4 6 0.8 c 1 -0.2 2 -0.7 3 -1.3 c 1 -0.6 2.1 -1.5 3.1 -2.4 c 1 -1 2 -2.1 2.8 -3.3 c 0.4 -0.6 0.9 -1.2 1.3 -1.9 c 0.2 -0.3 0.4 -0.6 0.6 -1 L 900.7 1247 z" stroke-linecap="round"/>
</g>
		<g transform="matrix(1 0 0 1 136.0814 -201.538)" id="Layer_1">
<path style="stroke: none; stroke-width: 1; stroke-dasharray: none; stroke-linecap: butt; stroke-dashoffset: 0; stroke-linejoin: miter; stroke-miterlimit: 4; is-custom-font: none; font-file-url: none; fill: rgb(255,207,99); fill-rule: nonzero; opacity: 1;" transform=" translate(-1136.0815, -798.462)" d="M 1148.8 822.1 c -0.4 0.5 -11.2 11.5 -21.7 8 c -9.6 -3.2 -12.1 -16.3 -12.4 -18 c -3.9 -22.2 19.9 -48.9 31.4 -45.7 C 1157.8 769.8 1164.2 805.7 1148.8 822.1 z" stroke-linecap="round"/>
</g>
		<g transform="matrix(1 0 0 1 136.1584 -201.5887)" id="Layer_1">
<path style="stroke: none; stroke-width: 1; stroke-dasharray: none; stroke-linecap: butt; stroke-dashoffset: 0; stroke-linejoin: miter; stroke-miterlimit: 4; is-custom-font: none; font-file-url: none; fill: rgb(255,176,74); fill-rule: nonzero; opacity: 1;" transform=" translate(-1136.1584, -798.4113)" d="M 1146.2 766.4 c -1.4 -0.4 -2.9 -0.3 -4.5 0 c 7.7 7.1 10.7 32.1 -0.7 44.2 c -0.4 0.4 -9.2 9.5 -17.9 6.6 c -4.7 -1.6 -7.3 -5.9 -8.7 -9.5 c 0 1.5 0.2 2.9 0.4 4.3 c 0.3 1.7 2.8 14.8 12.4 18 c 10.5 3.5 21.2 -7.5 21.7 -8 C 1164.2 805.7 1157.8 769.8 1146.2 766.4 z" stroke-linecap="round"/>
</g>
		<g transform="matrix(1 0 0 1 135.7961 -200.5483)" id="Layer_1">
<path style="stroke: none; stroke-width: 1; stroke-dasharray: none; stroke-linecap: butt; stroke-dashoffset: 0; stroke-linejoin: miter; stroke-miterlimit: 4; is-custom-font: none; font-file-url: none; fill: rgb(65,11,9); fill-rule: nonzero; opacity: 1;" transform=" translate(-1135.7961, -799.4517)" d="M 1152.8 825.9 l -0.6 0.6 l -0.6 0.6 c -0.4 0.4 -0.8 0.7 -1.1 1.1 c -0.8 0.7 -1.5 1.3 -2.4 2 c -1.6 1.2 -3.3 2.4 -5.2 3.5 c -1.9 1 -3.9 1.9 -6.2 2.5 c -2.3 0.5 -4.7 0.9 -7.3 0.6 c -2.5 -0.2 -5.1 -1.1 -7.3 -2.3 c -0.5 -0.3 -1.1 -0.6 -1.6 -1 l -1.5 -1.1 c -0.5 -0.4 -0.9 -0.8 -1.3 -1.2 c -0.4 -0.4 -0.9 -0.8 -1.2 -1.3 c -1.6 -1.8 -2.7 -3.7 -3.7 -5.6 c -1 -1.9 -1.7 -3.9 -2.3 -5.8 c -1.2 -3.8 -1.8 -8.3 -1.5 -12.4 c 0.2 -4.1 1.1 -8.1 2.4 -11.8 c 1.3 -3.7 3 -7.2 5 -10.5 c 2 -3.3 4.3 -6.4 6.8 -9.3 c 2.5 -2.9 5.4 -5.5 8.7 -7.9 c 1.7 -1.1 3.4 -2.2 5.4 -3.1 c 2 -0.8 4.2 -1.5 6.9 -1.5 c 0.7 0 1.3 0 2 0.2 l 1 0.2 c 0.3 0.1 0.7 0.2 1 0.3 c 0.7 0.2 1.3 0.6 1.9 0.9 c 0.6 0.3 1.1 0.7 1.6 1.1 c 2 1.6 3.3 3.4 4.4 5.1 c 1.1 1.8 2 3.6 2.7 5.5 c 0.7 1.8 1.3 3.7 1.8 5.6 c 1 3.7 1.6 7.5 1.9 11.4 c 0.3 3.8 0.2 7.7 -0.3 11.6 c -0.5 3.9 -1.4 7.8 -2.9 11.5 C 1157.8 819 1155.7 822.7 1152.8 825.9 z M 1144.7 818.2 c 2 -2 3.6 -4.4 4.9 -7.1 c 1.2 -2.8 2.1 -5.8 2.7 -8.9 c 1.2 -6.3 1.1 -13 -0.3 -19.2 c -0.3 -1.6 -0.8 -3.1 -1.3 -4.6 c -0.5 -1.5 -1.2 -2.8 -1.9 -4.1 c -0.7 -1.2 -1.6 -2.3 -2.4 -2.9 c -0.2 -0.1 -0.4 -0.3 -0.6 -0.4 c -0.2 -0.1 -0.4 -0.2 -0.5 -0.3 c -0.1 0 -0.2 -0.1 -0.2 -0.1 c -0.1 0 -0.2 0 -0.3 0 c -0.1 -0.1 -0.4 0 -0.6 0 c -0.9 0 -2.1 0.3 -3.4 0.9 c -1.3 0.6 -2.5 1.3 -3.8 2.2 c -2.5 1.8 -4.8 4.1 -6.8 6.6 c -2.1 2.5 -3.9 5.2 -5.4 8.1 c -1.5 2.9 -2.8 5.8 -3.7 8.8 c -0.9 3 -1.4 6.1 -1.4 9 c 0 3 0.5 5.7 1.5 8.6 c 1 2.8 2.4 5.4 4 7.1 c 1.7 1.8 3.4 2.6 5.4 2.8 c 1 0.1 2.1 0 3.3 -0.3 c 1.2 -0.2 2.4 -0.7 3.7 -1.3 c 1.3 -0.6 2.5 -1.3 3.8 -2.2 c 0.6 -0.4 1.2 -0.9 1.8 -1.4 c 0.3 -0.2 0.6 -0.5 0.9 -0.7 L 1144.7 818.2 z" stroke-linecap="round"/>
</g>
		<g transform="matrix(1 0 0 1 34.3968 62.562)" id="Layer_1">
<path style="stroke: none; stroke-width: 1; stroke-dasharray: none; stroke-linecap: butt; stroke-dashoffset: 0; stroke-linejoin: miter; stroke-miterlimit: 4; is-custom-font: none; font-file-url: none; fill: rgb(255,207,99); fill-rule: nonzero; opacity: 1;" transform=" translate(-1034.3968, -1062.562)" d="M 1047.1 1086.2 c -0.4 0.5 -11.2 11.5 -21.7 8 c -9.6 -3.2 -12.1 -16.3 -12.4 -18 c -3.9 -22.2 19.9 -48.9 31.4 -45.7 C 1056.2 1033.9 1062.5 1069.9 1047.1 1086.2 z" stroke-linecap="round"/>
</g>
		<g transform="matrix(1 0 0 1 34.4738 62.6113)" id="Layer_1">
<path style="stroke: none; stroke-width: 1; stroke-dasharray: none; stroke-linecap: butt; stroke-dashoffset: 0; stroke-linejoin: miter; stroke-miterlimit: 4; is-custom-font: none; font-file-url: none; fill: rgb(255,176,74); fill-rule: nonzero; opacity: 1;" transform=" translate(-1034.4738, -1062.6113)" d="M 1044.5 1030.6 c -1.4 -0.4 -2.9 -0.3 -4.5 0 c 7.7 7.1 10.7 32.1 -0.7 44.2 c -0.4 0.4 -9.2 9.5 -17.9 6.6 c -4.7 -1.6 -7.3 -5.9 -8.7 -9.5 c 0 1.5 0.2 2.9 0.4 4.3 c 0.3 1.7 2.8 14.8 12.4 18 c 10.5 3.5 21.2 -7.5 21.7 -8 C 1062.5 1069.9 1056.2 1033.9 1044.5 1030.6 z" stroke-linecap="round"/>
</g>
		<g transform="matrix(1 0 0 1 34.0961 63.6517)" id="Layer_1">
<path style="stroke: none; stroke-width: 1; stroke-dasharray: none; stroke-linecap: butt; stroke-dashoffset: 0; stroke-linejoin: miter; stroke-miterlimit: 4; is-custom-font: none; font-file-url: none; fill: rgb(65,11,9); fill-rule: nonzero; opacity: 1;" transform=" translate(-1034.0961, -1063.6517)" d="M 1051.1 1090.1 l -0.6 0.6 l -0.6 0.6 c -0.4 0.4 -0.8 0.7 -1.1 1.1 c -0.8 0.7 -1.5 1.3 -2.4 2 c -1.6 1.2 -3.3 2.4 -5.2 3.5 c -1.9 1 -3.9 1.9 -6.2 2.5 c -2.3 0.5 -4.7 0.9 -7.3 0.6 c -2.5 -0.2 -5.1 -1.1 -7.3 -2.3 c -0.5 -0.3 -1.1 -0.6 -1.6 -1 l -1.5 -1.1 c -0.5 -0.4 -0.9 -0.8 -1.3 -1.2 c -0.4 -0.4 -0.9 -0.8 -1.2 -1.3 c -1.6 -1.8 -2.7 -3.7 -3.7 -5.6 c -1 -1.9 -1.7 -3.9 -2.3 -5.8 c -1.2 -3.8 -1.8 -8.3 -1.5 -12.4 c 0.2 -4.1 1.1 -8.1 2.4 -11.8 c 1.3 -3.7 3 -7.2 5 -10.5 c 2 -3.3 4.3 -6.4 6.8 -9.3 c 2.5 -2.9 5.4 -5.5 8.7 -7.9 c 1.7 -1.1 3.4 -2.2 5.4 -3.1 c 2 -0.8 4.2 -1.5 6.9 -1.5 c 0.7 0 1.3 0 2 0.2 l 1 0.2 c 0.3 0.1 0.7 0.2 1 0.3 c 0.7 0.2 1.3 0.6 1.9 0.9 c 0.6 0.3 1.1 0.7 1.6 1.1 c 2 1.6 3.3 3.4 4.4 5.1 c 1.1 1.8 2 3.6 2.7 5.5 c 0.7 1.8 1.3 3.7 1.8 5.6 c 1 3.7 1.6 7.5 1.9 11.4 c 0.3 3.8 0.2 7.7 -0.3 11.6 c -0.5 3.9 -1.4 7.8 -2.9 11.5 C 1056.2 1083.2 1054 1086.9 1051.1 1090.1 z M 1043 1082.4 c 2 -2 3.6 -4.4 4.9 -7.1 c 1.2 -2.8 2.1 -5.8 2.7 -8.9 c 1.2 -6.3 1.1 -13 -0.3 -19.2 c -0.3 -1.6 -0.8 -3.1 -1.3 -4.6 c -0.5 -1.5 -1.2 -2.8 -1.9 -4.1 c -0.7 -1.2 -1.6 -2.3 -2.4 -2.9 c -0.2 -0.1 -0.4 -0.3 -0.6 -0.4 c -0.2 -0.1 -0.4 -0.2 -0.5 -0.3 c -0.1 0 -0.2 -0.1 -0.2 -0.1 c -0.1 0 -0.2 0 -0.3 0 c -0.1 -0.1 -0.4 0 -0.6 0 c -0.9 0 -2.1 0.3 -3.4 0.9 c -1.3 0.6 -2.5 1.3 -3.8 2.2 c -2.5 1.8 -4.8 4.1 -6.8 6.6 c -2.1 2.5 -3.9 5.2 -5.4 8.1 c -1.5 2.9 -2.8 5.8 -3.7 8.8 c -0.9 3 -1.4 6.1 -1.4 9 c 0 3 0.5 5.7 1.5 8.6 c 1 2.8 2.4 5.4 4 7.1 c 1.7 1.8 3.4 2.6 5.4 2.8 c 1 0.1 2.1 0 3.3 -0.3 c 1.2 -0.2 2.4 -0.7 3.7 -1.3 c 1.3 -0.6 2.5 -1.3 3.8 -2.2 c 0.6 -0.4 1.2 -0.9 1.8 -1.4 c 0.3 -0.2 0.6 -0.5 0.9 -0.7 L 1043 1082.4 z" stroke-linecap="round"/>
</g>
		<g transform="matrix(1 0 0 1 294.9949 -56.8005)" id="Layer_1">
<path style="stroke: none; stroke-width: 1; stroke-dasharray: none; stroke-linecap: butt; stroke-dashoffset: 0; stroke-linejoin: miter; stroke-miterlimit: 4; is-custom-font: none; font-file-url: none; fill: rgb(255,207,99); fill-rule: nonzero; opacity: 1;" transform=" translate(-1294.9949, -943.1995)" d="M 1310.9 964.5 c -0.4 0.5 -9.1 13.2 -20 11.6 c -10 -1.5 -14.7 -14 -15.2 -15.6 c -7.6 -21.2 11.2 -51.6 23.2 -50.3 C 1310.9 911.4 1323.3 945.8 1310.9 964.5 z" stroke-linecap="round"/>
</g>
		<g transform="matrix(1 0 0 1 295.3232 -56.8338)" id="Layer_1">
<path style="stroke: none; stroke-width: 1; stroke-dasharray: none; stroke-linecap: butt; stroke-dashoffset: 0; stroke-linejoin: miter; stroke-miterlimit: 4; is-custom-font: none; font-file-url: none; fill: rgb(255,176,74); fill-rule: nonzero; opacity: 1;" transform=" translate(-1295.3232, -943.1662)" d="M 1298.9 910.1 c -1.4 -0.1 -2.9 0.1 -4.4 0.8 c 8.8 5.7 16 29.9 6.8 43.7 c -0.3 0.4 -7.5 10.9 -16.5 9.6 c -4.9 -0.7 -8.2 -4.6 -10.2 -7.9 c 0.3 1.4 0.7 2.8 1.1 4.2 c 0.6 1.6 5.2 14.1 15.2 15.6 c 10.9 1.7 19.6 -11 20 -11.6 C 1323.3 945.8 1310.9 911.4 1298.9 910.1 z" stroke-linecap="round"/>
</g>
		<g transform="matrix(1 0 0 1 294.8038 -56.2745)" id="Layer_1">
<path style="stroke: none; stroke-width: 1; stroke-dasharray: none; stroke-linecap: butt; stroke-dashoffset: 0; stroke-linejoin: miter; stroke-miterlimit: 4; is-custom-font: none; font-file-url: none; fill: rgb(65,11,9); fill-rule: nonzero; opacity: 1;" transform=" translate(-1294.8038, -943.7255)" d="M 1315.5 967.5 l -0.5 0.7 l -0.5 0.6 c -0.3 0.4 -0.6 0.8 -0.9 1.2 c -0.6 0.8 -1.3 1.6 -2 2.3 c -1.4 1.5 -2.9 3 -4.6 4.3 c -1.7 1.3 -3.5 2.5 -5.7 3.5 c -2.1 0.9 -4.5 1.6 -7.1 1.8 c -2.5 0.2 -5.2 -0.2 -7.6 -1 c -0.6 -0.2 -1.2 -0.5 -1.8 -0.7 l -1.6 -0.9 c -0.6 -0.3 -1 -0.6 -1.5 -1 c -0.5 -0.3 -1 -0.7 -1.4 -1.1 c -1.8 -1.5 -3.3 -3.2 -4.6 -4.9 c -1.3 -1.7 -2.4 -3.5 -3.3 -5.4 c -1.9 -3.6 -3.1 -7.9 -3.6 -11.9 c -0.5 -4.1 -0.2 -8.1 0.4 -12 c 0.6 -3.9 1.7 -7.6 3.1 -11.2 c 1.4 -3.6 3.1 -7 5.1 -10.3 c 2 -3.3 4.4 -6.4 7.2 -9.2 c 1.4 -1.4 3 -2.8 4.8 -3.9 c 1.8 -1.2 3.9 -2.2 6.5 -2.7 c 0.7 -0.1 1.3 -0.2 2 -0.2 l 1.1 0 c 0.4 0 0.7 0.1 1.1 0.2 c 0.7 0.1 1.4 0.3 2 0.6 c 0.7 0.2 1.2 0.5 1.8 0.8 c 2.2 1.2 3.8 2.7 5.2 4.3 c 1.4 1.6 2.6 3.2 3.6 4.9 c 1 1.7 2 3.4 2.8 5.2 c 1.6 3.5 2.9 7.2 3.8 10.9 c 0.9 3.7 1.5 7.5 1.7 11.5 c 0.2 3.9 -0.1 7.9 -0.9 11.9 C 1319.3 959.9 1317.8 963.9 1315.5 967.5 z M 1306.2 961.4 c 1.6 -2.3 2.8 -5 3.6 -7.9 c 0.8 -2.9 1.1 -6 1.2 -9.2 c 0.1 -6.4 -1.2 -13 -3.6 -18.9 c -0.6 -1.5 -1.3 -2.9 -2.1 -4.3 c -0.8 -1.4 -1.6 -2.6 -2.6 -3.7 c -0.9 -1.1 -2 -2 -2.9 -2.5 c -0.2 -0.1 -0.5 -0.3 -0.7 -0.3 c -0.2 -0.1 -0.4 -0.2 -0.6 -0.2 c -0.1 0 -0.2 0 -0.3 -0.1 c -0.1 0 -0.2 0 -0.3 0 c -0.2 0 -0.4 0 -0.6 0.1 c -0.9 0.1 -2 0.7 -3.2 1.4 c -1.1 0.8 -2.3 1.7 -3.3 2.8 c -2.1 2.2 -4 4.9 -5.6 7.7 c -1.6 2.8 -2.9 5.8 -3.9 8.9 c -1 3.1 -1.8 6.2 -2.1 9.3 c -0.3 3.1 -0.3 6.2 0.2 9.1 c 0.5 2.9 1.5 5.5 2.9 8.2 c 1.4 2.6 3.3 4.9 5.2 6.3 c 1.9 1.5 3.8 2 5.8 1.8 c 1 0 2 -0.4 3.2 -0.8 c 1.1 -0.4 2.3 -1.1 3.4 -1.9 c 1.1 -0.8 2.3 -1.8 3.3 -2.8 c 0.5 -0.5 1.1 -1.1 1.5 -1.6 c 0.2 -0.3 0.5 -0.6 0.7 -0.8 L 1306.2 961.4 z" stroke-linecap="round"/>
</g>
		<g transform="matrix(1 0 0 1 64.3773 245.6148)" id="Layer_1">
<path style="stroke: none; stroke-width: 1; stroke-dasharray: none; stroke-linecap: butt; stroke-dashoffset: 0; stroke-linejoin: miter; stroke-miterlimit: 4; is-custom-font: none; font-file-url: none; fill: rgb(255,207,99); fill-rule: nonzero; opacity: 1;" transform=" translate(-1064.3773, -1245.6148)" d="M 1066.8 1271.4 c -0.6 0.3 -14.8 6.2 -23.1 -1.2 c -7.5 -6.7 -4.7 -19.7 -4.3 -21.4 c 5.2 -21.9 37.6 -37.1 46.9 -29.5 C 1095.8 1227 1087.4 1262.6 1066.8 1271.4 z" stroke-linecap="round"/>
</g>
		<g transform="matrix(1 0 0 1 64.4816 245.7558)" id="Layer_1">
<path style="stroke: none; stroke-width: 1; stroke-dasharray: none; stroke-linecap: butt; stroke-dashoffset: 0; stroke-linejoin: miter; stroke-miterlimit: 4; is-custom-font: none; font-file-url: none; fill: rgb(255,176,74); fill-rule: nonzero; opacity: 1;" transform=" translate(-1064.4816, -1245.7558)" d="M 1086.4 1219.3 c -1.1 -0.9 -2.5 -1.5 -4.1 -1.7 c 4.2 9.6 -2.9 33.8 -18.1 40.3 c -0.5 0.2 -12.2 5.1 -19.1 -1 c -3.7 -3.3 -4.3 -8.3 -4.2 -12.2 c -0.5 1.3 -1 2.7 -1.3 4.1 c -0.4 1.7 -3.3 14.6 4.3 21.4 c 8.2 7.4 22.5 1.5 23.1 1.2 C 1087.4 1262.6 1095.8 1227 1086.4 1219.3 z" stroke-linecap="round"/>
</g>
		<g transform="matrix(1 0 0 1 63.8201 246.3157)" id="Layer_1">
<path style="stroke: none; stroke-width: 1; stroke-dasharray: none; stroke-linecap: butt; stroke-dashoffset: 0; stroke-linejoin: miter; stroke-miterlimit: 4; is-custom-font: none; font-file-url: none; fill: rgb(65,11,9); fill-rule: nonzero; opacity: 1;" transform=" translate(-1063.8201, -1246.3157)" d="M 1069 1276.6 l -0.8 0.3 l -0.7 0.3 c -0.5 0.2 -1 0.4 -1.5 0.5 c -1 0.3 -1.9 0.6 -2.9 0.9 c -2 0.5 -4 0.9 -6.2 1.1 c -2.2 0.2 -4.4 0.2 -6.7 -0.2 c -2.3 -0.4 -4.7 -1.1 -6.9 -2.4 c -2.3 -1.2 -4.2 -3 -5.8 -5 c -0.4 -0.5 -0.7 -1 -1.1 -1.5 l -0.9 -1.6 c -0.3 -0.5 -0.5 -1.1 -0.7 -1.7 c -0.2 -0.6 -0.5 -1.1 -0.6 -1.7 c -0.7 -2.2 -1 -4.4 -1.2 -6.6 c -0.1 -2.2 -0.1 -4.2 0.2 -6.3 c 0.4 -4 1.7 -8.3 3.5 -12 c 1.8 -3.7 4.2 -7 6.9 -9.9 c 2.6 -2.9 5.6 -5.5 8.7 -7.7 c 3.1 -2.3 6.4 -4.2 9.9 -5.8 c 3.5 -1.7 7.1 -3 11.1 -3.8 c 2 -0.4 4 -0.7 6.2 -0.7 c 2.2 0 4.5 0.3 6.9 1.3 c 0.6 0.3 1.2 0.6 1.8 1 l 0.9 0.6 c 0.3 0.2 0.5 0.5 0.8 0.7 c 0.5 0.5 1 1 1.4 1.6 c 0.4 0.5 0.7 1.1 1 1.6 c 1.2 2.2 1.7 4.4 2 6.5 c 0.3 2.1 0.4 4.1 0.4 6.1 c -0.1 2 -0.2 3.9 -0.5 5.9 c -0.6 3.8 -1.5 7.6 -2.8 11.2 c -1.3 3.6 -2.8 7.2 -4.8 10.5 c -2 3.4 -4.4 6.6 -7.2 9.5 C 1076.3 1272.2 1072.9 1274.8 1069 1276.6 z M 1064.6 1266.3 c 2.6 -1 5 -2.6 7.3 -4.6 c 2.2 -2 4.2 -4.5 6 -7.1 c 3.5 -5.3 6.1 -11.5 7.3 -17.8 c 0.3 -1.6 0.5 -3.2 0.6 -4.7 c 0.1 -1.6 0 -3.1 -0.2 -4.5 c -0.2 -1.4 -0.6 -2.7 -1.1 -3.6 c -0.1 -0.2 -0.2 -0.5 -0.4 -0.6 c -0.1 -0.2 -0.2 -0.4 -0.4 -0.4 c -0.1 -0.1 -0.1 -0.1 -0.2 -0.2 c -0.1 0 -0.2 -0.1 -0.2 -0.1 c -0.1 -0.1 -0.3 -0.2 -0.5 -0.3 c -0.8 -0.4 -2.1 -0.6 -3.4 -0.5 c -1.4 0 -2.9 0.2 -4.3 0.5 c -3 0.7 -6 1.9 -8.9 3.4 c -2.9 1.5 -5.6 3.3 -8.1 5.3 c -2.5 2 -4.9 4.2 -6.9 6.7 c -2 2.4 -3.7 5 -4.8 7.8 c -1.2 2.8 -1.8 5.4 -2 8.5 c -0.2 3 0.1 5.9 0.9 8.1 c 0.8 2.3 2.1 3.8 3.8 4.7 c 0.8 0.5 1.9 0.8 3.1 1 c 1.2 0.3 2.5 0.3 3.9 0.3 c 1.4 -0.1 2.9 -0.2 4.3 -0.5 c 0.7 -0.2 1.5 -0.3 2.2 -0.5 c 0.4 -0.1 0.7 -0.2 1.1 -0.3 L 1064.6 1266.3 z" stroke-linecap="round"/>
</g>
		<g transform="matrix(1 0 0 1 219.3278 108.5784)" id="Layer_1">
<path style="stroke: none; stroke-width: 1; stroke-dasharray: none; stroke-linecap: butt; stroke-dashoffset: 0; stroke-linejoin: miter; stroke-miterlimit: 4; is-custom-font: none; font-file-url: none; fill: rgb(255,207,99); fill-rule: nonzero; opacity: 1;" transform=" translate(-1219.3278, -1108.5784)" d="M 1227.7 1133.7 c -0.5 0.4 -13.1 9.3 -22.7 4 c -8.9 -4.9 -8.9 -18.2 -8.9 -19.9 c 0.2 -22.5 28.3 -44.6 39.1 -39.2 C 1246.1 1083.9 1245.9 1120.5 1227.7 1133.7 z" stroke-linecap="round"/>
</g>
		<g transform="matrix(1 0 0 1 219.3278 108.6303)" id="Layer_1">
<path style="stroke: none; stroke-width: 1; stroke-dasharray: none; stroke-linecap: butt; stroke-dashoffset: 0; stroke-linejoin: miter; stroke-miterlimit: 4; is-custom-font: none; font-file-url: none; fill: rgb(255,176,74); fill-rule: nonzero; opacity: 1;" transform=" translate(-1219.3278, -1108.6304)" d="M 1235.2 1078.6 c -1.3 -0.6 -2.8 -0.9 -4.4 -0.8 c 6.3 8.4 4.7 33.5 -8.7 43.4 c -0.4 0.3 -10.8 7.7 -18.8 3.3 c -4.3 -2.4 -6.1 -7.1 -6.8 -10.9 c -0.2 1.4 -0.4 2.9 -0.4 4.3 c 0 1.7 0.1 15 8.9 19.9 c 9.7 5.3 22.2 -3.6 22.7 -4 C 1245.9 1120.5 1246.1 1083.9 1235.2 1078.6 z" stroke-linecap="round"/>
</g>
		<g transform="matrix(1 0 0 1 218.7668 109.1375)" id="Layer_1">
<path style="stroke: none; stroke-width: 1; stroke-dasharray: none; stroke-linecap: butt; stroke-dashoffset: 0; stroke-linejoin: miter; stroke-miterlimit: 4; is-custom-font: none; font-file-url: none; fill: rgb(65,11,9); fill-rule: nonzero; opacity: 1;" transform=" translate(-1218.7668, -1109.1375)" d="M 1231 1138.2 l -0.7 0.5 l -0.7 0.4 c -0.4 0.3 -0.9 0.6 -1.3 0.8 c -0.9 0.5 -1.8 1 -2.7 1.5 c -1.8 0.9 -3.7 1.8 -5.8 2.5 c -2.1 0.6 -4.2 1.2 -6.6 1.3 c -2.3 0.1 -4.8 0 -7.3 -0.8 c -2.5 -0.7 -4.8 -2 -6.7 -3.6 c -0.5 -0.4 -1 -0.8 -1.4 -1.3 l -1.2 -1.4 c -0.4 -0.5 -0.8 -1 -1.1 -1.4 c -0.3 -0.5 -0.7 -1 -1 -1.5 c -1.2 -2 -2 -4.1 -2.6 -6.2 c -0.6 -2.1 -1 -4.1 -1.2 -6.2 c -0.5 -4 -0.2 -8.5 0.7 -12.4 c 1 -4 2.6 -7.7 4.5 -11.2 c 1.9 -3.4 4.2 -6.6 6.8 -9.5 c 2.5 -2.9 5.3 -5.5 8.4 -7.9 c 3 -2.4 6.3 -4.5 9.9 -6.2 c 1.8 -0.8 3.8 -1.6 5.9 -2 c 2.1 -0.5 4.4 -0.8 7.1 -0.3 c 0.7 0.2 1.3 0.3 2 0.6 l 1 0.4 c 0.3 0.2 0.6 0.3 0.9 0.5 c 0.6 0.4 1.2 0.8 1.7 1.2 c 0.5 0.4 0.9 0.9 1.4 1.4 c 1.6 1.9 2.6 3.9 3.4 5.8 c 0.8 2 1.3 3.9 1.7 5.9 c 0.4 2 0.7 3.9 0.8 5.8 c 0.3 3.9 0.2 7.7 -0.2 11.5 c -0.4 3.8 -1.2 7.6 -2.4 11.3 c -1.2 3.7 -2.8 7.4 -4.9 10.8 C 1237.2 1132.4 1234.4 1135.6 1231 1138.2 z M 1224.4 1129.2 c 2.3 -1.6 4.3 -3.7 6.1 -6.2 c 1.7 -2.5 3.1 -5.3 4.3 -8.3 c 2.3 -5.9 3.4 -12.6 3.1 -19 c -0.1 -1.6 -0.2 -3.2 -0.5 -4.7 c -0.3 -1.5 -0.6 -3 -1.2 -4.3 c -0.5 -1.3 -1.2 -2.5 -1.9 -3.3 c -0.2 -0.2 -0.3 -0.4 -0.5 -0.5 c -0.2 -0.1 -0.3 -0.3 -0.5 -0.3 c -0.1 0 -0.1 -0.1 -0.2 -0.1 c -0.1 0 -0.2 -0.1 -0.2 -0.1 c -0.1 -0.1 -0.4 -0.1 -0.6 -0.2 c -0.9 -0.2 -2.1 -0.1 -3.5 0.3 c -1.3 0.3 -2.7 0.9 -4.1 1.5 c -2.8 1.4 -5.4 3.2 -7.9 5.3 c -2.5 2.1 -4.7 4.5 -6.8 7 c -2 2.5 -3.8 5.2 -5.2 8 c -1.4 2.8 -2.5 5.7 -3 8.6 c -0.5 2.9 -0.5 5.7 0 8.7 c 0.5 2.9 1.4 5.7 2.7 7.7 c 1.3 2 2.9 3.2 4.8 3.7 c 0.9 0.3 2.1 0.4 3.2 0.3 c 1.2 0 2.5 -0.3 3.9 -0.6 c 1.4 -0.4 2.7 -0.9 4.1 -1.5 c 0.7 -0.3 1.4 -0.6 2 -1 c 0.3 -0.2 0.7 -0.4 1 -0.5 L 1224.4 1129.2 z" stroke-linecap="round"/>
</g>
		<g transform="matrix(1 0 0 1 58.8662 20.8101)" id="Layer_1">
<path style="stroke: rgb(65,11,9); stroke-width: 17.9247; stroke-dasharray: none; stroke-linecap: round; stroke-dashoffset: 0; stroke-linejoin: round; stroke-miterlimit: 10; is-custom-font: none; font-file-url: none; fill: none; fill-rule: nonzero; opacity: 1;" transform=" translate(-1058.8662, -1020.81)" d="M 898.9 682.8 c -27.7 9.1 -53.2 24.3 -75.8 47.4 c -101.1 103.6 -94.5 269.8 -54.3 398.6 c 20.9 66.7 52.6 130.2 96.1 185.1 c 108.4 136.8 282.7 -9.8 366.8 -98.6 c 28.6 -30.2 54.9 -62.6 78.7 -96.7 c 38.3 -54.8 72 -119.5 65 -188.4 c -13.1 -129.2 -139.7 -203.8 -253.2 -235.5 c -37.2 -10.4 -75.7 -16.9 -114.1 -20.9 C 969.8 669.8 932.8 671.7 898.9 682.8 z" stroke-linecap="round"/>
</g>
		<g transform="matrix(1 0 0 1 110.8998 -381.4846)" id="Layer_1">
<path style="stroke: rgb(65,11,9); stroke-width: 17.9247; stroke-dasharray: none; stroke-linecap: round; stroke-dashoffset: 0; stroke-linejoin: round; stroke-miterlimit: 10; is-custom-font: none; font-file-url: none; fill: none; fill-rule: nonzero; opacity: 1;" transform=" translate(-1110.8997, -618.5154)" d="M 965.2 668.3 c -15.9 -6 -26.2 -21.8 -31.3 -37.9 c -11.8 -37 -0.1 -80.3 28.7 -106.4 c 1.2 -1.1 2.5 -2.2 4.1 -2.5 c 6.3 -1.3 15 16.1 18.4 20.6 c 6.7 8.7 13.8 17 21.8 24.5 c 11.5 10.7 24.6 19.6 35.9 30.5 c 12.2 11.9 22 26.1 28.7 41.8 c 15.6 -16.6 36.7 -27.3 58.6 -33.2 c 22 -5.9 45 -7.1 67.7 -6.8 c 12.8 0.2 25.7 0.8 38.5 -0.2 c 19.2 -1.5 38.2 -6.6 55.6 -15 c 1.5 9.1 -0.3 18.4 -2.6 27.3 c -6.3 24.5 -16.4 48.3 -32.7 67.7 c -16.2 19.3 -39.1 33.8 -64.1 36.9" stroke-linecap="round"/>
</g>
		<g transform="matrix(1 0 0 1 410.3501 -204.6463)" id="Layer_1">
<path style="stroke: rgb(65,11,9); stroke-width: 17.9247; stroke-dasharray: none; stroke-linecap: round; stroke-dashoffset: 0; stroke-linejoin: round; stroke-miterlimit: 10; is-custom-font: none; font-file-url: none; fill: none; fill-rule: nonzero; opacity: 1;" transform=" translate(-1410.35, -795.3538)" d="M 1363.2 742.9 c 2.8 0.5 7.6 1.4 13.4 3 c 29.3 7.8 39.8 19.7 63.2 26.4 c 7.6 2.2 18.8 4.6 33.3 4.7 c -3.1 7.9 -18.4 43.6 -58.5 61.4 c -29.7 13.2 -56.8 9.3 -67 7.2" stroke-linecap="round"/>
</g>
		<g transform="matrix(1 0 0 1 -129.518 -379.8499)" id="Layer_1">
<path style="stroke: rgb(65,11,9); stroke-width: 17.9247; stroke-dasharray: none; stroke-linecap: round; stroke-dashoffset: 0; stroke-linejoin: round; stroke-miterlimit: 10; is-custom-font: none; font-file-url: none; fill: none; fill-rule: nonzero; opacity: 1;" transform=" translate(-870.482, -620.15)" d="M 929.6 608.5 c -8.3 -5.5 -21.4 -13.2 -38.5 -19.8 c -14.9 -5.7 -21.8 -6.3 -34.4 -11.3 c -10.8 -4.3 -25.8 -11.8 -42.2 -26.1 c -3.1 13 -3.5 24.3 -2.9 33.5 c 4.4 61 60.6 97.7 70.8 104.2" stroke-linecap="round"/>
</g>
		<g transform="matrix(1 0 0 1 333.4499 -280.7022)" id="Layer_1">
<path style="stroke: rgb(65,11,9); stroke-width: 17.9247; stroke-dasharray: none; stroke-linecap: round; stroke-dashoffset: 0; stroke-linejoin: round; stroke-miterlimit: 10; is-custom-font: none; font-file-url: none; fill: none; fill-rule: nonzero; opacity: 1;" transform=" translate(-1333.45, -719.2978)" d="M 1261.2 672.9 c 6.9 -1.7 17.1 -3.6 29.6 -3.4 c 9.8 0.2 14.1 1.6 31.6 5 c 24.1 4.6 36.2 5.8 50.3 7.1 c 11.1 1.1 22.9 1.6 33 -3 c -1.2 3.5 -3 8.8 -5.8 14.9 c -4.6 10 -21.1 45.9 -60.4 64.5 c -24.9 11.8 -48.6 11.8 -62.1 10.6" stroke-linecap="round"/>
</g>
		<g transform="matrix(1 0 0 1 163.2098 -441.9222)" id="Layer_1">
<path style="stroke: rgb(65,11,9); stroke-width: 17.9247; stroke-dasharray: none; stroke-linecap: round; stroke-dashoffset: 0; stroke-linejoin: round; stroke-miterlimit: 10; is-custom-font: none; font-file-url: none; fill: none; fill-rule: nonzero; opacity: 1;" transform=" translate(-1163.2098, -558.0778)" d="M 1121.1 605.4 c 4 -22.1 11.8 -43.6 23 -63 c 5 -8.7 10.7 -16.9 16.4 -25.1 c 2 -2.9 4.5 -6.1 8 -6.5 c 1.9 -0.2 3.7 0.3 5.5 1 c 12.7 4.7 23.7 13.7 30.8 25.2 c 0.3 0.4 0.6 0.9 0.5 1.5 c 0 0.6 -0.5 1.1 -0.8 1.6 c -15.9 18.1 -30.5 37.4 -43.7 57.6" stroke-linecap="round"/>
</g>
		<g transform="matrix(1 0 0 1 64.4001 -343.1)" id="Layer_1">
<path style="stroke: rgb(65,11,9); stroke-width: 17.9247; stroke-dasharray: none; stroke-linecap: round; stroke-dashoffset: 0; stroke-linejoin: round; stroke-miterlimit: 10; is-custom-font: none; font-file-url: none; fill: none; fill-rule: nonzero; opacity: 1;" transform=" translate(-1064.4, -656.9)" d="M 1071.5 638.8 c -2.5 3.3 -5.3 7.5 -7.7 12.6 c -4.3 9.2 -5.9 17.6 -6.5 23.6" stroke-linecap="round"/>
</g>
		<g transform="matrix(1 0 0 1 -88.45 -169.3)" id="Layer_1">
<path style="stroke: rgb(65,11,9); stroke-width: 13.1352; stroke-dasharray: none; stroke-linecap: round; stroke-dashoffset: 0; stroke-linejoin: round; stroke-miterlimit: 10; is-custom-font: none; font-file-url: none; fill: none; fill-rule: nonzero; opacity: 1;" transform=" translate(-911.55, -830.7)" d="M 921.1 839.6 c -8.3 -3.4 -16 -9.4 -19.1 -17.8" stroke-linecap="round"/>
</g>
		<g transform="matrix(1 0 0 1 -103.15 -153)" id="Layer_1">
<path style="stroke: rgb(65,11,9); stroke-width: 13.1352; stroke-dasharray: none; stroke-linecap: round; stroke-dashoffset: 0; stroke-linejoin: round; stroke-miterlimit: 10; is-custom-font: none; font-file-url: none; fill: none; fill-rule: nonzero; opacity: 1;" transform=" translate(-896.85, -847)" d="M 908.2 851.7 c -3.1 0 -8.7 -0.3 -14.8 -3.5 c -3.6 -1.9 -6.2 -4.1 -7.9 -5.9" stroke-linecap="round"/>
</g>
		<g transform="matrix(0.3088 -0.9511 0.9511 0.3088 -102.9519 -77.8171)" id="Layer_1">
<ellipse style="stroke: none; stroke-width: 1; stroke-dasharray: none; stroke-linecap: butt; stroke-dashoffset: 0; stroke-linejoin: miter; stroke-miterlimit: 4; is-custom-font: none; font-file-url: none; fill: rgb(254,166,164); fill-rule: nonzero; opacity: 1;" cx="0" cy="0" rx="17.3" ry="27.5"/>
</g>
		<g transform="matrix(0.3088 -0.9511 0.9511 0.3088 -73.3807 -127.4557)" id="Layer_1">
<ellipse style="stroke: none; stroke-width: 1; stroke-dasharray: none; stroke-linecap: butt; stroke-dashoffset: 0; stroke-linejoin: miter; stroke-miterlimit: 4; is-custom-font: none; font-file-url: none; fill: rgb(65,11,9); fill-rule: nonzero; opacity: 1;" cx="0" cy="0" rx="43.5" ry="37.4"/>
</g>
		<g transform="matrix(0.3088 -0.9511 0.9511 0.3088 -83.6586 -153.4507)" id="Layer_1">
<ellipse style="stroke: none; stroke-width: 1; stroke-dasharray: none; stroke-linecap: butt; stroke-dashoffset: 0; stroke-linejoin: miter; stroke-miterlimit: 4; is-custom-font: none; font-file-url: none; fill: rgb(255,255,246); fill-rule: nonzero; opacity: 1;" cx="0" cy="0" rx="7.7" ry="7.1"/>
</g>
		<g transform="matrix(0.3088 -0.9511 0.9511 0.3088 -84.3678 -108.9388)" id="Layer_1">
<ellipse style="stroke: none; stroke-width: 1; stroke-dasharray: none; stroke-linecap: butt; stroke-dashoffset: 0; stroke-linejoin: miter; stroke-miterlimit: 4; is-custom-font: none; font-file-url: none; fill: rgb(255,255,246); fill-rule: nonzero; opacity: 1;" cx="0" cy="0" rx="13.1" ry="11.8"/>
</g>
		<g transform="matrix(0.3088 -0.9511 0.9511 0.3088 146.0964 3.0135)" id="Layer_1">
<ellipse style="stroke: none; stroke-width: 1; stroke-dasharray: none; stroke-linecap: butt; stroke-dashoffset: 0; stroke-linejoin: miter; stroke-miterlimit: 4; is-custom-font: none; font-file-url: none; fill: rgb(254,166,164); fill-rule: nonzero; opacity: 1;" cx="0" cy="0" rx="17.3" ry="27.5"/>
</g>
		<g transform="matrix(0.3088 -0.9511 0.9511 0.3088 157.9197 -52.3792)" id="Layer_1">
<ellipse style="stroke: none; stroke-width: 1; stroke-dasharray: none; stroke-linecap: butt; stroke-dashoffset: 0; stroke-linejoin: miter; stroke-miterlimit: 4; is-custom-font: none; font-file-url: none; fill: rgb(65,11,9); fill-rule: nonzero; opacity: 1;" cx="0" cy="0" rx="43.5" ry="37.4"/>
</g>
		<g transform="matrix(0.3088 -0.9511 0.9511 0.3088 147.6416 -78.3742)" id="Layer_1">
<ellipse style="stroke: none; stroke-width: 1; stroke-dasharray: none; stroke-linecap: butt; stroke-dashoffset: 0; stroke-linejoin: miter; stroke-miterlimit: 4; is-custom-font: none; font-file-url: none; fill: rgb(255,255,246); fill-rule: nonzero; opacity: 1;" cx="0" cy="0" rx="7.7" ry="7.1"/>
</g>
		<g transform="matrix(0.3088 -0.9511 0.9511 0.3088 146.9324 -33.8624)" id="Layer_1">
<ellipse style="stroke: none; stroke-width: 1; stroke-dasharray: none; stroke-linecap: butt; stroke-dashoffset: 0; stroke-linejoin: miter; stroke-miterlimit: 4; is-custom-font: none; font-file-url: none; fill: rgb(255,255,246); fill-rule: nonzero; opacity: 1;" cx="0" cy="0" rx="13.1" ry="11.8"/>
</g>
		<g transform="matrix(1 0 0 1 43.8686 -70.2898)" id="Layer_1">
<path style="stroke: rgb(65,11,9); stroke-width: 13.1352; stroke-dasharray: none; stroke-linecap: round; stroke-dashoffset: 0; stroke-linejoin: round; stroke-miterlimit: 10; is-custom-font: none; font-file-url: none; fill: none; fill-rule: nonzero; opacity: 1;" transform=" translate(-1043.8686, -929.7102)" d="M 1015.2 907.2 c -7.6 18.2 2.5 38.7 19.8 43.8 c 16.8 5 35.8 -5.8 40.1 -24.4" stroke-linecap="round"/>
</g>
		<g transform="matrix(1 0 0 1 190.9 -81.058)" id="Layer_1">
<path style="stroke: rgb(65,11,9); stroke-width: 13.1352; stroke-dasharray: none; stroke-linecap: round; stroke-dashoffset: 0; stroke-linejoin: round; stroke-miterlimit: 10; is-custom-font: none; font-file-url: none; fill: none; fill-rule: nonzero; opacity: 1;" transform=" translate(-1190.9, -918.942)" d="M 1178.2 921.8 c 8.9 1.2 18.5 -0.3 25.4 -6.1" stroke-linecap="round"/>
</g>
		<g transform="matrix(1 0 0 1 196 -59.0327)" id="Layer_1">
<path style="stroke: rgb(65,11,9); stroke-width: 13.1352; stroke-dasharray: none; stroke-linecap: round; stroke-dashoffset: 0; stroke-linejoin: round; stroke-miterlimit: 10; is-custom-font: none; font-file-url: none; fill: none; fill-rule: nonzero; opacity: 1;" transform=" translate(-1196, -940.9673)" d="M 1183.8 938.8 c 2.6 1.5 7.8 4 14.6 4.3 c 4.1 0.2 7.4 -0.5 9.8 -1.2" stroke-linecap="round"/>
</g>
		<g transform="matrix(1 0 0 1 -325.6166 -211.4783)" id="Layer_1">
<path style="stroke: none; stroke-width: 1; stroke-dasharray: none; stroke-linecap: butt; stroke-dashoffset: 0; stroke-linejoin: miter; stroke-miterlimit: 4; is-custom-font: none; font-file-url: none; fill: rgb(251,252,238); fill-rule: nonzero; opacity: 1;" transform=" translate(-674.3834, -788.5217)" d="M 536.7 773.3 c 1.6 -7.3 8.6 -11.8 15 -15.6 c 18.1 -10.6 36.1 -21.2 54.2 -31.8 c 2.3 -1.3 4.6 -2.7 7.2 -3 c 2.4 -0.3 4.8 0.3 7.1 0.9 c 59.2 15 120 25 177.1 46.7 c 4 1.5 8.2 3.2 11 6.5 c 3.8 4.3 4.5 10.6 3.1 16.1 c -1.5 5.5 -4.8 10.3 -8.6 14.6 c -19.1 22.1 -47.8 33.3 -76.1 40.6 c -15.7 4.1 -31.9 7.2 -48 5.4 c -18.9 -2.1 -36.2 -10.9 -53.6 -18.7 c -24.1 -10.7 -49.9 -20.4 -67.2 -40.3" stroke-linecap="round"/>
</g>
		<g transform="matrix(1 0 0 1 -245.4 -8)" id="Layer_1">
<path style="stroke: none; stroke-width: 1; stroke-dasharray: none; stroke-linecap: butt; stroke-dashoffset: 0; stroke-linejoin: miter; stroke-miterlimit: 4; is-custom-font: none; font-file-url: none; fill: rgb(84,141,244); fill-rule: nonzero; opacity: 1;" transform=" translate(-754.6, -992)" d="M 825.7 773.8 c -8.4 8.2 -19.9 18 -35.1 26.8 c -19.2 11.2 -37 16.9 -50.1 20 l -213.7 -53.9 L 698 1161.1 l 189.3 56.2 c 14.6 -1.5 43.8 -6.7 70.9 -28.5 c 10.7 -8.7 18.6 -17.9 24.2 -25.8 C 930.1 1033.3 877.9 903.5 825.7 773.8 z" stroke-linecap="round"/>
</g>
		<g transform="matrix(1 0 0 1 -179.4353 14.85)" id="Layer_1">
<path style="stroke: none; stroke-width: 1; stroke-dasharray: none; stroke-linecap: butt; stroke-dashoffset: 0; stroke-linejoin: miter; stroke-miterlimit: 4; is-custom-font: none; font-file-url: none; fill: rgb(84,106,244); fill-rule: nonzero; opacity: 1;" transform=" translate(-820.5647, -1014.85)" d="M 767.8 812.5 c -5.1 2.7 -21.7 9.5 -27.2 8.1 c -8.8 -2.2 -22.7 -9.1 -31.5 -7.5 c 12.6 30.7 94 231.5 63.2 278.2 c -5.6 8.6 -13.4 12.9 -13.4 12.9 c -34.4 18.9 -90.6 -27.4 -100.4 -35.7 c 2.5 6.2 6.5 16.1 11.6 28.1 c 4.5 10.6 7.3 16.9 14.7 33.8 c 4.4 10.2 8.9 20.4 13.3 30.6 l 189.3 56.2 c 14.6 -1.5 43.8 -6.7 70.9 -28.5 c 10.7 -8.7 18.6 -17.9 24.2 -25.8 c 1.3 -1.8 -7.6 -18.9 -8.6 -21.5 c -2.9 -7.2 -5.8 -14.3 -8.6 -21.5 c -5.4 -13.5 -7.3 -20.6 -23.3 -20.7 c -11.9 0 -23 -5.9 -32.2 -13.4 c -21.4 -17.2 -34.5 -42.3 -47.1 -66.7 c -12 -23.3 -24 -46.5 -35.9 -69.8 c -11.4 -22.2 -22.9 -44.4 -33.1 -67.2 C 783.2 859.6 777.2 835.3 767.8 812.5 z" stroke-linecap="round"/>
</g>
		<g transform="matrix(1 0 0 1 -245.35 -34.9)" id="Layer_1">
<path style="stroke: none; stroke-width: 1; stroke-dasharray: none; stroke-linecap: butt; stroke-dashoffset: 0; stroke-linejoin: miter; stroke-miterlimit: 4; is-custom-font: none; font-file-url: none; fill: rgb(152,204,248); fill-rule: nonzero; opacity: 1;" transform=" translate(-754.65, -965.1)" d="M 747.6 839.9 c 13.1 -3.1 31 -8.8 50.1 -20 c 15.2 -8.9 26.7 -18.6 35.1 -26.8 c 49.7 123.5 99.4 247 149.1 370.5 c 0.2 -0.2 0.3 -0.4 0.5 -0.7 c -52.2 -129.7 -104.4 -259.4 -156.6 -389.2 c -8.4 8.2 -19.9 18 -35.1 26.8 c -19.2 11.2 -37 16.9 -50.1 20 l -213.7 -53.9 l 8.5 19.7 L 747.6 839.9 z" stroke-linecap="round"/>
</g>
		<g transform="matrix(1 0 0 1 -292.95 -7.95)" id="Layer_1">
<polygon style="stroke: rgb(65,11,9); stroke-width: 17.9247; stroke-dasharray: none; stroke-linecap: round; stroke-dashoffset: 0; stroke-linejoin: round; stroke-miterlimit: 10; is-custom-font: none; font-file-url: none; fill: none; fill-rule: nonzero; opacity: 1;" points="-180.25,-225.25 33.45,-171.45 180.25,225.25 -9.05,169.05 "/>
</g>
		<g transform="matrix(1 0 0 1 -138.5999 -4.4501)" id="Layer_1">
<path style="stroke: rgb(65,11,9); stroke-width: 17.9247; stroke-dasharray: none; stroke-linecap: round; stroke-dashoffset: 0; stroke-linejoin: round; stroke-miterlimit: 10; is-custom-font: none; font-file-url: none; fill: none; fill-rule: nonzero; opacity: 1;" transform=" translate(-861.4, -995.55)" d="M 740.5 820.6 c 13.1 -3.1 31 -8.8 50.1 -20 c 15.2 -8.9 26.7 -18.6 35.1 -26.8 c 52.2 129.7 104.4 259.4 156.6 389.2 c -5.6 7.9 -13.4 17.2 -24.2 25.8 c -27 21.9 -56.3 27 -70.9 28.5" stroke-linecap="round"/>
</g>
		<g transform="matrix(1 0 0 1 -319.25 -248.3501)" id="Layer_1">
<path style="stroke: rgb(65,11,9); stroke-width: 17.9247; stroke-dasharray: none; stroke-linecap: round; stroke-dashoffset: 0; stroke-linejoin: round; stroke-miterlimit: 10; is-custom-font: none; font-file-url: none; fill: none; fill-rule: nonzero; opacity: 1;" transform=" translate(-680.75, -751.65)" d="M 539.4 769.9 c 21.7 -14.6 43.3 -29.3 65 -43.9 c 72.6 17.1 145.1 34.2 217.7 51.3" stroke-linecap="round"/>
</g>
		<g transform="matrix(1 0 0 1 -290.3 -254.4499)" id="Layer_1">
<path style="stroke: rgb(65,11,9); stroke-width: 17.9247; stroke-dasharray: none; stroke-linecap: round; stroke-dashoffset: 0; stroke-linejoin: round; stroke-miterlimit: 10; is-custom-font: none; font-file-url: none; fill: none; fill-rule: nonzero; opacity: 1;" transform=" translate(-709.7, -745.55)" d="M 597.5 730.7 c -1.3 -4.5 -2.6 -9 -3.9 -13.5 c 77.4 18.9 154.8 37.8 232.2 56.7" stroke-linecap="round"/>
</g>
		<g transform="matrix(1 0 0 1 -156.5181 50.6562)" id="Layer_1">
<path style="stroke: none; stroke-width: 1; stroke-dasharray: none; stroke-linecap: butt; stroke-dashoffset: 0; stroke-linejoin: miter; stroke-miterlimit: 4; is-custom-font: none; font-file-url: none; fill: rgb(65,11,9); fill-rule: nonzero; opacity: 1;" transform=" translate(-843.4819, -1050.6562)" d="M 888.5 1036.4 c -2.4 -7.6 -5.3 -15.1 -9.1 -22.2 c -2.9 -5.4 -5.8 -13.6 -12.6 -14.7 c -3.7 -0.6 -7.7 1 -9.9 4 c -2.2 2.9 -2.8 6.8 -3 10.5 c -0.5 7.4 -0.1 14.9 1.2 22.3 c -12.5 -5 -26 -7.5 -39.5 -7.2 c -4 0.1 -8.1 0.5 -11.7 2 c -11.5 5 -12.2 20.9 -7.8 30.9 c 8.8 20.3 29.9 33 51.4 38.1 c 7.5 1.8 15.5 2.8 22.9 0.5 c 11.8 -3.7 19.9 -15.4 22.1 -27.6 C 894.8 1060.7 892.2 1048.2 888.5 1036.4 z" stroke-linecap="round"/>
</g>
		<g transform="matrix(1 0 0 1 -1.8 97.6772)" id="Layer_1">
<path style="stroke: rgb(65,11,9); stroke-width: 17.9247; stroke-dasharray: none; stroke-linecap: round; stroke-dashoffset: 0; stroke-linejoin: round; stroke-miterlimit: 10; is-custom-font: none; font-file-url: none; fill: none; fill-rule: nonzero; opacity: 1;" transform=" translate(-998.2, -1097.6772)" d="M 853 1062.6 c 19.7 12.1 47.8 27.6 83.5 41.6 c 33.5 13.2 64.9 25.5 107.5 28.1 c 22.2 1.3 57.2 0.6 99.4 -12.9" stroke-linecap="round"/>
</g>
		<g transform="matrix(1 0 0 1 -365.4088 11.8973)" id="Layer_1">
<path style="stroke: none; stroke-width: 1; stroke-dasharray: none; stroke-linecap: butt; stroke-dashoffset: 0; stroke-linejoin: miter; stroke-miterlimit: 4; is-custom-font: none; font-file-url: none; fill: rgb(65,11,9); fill-rule: nonzero; opacity: 1;" transform=" translate(-634.5912, -1011.8974)" d="M 591.5 992 c 0.1 -0.4 0.1 -0.7 0.2 -1.1 c 2.2 -10.6 10.7 -35.6 24.9 -35.1 c 4.1 0.1 8 2.7 9.8 6.4 c 1.8 3.6 1.5 7.9 1 11.9 c -1.1 8.1 -3.1 16.1 -6 23.7 c 8.5 -1.6 17.1 -2.2 25.7 -1.8 c 7.9 0.4 13.9 0.1 19.2 6.6 c 9.7 11.9 15 28.1 11.3 43 c -1.3 5.4 -3.9 10.7 -7.8 14.6 c -17.4 17.3 -48.1 2.5 -62 -12.2 c -11.9 -12.6 -18.3 -30.1 -17.3 -47.4 C 590.6 997.8 591 994.8 591.5 992 z" stroke-linecap="round"/>
</g>
</g>
</g>
</svg>