<?xml version="1.0" encoding="utf-8"?>
<!-- Generator: Adobe Illustrator 23.0.3, SVG Export Plug-In . SVG Version: 6.00 Build 0)  -->
<svg version="1.1" id="Layer_1" xmlns="http://www.w3.org/2000/svg" xmlns:xlink="http://www.w3.org/1999/xlink" x="0px" y="0px"
	 viewBox="500 500 1000 1000" style="enable-background:new 0 0 2000 1500;" xml:space="preserve">
<style type="text/css">
	.st0{fill:#410B09;}
	.st1{fill:none;stroke:#410B09;stroke-width:17.9247;stroke-linecap:round;stroke-linejoin:round;stroke-miterlimit:10;}
	.st2{fill:#63C070;}
	.st3{opacity:0.74;fill:#177D59;}
	.st4{fill:#FE4153;}
	.st5{opacity:0.74;fill:#D30B2F;}
	.st6{fill:#FFCF63;}
	.st7{fill:#FFB04A;}
	.st8{fill:none;stroke:#410B09;stroke-width:13.1352;stroke-linecap:round;stroke-linejoin:round;stroke-miterlimit:10;}
	.st9{fill:#FEA6A4;}
	.st10{fill:#FFFFF6;}
	.st11{fill:#FBFCEE;}
	.st12{fill:#548DF4;}
	.st13{fill:#546AF4;}
	.st14{fill:#98CCF8;}
</style>
<path class="st0" d="M879.3,1469.9c6.6,3.3,14.4,3.8,21.8,3.8c11.5,0,23-0.9,34.3-3.2c4.9-1,9.7-1.9,14-4.5c2.1-1.3,7.1-3.8,6.2-7
	c-0.2-0.8-0.9-1.5-1.6-2c-3.6-2.6-8.4-3.8-12.7-4.8c-5.4-1.3-10.9-2.4-16.4-3.2c-9.4-1.2-18.8-1.1-28.3-1.1c-2.4,0-4.9,0-7.2,0.6
	c-3.8,0.9-7.2,3.1-10,5.8c-2.6,2.5-4.8,5.6-5,9.1c-0.1,1.2,0.1,2.5,0.9,3.5c0.5,0.8,1.4,1.3,2.2,1.8
	C878.1,1469.3,878.7,1469.6,879.3,1469.9z"/>
<path class="st0" d="M1119.7,1460.2c11.9,6.1,23.9,19.4,20.8,25.4c-1.7,3.3-7,3.4-10.2,3.4c-10.5,0-21.2-2.7-31.3-5.3
	c-5.9-1.5-11.7-3.1-17.5-4.9c-3.5-1-7-2.1-10.4-3.2c-1.8-0.6-3.6-1.2-5.5-1.7c-1.2-0.4-3.3-0.5-3.4-2.1c-0.1-1.7,3.4-3.7,4.6-4.6
	c3.7-2.8,7.8-5.3,12.1-7.1c8-3.5,16.9-5.1,25.6-4.2C1109.8,1456.3,1115,1457.8,1119.7,1460.2z"/>
<path class="st1" d="M925.6,1289.2c-0.6,23,0.6,52.5,7.2,85.9c6.7,34.1,17.1,62.2,26.6,83.5c-2.5-0.8-53.3-17.5-73.2-9.3
	c-2.9,1.2-9.1,3.7-12.3,9.9c-2.5,4.9-2.6,11-1.2,13.7c3.4,6.3,22.5,6.9,86.7-14.4"/>
<path class="st1" d="M1062.5,1290.7c12.4,28.2,15.5,59.8,13.7,90.5c-1.9,30.8-8.6,61-15.3,91c17.1-16.8,40.8-21.3,58.8-12.1
	c11.9,6.1,23.9,19.4,20.8,25.4c-2.8,5.3-18.5,6.8-79.6-13.3"/>
<path class="st2" d="M1439.8,772.3c-24.3-7-47.3-26.5-73.6-24.9c-0.6,0-1.2,0.1-1.6-0.3c-1-0.7-0.4-2.2,0.1-3.2
	c0.8-1.4,1.4-2.8,2-4.1c20.1-18.1,29.8-39,33.1-46.2c2.8-6.1,4.7-11.4,5.8-14.9c-10.2,4.7-21.9,4.1-33,3
	c-14.1-1.3-26.2-2.6-50.3-7.1c-17.5-3.3-21.8-4.8-31.6-5c-1.8,0-3.5,0-5.2,0c-6.7-0.9-13.5-1.6-20.3-2.5c11.3-16.9,18.9-36.3,24-56
	c2.3-8.9,4.1-18.2,2.6-27.3c-17.4,8.4-36.3,13.6-55.6,15c-12.8,1-25.6,0.3-38.5,0.2c-12.4-0.2-24.9,0.2-37.3,1.4
	c3.3-6.4,6.9-12.7,11.1-18.8c10.2-14.4,21.1-28.3,32.8-41.6c0.4-0.5,0.8-1,0.8-1.6c0-0.5-0.3-1-0.5-1.5
	c-7.1-11.5-18.1-20.6-30.8-25.2c-1.8-0.6-3.6-1.2-5.5-1c-3.5,0.5-6,3.6-8,6.5c-5.7,8.2-11.4,16.5-16.4,25.1
	c-8.2,14.2-14.6,29.5-19,45.3c-2.1,7.4-4,14.3-6.5,21.5c-17.7,6.3-34.3,15.9-47.2,29.6c-6.7-15.6-16.5-29.9-28.7-41.8
	c-11.3-11-24.4-19.8-35.9-30.5c-8-7.5-15.1-15.9-21.8-24.5c-3.4-4.5-12.1-21.9-18.4-20.6c-1.6,0.3-2.9,1.4-4.1,2.5
	c-22.5,20.4-34.6,51.3-33.1,81.6c-0.5-0.1-0.9-0.3-1.3-0.4c-13.1-3.6-24.1-11.5-37-16.4c-14.9-5.7-21.8-6.3-34.4-11.3
	c-10.8-4.3-25.8-11.8-42.2-26.1c-3.1,13-3.5,24.3-2.9,33.5c4.4,61,60.6,97.7,70.8,104.2l465.2,156.5c10.2,2,37.3,6,67-7.2
	c40-17.8,55.3-53.5,58.5-61.4C1458.6,776.9,1447.4,774.4,1439.8,772.3z"/>
<path class="st3" d="M1445.2,811.1c-41.2,5.8-84.4-2.9-120-24.5c-6.7-4-14-11.8-10-18.5c1.8-3,5.2-4.4,8.4-5.7
	c32.6-13.8,60.4-38.7,77.7-69.6c-29.4,17.6-61,32.3-94.7,38.4s-69.8,2.8-99.9-13.6c29.1-23.5,53.8-52.5,72.3-84.9
	c-43,49.7-123.1,62.2-179.2,27.9c-3.1-1.9-6.1-3.9-8-7c-5.6-9,1.7-20.3,8.6-28.3c-11.3,9.1-22.6,18.3-33.9,27.4
	c-2.9,2.3-5.8,4.7-9.3,6.1c-5.6,2.2-12,1.6-17.9,0.5c-50.1-9.6-91.5-54-97.5-104.6c-11.5,27.8-14.2,59.2-7.6,88.5
	c0.5,2.2,1,4.8-0.5,6.5c-1.3,1.5-3.5,1.7-5.4,1.8c-44.3,1.3-88.7-20.1-115.3-55.6c7.6,25.1,16.5,45.8,35,65.2c8.6,9,22,24,34.3,28.1
	c0.1,0,465.2,156.5,465.2,156.5c10.2,2,37.3,6,67-7.2c14.3-6.3,29.6-17.9,40.7-28.9C1452,810.1,1448.6,810.6,1445.2,811.1z"/>
<path class="st4" d="M898.9,682.8c-27.7,9.1-53.2,24.3-75.8,47.4c-101.1,103.6-94.5,269.8-54.3,398.6
	c20.9,66.7,52.6,130.2,96.1,185.1c108.4,136.8,282.7-9.8,366.8-98.6c28.6-30.2,54.9-62.6,78.7-96.7c38.3-54.8,72-119.5,65-188.4
	c-13.1-129.2-139.7-203.8-253.2-235.5c-37.2-10.4-75.7-16.9-114.1-20.9C969.8,669.8,932.8,671.7,898.9,682.8z"/>
<path class="st5" d="M1375.5,930.2c-13.1-129.2-139.7-203.8-253.2-235.5c-5-1.4-10-2.7-15.1-4c93.7,39,180.9,108.3,191.7,214.3
	c7,68.9-26.7,133.6-65,188.4c-23.9,34.1-50.1,66.5-78.7,96.7c-59.5,62.9-164.4,154.8-259,154.4c108.3,79.9,259.2-48.5,335.6-129.2
	c28.6-30.2,54.9-62.6,78.7-96.7C1348.8,1063.8,1382.5,999.1,1375.5,930.2z"/>
<g>
	<g>
		<path class="st6" d="M913.5,781.1c-0.6,0.3-14.1,7.7-23.1,1.2c-8.2-5.9-6.7-19.1-6.5-20.8c2.8-22.3,33.4-40.9,43.5-34.3
			C937.6,733.9,933.1,770.1,913.5,781.1z"/>
		<path class="st7" d="M927.5,727.2c-1.2-0.8-2.6-1.2-4.3-1.3c5.2,9.1,0.7,33.9-13.8,42c-0.5,0.3-11.6,6.4-19.1,1
			c-4-2.9-5.2-7.8-5.5-11.7c-0.4,1.4-0.7,2.8-0.9,4.2c-0.2,1.7-1.7,14.9,6.5,20.8c9,6.4,22.5-0.9,23.1-1.2
			C933.1,770.1,937.6,733.9,927.5,727.2z"/>
		<g>
			<path class="st0" d="M916.3,786l-0.8,0.4l-0.7,0.4c-0.5,0.2-0.9,0.5-1.4,0.7c-0.9,0.4-1.9,0.8-2.8,1.2c-1.9,0.7-3.9,1.3-6,1.8
				c-2.1,0.4-4.3,0.7-6.7,0.5c-2.3-0.1-4.8-0.6-7.1-1.6c-2.4-0.9-4.5-2.5-6.3-4.3c-0.4-0.5-0.8-0.9-1.3-1.4l-1.1-1.5
				c-0.4-0.5-0.6-1-0.9-1.6c-0.3-0.5-0.6-1.1-0.8-1.6c-1-2.1-1.5-4.3-1.9-6.4c-0.4-2.1-0.5-4.2-0.5-6.3c0-4,0.8-8.4,2.2-12.3
				c1.4-3.9,3.5-7.4,5.8-10.6c2.3-3.2,5-6,7.9-8.6c2.9-2.6,6-4.9,9.3-6.8c3.3-2,6.8-3.7,10.6-4.9c1.9-0.6,3.9-1.1,6.1-1.3
				c2.2-0.2,4.5-0.2,7,0.6c0.6,0.2,1.3,0.4,1.9,0.8l0.9,0.5c0.3,0.2,0.6,0.4,0.9,0.6c0.6,0.4,1.1,0.9,1.5,1.4c0.5,0.5,0.8,1,1.2,1.5
				c1.4,2.1,2.2,4.2,2.7,6.2c0.6,2,0.9,4.1,1,6c0.2,2,0.2,3.9,0.1,5.9c-0.1,3.9-0.7,7.7-1.6,11.4c-0.9,3.7-2.1,7.4-3.7,11
				c-1.6,3.6-3.6,7-6.2,10.2C923.1,780.9,920,783.8,916.3,786z M910.8,776.3c2.5-1.3,4.7-3.2,6.8-5.4c2-2.3,3.7-4.9,5.2-7.7
				c3-5.6,4.8-12.1,5.4-18.5c0.1-1.6,0.2-3.2,0.1-4.7c-0.1-1.6-0.3-3.1-0.6-4.5c-0.3-1.4-0.9-2.6-1.4-3.5c-0.2-0.2-0.3-0.4-0.4-0.6
				c-0.1-0.2-0.3-0.3-0.4-0.4c-0.1,0-0.1-0.1-0.2-0.2c-0.1,0-0.2-0.1-0.2-0.1c-0.1-0.1-0.4-0.1-0.6-0.2c-0.8-0.3-2.1-0.3-3.5-0.2
				c-1.4,0.2-2.8,0.5-4.3,1c-2.9,1-5.8,2.5-8.5,4.3c-2.7,1.8-5.2,3.9-7.5,6.1c-2.3,2.3-4.4,4.7-6.1,7.4c-1.7,2.6-3.1,5.4-4,8.2
				c-0.9,2.9-1.2,5.6-1.1,8.6c0.1,3,0.7,5.8,1.7,8c1.1,2.2,2.5,3.5,4.3,4.2c0.9,0.4,2,0.6,3.2,0.7c1.2,0.1,2.5,0,3.9-0.1
				c1.4-0.2,2.8-0.5,4.3-1c0.7-0.2,1.4-0.5,2.1-0.8c0.3-0.1,0.7-0.3,1-0.4L910.8,776.3z"/>
		</g>
	</g>
	<g>
		<path class="st6" d="M905.8,1249.3c-0.3,0.6-6.8,14.5-17.8,14.7c-10.1,0.1-16.8-11.4-17.6-12.9c-11-19.6,2.6-52.8,14.6-53.5
			C897.1,1197,915,1228.8,905.8,1249.3z"/>
		<path class="st7" d="M885,1197.7c-1.4,0.1-2.8,0.6-4.2,1.5c9.6,4.2,20.7,26.8,13.9,42c-0.2,0.5-5.6,12-14.7,12.2
			c-4.9,0.1-8.8-3.2-11.4-6.1c0.5,1.4,1.1,2.7,1.8,3.9c0.8,1.5,7.5,13,17.6,12.9c11.1-0.2,17.5-14.1,17.8-14.7
			C915,1228.8,897.1,1197,885,1197.7z"/>
		<g>
			<path class="st0" d="M910.8,1251.6l-0.4,0.8l-0.4,0.7c-0.2,0.5-0.5,0.9-0.7,1.4c-0.5,0.9-1,1.8-1.6,2.6c-1.1,1.7-2.4,3.4-3.8,5
				c-1.5,1.6-3.1,3.1-5,4.4c-2,1.3-4.2,2.4-6.7,2.9c-2.5,0.6-5.1,0.7-7.6,0.2c-0.6-0.1-1.2-0.3-1.9-0.4l-1.8-0.6
				c-0.6-0.2-1.1-0.5-1.7-0.7c-0.5-0.3-1.1-0.5-1.6-0.8c-2.1-1.1-3.8-2.6-5.3-4.1c-1.6-1.5-2.9-3.1-4.1-4.7
				c-2.4-3.2-4.4-7.2-5.5-11.2c-1.1-4-1.6-8-1.6-11.9c0-3.9,0.4-7.8,1.2-11.6c0.8-3.8,1.9-7.4,3.4-11c1.4-3.6,3.3-7,5.6-10.3
				c1.2-1.6,2.5-3.2,4.1-4.7c1.6-1.5,3.5-2.9,6-3.7c0.7-0.2,1.3-0.4,2-0.5l1.1-0.1c0.4,0,0.7,0,1.1,0c0.7,0,1.4,0.1,2,0.2
				c0.7,0.1,1.3,0.3,1.9,0.5c2.4,0.8,4.2,2.1,5.9,3.4c1.7,1.3,3.1,2.8,4.4,4.3c1.3,1.5,2.5,3.1,3.6,4.7c2.2,3.2,4,6.6,5.5,10.1
				c1.5,3.5,2.7,7.2,3.5,11c0.8,3.8,1.2,7.8,1.1,11.9C913.3,1243.4,912.5,1247.6,910.8,1251.6z M900.7,1247c1.2-2.5,1.9-5.4,2.2-8.4
				c0.3-3,0.1-6.2-0.3-9.3c-1-6.3-3.3-12.6-6.7-18.1c-0.8-1.4-1.7-2.7-2.8-3.9c-1-1.2-2.1-2.3-3.2-3.2c-1.1-0.9-2.3-1.6-3.2-2
				c-0.2-0.1-0.5-0.2-0.7-0.2c-0.2,0-0.4-0.1-0.6-0.1c-0.1,0-0.2,0-0.3,0c-0.1,0-0.2,0-0.3,0c-0.2,0-0.4,0.1-0.6,0.2
				c-0.8,0.3-1.9,1-2.9,1.9c-1,0.9-1.9,2.1-2.8,3.3c-1.7,2.6-3.2,5.5-4.3,8.5c-1.1,3-1.9,6.2-2.4,9.4c-0.5,3.2-0.7,6.4-0.5,9.6
				c0.2,3.1,0.7,6.2,1.7,9c1,2.8,2.3,5.2,4.3,7.6c1.8,2.3,4,4.3,6.2,5.4c2.1,1.1,4.1,1.4,6,0.8c1-0.2,2-0.7,3-1.3
				c1-0.6,2.1-1.5,3.1-2.4c1-1,2-2.1,2.8-3.3c0.4-0.6,0.9-1.2,1.3-1.9c0.2-0.3,0.4-0.6,0.6-1L900.7,1247z"/>
		</g>
	</g>
	<g>
		<path class="st6" d="M1148.8,822.1c-0.4,0.5-11.2,11.5-21.7,8c-9.6-3.2-12.1-16.3-12.4-18c-3.9-22.2,19.9-48.9,31.4-45.7
			C1157.8,769.8,1164.2,805.7,1148.8,822.1z"/>
		<path class="st7" d="M1146.2,766.4c-1.4-0.4-2.9-0.3-4.5,0c7.7,7.1,10.7,32.1-0.7,44.2c-0.4,0.4-9.2,9.5-17.9,6.6
			c-4.7-1.6-7.3-5.9-8.7-9.5c0,1.5,0.2,2.9,0.4,4.3c0.3,1.7,2.8,14.8,12.4,18c10.5,3.5,21.2-7.5,21.7-8
			C1164.2,805.7,1157.8,769.8,1146.2,766.4z"/>
		<g>
			<path class="st0" d="M1152.8,825.9l-0.6,0.6l-0.6,0.6c-0.4,0.4-0.8,0.7-1.1,1.1c-0.8,0.7-1.5,1.3-2.4,2c-1.6,1.2-3.3,2.4-5.2,3.5
				c-1.9,1-3.9,1.9-6.2,2.5c-2.3,0.5-4.7,0.9-7.3,0.6c-2.5-0.2-5.1-1.1-7.3-2.3c-0.5-0.3-1.1-0.6-1.6-1l-1.5-1.1
				c-0.5-0.4-0.9-0.8-1.3-1.2c-0.4-0.4-0.9-0.8-1.2-1.3c-1.6-1.8-2.7-3.7-3.7-5.6c-1-1.9-1.7-3.9-2.3-5.8c-1.2-3.8-1.8-8.3-1.5-12.4
				c0.2-4.1,1.1-8.1,2.4-11.8c1.3-3.7,3-7.2,5-10.5c2-3.3,4.3-6.4,6.8-9.3c2.5-2.9,5.4-5.5,8.7-7.9c1.7-1.1,3.4-2.2,5.4-3.1
				c2-0.8,4.2-1.5,6.9-1.5c0.7,0,1.3,0,2,0.2l1,0.2c0.3,0.1,0.7,0.2,1,0.3c0.7,0.2,1.3,0.6,1.9,0.9c0.6,0.3,1.1,0.7,1.6,1.1
				c2,1.6,3.3,3.4,4.4,5.1c1.1,1.8,2,3.6,2.7,5.5c0.7,1.8,1.3,3.7,1.8,5.6c1,3.7,1.6,7.5,1.9,11.4c0.3,3.8,0.2,7.7-0.3,11.6
				c-0.5,3.9-1.4,7.8-2.9,11.5C1157.8,819,1155.7,822.7,1152.8,825.9z M1144.7,818.2c2-2,3.6-4.4,4.9-7.1c1.2-2.8,2.1-5.8,2.7-8.9
				c1.2-6.3,1.1-13-0.3-19.2c-0.3-1.6-0.8-3.1-1.3-4.6c-0.5-1.5-1.2-2.8-1.9-4.1c-0.7-1.2-1.6-2.3-2.4-2.9c-0.2-0.1-0.4-0.3-0.6-0.4
				c-0.2-0.1-0.4-0.2-0.5-0.3c-0.1,0-0.2-0.1-0.2-0.1c-0.1,0-0.2,0-0.3,0c-0.1-0.1-0.4,0-0.6,0c-0.9,0-2.1,0.3-3.4,0.9
				c-1.3,0.6-2.5,1.3-3.8,2.2c-2.5,1.8-4.8,4.1-6.8,6.6c-2.1,2.5-3.9,5.2-5.4,8.1c-1.5,2.9-2.8,5.8-3.7,8.8c-0.9,3-1.4,6.1-1.4,9
				c0,3,0.5,5.7,1.5,8.6c1,2.8,2.4,5.4,4,7.1c1.7,1.8,3.4,2.6,5.4,2.8c1,0.1,2.1,0,3.3-0.3c1.2-0.2,2.4-0.7,3.7-1.3
				c1.3-0.6,2.5-1.3,3.8-2.2c0.6-0.4,1.2-0.9,1.8-1.4c0.3-0.2,0.6-0.5,0.9-0.7L1144.7,818.2z"/>
		</g>
	</g>
	<g>
		<path class="st6" d="M1047.1,1086.2c-0.4,0.5-11.2,11.5-21.7,8c-9.6-3.2-12.1-16.3-12.4-18c-3.9-22.2,19.9-48.9,31.4-45.7
			C1056.2,1033.9,1062.5,1069.9,1047.1,1086.2z"/>
		<path class="st7" d="M1044.5,1030.6c-1.4-0.4-2.9-0.3-4.5,0c7.7,7.1,10.7,32.1-0.7,44.2c-0.4,0.4-9.2,9.5-17.9,6.6
			c-4.7-1.6-7.3-5.9-8.7-9.5c0,1.5,0.2,2.9,0.4,4.3c0.3,1.7,2.8,14.8,12.4,18c10.5,3.5,21.2-7.5,21.7-8
			C1062.5,1069.9,1056.2,1033.9,1044.5,1030.6z"/>
		<g>
			<path class="st0" d="M1051.1,1090.1l-0.6,0.6l-0.6,0.6c-0.4,0.4-0.8,0.7-1.1,1.1c-0.8,0.7-1.5,1.3-2.4,2
				c-1.6,1.2-3.3,2.4-5.2,3.5c-1.9,1-3.9,1.9-6.2,2.5c-2.3,0.5-4.7,0.9-7.3,0.6c-2.5-0.2-5.1-1.1-7.3-2.3c-0.5-0.3-1.1-0.6-1.6-1
				l-1.5-1.1c-0.5-0.4-0.9-0.8-1.3-1.2c-0.4-0.4-0.9-0.8-1.2-1.3c-1.6-1.8-2.7-3.7-3.7-5.6c-1-1.9-1.7-3.9-2.3-5.8
				c-1.2-3.8-1.8-8.3-1.5-12.4c0.2-4.1,1.1-8.1,2.4-11.8c1.3-3.7,3-7.2,5-10.5c2-3.3,4.3-6.4,6.8-9.3c2.5-2.9,5.4-5.5,8.7-7.9
				c1.7-1.1,3.4-2.2,5.4-3.1c2-0.8,4.2-1.5,6.9-1.5c0.7,0,1.3,0,2,0.2l1,0.2c0.3,0.1,0.7,0.2,1,0.3c0.7,0.2,1.3,0.6,1.9,0.9
				c0.6,0.3,1.1,0.7,1.6,1.1c2,1.6,3.3,3.4,4.4,5.1c1.1,1.8,2,3.6,2.7,5.5c0.7,1.8,1.3,3.7,1.8,5.6c1,3.7,1.6,7.5,1.9,11.4
				c0.3,3.8,0.2,7.7-0.3,11.6c-0.5,3.9-1.4,7.8-2.9,11.5C1056.2,1083.2,1054,1086.9,1051.1,1090.1z M1043,1082.4
				c2-2,3.6-4.4,4.9-7.1c1.2-2.8,2.1-5.8,2.7-8.9c1.2-6.3,1.1-13-0.3-19.2c-0.3-1.6-0.8-3.1-1.3-4.6c-0.5-1.5-1.2-2.8-1.9-4.1
				c-0.7-1.2-1.6-2.3-2.4-2.9c-0.2-0.1-0.4-0.3-0.6-0.4c-0.2-0.1-0.4-0.2-0.5-0.3c-0.1,0-0.2-0.1-0.2-0.1c-0.1,0-0.2,0-0.3,0
				c-0.1-0.1-0.4,0-0.6,0c-0.9,0-2.1,0.3-3.4,0.9c-1.3,0.6-2.5,1.3-3.8,2.2c-2.5,1.8-4.8,4.1-6.8,6.6c-2.1,2.5-3.9,5.2-5.4,8.1
				c-1.5,2.9-2.8,5.8-3.7,8.8c-0.9,3-1.4,6.1-1.4,9c0,3,0.5,5.7,1.5,8.6c1,2.8,2.4,5.4,4,7.1c1.7,1.8,3.4,2.6,5.4,2.8
				c1,0.1,2.1,0,3.3-0.3c1.2-0.2,2.4-0.7,3.7-1.3c1.3-0.6,2.5-1.3,3.8-2.2c0.6-0.4,1.2-0.9,1.8-1.4c0.3-0.2,0.6-0.5,0.9-0.7
				L1043,1082.4z"/>
		</g>
	</g>
	<g>
		<path class="st6" d="M1310.9,964.5c-0.4,0.5-9.1,13.2-20,11.6c-10-1.5-14.7-14-15.2-15.6c-7.6-21.2,11.2-51.6,23.2-50.3
			C1310.9,911.4,1323.3,945.8,1310.9,964.5z"/>
		<path class="st7" d="M1298.9,910.1c-1.4-0.1-2.9,0.1-4.4,0.8c8.8,5.7,16,29.9,6.8,43.7c-0.3,0.4-7.5,10.9-16.5,9.6
			c-4.9-0.7-8.2-4.6-10.2-7.9c0.3,1.4,0.7,2.8,1.1,4.2c0.6,1.6,5.2,14.1,15.2,15.6c10.9,1.7,19.6-11,20-11.6
			C1323.3,945.8,1310.9,911.4,1298.9,910.1z"/>
		<g>
			<path class="st0" d="M1315.5,967.5l-0.5,0.7l-0.5,0.6c-0.3,0.4-0.6,0.8-0.9,1.2c-0.6,0.8-1.3,1.6-2,2.3c-1.4,1.5-2.9,3-4.6,4.3
				c-1.7,1.3-3.5,2.5-5.7,3.5c-2.1,0.9-4.5,1.6-7.1,1.8c-2.5,0.2-5.2-0.2-7.6-1c-0.6-0.2-1.2-0.5-1.8-0.7l-1.6-0.9
				c-0.6-0.3-1-0.6-1.5-1c-0.5-0.3-1-0.7-1.4-1.1c-1.8-1.5-3.3-3.2-4.6-4.9c-1.3-1.7-2.4-3.5-3.3-5.4c-1.9-3.6-3.1-7.9-3.6-11.9
				c-0.5-4.1-0.2-8.1,0.4-12c0.6-3.9,1.7-7.6,3.1-11.2c1.4-3.6,3.1-7,5.1-10.3c2-3.3,4.4-6.4,7.2-9.2c1.4-1.4,3-2.8,4.8-3.9
				c1.8-1.2,3.9-2.2,6.5-2.7c0.7-0.1,1.3-0.2,2-0.2l1.1,0c0.4,0,0.7,0.1,1.1,0.2c0.7,0.1,1.4,0.3,2,0.6c0.7,0.2,1.2,0.5,1.8,0.8
				c2.2,1.2,3.8,2.7,5.2,4.3c1.4,1.6,2.6,3.2,3.6,4.9c1,1.7,2,3.4,2.8,5.2c1.6,3.5,2.9,7.2,3.8,10.9c0.9,3.7,1.5,7.5,1.7,11.5
				c0.2,3.9-0.1,7.9-0.9,11.9C1319.3,959.9,1317.8,963.9,1315.5,967.5z M1306.2,961.4c1.6-2.3,2.8-5,3.6-7.9c0.8-2.9,1.1-6,1.2-9.2
				c0.1-6.4-1.2-13-3.6-18.9c-0.6-1.5-1.3-2.9-2.1-4.3c-0.8-1.4-1.6-2.6-2.6-3.7c-0.9-1.1-2-2-2.9-2.5c-0.2-0.1-0.5-0.3-0.7-0.3
				c-0.2-0.1-0.4-0.2-0.6-0.2c-0.1,0-0.2,0-0.3-0.1c-0.1,0-0.2,0-0.3,0c-0.2,0-0.4,0-0.6,0.1c-0.9,0.1-2,0.7-3.2,1.4
				c-1.1,0.8-2.3,1.7-3.3,2.8c-2.1,2.2-4,4.9-5.6,7.7c-1.6,2.8-2.9,5.8-3.9,8.9c-1,3.1-1.8,6.2-2.1,9.3c-0.3,3.1-0.3,6.2,0.2,9.1
				c0.5,2.9,1.5,5.5,2.9,8.2c1.4,2.6,3.3,4.9,5.2,6.3c1.9,1.5,3.8,2,5.8,1.8c1,0,2-0.4,3.2-0.8c1.1-0.4,2.3-1.1,3.4-1.9
				c1.1-0.8,2.3-1.8,3.3-2.8c0.5-0.5,1.1-1.1,1.5-1.6c0.2-0.3,0.5-0.6,0.7-0.8L1306.2,961.4z"/>
		</g>
	</g>
	<g>
		<path class="st6" d="M1066.8,1271.4c-0.6,0.3-14.8,6.2-23.1-1.2c-7.5-6.7-4.7-19.7-4.3-21.4c5.2-21.9,37.6-37.1,46.9-29.5
			C1095.8,1227,1087.4,1262.6,1066.8,1271.4z"/>
		<path class="st7" d="M1086.4,1219.3c-1.1-0.9-2.5-1.5-4.1-1.7c4.2,9.6-2.9,33.8-18.1,40.3c-0.5,0.2-12.2,5.1-19.1-1
			c-3.7-3.3-4.3-8.3-4.2-12.2c-0.5,1.3-1,2.7-1.3,4.1c-0.4,1.7-3.3,14.6,4.3,21.4c8.2,7.4,22.5,1.5,23.1,1.2
			C1087.4,1262.6,1095.8,1227,1086.4,1219.3z"/>
		<g>
			<path class="st0" d="M1069,1276.6l-0.8,0.3l-0.7,0.3c-0.5,0.2-1,0.4-1.5,0.5c-1,0.3-1.9,0.6-2.9,0.9c-2,0.5-4,0.9-6.2,1.1
				c-2.2,0.2-4.4,0.2-6.7-0.2c-2.3-0.4-4.7-1.1-6.9-2.4c-2.3-1.2-4.2-3-5.8-5c-0.4-0.5-0.7-1-1.1-1.5l-0.9-1.6
				c-0.3-0.5-0.5-1.1-0.7-1.7c-0.2-0.6-0.5-1.1-0.6-1.7c-0.7-2.2-1-4.4-1.2-6.6c-0.1-2.2-0.1-4.2,0.2-6.3c0.4-4,1.7-8.3,3.5-12
				c1.8-3.7,4.2-7,6.9-9.9c2.6-2.9,5.6-5.5,8.7-7.7c3.1-2.3,6.4-4.2,9.9-5.8c3.5-1.7,7.1-3,11.1-3.8c2-0.4,4-0.7,6.2-0.7
				c2.2,0,4.5,0.3,6.9,1.3c0.6,0.3,1.2,0.6,1.8,1l0.9,0.6c0.3,0.2,0.5,0.5,0.8,0.7c0.5,0.5,1,1,1.4,1.6c0.4,0.5,0.7,1.1,1,1.6
				c1.2,2.2,1.7,4.4,2,6.5c0.3,2.1,0.4,4.1,0.4,6.1c-0.1,2-0.2,3.9-0.5,5.9c-0.6,3.8-1.5,7.6-2.8,11.2c-1.3,3.6-2.8,7.2-4.8,10.5
				c-2,3.4-4.4,6.6-7.2,9.5C1076.3,1272.2,1072.9,1274.8,1069,1276.6z M1064.6,1266.3c2.6-1,5-2.6,7.3-4.6c2.2-2,4.2-4.5,6-7.1
				c3.5-5.3,6.1-11.5,7.3-17.8c0.3-1.6,0.5-3.2,0.6-4.7c0.1-1.6,0-3.1-0.2-4.5c-0.2-1.4-0.6-2.7-1.1-3.6c-0.1-0.2-0.2-0.5-0.4-0.6
				c-0.1-0.2-0.2-0.4-0.4-0.4c-0.1-0.1-0.1-0.1-0.2-0.2c-0.1,0-0.2-0.1-0.2-0.1c-0.1-0.1-0.3-0.2-0.5-0.3c-0.8-0.4-2.1-0.6-3.4-0.5
				c-1.4,0-2.9,0.2-4.3,0.5c-3,0.7-6,1.9-8.9,3.4c-2.9,1.5-5.6,3.3-8.1,5.3c-2.5,2-4.9,4.2-6.9,6.7c-2,2.4-3.7,5-4.8,7.8
				c-1.2,2.8-1.8,5.4-2,8.5c-0.2,3,0.1,5.9,0.9,8.1c0.8,2.3,2.1,3.8,3.8,4.7c0.8,0.5,1.9,0.8,3.1,1c1.2,0.3,2.5,0.3,3.9,0.3
				c1.4-0.1,2.9-0.2,4.3-0.5c0.7-0.2,1.5-0.3,2.2-0.5c0.4-0.1,0.7-0.2,1.1-0.3L1064.6,1266.3z"/>
		</g>
	</g>
	<g>
		<path class="st6" d="M1227.7,1133.7c-0.5,0.4-13.1,9.3-22.7,4c-8.9-4.9-8.9-18.2-8.9-19.9c0.2-22.5,28.3-44.6,39.1-39.2
			C1246.1,1083.9,1245.9,1120.5,1227.7,1133.7z"/>
		<path class="st7" d="M1235.2,1078.6c-1.3-0.6-2.8-0.9-4.4-0.8c6.3,8.4,4.7,33.5-8.7,43.4c-0.4,0.3-10.8,7.7-18.8,3.3
			c-4.3-2.4-6.1-7.1-6.8-10.9c-0.2,1.4-0.4,2.9-0.4,4.3c0,1.7,0.1,15,8.9,19.9c9.7,5.3,22.2-3.6,22.7-4
			C1245.9,1120.5,1246.1,1083.9,1235.2,1078.6z"/>
		<g>
			<path class="st0" d="M1231,1138.2l-0.7,0.5l-0.7,0.4c-0.4,0.3-0.9,0.6-1.3,0.8c-0.9,0.5-1.8,1-2.7,1.5c-1.8,0.9-3.7,1.8-5.8,2.5
				c-2.1,0.6-4.2,1.2-6.6,1.3c-2.3,0.1-4.8,0-7.3-0.8c-2.5-0.7-4.8-2-6.7-3.6c-0.5-0.4-1-0.8-1.4-1.3l-1.2-1.4
				c-0.4-0.5-0.8-1-1.1-1.4c-0.3-0.5-0.7-1-1-1.5c-1.2-2-2-4.1-2.6-6.2c-0.6-2.1-1-4.1-1.2-6.2c-0.5-4-0.2-8.5,0.7-12.4
				c1-4,2.6-7.7,4.5-11.2c1.9-3.4,4.2-6.6,6.8-9.5c2.5-2.9,5.3-5.5,8.4-7.9c3-2.4,6.3-4.5,9.9-6.2c1.8-0.8,3.8-1.6,5.9-2
				c2.1-0.5,4.4-0.8,7.1-0.3c0.7,0.2,1.3,0.3,2,0.6l1,0.4c0.3,0.2,0.6,0.3,0.9,0.5c0.6,0.4,1.2,0.8,1.7,1.2c0.5,0.4,0.9,0.9,1.4,1.4
				c1.6,1.9,2.6,3.9,3.4,5.8c0.8,2,1.3,3.9,1.7,5.9c0.4,2,0.7,3.9,0.8,5.8c0.3,3.9,0.2,7.7-0.2,11.5c-0.4,3.8-1.2,7.6-2.4,11.3
				c-1.2,3.7-2.8,7.4-4.9,10.8C1237.2,1132.4,1234.4,1135.6,1231,1138.2z M1224.4,1129.2c2.3-1.6,4.3-3.7,6.1-6.2
				c1.7-2.5,3.1-5.3,4.3-8.3c2.3-5.9,3.4-12.6,3.1-19c-0.1-1.6-0.2-3.2-0.5-4.7c-0.3-1.5-0.6-3-1.2-4.3c-0.5-1.3-1.2-2.5-1.9-3.3
				c-0.2-0.2-0.3-0.4-0.5-0.5c-0.2-0.1-0.3-0.3-0.5-0.3c-0.1,0-0.1-0.1-0.2-0.1c-0.1,0-0.2-0.1-0.2-0.1c-0.1-0.1-0.4-0.1-0.6-0.2
				c-0.9-0.2-2.1-0.1-3.5,0.3c-1.3,0.3-2.7,0.9-4.1,1.5c-2.8,1.4-5.4,3.2-7.9,5.3c-2.5,2.1-4.7,4.5-6.8,7c-2,2.5-3.8,5.2-5.2,8
				c-1.4,2.8-2.5,5.7-3,8.6c-0.5,2.9-0.5,5.7,0,8.7c0.5,2.9,1.4,5.7,2.7,7.7c1.3,2,2.9,3.2,4.8,3.7c0.9,0.3,2.1,0.4,3.2,0.3
				c1.2,0,2.5-0.3,3.9-0.6c1.4-0.4,2.7-0.9,4.1-1.5c0.7-0.3,1.4-0.6,2-1c0.3-0.2,0.7-0.4,1-0.5L1224.4,1129.2z"/>
		</g>
	</g>
</g>
<path class="st1" d="M898.9,682.8c-27.7,9.1-53.2,24.3-75.8,47.4c-101.1,103.6-94.5,269.8-54.3,398.6
	c20.9,66.7,52.6,130.2,96.1,185.1c108.4,136.8,282.7-9.8,366.8-98.6c28.6-30.2,54.9-62.6,78.7-96.7c38.3-54.8,72-119.5,65-188.4
	c-13.1-129.2-139.7-203.8-253.2-235.5c-37.2-10.4-75.7-16.9-114.1-20.9C969.8,669.8,932.8,671.7,898.9,682.8z"/>
<path class="st1" d="M965.2,668.3c-15.9-6-26.2-21.8-31.3-37.9c-11.8-37-0.1-80.3,28.7-106.4c1.2-1.1,2.5-2.2,4.1-2.5
	c6.3-1.3,15,16.1,18.4,20.6c6.7,8.7,13.8,17,21.8,24.5c11.5,10.7,24.6,19.6,35.9,30.5c12.2,11.9,22,26.1,28.7,41.8
	c15.6-16.6,36.7-27.3,58.6-33.2c22-5.9,45-7.1,67.7-6.8c12.8,0.2,25.7,0.8,38.5-0.2c19.2-1.5,38.2-6.6,55.6-15
	c1.5,9.1-0.3,18.4-2.6,27.3c-6.3,24.5-16.4,48.3-32.7,67.7c-16.2,19.3-39.1,33.8-64.1,36.9"/>
<path class="st1" d="M1363.2,742.9c2.8,0.5,7.6,1.4,13.4,3c29.3,7.8,39.8,19.7,63.2,26.4c7.6,2.2,18.8,4.6,33.3,4.7
	c-3.1,7.9-18.4,43.6-58.5,61.4c-29.7,13.2-56.8,9.3-67,7.2"/>
<path class="st1" d="M929.6,608.5c-8.3-5.5-21.4-13.2-38.5-19.8c-14.9-5.7-21.8-6.3-34.4-11.3c-10.8-4.3-25.8-11.8-42.2-26.1
	c-3.1,13-3.5,24.3-2.9,33.5c4.4,61,60.6,97.7,70.8,104.2"/>
<path class="st1" d="M1261.2,672.9c6.9-1.7,17.1-3.6,29.6-3.4c9.8,0.2,14.1,1.6,31.6,5c24.1,4.6,36.2,5.8,50.3,7.1
	c11.1,1.1,22.9,1.6,33-3c-1.2,3.5-3,8.8-5.8,14.9c-4.6,10-21.1,45.9-60.4,64.5c-24.9,11.8-48.6,11.8-62.1,10.6"/>
<path class="st1" d="M1121.1,605.4c4-22.1,11.8-43.6,23-63c5-8.7,10.7-16.9,16.4-25.1c2-2.9,4.5-6.1,8-6.5c1.9-0.2,3.7,0.3,5.5,1
	c12.7,4.7,23.7,13.7,30.8,25.2c0.3,0.4,0.6,0.9,0.5,1.5c0,0.6-0.5,1.1-0.8,1.6c-15.9,18.1-30.5,37.4-43.7,57.6"/>
<path class="st1" d="M1071.5,638.8c-2.5,3.3-5.3,7.5-7.7,12.6c-4.3,9.2-5.9,17.6-6.5,23.6"/>
<g>
	<path class="st8" d="M921.1,839.6c-8.3-3.4-16-9.4-19.1-17.8"/>
	<path class="st8" d="M908.2,851.7c-3.1,0-8.7-0.3-14.8-3.5c-3.6-1.9-6.2-4.1-7.9-5.9"/>
	
		<ellipse transform="matrix(0.3088 -0.9511 0.9511 0.3088 -256.9866 1490.6704)" class="st9" cx="897.1" cy="922.1" rx="17.3" ry="27.5"/>
	
		<ellipse transform="matrix(0.3088 -0.9511 0.9511 0.3088 -189.3508 1484.4064)" class="st0" cx="926.6" cy="872.5" rx="43.5" ry="37.4"/>
	
		<ellipse transform="matrix(0.3088 -0.9511 0.9511 0.3088 -171.7185 1456.6432)" class="st10" cx="916.3" cy="846.5" rx="7.7" ry="7.1"/>
	
		<ellipse transform="matrix(0.3088 -0.9511 0.9511 0.3088 -214.5356 1486.7478)" class="st10" cx="915.6" cy="891" rx="13.1" ry="11.8"/>
	
		<ellipse transform="matrix(0.3088 -0.9511 0.9511 0.3088 -161.7734 1783.343)" class="st9" cx="1146.1" cy="1003" rx="17.3" ry="27.5"/>
	
		<ellipse transform="matrix(0.3088 -0.9511 0.9511 0.3088 -100.9035 1756.2814)" class="st0" cx="1157.9" cy="947.6" rx="43.5" ry="37.4"/>
	
		<ellipse transform="matrix(0.3088 -0.9511 0.9511 0.3088 -83.2713 1728.5182)" class="st10" cx="1147.6" cy="921.6" rx="7.7" ry="7.1"/>
	
		<ellipse transform="matrix(0.3088 -0.9511 0.9511 0.3088 -126.0884 1758.6228)" class="st10" cx="1146.9" cy="966.1" rx="13.1" ry="11.8"/>
	<path class="st8" d="M1015.2,907.2c-7.6,18.2,2.5,38.7,19.8,43.8c16.8,5,35.8-5.8,40.1-24.4"/>
	<path class="st8" d="M1178.2,921.8c8.9,1.2,18.5-0.3,25.4-6.1"/>
	<path class="st8" d="M1183.8,938.8c2.6,1.5,7.8,4,14.6,4.3c4.1,0.2,7.4-0.5,9.8-1.2"/>
</g>
<g>
	<path class="st11" d="M536.7,773.3c1.6-7.3,8.6-11.8,15-15.6c18.1-10.6,36.1-21.2,54.2-31.8c2.3-1.3,4.6-2.7,7.2-3
		c2.4-0.3,4.8,0.3,7.1,0.9c59.2,15,120,25,177.1,46.7c4,1.5,8.2,3.2,11,6.5c3.8,4.3,4.5,10.6,3.1,16.1c-1.5,5.5-4.8,10.3-8.6,14.6
		c-19.1,22.1-47.8,33.3-76.1,40.6c-15.7,4.1-31.9,7.2-48,5.4c-18.9-2.1-36.2-10.9-53.6-18.7c-24.1-10.7-49.9-20.4-67.2-40.3"/>
	<path class="st12" d="M825.7,773.8c-8.4,8.2-19.9,18-35.1,26.8c-19.2,11.2-37,16.9-50.1,20l-213.7-53.9L698,1161.1l189.3,56.2
		c14.6-1.5,43.8-6.7,70.9-28.5c10.7-8.7,18.6-17.9,24.2-25.8C930.1,1033.3,877.9,903.5,825.7,773.8z"/>
	<path class="st13" d="M767.8,812.5c-5.1,2.7-21.7,9.5-27.2,8.1c-8.8-2.2-22.7-9.1-31.5-7.5c12.6,30.7,94,231.5,63.2,278.2
		c-5.6,8.6-13.4,12.9-13.4,12.9c-34.4,18.9-90.6-27.4-100.4-35.7c2.5,6.2,6.5,16.1,11.6,28.1c4.5,10.6,7.3,16.9,14.7,33.8
		c4.4,10.2,8.9,20.4,13.3,30.6l189.3,56.2c14.6-1.5,43.8-6.7,70.9-28.5c10.7-8.7,18.6-17.9,24.2-25.8c1.3-1.8-7.6-18.9-8.6-21.5
		c-2.9-7.2-5.8-14.3-8.6-21.5c-5.4-13.5-7.3-20.6-23.3-20.7c-11.9,0-23-5.9-32.2-13.4c-21.4-17.2-34.5-42.3-47.1-66.7
		c-12-23.3-24-46.5-35.9-69.8c-11.4-22.2-22.9-44.4-33.1-67.2C783.2,859.6,777.2,835.3,767.8,812.5z"/>
	<path class="st14" d="M747.6,839.9c13.1-3.1,31-8.8,50.1-20c15.2-8.9,26.7-18.6,35.1-26.8c49.7,123.5,99.4,247,149.1,370.5
		c0.2-0.2,0.3-0.4,0.5-0.7c-52.2-129.7-104.4-259.4-156.6-389.2c-8.4,8.2-19.9,18-35.1,26.8c-19.2,11.2-37,16.9-50.1,20l-213.7-53.9
		l8.5,19.7L747.6,839.9z"/>
	<polygon class="st1" points="526.8,766.8 740.5,820.6 887.3,1217.3 698,1161.1 	"/>
	<path class="st1" d="M740.5,820.6c13.1-3.1,31-8.8,50.1-20c15.2-8.9,26.7-18.6,35.1-26.8c52.2,129.7,104.4,259.4,156.6,389.2
		c-5.6,7.9-13.4,17.2-24.2,25.8c-27,21.9-56.3,27-70.9,28.5"/>
	<path class="st1" d="M539.4,769.9c21.7-14.6,43.3-29.3,65-43.9c72.6,17.1,145.1,34.2,217.7,51.3"/>
	<path class="st1" d="M597.5,730.7c-1.3-4.5-2.6-9-3.9-13.5c77.4,18.9,154.8,37.8,232.2,56.7"/>
</g>
<path class="st0" d="M888.5,1036.4c-2.4-7.6-5.3-15.1-9.1-22.2c-2.9-5.4-5.8-13.6-12.6-14.7c-3.7-0.6-7.7,1-9.9,4
	c-2.2,2.9-2.8,6.8-3,10.5c-0.5,7.4-0.1,14.9,1.2,22.3c-12.5-5-26-7.5-39.5-7.2c-4,0.1-8.1,0.5-11.7,2c-11.5,5-12.2,20.9-7.8,30.9
	c8.8,20.3,29.9,33,51.4,38.1c7.5,1.8,15.5,2.8,22.9,0.5c11.8-3.7,19.9-15.4,22.1-27.6C894.8,1060.7,892.2,1048.2,888.5,1036.4z"/>
<path class="st1" d="M853,1062.6c19.7,12.1,47.8,27.6,83.5,41.6c33.5,13.2,64.9,25.5,107.5,28.1c22.2,1.3,57.2,0.6,99.4-12.9"/>
<path class="st0" d="M591.5,992c0.1-0.4,0.1-0.7,0.2-1.1c2.2-10.6,10.7-35.6,24.9-35.1c4.1,0.1,8,2.7,9.8,6.4
	c1.8,3.6,1.5,7.9,1,11.9c-1.1,8.1-3.1,16.1-6,23.7c8.5-1.6,17.1-2.2,25.7-1.8c7.9,0.4,13.9,0.1,19.2,6.6c9.7,11.9,15,28.1,11.3,43
	c-1.3,5.4-3.9,10.7-7.8,14.6c-17.4,17.3-48.1,2.5-62-12.2c-11.9-12.6-18.3-30.1-17.3-47.4C590.6,997.8,591,994.8,591.5,992z"/>
</svg>
