<?xml version="1.0" encoding="utf-8"?>
<!-- Generator: Adobe Illustrator 23.0.3, SVG Export Plug-In . SVG Version: 6.00 Build 0)  -->
<svg version="1.1" id="Layer_1" xmlns="http://www.w3.org/2000/svg" xmlns:xlink="http://www.w3.org/1999/xlink" x="0px" y="0px"
	 viewBox="0 0 1088.6 1011.4" style="enable-background:new 0 0 1088.6 1011.4;" xml:space="preserve">
<style type="text/css">
	.st0{fill:none;stroke:#410B09;stroke-width:17.9247;stroke-linecap:round;stroke-linejoin:round;stroke-miterlimit:10;}
	.st1{fill:#410B09;}
	.st2{fill:#63C070;}
	.st3{opacity:0.74;fill:#177D59;}
	.st4{fill:#FE4153;}
	.st5{opacity:0.74;fill:#D30B2F;}
	.st6{fill:#FFCF63;}
	.st7{fill:#FFB04A;}
	.st8{fill:none;stroke:#410B09;stroke-width:13.1352;stroke-linecap:round;stroke-linejoin:round;stroke-miterlimit:10;}
	.st9{fill:#FEA6A4;}
	.st10{fill:#FFFFF6;}
	.st11{fill:#F15D60;}
	.st12{opacity:0.4;fill:#FFFFFF;}
	.st13{fill:#548DF4;}
	.st14{fill:#D2A57D;}
</style>
<path class="st0" d="M677,536.6c27.5,17.2,52.8,26.7,72.5,32.3c45.8,13,84.5,11.2,137.3,8.3c32.8-1.8,60.2-5.4,80-8.5"/>
<path class="st1" d="M967.1,532.9c16.8-14.4,44.1-19.8,53.8-9.5c1.3,1.3,2,2.7,2.4,3.5c9.1,0.4,16.9,0.8,21.8,1
	c16.1,0.8,24.4,1.3,29.6,6.7c0.8,0.9,2.8,3,3.3,6.1c0.7,4.5-2.1,8.3-3.1,9.6c-2.5,3-6.2,4.8-22.9,7.1c-5.6,0.8-10.8,1.4-15.3,1.8
	c0.5,1.7,2.5,8.8-1,16.4c-4.3,9.2-13.3,11.9-14.6,12.3c-0.1,2-1.4,18.3-12.4,23.7c-5.2,2.6-10.9,2.3-18.8,0.7
	c-5.7-1.1-11.4-2.7-16.9-4.7c-8.2-3-15.4-6.5-20.3-13.2c-10.6-14.5-2.5-35.5-0.9-39.8C956.6,542.2,964.6,534.9,967.1,532.9z"/>
<path class="st1" d="M615.1,977.9c-6.6,3.3-14.4,3.8-21.8,3.8c-11.5,0-23-0.9-34.3-3.2c-4.9-1-9.7-1.9-14-4.5
	c-2.1-1.3-7.1-3.8-6.2-7c0.2-0.8,0.9-1.5,1.6-2c3.6-2.6,8.4-3.8,12.7-4.8c5.4-1.3,10.9-2.4,16.4-3.2c9.4-1.2,18.8-1.1,28.3-1.1
	c2.4,0,4.9,0,7.2,0.6c3.8,0.9,7.2,3.1,10,5.8c2.6,2.5,4.8,5.6,5,9.1c0.1,1.2-0.1,2.5-0.9,3.5c-0.5,0.8-1.4,1.3-2.2,1.8
	C616.4,977.2,615.8,977.6,615.1,977.9z"/>
<path class="st1" d="M374.8,968.1c-11.9,6.1-23.9,19.4-20.8,25.4c1.7,3.3,7,3.4,10.2,3.4c10.5,0,21.2-2.7,31.3-5.3
	c5.9-1.5,11.7-3.1,17.5-4.9c3.5-1,7-2.1,10.4-3.2c1.8-0.6,3.6-1.2,5.5-1.7c1.2-0.4,3.3-0.5,3.4-2.1c0.1-1.7-3.4-3.7-4.6-4.6
	c-3.7-2.8-7.8-5.3-12.1-7.1c-8-3.5-16.9-5.1-25.6-4.2C384.6,964.3,379.5,965.7,374.8,968.1z"/>
<path class="st0" d="M568.9,797.1c0.6,23-0.6,52.5-7.2,85.9c-6.7,34.1-17.1,62.2-26.6,83.5c2.5-0.8,53.3-17.5,73.2-9.3
	c2.9,1.2,9.1,3.7,12.3,9.9c2.5,4.9,2.6,11,1.2,13.7c-3.4,6.3-22.5,6.9-86.7-14.4"/>
<path class="st0" d="M432,798.7c-12.4,28.2-15.5,59.8-13.7,90.5c1.9,30.8,8.6,61,15.3,91c-17.1-16.8-40.8-21.3-58.8-12.1
	c-11.9,6.1-23.9,19.4-20.8,25.4c2.8,5.3,18.5,6.8,79.6-13.3"/>
<path class="st2" d="M54.7,280.2c24.3-7,47.3-26.5,73.6-24.9c0.6,0,1.2,0.1,1.6-0.3c1-0.7,0.4-2.2-0.1-3.2c-0.8-1.4-1.4-2.8-2-4.1
	c-20.1-18.1-29.8-39-33.1-46.2c-2.8-6.1-4.7-11.4-5.8-14.9c10.2,4.7,21.9,4.1,33,3c14.1-1.3,26.2-2.6,50.3-7.1
	c17.5-3.3,21.8-4.8,31.6-5c1.8,0,3.5,0,5.2,0c6.7-0.9,13.5-1.6,20.3-2.5c-11.3-16.9-18.9-36.3-24-56c-2.3-8.9-4.1-18.2-2.6-27.3
	c17.4,8.4,36.3,13.6,55.6,15c12.8,1,25.6,0.3,38.5,0.2c12.4-0.2,24.9,0.2,37.3,1.4c-3.3-6.4-6.9-12.7-11.1-18.8
	C312.6,75,301.7,61.1,290,47.9c-0.4-0.5-0.8-1-0.8-1.6c0-0.5,0.3-1,0.5-1.5c7.1-11.5,18.1-20.6,30.8-25.2c1.8-0.6,3.6-1.2,5.5-1
	c3.5,0.5,6,3.6,8,6.5c5.7,8.2,11.4,16.5,16.4,25.1c8.2,14.2,14.6,29.5,19,45.3c2.1,7.4,4,14.3,6.5,21.5
	c17.7,6.3,34.3,15.9,47.2,29.6c6.7-15.6,16.5-29.9,28.7-41.8c11.3-11,24.4-19.8,35.9-30.5c8-7.5,15.1-15.9,21.8-24.5
	c3.4-4.5,12.1-21.9,18.4-20.6c1.6,0.3,2.9,1.4,4.1,2.5c22.5,20.4,34.6,51.3,33.1,81.6c0.5-0.1,0.9-0.3,1.3-0.4
	c13.1-3.6,24.1-11.5,37-16.4c14.9-5.7,21.8-6.3,34.4-11.3c10.8-4.3,25.8-11.8,42.2-26.1c3.1,13,3.5,24.3,2.9,33.5
	c-4.4,61-60.6,97.7-70.8,104.2L146.9,353.5c-10.2,2-37.3,6-67-7.2c-40-17.8-55.3-53.5-58.5-61.4C35.9,284.8,47.1,282.4,54.7,280.2z"
	/>
<path class="st3" d="M49.3,319.1c41.2,5.8,84.4-2.9,120-24.5c6.7-4,14-11.8,10-18.5c-1.8-3-5.2-4.4-8.4-5.7
	c-32.6-13.8-60.4-38.7-77.7-69.6c29.4,17.6,61,32.3,94.7,38.4c33.7,6,69.8,2.8,99.9-13.6C258.6,202,234,173,215.4,140.6
	c43,49.7,123.1,62.2,179.2,27.9c3.1-1.9,6.1-3.9,8-7c5.6-9-1.7-20.3-8.6-28.3c11.3,9.1,22.6,18.3,33.9,27.4c2.9,2.3,5.8,4.7,9.3,6.1
	c5.6,2.2,12,1.6,17.9,0.5c50.1-9.6,91.5-54,97.5-104.6c11.5,27.8,14.2,59.2,7.6,88.5c-0.5,2.2-1,4.8,0.5,6.5
	c1.3,1.5,3.5,1.7,5.4,1.8c44.3,1.3,88.7-20.1,115.3-55.6c-7.6,25.1-16.5,45.8-35,65.2c-8.6,9-22,24-34.3,28.1
	c-0.1,0-465.2,156.5-465.2,156.5c-10.2,2-37.3,6-67-7.2c-14.3-6.3-29.6-17.9-40.7-28.9C42.5,318,45.9,318.6,49.3,319.1z"/>
<path class="st4" d="M595.6,190.8c27.7,9.1,53.2,24.3,75.8,47.4c101.1,103.6,94.5,269.8,54.3,398.6
	c-20.9,66.7-52.6,130.2-96.1,185.1c-108.4,136.8-282.7-9.8-366.8-98.6c-28.6-30.2-54.9-62.6-78.7-96.7c-38.3-54.8-72-119.5-65-188.4
	C132.1,309,258.7,234.3,372.2,202.6c37.2-10.4,75.7-16.9,114.1-20.9C524.7,177.8,561.7,179.7,595.6,190.8z"/>
<path class="st5" d="M119,438.1C132.1,309,258.7,234.3,372.2,202.6c5-1.4,10-2.7,15.1-4c-93.7,39-180.9,108.3-191.7,214.3
	c-7,68.9,26.7,133.6,65,188.4c23.9,34.1,50.1,66.5,78.7,96.7c59.5,62.9,164.4,154.8,259,154.4C490,932.3,339.1,803.9,262.7,723.2
	c-28.6-30.2-54.9-62.6-78.7-96.7C145.7,571.7,112,507,119,438.1z"/>
<g>
	<g>
		<path class="st6" d="M581,289.1c0.6,0.3,14.1,7.7,23.1,1.2c8.2-5.9,6.7-19.1,6.5-20.8c-2.8-22.3-33.4-40.9-43.5-34.3
			C556.8,241.8,561.4,278.1,581,289.1z"/>
		<path class="st7" d="M567,235.2c1.2-0.8,2.6-1.2,4.3-1.3c-5.2,9.1-0.7,33.9,13.8,42c0.5,0.3,11.6,6.4,19.1,1
			c4-2.9,5.2-7.8,5.5-11.7c0.4,1.4,0.7,2.8,0.9,4.2c0.2,1.7,1.7,14.9-6.5,20.8c-9,6.4-22.5-0.9-23.1-1.2
			C561.4,278.1,556.8,241.8,567,235.2z"/>
		<g>
			<path class="st1" d="M583.7,284.2l0.9,0.4c0.3,0.2,0.7,0.3,1,0.4c0.7,0.3,1.4,0.5,2.1,0.8c1.4,0.4,2.9,0.8,4.3,1
				c1.4,0.2,2.7,0.3,3.9,0.1c1.2-0.1,2.3-0.3,3.2-0.7c1.8-0.7,3.3-2.1,4.3-4.2c1-2.2,1.6-5,1.7-8c0.1-3.1-0.2-5.8-1.1-8.6
				c-0.9-2.8-2.3-5.6-4-8.2c-1.7-2.6-3.8-5.1-6.1-7.4c-2.3-2.3-4.8-4.4-7.5-6.1c-2.7-1.8-5.6-3.3-8.5-4.3c-1.5-0.5-2.9-0.8-4.3-1
				c-1.4-0.2-2.6-0.1-3.5,0.2c-0.2,0.1-0.4,0.1-0.6,0.2c-0.1,0-0.2,0.1-0.2,0.1c-0.1,0-0.1,0.1-0.2,0.2c-0.1,0.1-0.3,0.2-0.4,0.4
				c-0.2,0.1-0.3,0.4-0.4,0.6c-0.6,0.9-1.1,2.1-1.4,3.5c-0.3,1.4-0.6,2.9-0.6,4.5c-0.1,1.5-0.1,3.1,0.1,4.7
				c0.5,6.4,2.4,12.9,5.4,18.5c1.5,2.8,3.2,5.4,5.2,7.7C579,281.1,581.3,282.9,583.7,284.2z M578.2,293.9c-3.7-2.2-6.8-5.1-9.4-8.2
				c-2.5-3.2-4.6-6.6-6.2-10.2c-1.6-3.6-2.8-7.2-3.7-11c-0.9-3.7-1.4-7.5-1.6-11.4c-0.1-1.9,0-3.9,0.1-5.9c0.1-2,0.4-4,1-6
				c0.6-2,1.3-4.1,2.7-6.2c0.4-0.5,0.7-1,1.2-1.5c0.5-0.5,0.9-1,1.5-1.4c0.3-0.2,0.6-0.4,0.9-0.6l0.9-0.5c0.6-0.4,1.3-0.6,1.9-0.8
				c2.5-0.8,4.9-0.8,7-0.6c2.2,0.2,4.2,0.7,6.1,1.3c3.8,1.2,7.3,2.9,10.6,4.9c3.3,2,6.4,4.3,9.3,6.8c2.9,2.6,5.5,5.4,7.9,8.6
				c2.3,3.2,4.4,6.7,5.8,10.6c1.4,3.8,2.2,8.2,2.2,12.3c0,2.1-0.1,4.1-0.5,6.3c-0.4,2.1-0.9,4.3-1.9,6.4c-0.2,0.5-0.5,1.1-0.8,1.6
				c-0.3,0.5-0.5,1.1-0.9,1.6l-1.1,1.5c-0.4,0.5-0.8,1-1.3,1.4c-1.8,1.8-3.9,3.4-6.3,4.3c-2.3,1-4.8,1.5-7.1,1.6
				c-2.3,0.1-4.5-0.1-6.7-0.5c-2.1-0.4-4.1-1-6-1.8c-1-0.4-1.9-0.8-2.8-1.2c-0.5-0.2-0.9-0.4-1.4-0.7l-0.7-0.4L578.2,293.9z"/>
		</g>
	</g>
	<g>
		<path class="st6" d="M588.7,757.3c0.3,0.6,6.8,14.5,17.8,14.7c10.1,0.1,16.8-11.4,17.6-12.9c11-19.6-2.6-52.8-14.6-53.5
			C597.4,704.9,579.5,736.8,588.7,757.3z"/>
		<path class="st7" d="M609.5,705.6c1.4,0.1,2.8,0.6,4.2,1.5c-9.6,4.2-20.7,26.8-13.9,42c0.2,0.5,5.6,12,14.7,12.2
			c4.9,0.1,8.8-3.2,11.4-6.1c-0.5,1.4-1.1,2.7-1.8,3.9c-0.8,1.5-7.5,13-17.6,12.9c-11.1-0.2-17.5-14.1-17.8-14.7
			C579.5,736.8,597.4,704.9,609.5,705.6z"/>
		<g>
			<path class="st1" d="M593.8,755l0.5,0.8c0.2,0.3,0.4,0.6,0.6,1c0.4,0.6,0.8,1.3,1.3,1.9c0.9,1.2,1.8,2.3,2.8,3.3
				c1,0.9,2,1.8,3.1,2.4c1,0.6,2,1.1,3,1.3c1.9,0.5,3.8,0.3,6-0.8c2.1-1.1,4.3-3.1,6.2-5.4c1.9-2.4,3.3-4.8,4.3-7.6
				c1-2.8,1.5-5.9,1.7-9c0.2-3.1,0-6.4-0.5-9.6c-0.5-3.2-1.3-6.4-2.4-9.4c-1.1-3-2.6-5.9-4.3-8.5c-0.9-1.2-1.8-2.4-2.8-3.3
				c-1-0.9-2-1.7-2.9-1.9c-0.2,0-0.4-0.2-0.6-0.2c-0.1,0-0.2,0-0.3,0c-0.1,0-0.2,0-0.3,0c-0.2,0-0.4,0-0.6,0.1
				c-0.2,0-0.5,0.1-0.7,0.2c-1,0.3-2.2,1.1-3.2,2c-1.1,0.9-2.2,2-3.2,3.2c-1,1.2-1.9,2.5-2.8,3.9c-3.4,5.5-5.7,11.8-6.7,18.1
				c-0.5,3.1-0.6,6.3-0.3,9.3C591.9,749.6,592.6,752.5,593.8,755z M583.6,759.6c-1.7-4-2.5-8.2-2.7-12.2c-0.2-4.1,0.2-8,1.1-11.9
				c0.8-3.8,2-7.5,3.5-11c1.5-3.5,3.3-6.9,5.5-10.1c1.1-1.6,2.3-3.2,3.6-4.7c1.3-1.5,2.7-2.9,4.4-4.3c1.7-1.3,3.5-2.6,5.9-3.4
				c0.6-0.2,1.2-0.4,1.9-0.5c0.7-0.1,1.3-0.2,2-0.2c0.4,0,0.7,0,1.1,0l1.1,0.1c0.7,0.1,1.3,0.3,2,0.5c2.5,0.9,4.4,2.3,6,3.7
				c1.6,1.5,2.9,3.1,4.1,4.7c2.3,3.3,4.1,6.7,5.6,10.3c1.5,3.6,2.6,7.2,3.4,11c0.8,3.8,1.2,7.6,1.2,11.6c0,3.9-0.5,8-1.6,11.9
				c-1.1,3.9-3.1,7.9-5.5,11.2c-1.2,1.7-2.6,3.3-4.1,4.7c-1.6,1.5-3.3,2.9-5.3,4.1c-0.5,0.3-1,0.6-1.6,0.8c-0.5,0.3-1.1,0.5-1.7,0.7
				l-1.8,0.6c-0.6,0.1-1.2,0.3-1.9,0.4c-2.5,0.4-5.2,0.4-7.6-0.2c-2.5-0.6-4.7-1.7-6.7-2.9c-2-1.3-3.6-2.8-5-4.4
				c-1.4-1.6-2.7-3.3-3.8-5c-0.6-0.9-1.1-1.7-1.6-2.6c-0.2-0.5-0.5-0.9-0.7-1.4l-0.4-0.7L583.6,759.6z"/>
		</g>
	</g>
	<g>
		<path class="st6" d="M345.7,330c0.4,0.5,11.2,11.5,21.7,8c9.6-3.2,12.1-16.3,12.4-18c3.9-22.2-19.9-48.9-31.4-45.7
			C336.7,277.7,330.3,313.7,345.7,330z"/>
		<path class="st7" d="M348.3,274.4c1.4-0.4,2.9-0.3,4.5,0c-7.7,7.1-10.7,32.1,0.7,44.2c0.4,0.4,9.2,9.5,17.9,6.6
			c4.7-1.6,7.3-5.9,8.7-9.5c0,1.5-0.2,2.9-0.4,4.3c-0.3,1.7-2.8,14.8-12.4,18c-10.5,3.5-21.2-7.5-21.7-8
			C330.3,313.7,336.7,277.7,348.3,274.4z"/>
		<g>
			<path class="st1" d="M349.8,326.2l0.7,0.6c0.3,0.2,0.6,0.5,0.9,0.7c0.6,0.5,1.2,0.9,1.8,1.4c1.2,0.8,2.5,1.6,3.8,2.2
				c1.3,0.6,2.5,1.1,3.7,1.3c1.2,0.2,2.3,0.4,3.3,0.3c2-0.2,3.7-1,5.4-2.8c1.6-1.8,3.1-4.3,4-7.1c1-2.9,1.5-5.6,1.5-8.6
				c0-3-0.5-6-1.4-9c-0.9-3-2.1-6-3.7-8.8c-1.5-2.9-3.3-5.6-5.4-8.1c-2.1-2.5-4.4-4.8-6.8-6.6c-1.2-0.9-2.5-1.7-3.8-2.2
				c-1.2-0.6-2.5-0.9-3.4-0.9c-0.2,0-0.4,0-0.6,0c-0.1,0-0.2,0-0.3,0c-0.1,0-0.2,0.1-0.2,0.1c-0.2,0-0.3,0.1-0.5,0.3
				c-0.2,0.1-0.4,0.3-0.6,0.4c-0.8,0.7-1.7,1.7-2.4,2.9c-0.7,1.2-1.4,2.6-1.9,4.1c-0.6,1.4-1,3-1.3,4.6c-1.4,6.3-1.5,13-0.3,19.2
				c0.6,3.1,1.5,6.1,2.7,8.9C346.2,321.7,347.8,324.2,349.8,326.2z M341.7,333.8c-2.9-3.2-5-6.9-6.6-10.6c-1.5-3.8-2.4-7.7-2.9-11.5
				c-0.5-3.9-0.5-7.7-0.3-11.6c0.2-3.8,0.9-7.6,1.9-11.4c0.5-1.9,1.1-3.7,1.8-5.6c0.7-1.8,1.6-3.7,2.7-5.5c1.1-1.8,2.5-3.6,4.4-5.1
				c0.5-0.4,1-0.8,1.6-1.1c0.6-0.3,1.2-0.7,1.9-0.9c0.3-0.1,0.7-0.3,1-0.3l1-0.2c0.7-0.2,1.4-0.2,2-0.2c2.7,0,4.9,0.7,6.9,1.5
				c2,0.9,3.8,1.9,5.4,3.1c3.3,2.3,6.1,5,8.7,7.9c2.6,2.9,4.8,6,6.8,9.3c2,3.3,3.7,6.8,5,10.5c1.3,3.7,2.2,7.7,2.4,11.8
				c0.2,4.1-0.3,8.5-1.5,12.4c-0.6,2-1.3,3.9-2.3,5.8c-1,1.9-2.1,3.8-3.7,5.6c-0.4,0.5-0.8,0.9-1.2,1.3c-0.4,0.4-0.8,0.9-1.3,1.2
				l-1.5,1.1c-0.5,0.3-1.1,0.7-1.6,1c-2.2,1.2-4.7,2.1-7.3,2.3c-2.5,0.3-5,0-7.3-0.6c-2.3-0.6-4.3-1.5-6.2-2.5
				c-1.9-1-3.6-2.2-5.2-3.5c-0.8-0.6-1.6-1.3-2.4-2c-0.4-0.3-0.8-0.7-1.1-1.1l-0.6-0.6L341.7,333.8z"/>
		</g>
	</g>
	<g>
		<path class="st6" d="M178,454c0.4,0.5,9.1,13.2,20,11.6c10-1.5,14.7-14,15.2-15.6c7.6-21.2-11.2-51.6-23.2-50.3
			C177.9,400.9,165.5,435.3,178,454z"/>
		<path class="st7" d="M190,399.6c1.4-0.1,2.9,0.1,4.4,0.8c-8.8,5.7-16,29.9-6.8,43.7c0.3,0.4,7.5,10.9,16.5,9.6
			c4.9-0.7,8.2-4.6,10.2-7.9c-0.3,1.4-0.7,2.8-1.1,4.2c-0.6,1.6-5.2,14.1-15.2,15.6c-10.9,1.7-19.6-11-20-11.6
			C165.5,435.3,177.9,400.9,190,399.6z"/>
		<g>
			<path class="st1" d="M182.6,450.9l0.6,0.8c0.2,0.3,0.5,0.6,0.7,0.8c0.5,0.6,1,1.1,1.5,1.6c1.1,1,2.2,2,3.3,2.8
				c1.2,0.8,2.3,1.5,3.4,1.9c1.1,0.4,2.2,0.8,3.2,0.8c2,0.2,3.8-0.4,5.8-1.8c1.9-1.5,3.7-3.7,5.2-6.3c1.5-2.7,2.4-5.2,2.9-8.2
				c0.5-2.9,0.5-6,0.2-9.1c-0.3-3.1-1.1-6.3-2.1-9.3c-1-3.1-2.3-6.1-3.9-8.9c-1.6-2.8-3.5-5.4-5.6-7.7c-1.1-1.1-2.2-2.1-3.3-2.8
				c-1.1-0.8-2.3-1.3-3.2-1.4c-0.2,0-0.4-0.1-0.6-0.1c-0.1,0-0.2,0-0.3,0c-0.1,0-0.2,0-0.3,0.1c-0.2,0-0.4,0.1-0.6,0.2
				c-0.2,0-0.4,0.2-0.7,0.3c-0.9,0.5-1.9,1.4-2.9,2.5c-0.9,1.1-1.8,2.3-2.6,3.7c-0.8,1.3-1.5,2.8-2.1,4.3
				c-2.4,5.9-3.7,12.5-3.6,18.9c0.1,3.2,0.4,6.3,1.2,9.2C179.8,445.9,181,448.6,182.6,450.9z M173.3,457c-2.3-3.7-3.8-7.6-4.7-11.6
				c-0.8-4-1.1-8-0.9-11.9c0.2-3.9,0.8-7.7,1.7-11.5c0.9-3.7,2.1-7.4,3.8-10.9c0.8-1.8,1.7-3.5,2.8-5.2c1-1.7,2.2-3.3,3.6-4.9
				c1.4-1.6,3-3.1,5.2-4.3c0.6-0.3,1.1-0.6,1.8-0.8c0.6-0.2,1.3-0.5,2-0.6c0.4-0.1,0.7-0.1,1.1-0.2l1.1,0c0.7,0,1.4,0.1,2,0.2
				c2.6,0.4,4.7,1.5,6.5,2.7c1.8,1.2,3.4,2.5,4.8,3.9c2.8,2.8,5.2,5.9,7.2,9.2c2,3.3,3.8,6.7,5.1,10.3c1.4,3.6,2.5,7.3,3.1,11.2
				c0.6,3.9,0.9,7.9,0.4,12c-0.5,4.1-1.7,8.3-3.6,11.9c-0.9,1.8-2,3.6-3.3,5.4c-1.3,1.7-2.7,3.4-4.6,4.9c-0.4,0.4-0.9,0.7-1.4,1.1
				c-0.5,0.3-1,0.7-1.5,1l-1.6,0.9c-0.6,0.2-1.2,0.5-1.8,0.7c-2.4,0.8-5,1.2-7.6,1c-2.6-0.1-4.9-0.9-7.1-1.8c-2.2-1-4-2.2-5.7-3.5
				c-1.7-1.3-3.2-2.8-4.6-4.3c-0.7-0.8-1.3-1.5-2-2.3c-0.3-0.4-0.6-0.8-0.9-1.2l-0.5-0.6L173.3,457z"/>
		</g>
	</g>
	<g>
		<path class="st6" d="M418.9,787.1c0.6,0.3,14.4,7.1,23.1,0.3c8-6.2,6-19.3,5.7-21c-3.7-22.2-35-39.5-44.8-32.6
			C393,740.8,398.9,776.9,418.9,787.1z"/>
		<path class="st7" d="M402.9,733.8c1.1-0.8,2.6-1.3,4.2-1.5c-4.9,9.3,0.6,33.9,15.4,41.5c0.5,0.2,11.9,5.9,19.1,0.3
			c3.9-3,4.9-8,5-11.9c0.5,1.4,0.8,2.8,1,4.2c0.3,1.7,2.3,14.8-5.7,21c-8.7,6.8-22.5,0-23.1-0.3C398.9,776.9,393,740.8,402.9,733.8z
			"/>
		<g>
			<path class="st1" d="M421.5,782.1l0.9,0.4c0.3,0.1,0.7,0.3,1,0.4c0.7,0.2,1.4,0.5,2.2,0.7c1.4,0.4,2.9,0.7,4.3,0.8
				c1.4,0.1,2.7,0.2,3.9,0c1.2-0.2,2.3-0.4,3.2-0.8c1.8-0.8,3.2-2.2,4.1-4.4c0.9-2.2,1.4-5.1,1.4-8.1c0-3.1-0.4-5.7-1.4-8.6
				c-1-2.8-2.5-5.5-4.3-8.1c-1.8-2.6-4-4.9-6.4-7.1c-2.4-2.2-5-4.2-7.8-5.8c-2.8-1.7-5.7-3-8.7-4c-1.5-0.4-2.9-0.7-4.3-0.8
				c-1.4-0.1-2.6,0-3.5,0.3c-0.2,0.1-0.4,0.1-0.5,0.2c-0.1,0-0.1,0.1-0.2,0.1c-0.1,0.1-0.1,0.1-0.2,0.2c-0.1,0.1-0.3,0.3-0.4,0.4
				c-0.2,0.1-0.3,0.4-0.4,0.6c-0.6,0.9-1,2.2-1.3,3.6c-0.3,1.4-0.4,2.9-0.5,4.5c0,1.6,0.1,3.1,0.3,4.7c0.8,6.4,2.9,12.8,6.1,18.3
				c1.6,2.7,3.4,5.3,5.5,7.5C416.6,779.2,419,780.9,421.5,782.1z M416.4,792.1c-3.8-2.1-7-4.8-9.7-7.9c-2.7-3.1-4.8-6.4-6.6-9.9
				c-1.8-3.5-3.1-7.1-4.1-10.8c-1-3.7-1.7-7.5-2-11.3c-0.2-1.9-0.2-3.9-0.1-5.9c0.1-2,0.3-4,0.8-6.1c0.5-2.1,1.1-4.2,2.5-6.3
				c0.4-0.5,0.7-1.1,1.1-1.6c0.4-0.5,0.9-1,1.5-1.5c0.3-0.2,0.5-0.5,0.8-0.7l0.9-0.6c0.6-0.4,1.2-0.6,1.9-0.9c2.5-0.9,4.9-1,7-0.9
				c2.2,0.1,4.2,0.6,6.1,1.1c3.9,1.1,7.4,2.6,10.8,4.5c3.4,1.8,6.6,4,9.5,6.5c3,2.5,5.7,5.2,8.2,8.3c2.4,3.1,4.6,6.5,6.2,10.3
				c1.6,3.8,2.6,8.1,2.7,12.2c0.1,2,0,4.1-0.2,6.3c-0.3,2.1-0.7,4.3-1.6,6.5c-0.2,0.5-0.5,1.1-0.7,1.6c-0.3,0.5-0.5,1.1-0.9,1.6
				l-1,1.6c-0.4,0.5-0.8,1-1.2,1.5c-1.7,1.9-3.8,3.5-6.1,4.6c-2.3,1.1-4.7,1.7-7.1,1.9c-2.3,0.2-4.5,0-6.7-0.3
				c-2.1-0.3-4.1-0.9-6.1-1.5c-1-0.3-1.9-0.7-2.9-1.1c-0.5-0.2-0.9-0.4-1.4-0.6l-0.7-0.3L416.4,792.1z"/>
		</g>
	</g>
	<g>
		<path class="st6" d="M444.9,648.7c0.5,0.4,13.1,9.3,22.7,4c8.9-4.9,8.9-18.2,8.9-19.9c-0.2-22.5-28.3-44.6-39.1-39.2
			C426.6,598.9,426.8,635.4,444.9,648.7z"/>
		<path class="st7" d="M437.4,593.5c1.3-0.6,2.8-0.9,4.4-0.8c-6.3,8.4-4.7,33.5,8.7,43.4c0.4,0.3,10.8,7.7,18.8,3.3
			c4.3-2.4,6.1-7.1,6.8-10.9c0.2,1.4,0.4,2.9,0.4,4.3c0,1.7-0.1,15-8.9,19.9c-9.7,5.3-22.2-3.6-22.7-4
			C426.8,635.4,426.6,598.9,437.4,593.5z"/>
		<g>
			<path class="st1" d="M448.2,644.2l0.8,0.5c0.3,0.2,0.6,0.4,1,0.5c0.7,0.4,1.3,0.7,2,1c1.4,0.6,2.8,1.1,4.1,1.5
				c1.3,0.3,2.7,0.6,3.9,0.6c1.2,0,2.3,0,3.2-0.3c1.9-0.5,3.5-1.7,4.8-3.7c1.3-2,2.2-4.8,2.7-7.7c0.5-3,0.5-5.7,0-8.7
				c-0.5-2.9-1.6-5.8-3-8.6c-1.4-2.8-3.2-5.5-5.2-8c-2-2.5-4.3-4.9-6.8-7c-2.5-2.1-5.2-3.9-7.9-5.3c-1.4-0.6-2.8-1.2-4.1-1.5
				c-1.3-0.3-2.6-0.4-3.5-0.3c-0.2,0.1-0.4,0.1-0.6,0.2c-0.1,0-0.2,0.1-0.2,0.1c-0.1,0-0.1,0.1-0.2,0.1c-0.2,0.1-0.3,0.2-0.5,0.3
				c-0.2,0.1-0.3,0.3-0.5,0.5c-0.7,0.8-1.3,2-1.9,3.3c-0.5,1.3-0.9,2.8-1.2,4.3c-0.3,1.5-0.4,3.1-0.5,4.7c-0.2,6.4,0.9,13.1,3.1,19
				c1.1,3,2.6,5.8,4.3,8.3C443.9,640.5,445.9,642.6,448.2,644.2z M441.6,653.2c-3.4-2.6-6.2-5.9-8.4-9.3c-2.2-3.5-3.8-7.1-4.9-10.8
				c-1.2-3.7-1.9-7.5-2.4-11.3c-0.5-3.8-0.5-7.7-0.2-11.5c0.2-1.9,0.4-3.9,0.8-5.8c0.4-1.9,0.9-3.9,1.7-5.9c0.8-2,1.8-4,3.4-5.8
				c0.4-0.5,0.8-0.9,1.4-1.4c0.5-0.4,1-0.9,1.7-1.2c0.3-0.2,0.6-0.4,0.9-0.5l1-0.4c0.7-0.3,1.3-0.4,2-0.6c2.6-0.5,5-0.2,7.1,0.3
				c2.1,0.5,4,1.2,5.9,2c3.6,1.7,6.9,3.8,9.9,6.2c3,2.4,5.8,5,8.4,7.9c2.5,2.9,4.9,6,6.8,9.5c1.9,3.4,3.5,7.1,4.5,11.2
				c1,4,1.2,8.4,0.7,12.4c-0.2,2-0.6,4.1-1.2,6.2c-0.6,2.1-1.4,4.1-2.6,6.2c-0.3,0.5-0.6,1-1,1.5c-0.3,0.5-0.7,1-1.1,1.4l-1.2,1.4
				c-0.5,0.4-0.9,0.8-1.4,1.3c-2,1.6-4.3,2.9-6.7,3.6c-2.5,0.8-4.9,0.9-7.3,0.8c-2.3-0.2-4.5-0.7-6.6-1.3c-2-0.7-3.9-1.5-5.8-2.5
				c-0.9-0.5-1.8-1-2.7-1.5c-0.4-0.3-0.9-0.5-1.3-0.8l-0.7-0.4L441.6,653.2z"/>
		</g>
	</g>
	<g>
		<path class="st6" d="M643,597.6c0.2,0.6,5.8,14.9,16.8,15.8c10.1,0.8,17.4-10.3,18.4-11.7c12.2-18.9,0.8-52.8-11.1-54.3
			C655,545.9,635.1,576.6,643,597.6z"/>
		<path class="st7" d="M667.1,547.4c1.4,0.2,2.8,0.8,4.1,1.8c-9.8,3.6-22.4,25.4-16.6,41c0.2,0.5,4.8,12.4,13.9,13.1
			c4.9,0.4,9-2.6,11.7-5.4c-0.6,1.3-1.3,2.6-2.1,3.8c-0.9,1.4-8.3,12.5-18.4,11.7c-11-0.9-16.6-15.2-16.8-15.8
			C635.1,576.6,655,545.9,667.1,547.4z"/>
		<g>
			<path class="st1" d="M648.2,595.7l0.4,0.9c0.2,0.3,0.3,0.7,0.5,1c0.4,0.7,0.7,1.3,1.1,1.9c0.8,1.3,1.7,2.4,2.6,3.5
				c0.9,1,1.9,2,2.9,2.6c1,0.7,1.9,1.3,2.9,1.5c1.9,0.6,3.8,0.5,6-0.5c2.2-1,4.5-2.8,6.5-5c2.1-2.3,3.5-4.5,4.7-7.3
				c1.2-2.7,1.9-5.7,2.3-8.9c0.4-3.1,0.4-6.4,0.1-9.6c-0.3-3.2-0.9-6.4-1.8-9.6c-0.9-3.1-2.2-6.1-3.7-8.8c-0.8-1.3-1.7-2.5-2.6-3.5
				c-0.9-1-1.9-1.8-2.8-2.1c-0.2-0.1-0.4-0.2-0.6-0.2c-0.1,0-0.2,0-0.3-0.1c-0.1,0-0.2,0-0.3,0c-0.2,0-0.4,0-0.6,0
				c-0.2,0-0.5,0.1-0.7,0.1c-1,0.3-2.2,0.9-3.4,1.8c-1.2,0.8-2.3,1.9-3.4,3c-1.1,1.1-2.1,2.4-3,3.7c-3.7,5.2-6.4,11.4-7.8,17.6
				c-0.7,3.1-1,6.2-0.9,9.3C646.7,590.2,647.2,593.1,648.2,595.7z M637.8,599.6c-1.4-4.1-1.9-8.3-1.9-12.4c0.1-4.1,0.8-8,1.8-11.8
				c1-3.8,2.5-7.3,4.2-10.8c1.7-3.4,3.8-6.7,6.1-9.8c1.2-1.5,2.5-3,3.9-4.4c1.4-1.4,2.9-2.8,4.7-4c1.7-1.2,3.7-2.3,6.1-3
				c0.6-0.1,1.2-0.3,1.9-0.4c0.7-0.1,1.3-0.2,2.1-0.1c0.4,0,0.7,0,1.1,0.1l1,0.2c0.7,0.1,1.3,0.4,2,0.6c2.5,1,4.3,2.5,5.8,4.1
				c1.5,1.6,2.7,3.2,3.8,4.9c2.1,3.4,3.7,7,4.9,10.6c1.2,3.6,2.1,7.4,2.7,11.2c0.5,3.8,0.7,7.7,0.5,11.6c-0.3,3.9-1,7.9-2.4,11.8
				c-1.4,3.9-3.6,7.7-6.2,10.8c-1.3,1.6-2.8,3.1-4.4,4.5c-1.7,1.4-3.4,2.7-5.6,3.7c-0.5,0.3-1.1,0.5-1.6,0.7
				c-0.6,0.2-1.1,0.5-1.7,0.6l-1.8,0.5c-0.6,0.1-1.3,0.2-1.9,0.3c-2.5,0.2-5.2,0.1-7.6-0.7c-2.5-0.7-4.6-2-6.5-3.4
				c-1.9-1.4-3.4-3-4.8-4.7c-1.3-1.7-2.5-3.4-3.5-5.2c-0.5-0.9-1-1.8-1.4-2.7c-0.2-0.5-0.4-0.9-0.6-1.4l-0.3-0.7L637.8,599.6z"/>
		</g>
	</g>
	<g>
		<path class="st6" d="M274.4,593.3c0.4,0.5,10,12.6,20.7,10.1c9.9-2.2,13.6-15,14.1-16.6c6.1-21.7-14.8-50.7-26.7-48.6
			C270.6,540.4,260.6,575.5,274.4,593.3z"/>
		<path class="st7" d="M282.5,538.2c1.4-0.2,2.9-0.1,4.5,0.5c-8.3,6.3-13.9,30.9-3.7,44.1c0.3,0.4,8.2,10.4,17.2,8.4
			c4.8-1.1,7.8-5.2,9.6-8.6c-0.2,1.4-0.5,2.9-0.8,4.3c-0.5,1.7-4.2,14.4-14.1,16.6c-10.8,2.4-20.4-9.6-20.7-10.1
			C260.6,575.5,270.6,540.4,282.5,538.2z"/>
		<g>
			<path class="st1" d="M278.8,589.9l0.7,0.7c0.2,0.3,0.5,0.5,0.8,0.8c0.5,0.5,1.1,1,1.7,1.5c1.1,1,2.3,1.8,3.5,2.6
				c1.2,0.7,2.4,1.3,3.5,1.7c1.1,0.4,2.2,0.6,3.2,0.6c2,0,3.8-0.6,5.6-2.2c1.8-1.6,3.5-4,4.7-6.7c1.3-2.8,2-5.4,2.4-8.4
				c0.3-2.9,0.1-6-0.5-9.1c-0.5-3.1-1.5-6.2-2.8-9.2c-1.2-3-2.8-5.9-4.6-8.6c-1.8-2.7-3.9-5.2-6.1-7.3c-1.2-1-2.3-1.9-3.5-2.6
				c-1.2-0.7-2.4-1.1-3.3-1.2c-0.2,0-0.4-0.1-0.6,0c-0.1,0-0.2,0-0.3,0c-0.1,0-0.2,0.1-0.2,0.1c-0.2,0-0.4,0.1-0.6,0.2
				c-0.2,0-0.4,0.2-0.6,0.4c-0.9,0.6-1.8,1.5-2.7,2.7c-0.9,1.1-1.6,2.5-2.3,3.9c-0.7,1.4-1.3,2.9-1.8,4.4c-2,6.1-2.8,12.8-2.3,19.1
				c0.3,3.2,0.9,6.3,1.8,9.1C275.7,585.1,277.1,587.7,278.8,589.9z M270,596.7c-2.5-3.5-4.3-7.3-5.5-11.3c-1.1-3.9-1.6-7.9-1.7-11.8
				c-0.1-3.9,0.2-7.8,0.9-11.5c0.6-3.8,1.6-7.5,3-11.1c0.7-1.8,1.5-3.6,2.4-5.4c0.9-1.8,2-3.5,3.3-5.2c1.3-1.7,2.8-3.3,4.9-4.7
				c0.5-0.3,1.1-0.7,1.7-0.9c0.6-0.3,1.2-0.5,1.9-0.7c0.3-0.1,0.7-0.2,1-0.2l1.1-0.1c0.7-0.1,1.4,0,2.1,0c2.7,0.2,4.8,1.2,6.7,2.2
				c1.9,1.1,3.5,2.3,5.1,3.6c3,2.6,5.6,5.6,7.8,8.7c2.3,3.1,4.2,6.4,5.9,9.9c1.6,3.5,3,7.1,3.9,11c0.9,3.8,1.4,7.8,1.2,12
				c-0.2,4.1-1.2,8.5-2.8,12.2c-0.8,1.9-1.7,3.8-2.9,5.6c-1.2,1.8-2.5,3.6-4.2,5.2c-0.4,0.4-0.9,0.8-1.3,1.2
				c-0.5,0.4-0.9,0.8-1.5,1.1l-1.6,1c-0.6,0.3-1.1,0.6-1.7,0.8c-2.3,1-4.9,1.6-7.5,1.5c-2.6,0-5-0.5-7.2-1.3
				c-2.2-0.8-4.1-1.9-5.9-3.1c-1.8-1.2-3.4-2.6-4.8-4c-0.7-0.7-1.5-1.4-2.1-2.2c-0.3-0.4-0.7-0.8-1-1.2l-0.5-0.6L270,596.7z"/>
		</g>
	</g>
</g>
<path class="st0" d="M595.6,190.8c27.7,9.1,53.2,24.3,75.8,47.4c101.1,103.6,94.5,269.8,54.3,398.6
	c-20.9,66.7-52.6,130.2-96.1,185.1c-108.4,136.8-282.7-9.8-366.8-98.6c-28.6-30.2-54.9-62.6-78.7-96.7c-38.3-54.8-72-119.5-65-188.4
	C132.1,309,258.7,234.3,372.2,202.6c37.2-10.4,75.7-16.9,114.1-20.9C524.7,177.8,561.7,179.7,595.6,190.8z"/>
<path class="st0" d="M529.3,176.2c15.9-6,26.2-21.8,31.3-37.9c11.8-37,0.1-80.3-28.7-106.4c-1.2-1.1-2.5-2.2-4.1-2.5
	c-6.3-1.3-15,16.1-18.4,20.6c-6.7,8.7-13.8,17-21.8,24.5C476.1,85.2,462.9,94,451.7,105c-12.2,11.9-22,26.1-28.7,41.8
	c-15.6-16.6-36.7-27.3-58.6-33.2c-22-5.9-45-7.1-67.7-6.8c-12.8,0.2-25.7,0.8-38.5-0.2c-19.2-1.5-38.2-6.6-55.6-15
	c-1.5,9.1,0.3,18.4,2.6,27.3c6.3,24.5,16.4,48.3,32.7,67.7s39.1,33.8,64.1,36.9"/>
<path class="st0" d="M131.3,250.8c-2.8,0.5-7.6,1.4-13.4,3c-29.3,7.8-39.8,19.7-63.2,26.4c-7.6,2.2-18.8,4.6-33.3,4.7
	c3.1,7.9,18.4,43.6,58.5,61.4c29.7,13.2,56.8,9.3,67,7.2"/>
<path class="st0" d="M564.9,116.5c8.3-5.5,21.4-13.2,38.5-19.8c14.9-5.7,21.8-6.3,34.4-11.3c10.8-4.3,25.8-11.8,42.2-26.1
	c3.1,13,3.5,24.3,2.9,33.5c-4.4,61-60.6,97.7-70.8,104.2"/>
<path class="st0" d="M233.3,180.8c-6.9-1.7-17.1-3.6-29.6-3.4c-9.8,0.2-14.1,1.6-31.6,5c-24.1,4.6-36.2,5.8-50.3,7.1
	c-11.1,1.1-22.9,1.6-33-3c1.2,3.5,3,8.8,5.8,14.9c4.6,10,21.1,45.9,60.4,64.5c24.9,11.8,48.6,11.8,62.1,10.6"/>
<path class="st0" d="M373.4,113.3c-4-22.1-11.8-43.6-23-63c-5-8.7-10.7-16.9-16.4-25.1c-2-2.9-4.5-6.1-8-6.5c-1.9-0.2-3.7,0.3-5.5,1
	c-12.7,4.7-23.7,13.7-30.8,25.2c-0.3,0.4-0.6,0.9-0.5,1.5c0,0.6,0.5,1.1,0.8,1.6c15.9,18.1,30.5,37.4,43.7,57.6"/>
<path class="st0" d="M423,146.8c2.5,3.3,5.3,7.5,7.7,12.6c4.3,9.2,5.9,17.6,6.5,23.6"/>
<g>
	<path class="st8" d="M658,353.8c8.5-2.9,16.5-8.4,20.1-16.6"/>
	<path class="st8" d="M670.1,366.6c3.1,0.2,8.8,0.2,15-2.6c3.7-1.6,6.4-3.7,8.3-5.4"/>
	
		<ellipse transform="matrix(0.9678 -0.2515 0.2515 0.9678 -88.2989 184.3652)" class="st9" cx="677" cy="437.6" rx="27.5" ry="17.3"/>
	
		<ellipse transform="matrix(0.9678 -0.2515 0.2515 0.9678 -76.2376 176.0502)" class="st1" cx="650.5" cy="386.2" rx="37.4" ry="43.5"/>
	
		<ellipse transform="matrix(0.9678 -0.2515 0.2515 0.9678 -69.4803 178.2077)" class="st10" cx="662.3" cy="360.9" rx="7.1" ry="7.7"/>
	
		<ellipse transform="matrix(0.9678 -0.2515 0.2515 0.9678 -80.73 179.1449)" class="st10" cx="660.4" cy="405.4" rx="11.8" ry="13.1"/>
	
		<ellipse transform="matrix(0.9678 -0.2515 0.2515 0.9678 -113.0061 122.7568)" class="st9" cx="423.7" cy="503.4" rx="27.5" ry="17.3"/>
	
		<ellipse transform="matrix(0.9678 -0.2515 0.2515 0.9678 -99.1891 118.8197)" class="st1" cx="415.2" cy="447.4" rx="37.4" ry="43.5"/>
	
		<ellipse transform="matrix(0.9678 -0.2515 0.2515 0.9678 -92.4319 120.9772)" class="st10" cx="427" cy="422.1" rx="7.1" ry="7.7"/>
	
		<ellipse transform="matrix(0.9678 -0.2515 0.2515 0.9678 -103.6815 121.9144)" class="st10" cx="425" cy="466.5" rx="11.8" ry="13.1"/>
	<path class="st8" d="M578,460.1c6.6,18.6-4.8,38.5-22.4,42.5c-17,3.9-35.4-7.9-38.6-26.7"/>
	<path class="st8" d="M396.4,420.5c-8.9,0.6-18.5-1.4-25-7.6"/>
	<path class="st8" d="M389.8,437.1c-2.7,1.4-8,3.6-14.8,3.4c-4.1-0.1-7.4-1-9.7-1.8"/>
</g>
<g>
	<path class="st1" d="M163.5,715.4c-5.8-5.2-11.9-10.1-18.5-14.1c-5-3.1-11.6-8.5-17.2-6c-3.1,1.4-5.2,4.7-5.4,8.4
		c-0.1,3.6,1.5,7.2,3.3,10.4c3.6,6.5,7.8,12.6,12.6,18.2c-12,2.1-23.5,7-33.4,14.1c-2.9,2.1-5.8,4.5-7.7,7.7
		c-6,10.1,1.9,23.9,10.4,30.1c17.3,12.6,39.8,12.6,58.7,6c6.6-2.3,13.1-5.6,17.4-11.3c6.9-9.1,6.8-23.1,2.1-34.6
		C181,732.8,172.5,723.5,163.5,715.4z"/>
	<path class="st0" d="M144.7,746.6c5.9,1.7,44.5,11.9,80-11.6c29.7-19.7,45.9-55.3,42.3-92.3"/>
	<path class="st11" d="M54.3,650.9c-4.7-21.9-9.4-43.8-14.1-65.7c0.7-1.7,9.1-19.8,29.7-23.9c21.8-4.3,37,11.2,37.9,12.2
		c4.6,20.4,9.2,40.7,13.8,61.1"/>
	<path class="st12" d="M70.6,645.7c-4.7-21.9-9.4-43.8-14.1-65.7c0.6-1.3,5.8-12.5,17.6-19.4c-1.4,0.1-2.8,0.3-4.3,0.6
		c-20.6,4.1-29,22.2-29.7,23.9c4.7,21.9,9.4,43.8,14.1,65.7l67.3-16.4c-0.1-0.4-0.2-0.7-0.2-1.1L70.6,645.7z"/>
	<path class="st0" d="M54.3,650.9c-4.7-21.9-9.4-43.8-14.1-65.7c0.7-1.7,9.1-19.8,29.7-23.9c21.8-4.3,37,11.2,37.9,12.2
		c4.6,20.4,9.2,40.7,13.8,61.1"/>
	<path class="st13" d="M82.3,624.9c-20.2,5.6-27.4,24.1-28,25.9c16.2,77.1,32.3,154.2,48.5,231.3c15.4,20.8,30.8,41.6,46.2,62.3
		c7-25.4,14-50.9,21-76.3l-48.4-233.8C120.5,633.5,104,619,82.3,624.9z"/>
	<path class="st12" d="M118.3,877.5c-16.2-77.1-32.3-154.2-48.5-231.3c0.6-1.5,5.8-15,19.5-22.5c-2.2,0.2-4.6,0.6-6.9,1.3
		c-20.2,5.6-27.4,24.1-28,25.9c16.2,77.1,32.3,154.2,48.5,231.3c15.4,20.8,30.8,41.6,46.2,62.3c1.7-6.2,3.4-12.5,5.1-18.7
		C142.2,909.7,130.2,893.6,118.3,877.5z"/>
	<path class="st14" d="M125.4,868.3c-6.1,1.1-12,3.4-16.9,7.2c-1.9,1.5-3.7,3.3-4.1,5.6c-0.9,5.3,5.5,10.8,8.3,14.6
		c4.1,5.5,8.2,11.1,12.3,16.6c4.1,5.5,8.2,11.1,12.3,16.6c2.1,2.8,4.1,5.5,6.2,8.3c0.7,1,5.7,6.3,5.4,7.3
		c3.6-13.2,7.2-26.3,10.9-39.5c1.8-6.7,3.7-13.4,5.5-20.1c0.8-2.8,2.9-7.1,2.7-9.9c-0.2-2.7-2.4-2.9-5-3.5c-9.2-2.1-18.5-4.1-28-4.1
		C131.9,867.5,128.6,867.7,125.4,868.3z"/>
	<path class="st1" d="M136.7,901.5c-4.6,1.6-8.9,4-12.6,7.1c-0.2,0.2-0.4,0.4-0.5,0.7c0,0.3,0.1,0.6,0.3,0.8
		c4.5,6.2,8.8,12.6,13.4,18.8c2.1,2.8,4.1,5.5,6.2,8.3c0.7,1,5.7,6.3,5.4,7.3c2.1-7.7,4.2-15.4,6.3-23c1.1-3.9,2.2-7.8,3.2-11.8
		c0.5-1.9,2.9-6.8,1.2-8.5c-0.7-0.7-1.8-1-2.8-1.2C150.2,898.8,143.2,899.3,136.7,901.5z"/>
	<path class="st0" d="M82.3,624.9c-20.2,5.6-27.4,24.1-28,25.9c16.2,77.1,32.3,154.2,48.5,231.3c15.4,20.8,30.8,41.6,46.2,62.3
		c7-25.4,14-50.9,21-76.3l-48.4-233.8C120.5,633.5,104,619,82.3,624.9z"/>
	<path class="st0" d="M102.8,882.2c4.1-4,15.3-13.8,32.9-17c16-3,28.8,1,34.2,3.1"/>
	<path class="st1" d="M62,710.1c-5.6,4.8-10.7,10.6-12.8,17.6c-2.1,7-0.8,15.5,4.8,20.3c0.7,0.6,1.4,1.1,1.6,2
		c0.1,0.6,0,1.3-0.2,1.9c-2.4,8.8,0.9,18.8,7.9,24.6c0.5,0.4,1.2,0.9,1.3,1.6c0.1,0.5,0,1-0.1,1.4c-1.1,5.1,0.7,10.7,4.6,14.1
		c3.9,3.4,9.7,4.5,14.5,2.8"/>
</g>
</svg>
