<?xml version="1.0" encoding="utf-8"?>
<!-- Generator: Adobe Illustrator 23.0.3, SVG Export Plug-In . SVG Version: 6.00 Build 0)  -->
<svg version="1.1" id="Layer_1" xmlns="http://www.w3.org/2000/svg" xmlns:xlink="http://www.w3.org/1999/xlink" x="0px" y="0px"
	 viewBox="0 0 850 1018.2" style="enable-background:new 0 0 850 1018.2;" xml:space="preserve">
<style type="text/css">
	.st0{fill:none;stroke:#410B09;stroke-width:17.9247;stroke-linecap:round;stroke-linejoin:round;stroke-miterlimit:10;}
	.st1{fill:#410B09;}
	.st2{fill:#63C070;}
	.st3{opacity:0.74;fill:#177D59;}
	.st4{fill:#FE4153;}
	.st5{opacity:0.74;fill:#D30B2F;}
	.st6{fill:#FFCF63;}
	.st7{fill:#FFB04A;}
	.st8{fill:none;stroke:#410B09;stroke-width:13.1352;stroke-linecap:round;stroke-linejoin:round;stroke-miterlimit:10;}
	.st9{fill:#FEA6A4;}
	.st10{fill:#FFFFF6;}
	.st11{fill:#EF4568;}
</style>
<g>
	<path class="st0" d="M142.9,479.1c-23.8-25.1-38.2-49.2-46.9-66.8C73.9,368.2,69.4,328.6,65.5,294c-3.7-32.8-3.5-60.5-2.5-80.4"/>
	<path class="st1" d="M98.5,208.5c12-18.6,13.5-46.4,2-54.6c-1.5-1.1-2.9-1.6-3.8-1.9c-1.7-8.9-3.1-16.6-4-21.5
		c-3-15.8-4.6-24-10.7-28.4c-1-0.7-3.3-2.3-6.5-2.4c-4.6-0.1-8,3.2-9,4.4c-2.7,2.9-3.9,6.8-3.9,23.6c0,5.7,0.1,10.8,0.3,15.4
		c-1.8-0.3-9.1-1.3-16.1,3.3c-8.5,5.5-9.9,14.8-10.1,16.1c-2,0.4-17.9,3.9-21.7,15.5c-1.8,5.5-0.7,11.1,1.8,18.8
		c1.9,5.5,4.2,10.9,6.9,16.1c4.1,7.7,8.6,14.3,15.9,18.3c15.8,8.6,35.5-2.4,39.5-4.6C90.6,220.2,96.7,211.2,98.5,208.5z"/>
	<path class="st1" d="M220.1,982.4c6.6,3.3,14.4,3.8,21.8,3.8c11.5,0,23-0.9,34.3-3.2c4.9-1,9.7-1.9,14-4.5c2.1-1.3,7.1-3.8,6.2-7
		c-0.2-0.8-0.9-1.5-1.6-2c-3.6-2.6-8.4-3.8-12.7-4.8c-5.4-1.3-10.9-2.4-16.4-3.2c-9.4-1.2-18.8-1.1-28.3-1.1c-2.4,0-4.9,0-7.2,0.6
		c-3.8,0.9-7.2,3.1-10,5.8c-2.6,2.5-4.8,5.6-5,9.1c-0.1,1.2,0.1,2.5,0.9,3.5c0.5,0.8,1.4,1.3,2.2,1.8
		C218.8,981.7,219.5,982.1,220.1,982.4z"/>
	<path class="st1" d="M460.5,972.6c11.9,6.1,23.9,19.4,20.8,25.4c-1.7,3.3-7,3.4-10.2,3.4c-10.5,0-21.2-2.7-31.3-5.3
		c-5.9-1.5-11.7-3.1-17.5-4.9c-3.5-1-7-2.1-10.4-3.2c-1.8-0.6-3.6-1.2-5.5-1.7c-1.2-0.4-3.3-0.5-3.4-2.1c-0.1-1.7,3.4-3.7,4.6-4.6
		c3.7-2.8,7.8-5.3,12.1-7.1c8-3.5,16.9-5.1,25.6-4.2C450.6,968.8,455.8,970.2,460.5,972.6z"/>
	<path class="st0" d="M266.4,801.6c-0.6,23,0.6,52.5,7.2,85.9c6.7,34.1,17.1,62.2,26.6,83.5c-2.5-0.8-53.3-17.5-73.2-9.3
		c-2.9,1.2-9.1,3.7-12.3,9.9c-2.5,4.9-2.6,11-1.2,13.7c3.4,6.3,22.5,6.9,86.7-14.4"/>
	<path class="st0" d="M403.3,803.2c12.4,28.2,15.5,59.8,13.7,90.5c-1.9,30.8-8.6,61-15.3,91c17.1-16.8,40.8-21.3,58.8-12.1
		c11.9,6.1,23.9,19.4,20.8,25.4c-2.8,5.3-18.5,6.8-79.6-13.3"/>
	<path class="st2" d="M799.4,319.2c-23.4-9.6-44.2-31.4-70.5-32.6c-0.6,0-1.2-0.1-1.6-0.4c-0.9-0.8-0.2-2.2,0.5-3.2
		c0.9-1.3,1.7-2.6,2.4-3.9c21.9-15.8,33.8-35.6,37.9-42.4c3.5-5.8,5.9-10.8,7.4-14.2c-10.6,3.6-22.2,1.7-33.2-0.5
		c-13.9-2.8-25.8-5.4-49.2-12.5c-17.1-5.2-21.1-7.1-30.9-8.3c-1.8-0.2-3.5-0.4-5.1-0.5c-6.6-1.6-13.3-3.1-19.9-4.7
		c13-15.6,22.7-34,29.8-53.1c3.2-8.6,6-17.7,5.5-26.9c-18.2,6.5-37.6,9.6-56.9,9c-12.8-0.4-25.5-2.4-38.3-4
		c-12.3-1.5-24.8-2.5-37.2-2.6c4-6,8.2-11.9,13.1-17.5C565,87.6,577.3,74.9,590.4,63c0.4-0.4,0.9-0.9,1-1.5c0.1-0.5-0.1-1-0.4-1.5
		c-5.8-12.2-15.8-22.4-27.9-28.4c-1.7-0.8-3.5-1.6-5.3-1.6c-3.6,0.1-6.3,3-8.7,5.6c-6.6,7.5-13.1,15.1-19,23.2
		c-9.7,13.3-17.7,27.8-23.8,43c-2.8,7.1-5.5,13.8-8.8,20.7c-18.3,4.3-35.8,12.2-50.1,24.4c-5-16.3-13.2-31.5-24-44.6
		c-10-12.1-22.2-22.3-32.4-34.2c-7.2-8.3-13.3-17.4-19-26.7c-2.9-4.8-9.7-23-16.1-22.4c-1.6,0.2-3.1,1.1-4.4,2.1
		c-24.6,17.9-39.9,47.4-41.7,77.6c-0.4-0.2-0.9-0.4-1.3-0.5c-12.6-5-22.8-14-35-20.3c-14.2-7.2-21-8.6-33-14.9
		c-10.2-5.4-24.4-14.5-39.2-30.4c-4.5,12.6-6.1,23.8-6.4,33c-2.1,61.2,49.8,103.7,59.3,111.2l445.8,205.4c9.9,3.1,36.4,9.9,67.4,0
		c41.7-13.4,60.7-47.3,64.7-54.8C817.6,325.8,806.7,322.2,799.4,319.2z"/>
	<path class="st3" d="M800.6,358.4c-41.6,1.4-83.6-11.9-116.7-37.2c-6.2-4.7-12.6-13.2-7.9-19.5c2.1-2.8,5.7-3.8,9-4.8
		c33.9-10.3,64.2-32,84.7-60.9c-31.1,14.4-64.1,25.6-98.3,28c-34.2,2.4-69.7-4.7-97.8-24.2c31.4-20.3,59.1-46.4,81-76.7
		c-48.1,44.8-129.1,48.7-181.2,8.6c-2.8-2.2-5.7-4.6-7.2-7.8c-4.6-9.6,3.8-20,11.6-27.3c-12.2,7.9-24.4,15.8-36.6,23.6
		c-3.1,2-6.3,4.1-9.9,5.1c-5.8,1.6-12.1,0.3-17.8-1.5c-48.8-14.9-85.2-63.5-85.8-114.5c-14.5,26.4-20.5,57.3-17,87.2
		c0.3,2.2,0.4,4.8-1.2,6.4c-1.4,1.4-3.6,1.3-5.6,1.2c-44.2-3.5-86-29.5-108.7-67.6c4.9,25.8,11.5,47.3,27.8,68.5
		c7.6,9.9,19.3,26.2,31.1,31.6c0.1,0.1,445.8,205.4,445.8,205.4c9.9,3.1,36.4,9.9,67.4,0c14.9-4.8,31.3-14.6,43.5-24.4
		C807.5,358.1,804,358.3,800.6,358.4z"/>
	<path class="st4" d="M271.2,172.3c-28.5,6-55.5,18.4-80.4,39C79.2,303.5,67.9,469.4,94.1,601.7c13.6,68.6,38.4,135.1,75.7,194.4
		C263,943.7,452,816.7,545.1,737.4c31.7-27,61.3-56.4,88.6-87.7c44-50.3,84.4-111,84.8-180.3c0.8-129.8-117-217.6-226.5-261.3
		c-35.9-14.3-73.5-24.9-111.2-33C343.1,167,306.1,164.9,271.2,172.3z"/>
	<path class="st5" d="M718.6,469.4c0.8-129.8-117-217.6-226.5-261.3c-4.8-1.9-9.7-3.8-14.6-5.6c89,48.8,168.3,127,167.6,233.6
		c-0.4,69.3-40.8,130-84.8,180.3c-27.4,31.3-57,60.7-88.6,87.7c-65.9,56.2-180,136.3-274.1,125.8c99.1,91.1,262.9-20.4,347.5-92.5
		c31.7-27,61.3-56.4,88.6-87.7C677.7,599.3,718.1,538.6,718.6,469.4z"/>
	<g>
		<g>
			<path class="st6" d="M275.2,271.6c-0.6,0.3-14.8,6.1-23.1-1.2c-7.5-6.7-4.6-19.7-4.2-21.4c5.2-21.9,37.6-37.1,46.9-29.5
				C304.3,227.2,295.9,262.8,275.2,271.6z"/>
			<path class="st7" d="M294.9,219.6c-1.1-0.9-2.5-1.5-4.1-1.7c4.2,9.6-2.9,33.8-18.2,40.3c-0.5,0.2-12.3,5.1-19.1-1
				c-3.7-3.3-4.3-8.3-4.2-12.2c-0.5,1.3-1,2.7-1.3,4.1c-0.4,1.7-3.3,14.6,4.2,21.4c8.2,7.4,22.5,1.5,23.1,1.2
				C295.9,262.8,304.3,227.2,294.9,219.6z"/>
			<g>
				<path class="st1" d="M277.4,276.8l-0.8,0.3l-0.7,0.3c-0.5,0.2-1,0.3-1.5,0.5c-1,0.3-1.9,0.6-2.9,0.9c-2,0.5-4,0.9-6.2,1.1
					c-2.2,0.1-4.4,0.2-6.7-0.2c-2.3-0.4-4.7-1.1-6.9-2.4c-2.2-1.2-4.2-3-5.8-5c-0.4-0.5-0.7-1-1.1-1.5l-0.9-1.6
					c-0.3-0.5-0.5-1.1-0.7-1.7c-0.2-0.6-0.5-1.1-0.6-1.7c-0.7-2.2-1-4.4-1.2-6.6c-0.1-2.2,0-4.2,0.2-6.3c0.4-4,1.7-8.3,3.5-12
					c1.8-3.7,4.2-7,6.9-9.9c2.6-2.9,5.6-5.4,8.7-7.7c3.1-2.3,6.4-4.2,9.9-5.8c3.5-1.7,7.1-3,11.1-3.8c2-0.4,4-0.7,6.2-0.7
					c2.2,0,4.5,0.3,6.9,1.3c0.6,0.3,1.2,0.6,1.8,1l0.9,0.6c0.3,0.2,0.5,0.5,0.8,0.7c0.5,0.5,1,1,1.4,1.6c0.4,0.5,0.7,1.1,1,1.6
					c1.2,2.2,1.7,4.4,2,6.5c0.3,2.1,0.4,4.1,0.3,6.1c-0.1,2-0.2,3.9-0.5,5.9c-0.6,3.8-1.5,7.6-2.8,11.2c-1.3,3.6-2.9,7.2-4.8,10.5
					c-2,3.4-4.4,6.6-7.2,9.4C284.8,272.4,281.3,275,277.4,276.8z M273,266.5c2.6-1,5-2.6,7.3-4.6c2.2-2,4.2-4.4,6-7.1
					c3.5-5.3,6.1-11.5,7.3-17.8c0.3-1.6,0.5-3.2,0.6-4.7c0.1-1.6,0-3.1-0.1-4.5c-0.2-1.4-0.6-2.7-1.1-3.6c-0.1-0.2-0.2-0.5-0.4-0.6
					c-0.1-0.2-0.2-0.4-0.4-0.4c-0.1-0.1-0.1-0.1-0.2-0.2c-0.1,0-0.2-0.1-0.2-0.1c-0.1-0.1-0.3-0.2-0.5-0.3c-0.8-0.4-2.1-0.6-3.4-0.5
					c-1.4,0-2.9,0.2-4.3,0.5c-3,0.7-6,1.9-8.9,3.4c-2.9,1.5-5.6,3.3-8.2,5.3c-2.5,2-4.9,4.2-6.9,6.7c-2,2.4-3.7,5-4.8,7.8
					c-1.2,2.8-1.8,5.4-2,8.5c-0.2,3,0.1,5.9,0.9,8.1c0.8,2.3,2.1,3.8,3.8,4.7c0.8,0.5,1.9,0.8,3.1,1c1.2,0.3,2.5,0.3,3.9,0.3
					c1.4-0.1,2.9-0.2,4.3-0.5c0.7-0.1,1.5-0.3,2.2-0.5c0.4-0.1,0.7-0.2,1.1-0.3L273,266.5z"/>
			</g>
		</g>
		<g>
			<path class="st6" d="M217.3,736.3c-0.3,0.6-8.3,13.7-19.3,12.7c-10.1-0.9-15.4-13.1-16.1-14.7c-8.8-20.7,8.2-52.2,20.3-51.6
				C214.3,683.3,228.7,716.9,217.3,736.3z"/>
			<path class="st7" d="M202.2,682.7c-1.4-0.1-2.9,0.3-4.4,1.1c9.1,5.2,17.7,28.9,9.3,43.2c-0.3,0.5-6.8,11.4-15.9,10.5
				c-4.9-0.5-8.4-4.1-10.6-7.3c0.4,1.4,0.8,2.8,1.4,4.1c0.7,1.6,6,13.7,16.1,14.7c11,1,19-12.1,19.3-12.7
				C228.7,716.9,214.3,683.3,202.2,682.7z"/>
			<g>
				<path class="st1" d="M222.1,739.1l-0.5,0.8l-0.4,0.7c-0.3,0.4-0.6,0.9-0.9,1.3c-0.6,0.8-1.2,1.6-1.8,2.4
					c-1.3,1.6-2.7,3.1-4.3,4.5c-1.6,1.4-3.4,2.7-5.5,3.8c-2.1,1-4.4,1.9-7,2.2c-2.5,0.4-5.2,0.1-7.6-0.6c-0.6-0.2-1.2-0.4-1.8-0.6
					l-1.7-0.8c-0.6-0.3-1.1-0.6-1.6-0.9c-0.5-0.3-1-0.6-1.5-1c-1.9-1.4-3.5-3-4.9-4.6c-1.4-1.7-2.6-3.4-3.6-5.2
					c-2.1-3.5-3.6-7.7-4.3-11.7c-0.7-4.1-0.7-8.1-0.3-12c0.4-3.9,1.3-7.7,2.4-11.4c1.2-3.7,2.7-7.2,4.5-10.6c1.8-3.4,4-6.6,6.6-9.6
					c1.4-1.5,2.8-2.9,4.6-4.2c1.7-1.3,3.8-2.5,6.4-3.1c0.7-0.1,1.3-0.3,2-0.3l1.1,0c0.4,0,0.7,0.1,1.1,0.1c0.7,0.1,1.4,0.3,2,0.4
					c0.7,0.2,1.2,0.5,1.8,0.7c2.3,1.1,4,2.5,5.5,4c1.5,1.5,2.8,3.1,3.9,4.7c1.1,1.6,2.2,3.3,3.1,5c1.8,3.4,3.3,7,4.4,10.7
					c1.1,3.7,2,7.4,2.3,11.3c0.4,3.9,0.4,7.9-0.2,11.9C225.5,731.3,224.2,735.3,222.1,739.1z M212.5,733.5c1.5-2.4,2.5-5.1,3.1-8.1
					c0.6-3,0.8-6.1,0.6-9.3c-0.3-6.4-1.9-12.9-4.7-18.7c-0.7-1.4-1.5-2.9-2.3-4.1c-0.9-1.3-1.8-2.5-2.8-3.5c-1-1-2.1-1.8-3-2.3
					c-0.2-0.1-0.5-0.2-0.7-0.3c-0.2-0.1-0.4-0.1-0.6-0.1c-0.1,0-0.2,0-0.3,0c-0.1,0-0.2,0-0.3,0c-0.2,0-0.4,0.1-0.6,0.1
					c-0.9,0.2-2,0.8-3.1,1.6c-1.1,0.8-2.2,1.9-3.2,3c-2,2.4-3.7,5.1-5.2,8c-1.4,2.9-2.6,6-3.4,9.1c-0.8,3.1-1.4,6.3-1.6,9.4
					c-0.1,3.1,0,6.2,0.7,9.1c0.7,2.9,1.8,5.4,3.4,8c1.6,2.5,3.6,4.7,5.5,6c2,1.3,3.9,1.8,5.9,1.5c1-0.1,2-0.5,3.1-1
					c1.1-0.5,2.2-1.3,3.3-2.1c1.1-0.9,2.2-1.9,3.2-3c0.5-0.6,1-1.1,1.5-1.7c0.2-0.3,0.5-0.6,0.7-0.9L212.5,733.5z"/>
			</g>
		</g>
		<g>
			<path class="st6" d="M504.7,337.5c-0.5,0.4-12.3,10.2-22.4,5.6c-9.2-4.2-10.3-17.5-10.4-19.2c-1.5-22.5,25-46.5,36.1-42
				C519.3,286.5,521.8,323,504.7,337.5z"/>
			<path class="st7" d="M508.1,282c-1.3-0.5-2.8-0.6-4.5-0.4c6.9,7.9,7.2,33.1-5.5,43.9c-0.4,0.3-10.2,8.5-18.5,4.7
				c-4.5-2-6.6-6.7-7.6-10.4c-0.1,1.4-0.1,2.9,0,4.3c0.1,1.7,1.2,15,10.4,19.2c10,4.6,21.9-5.2,22.4-5.6
				C521.8,323,519.3,286.5,508.1,282z"/>
			<g>
				<path class="st1" d="M508.3,341.8l-0.7,0.6l-0.6,0.5c-0.4,0.3-0.8,0.6-1.2,0.9c-0.8,0.6-1.7,1.2-2.5,1.7c-1.7,1.1-3.6,2-5.6,2.9
					c-2,0.8-4.1,1.5-6.4,1.8c-2.3,0.3-4.8,0.3-7.3-0.2c-2.5-0.5-4.9-1.6-7-3.1c-0.5-0.4-1-0.8-1.5-1.2l-1.3-1.3
					c-0.5-0.4-0.8-0.9-1.2-1.4c-0.4-0.5-0.8-0.9-1.1-1.4c-1.4-1.9-2.3-3.9-3.1-6c-0.8-2-1.3-4-1.7-6c-0.8-3.9-0.9-8.4-0.2-12.5
					c0.7-4.1,2-7.9,3.7-11.5c1.7-3.6,3.7-6.9,6.1-9.9c2.3-3.1,4.9-5.9,7.8-8.5c2.8-2.6,5.9-4.9,9.4-6.9c1.8-1,3.6-1.8,5.7-2.5
					c2.1-0.6,4.4-1.1,7-0.8c0.7,0.1,1.3,0.2,2,0.4l1,0.3c0.3,0.1,0.6,0.3,1,0.5c0.7,0.3,1.2,0.7,1.8,1.1c0.6,0.4,1,0.8,1.5,1.3
					c1.8,1.8,2.9,3.7,3.8,5.6c0.9,1.9,1.6,3.8,2.1,5.7c0.5,1.9,0.9,3.8,1.2,5.7c0.6,3.8,0.8,7.7,0.6,11.5c-0.2,3.8-0.6,7.7-1.5,11.5
					c-0.9,3.8-2.2,7.6-4.1,11.2C514.1,335.5,511.5,338.9,508.3,341.8z M501.1,333.3c2.2-1.8,4-4,5.6-6.6c1.5-2.6,2.7-5.5,3.7-8.5
					c1.8-6.1,2.4-12.8,1.7-19.2c-0.2-1.6-0.4-3.2-0.8-4.7c-0.4-1.5-0.9-3-1.5-4.2c-0.6-1.3-1.3-2.4-2.1-3.2
					c-0.2-0.2-0.4-0.4-0.5-0.5c-0.2-0.1-0.3-0.3-0.5-0.3c-0.1,0-0.1-0.1-0.2-0.1c-0.1,0-0.2,0-0.3-0.1c-0.1-0.1-0.4-0.1-0.6-0.1
					c-0.9-0.1-2.1,0.1-3.4,0.5c-1.3,0.4-2.7,1.1-4,1.8c-2.6,1.6-5.2,3.6-7.5,5.8c-2.3,2.3-4.4,4.8-6.2,7.5c-1.8,2.7-3.4,5.5-4.6,8.4
					c-1.2,2.9-2,5.9-2.3,8.8c-0.3,3-0.1,5.7,0.6,8.7c0.7,2.9,1.8,5.6,3.2,7.5c1.5,1.9,3.1,3,5,3.3c1,0.3,2.1,0.2,3.3,0.1
					c1.2-0.1,2.5-0.5,3.8-0.9c1.3-0.5,2.7-1.1,4-1.8c0.7-0.4,1.3-0.7,1.9-1.2c0.3-0.2,0.6-0.4,0.9-0.6L501.1,333.3z"/>
			</g>
		</g>
		<g>
			<path class="st6" d="M370.1,600.9c-0.5,0.4-12.3,10.2-22.4,5.6c-9.2-4.2-10.3-17.5-10.4-19.2c-1.5-22.5,25-46.5,36.1-42
				C384.8,549.9,387.2,586.4,370.1,600.9z"/>
			<path class="st7" d="M373.5,545.4c-1.3-0.5-2.8-0.6-4.5-0.4c6.9,7.9,7.2,33.1-5.5,43.9c-0.4,0.3-10.2,8.5-18.5,4.7
				c-4.5-2-6.6-6.7-7.6-10.4c-0.1,1.4-0.1,2.9,0,4.3c0.1,1.7,1.2,15,10.4,19.2c10,4.6,21.9-5.2,22.4-5.6
				C387.2,586.4,384.8,549.9,373.5,545.4z"/>
			<g>
				<path class="st1" d="M373.8,605.2l-0.7,0.6l-0.6,0.5c-0.4,0.3-0.8,0.6-1.2,0.9c-0.8,0.6-1.7,1.2-2.5,1.7c-1.7,1.1-3.6,2-5.6,2.9
					c-2,0.8-4.1,1.5-6.4,1.8c-2.3,0.3-4.8,0.3-7.3-0.2c-2.5-0.5-4.9-1.6-7-3.1c-0.5-0.4-1-0.8-1.5-1.2l-1.3-1.3
					c-0.5-0.4-0.8-0.9-1.2-1.4c-0.4-0.5-0.8-0.9-1.1-1.4c-1.4-1.9-2.3-3.9-3.1-6c-0.8-2-1.3-4-1.7-6c-0.8-3.9-0.9-8.4-0.2-12.5
					c0.7-4.1,2-7.9,3.7-11.5c1.7-3.6,3.7-6.9,6.1-9.9c2.3-3.1,4.9-5.9,7.8-8.5c2.8-2.6,5.9-4.9,9.4-6.9c1.8-1,3.6-1.8,5.7-2.5
					c2.1-0.6,4.4-1.1,7-0.8c0.7,0.1,1.3,0.2,2,0.4l1,0.3c0.3,0.1,0.6,0.3,1,0.5c0.7,0.3,1.2,0.7,1.8,1.1c0.6,0.4,1,0.8,1.5,1.3
					c1.8,1.8,2.9,3.7,3.8,5.6c0.9,1.9,1.6,3.8,2.1,5.7c0.5,1.9,0.9,3.8,1.2,5.7c0.6,3.8,0.8,7.7,0.6,11.5c-0.2,3.8-0.6,7.7-1.5,11.5
					c-0.9,3.8-2.2,7.6-4.1,11.2C379.5,598.9,377,602.3,373.8,605.2z M366.5,596.7c2.2-1.8,4-4,5.6-6.6c1.5-2.6,2.7-5.5,3.7-8.5
					c1.8-6.1,2.4-12.8,1.7-19.2c-0.2-1.6-0.4-3.2-0.8-4.7c-0.4-1.5-0.9-3-1.5-4.2c-0.6-1.3-1.3-2.4-2.1-3.2
					c-0.2-0.2-0.4-0.4-0.5-0.5c-0.2-0.1-0.3-0.3-0.5-0.3c-0.1,0-0.1-0.1-0.2-0.1c-0.1,0-0.2,0-0.3-0.1c-0.1-0.1-0.4-0.1-0.6-0.1
					c-0.9-0.1-2.1,0.1-3.4,0.5c-1.3,0.4-2.7,1.1-4,1.8c-2.6,1.6-5.2,3.6-7.5,5.8c-2.3,2.3-4.4,4.8-6.2,7.5c-1.8,2.7-3.4,5.5-4.6,8.4
					c-1.2,2.9-2,5.9-2.3,8.8c-0.3,3-0.1,5.7,0.6,8.7c0.7,2.9,1.8,5.6,3.2,7.5c1.5,1.9,3.1,3,5,3.3c1,0.3,2.1,0.2,3.3,0.1
					c1.2-0.1,2.5-0.5,3.8-0.9c1.3-0.5,2.7-1.1,4-1.8c0.7-0.4,1.3-0.7,1.9-1.2c0.3-0.2,0.6-0.4,0.9-0.6L366.5,596.7z"/>
			</g>
		</g>
		<g>
			<path class="st6" d="M178.8,528.5c-0.4,0.5-10,12.5-20.8,10.1c-9.9-2.3-13.6-15-14-16.7c-6-21.7,15-50.6,26.8-48.5
				C182.8,475.6,192.6,510.8,178.8,528.5z"/>
			<path class="st7" d="M170.8,473.4c-1.4-0.3-2.9-0.1-4.5,0.5c8.3,6.3,13.8,31,3.6,44.1c-0.3,0.4-8.3,10.4-17.2,8.3
				c-4.8-1.1-7.8-5.2-9.6-8.6c0.2,1.4,0.4,2.9,0.8,4.3c0.5,1.7,4.2,14.4,14,16.7c10.8,2.5,20.4-9.5,20.8-10.1
				C192.6,510.8,182.8,475.6,170.8,473.4z"/>
			<g>
				<path class="st1" d="M183.2,531.9l-0.6,0.7l-0.5,0.6c-0.3,0.4-0.7,0.8-1,1.2c-0.7,0.8-1.4,1.5-2.2,2.2c-1.5,1.4-3.1,2.7-4.9,3.9
					c-1.8,1.2-3.7,2.3-5.9,3.1c-2.2,0.8-4.6,1.3-7.2,1.3c-2.5,0-5.1-0.6-7.5-1.6c-0.6-0.3-1.1-0.5-1.7-0.8l-1.6-1
					c-0.5-0.3-1-0.7-1.5-1.1c-0.5-0.4-0.9-0.8-1.3-1.2c-1.7-1.6-3.1-3.4-4.2-5.2c-1.2-1.8-2.1-3.7-2.9-5.6
					c-1.6-3.7-2.5-8.1-2.7-12.2c-0.2-4.1,0.4-8.1,1.3-12c0.9-3.8,2.3-7.5,3.9-11c1.6-3.5,3.6-6.8,5.9-9.9c2.2-3.1,4.8-6,7.9-8.7
					c1.5-1.3,3.2-2.5,5.1-3.6c1.9-1,4.1-1.9,6.7-2.2c0.7,0,1.3-0.1,2.1,0l1.1,0.1c0.3,0.1,0.7,0.2,1,0.2c0.7,0.2,1.3,0.4,1.9,0.7
					c0.6,0.3,1.1,0.6,1.7,0.9c2.1,1.4,3.6,3,4.9,4.7c1.3,1.7,2.4,3.4,3.3,5.2c0.9,1.8,1.7,3.6,2.4,5.4c1.4,3.6,2.3,7.4,2.9,11.1
					c0.6,3.8,1,7.6,0.8,11.5c-0.1,3.9-0.7,7.9-1.8,11.8C187.6,524.6,185.8,528.5,183.2,531.9z M174.4,525.1c1.8-2.2,3.1-4.7,4.1-7.6
					c1-2.9,1.6-5.9,1.9-9.1c0.5-6.3-0.2-13-2.2-19.1c-0.5-1.5-1.1-3-1.8-4.4c-0.7-1.4-1.5-2.7-2.3-3.9c-0.8-1.1-1.8-2.1-2.7-2.7
					c-0.2-0.1-0.4-0.3-0.6-0.4c-0.2-0.1-0.4-0.2-0.6-0.2c-0.1,0-0.2-0.1-0.2-0.1c-0.1,0-0.2,0-0.3,0c-0.2-0.1-0.4,0-0.6,0
					c-0.9,0.1-2.1,0.5-3.3,1.2c-1.2,0.7-2.4,1.6-3.5,2.6c-2.3,2.1-4.4,4.6-6.2,7.2c-1.8,2.7-3.3,5.6-4.6,8.6c-1.2,3-2.2,6.1-2.8,9.2
					c-0.6,3.1-0.8,6.2-0.5,9.1c0.3,3,1,5.6,2.3,8.4c1.2,2.7,2.9,5.1,4.7,6.7c1.8,1.6,3.6,2.3,5.6,2.2c1,0.1,2.1-0.2,3.2-0.6
					c1.2-0.3,2.4-1,3.6-1.7c1.2-0.7,2.4-1.6,3.5-2.5c0.6-0.5,1.1-1,1.7-1.5c0.3-0.3,0.5-0.5,0.8-0.8L174.4,525.1z"/>
			</g>
		</g>
		<g>
			<path class="st6" d="M650.6,496.5c-0.4,0.5-10.4,12.2-21.1,9.4c-9.8-2.6-13.1-15.5-13.5-17.1c-5.3-21.9,16.7-50.1,28.5-47.6
				C656.4,443.7,665,479.2,650.6,496.5z"/>
			<path class="st7" d="M644.5,441.2c-1.4-0.3-2.9-0.2-4.5,0.3c8.1,6.6,12.7,31.4,2.1,44.2c-0.3,0.4-8.6,10.1-17.5,7.7
				c-4.7-1.3-7.6-5.4-9.3-9c0.1,1.4,0.3,2.9,0.7,4.3c0.4,1.7,3.7,14.5,13.5,17.1c10.7,2.8,20.7-8.9,21.1-9.4
				C665,479.2,656.4,443.7,644.5,441.2z"/>
			<g>
				<path class="st1" d="M654.9,500.1l-0.6,0.7l-0.5,0.6c-0.3,0.4-0.7,0.8-1.1,1.1c-0.7,0.7-1.5,1.4-2.2,2.1c-1.5,1.3-3.2,2.6-5,3.8
					c-1.8,1.1-3.8,2.1-6,2.9c-2.2,0.7-4.7,1.2-7.2,1c-2.5,0-5.1-0.8-7.4-1.8c-0.6-0.3-1.1-0.6-1.7-0.9l-1.5-1
					c-0.5-0.3-1-0.7-1.4-1.1c-0.4-0.4-0.9-0.8-1.3-1.2c-1.7-1.7-2.9-3.5-4-5.3c-1.1-1.9-2-3.8-2.7-5.7c-1.5-3.8-2.3-8.1-2.3-12.2
					c0-4.1,0.6-8.1,1.7-11.9c1-3.8,2.5-7.4,4.3-10.8c1.8-3.4,3.8-6.7,6.2-9.7c2.3-3,5-5.9,8.1-8.4c1.6-1.2,3.3-2.4,5.2-3.4
					c1.9-1,4.1-1.8,6.8-2c0.7,0,1.3-0.1,2.1,0.1l1.1,0.2c0.3,0.1,0.7,0.2,1,0.3c0.7,0.2,1.3,0.5,1.9,0.8c0.6,0.3,1.1,0.6,1.7,1
					c2,1.4,3.5,3.1,4.7,4.8c1.2,1.7,2.2,3.5,3.1,5.3c0.9,1.8,1.6,3.6,2.2,5.4c1.2,3.7,2.1,7.4,2.6,11.2c0.5,3.8,0.7,7.7,0.4,11.6
					c-0.2,3.9-0.9,7.8-2.2,11.7C659.5,492.9,657.6,496.7,654.9,500.1z M646.4,492.9c1.8-2.1,3.3-4.6,4.4-7.4c1.1-2.8,1.8-5.9,2.2-9
					c0.8-6.3,0.2-13-1.6-19.2c-0.4-1.5-1-3.1-1.6-4.5c-0.6-1.4-1.4-2.8-2.2-3.9c-0.8-1.2-1.7-2.2-2.6-2.8c-0.2-0.1-0.4-0.3-0.6-0.4
					c-0.2-0.1-0.4-0.2-0.5-0.2c-0.1,0-0.2-0.1-0.2-0.1c-0.1,0-0.2,0-0.3,0c-0.2-0.1-0.4,0-0.6,0c-0.9,0-2.1,0.4-3.3,1.1
					c-1.2,0.6-2.4,1.5-3.6,2.5c-2.3,2-4.5,4.4-6.4,7c-1.9,2.6-3.5,5.5-4.9,8.4c-1.3,2.9-2.4,6-3.1,9.1c-0.7,3.1-1,6.2-0.8,9.1
					c0.2,3,0.9,5.6,2.1,8.4c1.2,2.7,2.7,5.2,4.5,6.9c1.8,1.7,3.6,2.4,5.5,2.4c1,0.1,2.1-0.1,3.2-0.5c1.2-0.3,2.4-0.9,3.6-1.5
					c1.2-0.7,2.5-1.5,3.6-2.4c0.6-0.5,1.2-1,1.7-1.5c0.3-0.3,0.6-0.5,0.8-0.8L646.4,492.9z"/>
			</g>
		</g>
		<g>
			<path class="st6" d="M375.1,775.6c-0.6,0.2-15.4,4.5-22.8-3.7c-6.8-7.5-2.5-20.1-2-21.7c7.5-21.2,41.3-32.9,49.8-24.3
				C408.6,734.5,396.5,768.9,375.1,775.6z"/>
			<path class="st7" d="M400.1,725.8c-1-1-2.3-1.7-3.9-2.2c3.2,10-6.5,33.3-22.3,38.2c-0.5,0.2-12.7,3.7-18.9-3
				c-3.3-3.6-3.4-8.7-2.9-12.6c-0.7,1.3-1.3,2.6-1.8,4c-0.6,1.6-4.8,14.2,2,21.7c7.4,8.2,22.2,3.9,22.8,3.7
				C396.5,768.9,408.6,734.5,400.1,725.8z"/>
			<g>
				<path class="st1" d="M376.7,780.9l-0.9,0.3l-0.8,0.2c-0.5,0.1-1,0.2-1.5,0.4c-1,0.2-2,0.4-3,0.6c-2,0.3-4.1,0.5-6.2,0.4
					c-2.2-0.1-4.4-0.3-6.6-0.9c-2.2-0.6-4.5-1.6-6.6-3.1c-2.1-1.4-3.9-3.4-5.2-5.6c-0.3-0.5-0.6-1.1-0.9-1.7l-0.7-1.7
					c-0.3-0.6-0.4-1.1-0.6-1.7c-0.2-0.6-0.3-1.2-0.4-1.7c-0.5-2.3-0.6-4.5-0.5-6.7c0.1-2.2,0.4-4.2,0.8-6.2
					c0.8-3.9,2.5-8.1,4.7-11.5c2.2-3.5,5-6.5,7.9-9.1c2.9-2.6,6.2-4.8,9.5-6.7c3.3-1.9,6.8-3.5,10.5-4.7c3.6-1.3,7.4-2.2,11.4-2.6
					c2-0.2,4.1-0.2,6.2,0c2.1,0.2,4.4,0.7,6.8,2.1c0.6,0.4,1.1,0.7,1.7,1.2l0.8,0.7c0.3,0.3,0.5,0.5,0.7,0.8
					c0.5,0.5,0.8,1.1,1.2,1.7c0.4,0.6,0.6,1.2,0.8,1.7c0.9,2.3,1.2,4.5,1.3,6.6c0.1,2.1,0,4.1-0.3,6.1c-0.3,2-0.6,3.9-1.1,5.8
					c-1,3.8-2.3,7.4-4,10.8c-1.7,3.5-3.6,6.8-5.9,9.9c-2.3,3.1-5,6.1-8.2,8.6C384.5,777.4,380.8,779.5,376.7,780.9z M373.4,770.2
					c2.7-0.8,5.3-2.1,7.7-3.8c2.4-1.8,4.7-4,6.7-6.4c4.1-4.9,7.3-10.8,9.2-16.9c0.5-1.5,0.9-3.1,1.1-4.6c0.3-1.5,0.4-3.1,0.3-4.5
					c0-1.4-0.3-2.8-0.7-3.7c-0.1-0.2-0.2-0.5-0.3-0.6c-0.1-0.2-0.2-0.4-0.3-0.5c-0.1-0.1-0.1-0.1-0.2-0.2c-0.1,0-0.1-0.1-0.2-0.2
					c-0.1-0.1-0.3-0.2-0.5-0.3c-0.8-0.4-2-0.8-3.4-0.9c-1.4-0.1-2.9-0.1-4.4,0.1c-3.1,0.4-6.2,1.2-9.2,2.4c-3,1.2-5.9,2.7-8.7,4.4
					c-2.7,1.7-5.3,3.7-7.5,5.9c-2.2,2.2-4.2,4.6-5.6,7.2c-1.5,2.6-2.3,5.2-2.9,8.2c-0.5,2.9-0.5,5.9,0,8.2c0.6,2.4,1.7,4,3.3,5.1
					c0.8,0.6,1.8,1,3,1.4c1.1,0.4,2.5,0.5,3.9,0.7c1.4,0.1,2.9,0.1,4.4-0.1c0.7-0.1,1.5-0.2,2.2-0.3c0.4-0.1,0.7-0.1,1.1-0.2
					L373.4,770.2z"/>
			</g>
		</g>
		<g>
			<path class="st6" d="M549.8,655.9c-0.6,0.3-14,7.8-23,1.5c-8.3-5.8-6.9-19-6.7-20.7c2.6-22.4,33-41.3,43.1-34.8
				C573.4,608.3,569.3,644.6,549.8,655.9z"/>
			<path class="st7" d="M563.1,601.8c-1.2-0.8-2.7-1.1-4.3-1.2c5.3,9,1.1,33.9-13.3,42.2c-0.5,0.3-11.6,6.5-19.1,1.2
				c-4-2.8-5.3-7.7-5.6-11.6c-0.4,1.4-0.7,2.8-0.8,4.3c-0.2,1.7-1.5,14.9,6.7,20.7c9.1,6.3,22.5-1.2,23-1.5
				C569.3,644.6,573.4,608.3,563.1,601.8z"/>
			<g>
				<path class="st1" d="M552.6,660.7l-0.8,0.4l-0.7,0.4c-0.5,0.2-0.9,0.5-1.4,0.7c-0.9,0.4-1.9,0.8-2.8,1.2c-1.9,0.7-3.9,1.4-6,1.8
					c-2.1,0.4-4.3,0.7-6.7,0.6c-2.3-0.1-4.8-0.5-7.1-1.5c-2.4-0.9-4.5-2.5-6.3-4.3c-0.4-0.5-0.9-0.9-1.3-1.4l-1.1-1.5
					c-0.4-0.5-0.6-1-0.9-1.6c-0.3-0.5-0.6-1.1-0.8-1.6c-1-2.1-1.6-4.3-2-6.4c-0.4-2.1-0.6-4.2-0.6-6.3c-0.1-4,0.7-8.4,2.1-12.3
					c1.4-3.9,3.4-7.4,5.7-10.6c2.3-3.2,4.9-6.1,7.8-8.7c2.8-2.6,5.9-4.9,9.2-6.9c3.3-2.1,6.7-3.8,10.5-5.1c1.9-0.6,3.9-1.1,6.1-1.4
					c2.1-0.2,4.5-0.3,7.1,0.5c0.6,0.2,1.3,0.4,1.9,0.8l0.9,0.5c0.3,0.2,0.6,0.4,0.9,0.6c0.6,0.4,1.1,0.9,1.5,1.4
					c0.5,0.5,0.8,1,1.2,1.5c1.4,2.1,2.2,4.1,2.8,6.2c0.6,2,0.9,4,1.1,6c0.2,2,0.2,3.9,0.2,5.9c-0.1,3.9-0.6,7.7-1.5,11.4
					c-0.8,3.7-2,7.4-3.6,11c-1.6,3.6-3.6,7-6.1,10.2C559.4,655.6,556.3,658.5,552.6,660.7z M547,651.1c2.4-1.3,4.7-3.2,6.7-5.5
					c2-2.3,3.7-4.9,5.2-7.7c2.9-5.7,4.7-12.1,5.1-18.5c0.1-1.6,0.1-3.2,0-4.7c-0.1-1.6-0.3-3.1-0.7-4.4c-0.4-1.4-0.9-2.6-1.5-3.5
					c-0.2-0.2-0.3-0.4-0.4-0.6c-0.1-0.2-0.3-0.3-0.4-0.4c-0.1,0-0.1-0.1-0.2-0.2c-0.1,0-0.2-0.1-0.2-0.1c-0.1-0.1-0.4-0.1-0.6-0.2
					c-0.8-0.3-2.1-0.3-3.5-0.1c-1.4,0.2-2.8,0.6-4.3,1.1c-2.9,1.1-5.8,2.6-8.4,4.4c-2.7,1.8-5.2,3.9-7.5,6.2c-2.3,2.3-4.3,4.8-6,7.4
					c-1.7,2.7-3.1,5.4-3.9,8.3c-0.8,2.9-1.1,5.6-1,8.6c0.1,3,0.8,5.8,1.8,8c1.1,2.2,2.5,3.5,4.4,4.2c0.9,0.4,2,0.6,3.2,0.7
					c1.2,0.1,2.5,0,3.9-0.2c1.4-0.2,2.8-0.6,4.2-1c0.7-0.2,1.4-0.5,2.1-0.8c0.3-0.1,0.7-0.3,1-0.4L547,651.1z"/>
			</g>
		</g>
	</g>
	<path class="st0" d="M271.2,172.3c-28.5,6-55.5,18.4-80.4,39C79.2,303.5,67.9,469.4,94.1,601.7c13.6,68.6,38.4,135.1,75.7,194.4
		C263,943.7,452,816.7,545.1,737.4c31.7-27,61.3-56.4,88.6-87.7c44-50.3,84.4-111,84.8-180.3c0.8-129.8-117-217.6-226.5-261.3
		c-35.9-14.3-73.5-24.9-111.2-33C343.1,167,306.1,164.9,271.2,172.3z"/>
	<path class="st0" d="M338.7,165c-15.1-7.7-23.7-24.4-27.1-41.1c-7.7-38,8.5-79.9,39.9-102.7c1.3-1,2.7-1.9,4.4-2.1
		c6.4-0.6,13.2,17.6,16.1,22.4c5.7,9.3,11.9,18.4,19,26.7c10.3,11.9,22.4,22.1,32.4,34.2c10.8,13.1,19.1,28.3,24,44.6
		c17.3-14.8,39.4-23.2,61.9-26.7c22.5-3.5,45.5-2.2,68,0.5c12.7,1.5,25.4,3.6,38.3,4c19.3,0.6,38.7-2.4,56.9-9
		c0.5,9.2-2.3,18.3-5.5,26.9c-8.9,23.7-21.5,46.3-39.7,63.8c-18.2,17.5-42.5,29.5-67.7,29.8"/>
	<path class="st0" d="M726.4,281.8c2.7,0.8,7.4,2.2,13,4.4c28.3,10.9,37.5,23.8,60,33.1c7.3,3,18.2,6.6,32.6,8.2
		c-4,7.5-23,41.4-64.7,54.8c-31,9.9-57.5,3.1-67.4,0"/>
	<path class="st0" d="M309.7,101.8c-7.7-6.4-19.8-15.5-36.2-23.8c-14.2-7.2-21-8.6-33-14.9c-10.2-5.4-24.4-14.5-39.2-30.4
		c-4.5,12.6-6.1,23.8-6.4,33c-2.1,61.2,49.8,103.7,59.3,111.2"/>
	<path class="st0" d="M632.5,201.3c7-1,17.4-1.8,29.8-0.2c9.7,1.3,13.8,3.1,30.9,8.3c23.4,7.1,35.3,9.7,49.2,12.5
		c11,2.2,22.6,4.1,33.2,0.5c-1.5,3.4-3.9,8.4-7.4,14.2c-5.7,9.4-25.9,43.3-67,57.7c-26.1,9.1-49.6,6.5-62.8,3.8"/>
	<path class="st0" d="M500.5,119.1c6.3-21.6,16.4-42,29.7-60.2c5.9-8.1,12.4-15.7,19-23.2c2.3-2.7,5.1-5.6,8.7-5.6
		c1.9,0,3.7,0.7,5.3,1.6c12.1,6,22.1,16.2,27.9,28.4c0.2,0.5,0.5,1,0.4,1.5c-0.1,0.6-0.6,1.1-1,1.5c-17.8,16.3-34.3,33.9-49.6,52.6"
		/>
	<path class="st0" d="M447.5,147.1c-2.9,3-6,6.9-9,11.7c-5.3,8.7-7.7,16.9-9,22.8"/>
	<g>
		<path class="st8" d="M276.5,330.6c-7.9-4.2-14.9-11.1-17.1-19.7"/>
		<path class="st8" d="M262.4,341.2c-3-0.3-8.7-1.2-14.4-5c-3.4-2.2-5.7-4.8-7.3-6.7"/>
		
			<ellipse transform="matrix(0.4089 -0.9126 0.9126 0.4089 -230.1365 464.8622)" class="st9" cx="243.8" cy="410.1" rx="17.3" ry="27.5"/>
		
			<ellipse transform="matrix(0.4089 -0.9126 0.9126 0.4089 -167.4726 469.1741)" class="st1" cx="278.4" cy="363.9" rx="43.5" ry="37.4"/>
		
			<ellipse transform="matrix(0.4089 -0.9126 0.9126 0.4089 -147.2618 446.4477)" class="st10" cx="271" cy="336.9" rx="7.7" ry="7.1"/>
		
			<ellipse transform="matrix(0.4089 -0.9126 0.9126 0.4089 -190.8075 467.5767)" class="st10" cx="265.5" cy="381.1" rx="13.1" ry="11.8"/>
		
			<ellipse transform="matrix(0.4089 -0.9126 0.9126 0.4089 -186.6294 746.1199)" class="st9" cx="482.7" cy="517.1" rx="17.3" ry="27.5"/>
		
			<ellipse transform="matrix(0.4089 -0.9126 0.9126 0.4089 -127.0572 730.4454)" class="st1" cx="500.3" cy="463.3" rx="43.5" ry="37.4"/>
		
			<ellipse transform="matrix(0.4089 -0.9126 0.9126 0.4089 -106.8463 707.719)" class="st10" cx="492.9" cy="436.3" rx="7.7" ry="7.1"/>
		
			<ellipse transform="matrix(0.4089 -0.9126 0.9126 0.4089 -150.392 728.848)" class="st10" cx="487.4" cy="480.5" rx="13.1" ry="11.8"/>
		<path class="st1" d="M394.5,481.7c2.4,11.3-23,33.4-48.3,30.4c-2.2-0.3-19.9-2.7-29.2-18.2c-9.6-16-6.4-39.5,3.7-44.4
			c6.8-3.3,12.1,4,38.2,15.7C384.5,476.6,393.2,475.6,394.5,481.7z"/>
		<path class="st11" d="M386.9,494.8c0.3,0.2,0.5,0.3,0.8,0.5c1,0.6-6.4,6.6-6.9,7c-3.2,2.3-6.6,4.2-10.2,5.8
			c-7.6,3.3-16.1,5-24.3,4c-2.2-0.3-19.9-2.7-29.2-18.2c-2-3.3-3.1-6.2-3.2-10c12-4.9,25.4-5.4,38.1-3
			C364.3,483.3,376,488.5,386.9,494.8z"/>
		<path class="st8" d="M394.5,481.7c2.4,11.3-23,33.4-48.3,30.4c-2.2-0.3-19.9-2.7-29.2-18.2c-9.6-16-6.4-39.5,3.7-44.4
			c6.8-3.3,12.1,4,38.2,15.7C384.5,476.6,393.2,475.6,394.5,481.7z"/>
		<path class="st8" d="M523.3,439.9c8.7,2.1,18.5,1.7,25.9-3.3"/>
		<path class="st8" d="M527.1,457.4c2.5,1.8,7.3,4.8,14.1,5.8c4,0.6,7.4,0.3,9.9-0.2"/>
	</g>
	<path class="st1" d="M608.2,825.7c-5.6,5.7-10.9,11.7-15.3,18.4c-3.4,5.1-9.3,11.5-7.1,18c1.2,3.5,4.5,6.3,8.2,6.9
		c3.6,0.6,7.3-0.8,10.7-2.3c6.8-3.1,13.2-6.9,19.1-11.5c1.4,13.4,5.6,26.5,12.2,38.2c2,3.5,4.2,6.9,7.3,9.4c9.8,7.8,24.2,1,30.9-7.6
		c13.7-17.3,15.1-41.8,9.5-63.2c-2-7.5-4.9-15-10.4-20.5c-8.8-8.7-22.9-10.3-34.7-6.6C626.8,808.7,616.9,816.8,608.2,825.7z"/>
	<path class="st0" d="M648,844.7c1.4-23,1.9-55.2-2.4-93.3c-8-69.4-18.4-95.1-25.7-108.1c-7.9-14-16.2-24.5-22.1-31.2"/>
</g>
</svg>
