<?xml version="1.0" encoding="utf-8"?>
<!-- Generator: Adobe Illustrator 23.0.3, SVG Export Plug-In . SVG Version: 6.00 Build 0)  -->
<svg version="1.1" id="Layer_1" xmlns="http://www.w3.org/2000/svg" xmlns:xlink="http://www.w3.org/1999/xlink" x="0px" y="0px"
	 viewBox="0 0 781.8 875" style="enable-background:new 0 0 781.8 875;" xml:space="preserve">
<style type="text/css">
	.st0{fill:#410B09;}
	.st1{fill:#63C070;}
	.st2{opacity:0.74;}
	.st3{fill:#177D59;}
	.st4{fill:#FE4153;}
	.st5{fill:#D30B2F;}
	.st6{fill:#FFCF63;}
	.st7{fill:#FFB04A;}
	.st8{fill:#FEA6A4;}
	.st9{fill:#FFFFF6;}
	.st10{fill:none;stroke:#410B09;stroke-width:17.9247;stroke-linecap:round;stroke-linejoin:round;stroke-miterlimit:10;}
</style>
<g>
	<g>
		<path class="st0" d="M22.9,838.2c1.1,0.9,2.3,1.7,3.6,2.3c4.7,2.4,10.2,2.6,15.4,1.7c2.9-0.5,5.8-1.3,7.8-3.4
			c0.3-0.4,0.7-0.8,1.2-0.7c0.2,0,0.4,0.2,0.6,0.3c3,2.1,6.7,3.2,10.4,3.3c3.9,0.2,7.9-0.4,11.5-1.5c1-0.3,11.7-4.3,11.6-4.5
			c2.5,8.1,7.1,15.6,13.3,21.5c3.5,3.3,6.4,4.3,8.1,4.8c1.4,0.4,4.9,1.3,9,0.1c0,0,4.4-1.3,8-5.8c2.3-2.9,7.2-11.9-1.9-43.8
			c-6.2-21.7-9.2-32.6-19.7-42.3c-2.8-2.6-10.7-9.9-23.1-12.9c-19-4.6-39.2,3.1-55.1,18c-12.3,11.4-16.6,28.7-12.4,44.9
			C13.1,826.7,17.3,833.8,22.9,838.2z"/>
	</g>
	<g>
		<path class="st1" d="M720.4,202c-25.3-0.4-52.5-13.2-77.5-4.7c-0.5,0.2-1.1,0.4-1.6,0.2c-1.1-0.4-1-2-0.7-3.1
			c0.4-1.5,0.6-3,0.9-4.5c14.7-22.7,18.5-45.4,19.8-53.3c1.1-6.6,1.5-12.2,1.7-15.9c-8.6,7.2-20.1,9.7-31.1,11.6
			c-14,2.4-26,4.4-50.4,6.3c-17.8,1.4-22.3,1.1-31.8,3.5c-1.7,0.4-3.4,0.9-5,1.4c-6.7,0.9-13.5,2-20.2,2.9c6.5-19.3,8.7-40,8.5-60.4
			c-0.1-9.2-0.8-18.7-4.6-27.1c-14.5,12.7-31.5,22.6-49.7,29c-12.1,4.3-24.7,7-37.1,10.2c-12,3.1-24,6.7-35.6,11.1
			c1.5-7.1,3.3-14.1,5.8-21.1c6.1-16.6,13-32.9,20.8-48.7c0.3-0.5,0.5-1.1,0.4-1.7c-0.1-0.5-0.5-0.9-0.9-1.3
			c-9.8-9.3-22.8-15.1-36.3-16.3c-1.9-0.2-3.8-0.2-5.5,0.5c-3.3,1.4-4.8,5.1-6,8.4c-3.4,9.4-6.7,18.9-9.2,28.5
			c-4.2,15.9-6.4,32.3-6.5,48.7c0,7.7-0.1,14.9-0.7,22.5c-15.5,10.7-29,24.4-37.8,40.9c-10.5-13.3-23.7-24.6-38.6-32.8
			c-13.7-7.6-28.8-12.7-42.6-20.1c-9.7-5.1-18.7-11.4-27.5-18c-4.5-3.4-17.4-17.9-23.2-15c-1.5,0.7-2.4,2.2-3.3,3.5
			c-16.4,25.6-19.9,58.6-10.6,87.4c-0.5,0-0.9,0-1.4,0c-13.6-0.1-26.3-4.8-40-6.2c-15.8-1.6-22.7-0.4-36.2-1.9
			c-11.5-1.3-28-4.7-47.6-14.1c0.4,13.4,3,24.4,6,33.1c20.2,57.8,84.1,78.5,95.6,82l490,29.3c10.4-0.7,37.5-4,62.8-24.5
			c34-27.6,39.4-66.1,40.4-74.5C739.7,201.5,728.3,202.2,720.4,202z"/>
	</g>
	<g class="st2">
		<g>
			<path class="st3" d="M735.8,238.1c-38.3,16.4-82.2,19.3-122.2,7.8c-7.5-2.2-16.6-7.7-14.4-15.3c0.9-3.3,3.9-5.6,6.6-7.7
				c27.8-21.9,48.2-53.2,56.8-87.6c-23.7,24.7-50.4,47.2-81.4,61.8c-31,14.6-66.6,21-99.9,13c21.9-30.3,38.2-64.7,47.6-100.9
				c-28.5,59.2-102.5,92.2-165.7,73.9c-3.4-1-7-2.2-9.6-4.6c-7.8-7.2-3.7-20,0.9-29.6c-8.5,11.8-17,23.5-25.5,35.3
				c-2.2,3-4.4,6.1-7.4,8.3c-4.8,3.6-11.1,4.7-17.2,5.1c-50.9,3.9-102.4-28.1-121.5-75.4c-3.9,29.8,1.7,60.8,15.8,87.4
				c1.1,2,2.2,4.3,1.2,6.4c-0.8,1.8-2.9,2.5-4.8,3.1c-42.4,12.8-90.9,3.8-125.8-23.5c13.9,22.2,27.9,39.8,50.8,53.7
				c10.7,6.5,27.5,17.4,40.5,18.1c0.1,0,490,29.3,490,29.3c10.4-0.7,37.5-4,62.8-24.5c12.1-9.9,23.8-25,31.7-38.5
				C742,235.3,738.9,236.8,735.8,238.1z"/>
		</g>
	</g>
	<path class="st4" d="M684,576.2c0.7-2,1.5-4.1,2.2-6.1c22.7-62.9,38.2-134.1,13.5-198.8c-46.5-121.2-188.1-160.2-306-161.1
		c-38.6-0.3-77.5,3.5-115.6,9.7c-38.1,6.2-73.3,17.7-103.1,37.3c-24.3,16-45,37.3-60.8,65.6C70.6,401,73,491.5,98.4,576.2H684z"/>
	<path class="st5" d="M619.1,367c24.8,64.7,9.2,135.9-13.5,198.8c-1.3,3.5-2.5,6.9-3.8,10.4H684c0.7-2,1.5-4.1,2.2-6.1
		c22.7-62.9,38.2-134.1,13.5-198.8c-46.5-121.2-188.1-160.2-306-161.1c-5.2,0-10.4,0-15.6,0.1C478.7,223.4,581,267.5,619.1,367z"/>
	<g>
		<g>
			<g>
				<path class="st6" d="M214.8,348.3c-0.5,0.5-11.6,11.1-21.9,7.2c-9.5-3.5-11.5-16.7-11.7-18.4c-3.1-22.3,21.6-48.2,33-44.5
					C225.7,296.4,230.8,332.5,214.8,348.3z"/>
			</g>
			<g>
				<path class="st7" d="M214.1,292.6c-1.3-0.4-2.9-0.4-4.5-0.1c7.4,7.4,9.6,32.5-2.3,44.2c-0.4,0.4-9.6,9.2-18.1,6
					c-4.6-1.7-7.1-6.2-8.4-9.8c0,1.5,0.1,2.9,0.3,4.3c0.2,1.7,2.3,14.8,11.7,18.4c10.4,3.9,21.5-6.8,21.9-7.2
					C230.8,332.5,225.7,296.4,214.1,292.6z"/>
			</g>
			<g>
				<path class="st0" d="M218.7,352.3l-0.6,0.6l-0.6,0.5c-0.4,0.4-0.8,0.7-1.2,1c-0.8,0.7-1.6,1.3-2.4,1.9c-1.7,1.2-3.4,2.3-5.3,3.3
					c-1.9,0.9-4,1.8-6.3,2.3c-2.3,0.5-4.8,0.7-7.3,0.3c-2.5-0.3-5-1.3-7.2-2.5c-0.5-0.3-1.1-0.7-1.6-1l-1.4-1.2
					c-0.5-0.4-0.9-0.8-1.3-1.3c-0.4-0.4-0.8-0.9-1.2-1.3c-1.5-1.8-2.6-3.8-3.5-5.7c-0.9-2-1.6-3.9-2.1-5.9
					c-1.1-3.9-1.5-8.3-1.1-12.4c0.4-4.1,1.4-8,2.8-11.7c1.4-3.7,3.2-7.1,5.3-10.3c2.1-3.2,4.5-6.2,7.1-9c2.6-2.8,5.6-5.4,8.9-7.5
					c1.7-1.1,3.5-2.1,5.5-2.9c2-0.8,4.3-1.4,7-1.3c0.7,0.1,1.3,0.1,2,0.3l1,0.3c0.3,0.1,0.7,0.3,1,0.4c0.7,0.3,1.3,0.6,1.8,1
					c0.6,0.3,1.1,0.8,1.6,1.1c1.9,1.6,3.2,3.5,4.2,5.3c1.1,1.8,1.9,3.7,2.5,5.6c0.7,1.9,1.2,3.7,1.6,5.6c0.9,3.8,1.3,7.6,1.5,11.4
					c0.1,3.8-0.1,7.7-0.7,11.6c-0.6,3.9-1.7,7.7-3.3,11.4C224,345.6,221.7,349.2,218.7,352.3z M210.9,344.3c2-1.9,3.7-4.3,5.1-7
					c1.3-2.7,2.3-5.7,3-8.8c1.4-6.2,1.5-12.9,0.3-19.2c-0.3-1.6-0.7-3.1-1.2-4.6c-0.5-1.5-1.1-2.9-1.8-4.1c-0.7-1.2-1.5-2.3-2.3-3
					c-0.2-0.1-0.4-0.4-0.6-0.4c-0.2-0.1-0.4-0.2-0.5-0.3c-0.1,0-0.2-0.1-0.2-0.1c-0.1,0-0.2,0-0.3,0c-0.1-0.1-0.4,0-0.6-0.1
					c-0.9,0-2.1,0.2-3.4,0.8c-1.3,0.5-2.6,1.2-3.9,2.1c-2.5,1.8-4.9,3.9-7.1,6.4c-2.1,2.4-4,5.1-5.7,7.9c-1.6,2.8-3,5.7-4,8.7
					c-1,3-1.6,6-1.7,9c-0.1,3,0.3,5.7,1.2,8.6c0.9,2.8,2.2,5.5,3.8,7.3c1.6,1.8,3.3,2.7,5.3,3c1,0.2,2.1,0.1,3.3-0.2
					c1.2-0.2,2.5-0.7,3.7-1.2c1.3-0.6,2.6-1.3,3.8-2.1c0.6-0.4,1.2-0.8,1.8-1.3c0.3-0.2,0.6-0.5,0.9-0.7L210.9,344.3z"/>
			</g>
		</g>
		<g>
			<g>
				<path class="st6" d="M452.5,326.2c-0.3,0.6-7.8,14-18.8,13.4c-10.1-0.6-15.9-12.5-16.6-14.1c-9.6-20.4,6.4-52.4,18.4-52.3
					C447.6,273.4,463.2,306.5,452.5,326.2z"/>
			</g>
			<g>
				<path class="st7" d="M435.5,273.2c-1.4,0-2.9,0.4-4.3,1.2c9.3,4.9,18.7,28.2,10.9,42.9c-0.3,0.5-6.4,11.6-15.6,11.1
					c-4.9-0.3-8.6-3.8-10.9-6.9c0.4,1.4,0.9,2.8,1.5,4.1c0.7,1.6,6.5,13.5,16.6,14.1c11,0.6,18.5-12.8,18.8-13.4
					C463.2,306.5,447.6,273.4,435.5,273.2z"/>
			</g>
			<g>
				<path class="st0" d="M457.4,328.9l-0.4,0.8l-0.4,0.7c-0.3,0.5-0.5,0.9-0.8,1.3c-0.6,0.9-1.1,1.7-1.8,2.5
					c-1.2,1.6-2.6,3.2-4.1,4.7c-1.6,1.5-3.3,2.9-5.3,4c-2,1.1-4.3,2.1-6.9,2.4c-2.5,0.5-5.2,0.3-7.6-0.3c-0.6-0.2-1.2-0.3-1.8-0.5
					l-1.7-0.7c-0.6-0.2-1.1-0.5-1.6-0.8c-0.5-0.3-1.1-0.6-1.5-0.9c-2-1.3-3.6-2.8-5-4.4c-1.4-1.6-2.7-3.3-3.8-5
					c-2.2-3.4-3.9-7.5-4.7-11.5c-0.9-4-1-8.1-0.8-12c0.3-3.9,1-7.8,2-11.5c1-3.7,2.4-7.3,4.2-10.7c1.7-3.5,3.7-6.8,6.3-9.8
					c1.3-1.5,2.7-3,4.4-4.4c1.7-1.3,3.7-2.6,6.3-3.3c0.7-0.1,1.3-0.3,2-0.3l1.1-0.1c0.4,0,0.7,0,1.1,0.1c0.7,0,1.4,0.2,2,0.4
					c0.7,0.1,1.2,0.4,1.8,0.6c2.3,1,4.1,2.4,5.6,3.8c1.6,1.4,2.9,3,4.1,4.6c1.2,1.6,2.3,3.2,3.2,4.9c1.9,3.4,3.5,6.9,4.8,10.5
					c1.2,3.6,2.2,7.4,2.8,11.2c0.5,3.9,0.7,7.9,0.2,11.9C460.5,320.9,459.4,325,457.4,328.9z M447.6,323.6c1.4-2.4,2.3-5.2,2.8-8.2
					c0.5-3,0.6-6.1,0.3-9.3c-0.5-6.3-2.4-12.8-5.4-18.5c-0.7-1.4-1.6-2.8-2.5-4c-0.9-1.3-1.9-2.4-2.9-3.4c-1-1-2.1-1.8-3.1-2.2
					c-0.2-0.1-0.5-0.2-0.7-0.2c-0.2-0.1-0.4-0.1-0.6-0.1c-0.1,0-0.2,0-0.3,0c-0.1,0-0.2,0-0.3,0c-0.2,0-0.4,0.1-0.6,0.1
					c-0.9,0.2-2,0.9-3,1.7c-1.1,0.9-2.1,2-3.1,3.1c-1.9,2.4-3.5,5.2-4.9,8.2c-1.3,3-2.4,6.1-3.1,9.2c-0.7,3.2-1.2,6.4-1.2,9.5
					c0,3.1,0.3,6.2,1,9.1c0.8,2.9,2,5.3,3.7,7.9c1.7,2.5,3.7,4.6,5.8,5.8c2.1,1.3,4,1.6,5.9,1.3c1-0.1,2-0.6,3.1-1.1
					c1.1-0.5,2.2-1.4,3.2-2.2c1.1-0.9,2.1-2,3.1-3.1c0.5-0.6,0.9-1.2,1.4-1.8c0.2-0.3,0.4-0.6,0.6-0.9L447.6,323.6z"/>
			</g>
		</g>
		<g>
			<g>
				<path class="st6" d="M180.3,549.1c-0.1,0.6-3.5,15.6-14.3,18.1c-9.9,2.3-18.8-7.6-19.9-8.9c-14.9-16.9-8.6-52.1,3-55.3
					C160.7,499.8,184.9,527.1,180.3,549.1z"/>
			</g>
			<g>
				<path class="st7" d="M149.1,503c-1.4,0.4-2.6,1.2-3.8,2.4c10.3,2.1,25.9,21.8,22.4,38.1c-0.1,0.5-2.9,12.9-11.8,15
					c-4.8,1.1-9.3-1.2-12.4-3.6c0.8,1.2,1.7,2.4,2.6,3.5c1.1,1.3,10.1,11.1,19.9,8.9c10.8-2.5,14.2-17.5,14.3-18.1
					C184.9,527.1,160.7,499.8,149.1,503z"/>
			</g>
			<g>
				<path class="st0" d="M185.7,550.3l-0.2,0.9l-0.2,0.8c-0.1,0.5-0.3,1-0.4,1.5c-0.3,1-0.6,1.9-1,2.9c-0.7,1.9-1.6,3.8-2.7,5.7
					c-1.1,1.8-2.4,3.7-4,5.3c-1.6,1.6-3.6,3.2-5.9,4.3c-2.3,1.2-4.9,1.7-7.4,1.8c-0.6,0-1.3,0-1.9,0l-1.8-0.2
					c-0.6-0.1-1.2-0.2-1.8-0.3c-0.6-0.1-1.2-0.3-1.7-0.5c-2.3-0.7-4.2-1.7-6.1-2.8c-1.8-1.1-3.5-2.4-5-3.8c-3-2.6-5.8-6.1-7.7-9.8
					c-2-3.6-3.2-7.5-4.1-11.3c-0.9-3.8-1.2-7.7-1.3-11.6c0-3.8,0.3-7.7,1-11.5c0.7-3.8,1.7-7.5,3.3-11.2c0.8-1.8,1.8-3.7,3-5.4
					c1.3-1.8,2.8-3.5,5.1-4.9c0.6-0.3,1.2-0.7,1.8-0.9l1-0.4c0.3-0.1,0.7-0.2,1-0.2c0.7-0.2,1.4-0.2,2.1-0.2c0.7,0,1.3,0,1.9,0.1
					c2.5,0.3,4.6,1.1,6.4,2.1c1.9,0.9,3.6,2,5.2,3.2c1.6,1.2,3.1,2.5,4.5,3.8c2.8,2.7,5.3,5.6,7.5,8.7c2.2,3.1,4.2,6.5,5.8,10
					c1.6,3.6,2.8,7.4,3.5,11.4C186.4,541.8,186.5,546,185.7,550.3z M174.8,547.9c0.6-2.7,0.8-5.6,0.4-8.6c-0.4-3-1.2-6-2.3-9
					c-2.3-5.9-5.9-11.6-10.3-16.2c-1.1-1.2-2.3-2.3-3.5-3.2c-1.2-1-2.5-1.8-3.8-2.5c-1.3-0.7-2.5-1.1-3.6-1.2c-0.2,0-0.5-0.1-0.7,0
					c-0.2,0-0.4,0-0.6,0.1c-0.1,0-0.2,0-0.3,0c-0.1,0-0.2,0.1-0.2,0.1c-0.2,0-0.3,0.2-0.5,0.3c-0.8,0.5-1.6,1.4-2.4,2.5
					c-0.8,1.1-1.5,2.5-2.1,3.9c-1.1,2.9-1.9,6-2.4,9.2c-0.4,3.2-0.6,6.5-0.4,9.7c0.2,3.2,0.6,6.4,1.5,9.5c0.8,3,2,5.9,3.5,8.4
					c1.6,2.5,3.4,4.6,5.8,6.5c2.3,1.9,4.9,3.3,7.2,4c2.3,0.6,4.3,0.5,6-0.4c0.9-0.4,1.8-1.1,2.6-1.9c0.9-0.8,1.7-1.9,2.5-3
					c0.8-1.2,1.5-2.5,2.1-3.8c0.3-0.7,0.6-1.4,0.8-2.1c0.1-0.4,0.3-0.7,0.4-1.1L174.8,547.9z"/>
			</g>
		</g>
		<g>
			<g>
				<path class="st6" d="M646.3,421.3c-0.2,0.6-5.3,15.1-16.3,16.4c-10,1.1-17.8-9.7-18.8-11.1c-12.9-18.4-2.7-52.7,9.2-54.6
					C632.4,370,653.4,400,646.3,421.3z"/>
			</g>
			<g>
				<path class="st7" d="M620.4,371.9c-1.4,0.2-2.7,0.9-4.1,1.9c10,3.2,23.3,24.6,18,40.4c-0.2,0.5-4.4,12.5-13.5,13.6
					c-4.9,0.6-9.1-2.3-11.9-5c0.6,1.3,1.4,2.6,2.2,3.7c1,1.4,8.7,12.2,18.8,11.1c11-1.2,16.1-15.8,16.3-16.4
					C653.4,400,632.4,370,620.4,371.9z"/>
			</g>
			<g>
				<path class="st0" d="M651.5,423l-0.3,0.8l-0.3,0.7c-0.2,0.5-0.4,1-0.6,1.4c-0.4,0.9-0.8,1.9-1.3,2.8c-0.9,1.8-2,3.6-3.3,5.3
					c-1.3,1.7-2.8,3.4-4.6,4.9c-1.8,1.5-3.9,2.8-6.4,3.6c-2.4,0.9-5,1.2-7.6,1c-0.6-0.1-1.3-0.1-1.9-0.2l-1.8-0.4
					c-0.6-0.1-1.2-0.3-1.7-0.5c-0.6-0.2-1.1-0.4-1.7-0.7c-2.2-0.9-4-2.2-5.7-3.5c-1.7-1.3-3.2-2.8-4.6-4.3c-2.7-3-5.1-6.8-6.6-10.6
					c-1.5-3.8-2.4-7.8-2.8-11.7c-0.4-3.9-0.3-7.8,0.1-11.6c0.4-3.8,1.2-7.6,2.3-11.3c1.1-3.7,2.5-7.3,4.5-10.8
					c1-1.7,2.2-3.4,3.6-5.1c1.5-1.6,3.2-3.2,5.6-4.3c0.6-0.3,1.2-0.5,1.9-0.7l1-0.2c0.3-0.1,0.7-0.1,1.1-0.1c0.7-0.1,1.4,0,2.1,0
					c0.7,0,1.3,0.2,1.9,0.3c2.4,0.6,4.4,1.7,6.2,2.8c1.8,1.1,3.4,2.4,4.8,3.8c1.4,1.4,2.8,2.8,4,4.3c2.5,3,4.6,6.2,6.5,9.5
					c1.8,3.4,3.4,6.9,4.6,10.6c1.2,3.7,2,7.6,2.2,11.7C653.2,414.7,652.8,418.9,651.5,423z M641,419.5c0.9-2.6,1.4-5.5,1.4-8.5
					c0-3-0.5-6.1-1.3-9.2c-1.6-6.2-4.5-12.2-8.4-17.3c-1-1.3-2-2.5-3.1-3.6c-1.1-1.1-2.3-2.1-3.5-2.9c-1.2-0.8-2.4-1.4-3.4-1.6
					c-0.2,0-0.5-0.1-0.7-0.1c-0.2,0-0.4-0.1-0.6,0c-0.1,0-0.2,0-0.3,0c-0.1,0-0.2,0.1-0.2,0.1c-0.2,0-0.4,0.1-0.6,0.2
					c-0.8,0.4-1.8,1.2-2.7,2.2c-0.9,1-1.7,2.3-2.5,3.6c-1.5,2.7-2.6,5.7-3.4,8.9c-0.8,3.1-1.3,6.4-1.5,9.6c-0.2,3.2-0.1,6.5,0.4,9.6
					c0.5,3.1,1.3,6.1,2.6,8.8c1.3,2.7,2.8,4.9,5,7.1c2.1,2.1,4.4,3.9,6.7,4.8c2.2,0.9,4.2,0.9,6,0.2c0.9-0.3,1.9-0.9,2.8-1.6
					c1-0.7,1.9-1.7,2.8-2.7c0.9-1.1,1.7-2.3,2.5-3.6c0.4-0.6,0.7-1.3,1.1-2c0.2-0.3,0.3-0.7,0.5-1L641,419.5z"/>
			</g>
		</g>
		<g>
			<path class="st6" d="M616.9,576.2c-1.6-12.6-7.3-23.7-13.8-25c-7.8-1.5-19.7,10.4-25.3,25H616.9z"/>
			<path class="st7" d="M607.3,576.2h9.5c-1.6-12.6-7.3-23.7-13.8-25c-1.4-0.3-2.9-0.1-4.5,0.4C603.5,555.5,607.3,565.7,607.3,576.2
				z"/>
			<path class="st0" d="M583,576.2c0.2-0.5,0.4-0.9,0.6-1.4c1.3-3,2.9-5.8,4.7-8.5c1.8-2.7,4-5.1,6.3-7.2c1.2-1,2.4-1.9,3.6-2.5
				c1.2-0.7,2.4-1.1,3.3-1.2c0.2,0,0.4-0.1,0.6,0c0.1,0,0.2,0,0.3,0c0.1,0,0.2,0.1,0.2,0.1c0.2,0,0.4,0.1,0.5,0.2
				c0.2,0.1,0.4,0.2,0.6,0.4c0.9,0.6,1.8,1.6,2.7,2.7c0.8,1.2,1.6,2.5,2.3,3.9c0.7,1.4,1.2,2.9,1.7,4.4c0.9,2.9,1.5,6,1.9,9h9.6
				c0-0.2-0.1-0.5-0.1-0.7c-0.6-3.8-1.5-7.5-2.8-11.2c-0.7-1.8-1.4-3.6-2.3-5.4c-0.9-1.8-1.9-3.5-3.2-5.2c-1.3-1.7-2.8-3.4-4.8-4.7
				c-0.5-0.3-1-0.7-1.7-1c-0.6-0.3-1.2-0.6-1.9-0.7c-0.3-0.1-0.7-0.2-1-0.3l-1.1-0.1c-0.7-0.1-1.4,0-2.1,0c-2.7,0.2-4.8,1.1-6.8,2.1
				c-1.9,1-3.6,2.2-5.1,3.5c-3.1,2.6-5.7,5.5-8,8.6c-2.3,3.1-4.3,6.3-6,9.8c-0.9,1.8-1.7,3.6-2.3,5.4H583z"/>
		</g>
	</g>
	<path class="st0" d="M89.1,576.2h19c-23.2-75.1-32-166.6,13.9-249c14.2-25.6,33.7-46.6,57.8-62.4c0,0,0,0,0,0
		c26.8-17.6,59.4-29.4,99.7-35.9c39.8-6.5,75.7-9.6,109.8-9.6c1.4,0,2.8,0,4.2,0c56,0.4,243.1,12.9,297.7,155.3
		c25.8,67.4,4.7,142.1-13.5,192.5c-1.1,3.1-2.2,6.1-3.4,9.1h19.1c0.4-1,0.7-2,1.1-3C713.8,520,736,441,708,368.1
		c-22.1-57.7-66.2-101.7-130.9-130.6c-65.5-29.3-135.9-35.8-183.4-36.2c-36.3-0.3-74.6,2.9-117.1,9.8C233.9,218,199,230.7,170,249.7
		h0c-26.6,17.5-48,40.6-63.7,68.7c-33.5,60.1-43.1,130.8-28.7,210.2C80.7,544.9,84.6,560.8,89.1,576.2z"/>
	<g>
		<path class="st0" d="M235.1,234.8c-0.3,0-0.6,0-0.9,0c-17.6-1.7-34.6-13.6-46.8-32.5c-11.3-17.4-17.2-38.2-17.2-59.9
			c0-21.7,5.9-42.5,17.1-60c1-1.6,3.1-4.8,6.8-6.7c10-5.1,20.5,4.7,29,12.6c1.5,1.3,3,2.7,3.7,3.3c9.8,7.5,18.2,12.9,26.3,17.2
			c6.2,3.3,12.7,6.1,19.5,9.1c7.7,3.3,15.6,6.8,23.2,11c12.1,6.7,23.4,15.5,33,25.6c10.8-15.5,26-29.2,44.7-40
			c17.8-10.3,38.1-18,65.8-25.2c2.9-0.7,5.7-1.4,8.6-2.2c9.7-2.4,18.8-4.7,27.8-7.8c17-6,33.2-15.5,46.8-27.3c2.1-1.9,5-2.6,7.8-2
			c2.8,0.6,5.1,2.5,6.3,5c4.5,10,5.3,20.6,5.4,30.6c0.4,29.7-4.5,55.9-14.6,77.7c-12.3,26.4-33,47.2-57,56.9
			c-4.6,1.9-9.8-0.3-11.7-4.9c-1.9-4.6,0.3-9.8,4.9-11.7c19.8-8.1,37.1-25.5,47.5-47.9c9-19.4,13.4-42.9,13-70
			c-0.1-3.9-0.2-7.9-0.7-11.7c-12.7,9.3-26.9,16.8-41.7,22c-9.7,3.4-19.7,5.9-29.4,8.3c-2.8,0.7-5.6,1.4-8.4,2.1
			c-26.1,6.7-45,13.9-61.3,23.3c-20,11.6-35.4,26.7-44.5,43.8c-1.4,2.7-4.1,4.4-7.1,4.7c-3,0.3-6-1-7.8-3.4
			c-9.8-12.3-22.2-22.9-35.9-30.5c-6.9-3.8-14.1-7-21.7-10.3c-6.8-3-13.9-6.1-20.8-9.7c-8.9-4.7-18.1-10.7-28.7-18.7
			c-1.4-1.1-3-2.5-5-4.4c-2.1-2-6.4-5.9-9.4-8c-18.1,29.5-17.8,70,1,99.1c9.2,14.3,21.4,23.2,33.5,24.3c4.9,0.5,8.5,4.9,8,9.8
			C243.6,231.4,239.7,234.8,235.1,234.8z"/>
	</g>
	<g>
		<path class="st0" d="M650.6,305.8c-4.7,0-8.6-3.6-8.9-8.3c-0.3-4.9,3.4-9.2,8.3-9.6c12.3-0.8,36.1-4.9,57.7-22.5
			c21.9-17.8,31-40.5,34.8-56c-7.5,1.2-15,1.7-22.3,1.6c-12.1-0.2-21.8-2.3-31.1-4.4c-10.5-2.3-21.3-4.7-36.6-4.6
			c-4.3,0-8.7,0.2-12.9,0.6c-4.9,0.4-9.3-3.2-9.7-8.1s3.2-9.3,8.1-9.7c4.8-0.4,9.6-0.6,14.4-0.7c17.3-0.1,29.7,2.6,40.5,5
			c8.9,1.9,17.3,3.8,27.6,4c10.1,0.2,20.5-1.1,30.9-3.9c2.9-0.8,5.9-0.1,8.2,1.9c2.2,1.9,3.4,4.9,3,7.8
			c-1.7,14.9-9.5,52.7-43.6,80.4c-25.5,20.8-53.4,25.5-67.8,26.5C651,305.8,650.8,305.8,650.6,305.8z"/>
	</g>
	<g>
		<path class="st0" d="M160.6,276.5c-0.9,0-1.8-0.1-2.6-0.4c-18.6-5.7-80.9-28.9-101.5-87.6c-4-11.3-6.2-23.4-6.5-35.8
			c-0.1-3.1,1.5-6.1,4.1-7.8c2.6-1.7,5.9-1.9,8.8-0.6c14.8,7.1,29.8,11.6,44.7,13.3c6.3,0.7,10.9,0.8,16.3,0.9
			c5.4,0.1,11.4,0.2,19.8,1c15,1.5,29.9,4.7,44.3,9.5c4.7,1.6,7.2,6.6,5.7,11.3c-1.6,4.7-6.6,7.2-11.3,5.7
			c-13.1-4.3-26.7-7.2-40.4-8.6c-7.6-0.8-13-0.8-18.2-0.9c-5.4-0.1-10.9-0.2-18.1-1c-12.1-1.4-24.2-4.4-36.2-8.9
			c0.9,5.5,2.3,10.8,4.1,16c17.8,50.8,73.2,71.3,89.8,76.4c4.7,1.5,7.4,6.5,5.9,11.2C168,274.1,164.5,276.5,160.6,276.5z"/>
	</g>
	<g>
		<path class="st0" d="M562.6,250c-4.3,0-8.1-3.1-8.8-7.4c-0.9-4.9,2.4-9.5,7.3-10.4c14-2.4,34.5-8.7,52.9-24.4
			c20-17.1,32.8-41.1,38.2-71.3c-6.3,2.2-12.7,3.4-18.7,4.5c-13.2,2.3-25.6,4.4-51.3,6.4c-4.3,0.3-7.9,0.6-10.9,0.8
			c-9.2,0.6-13,0.9-19.4,2.5c-8.8,2.2-17.4,5.6-25.4,10.1c-4.3,2.4-9.8,0.9-12.2-3.5c-2.4-4.3-0.9-9.8,3.5-12.2
			c9.5-5.3,19.5-9.3,29.9-11.9c8-2,12.9-2.3,22.6-3c3-0.2,6.5-0.4,10.7-0.8c24.8-1.9,36.8-4,49.6-6.2c9.8-1.7,19.9-3.8,26.9-9.6
			c2.7-2.3,6.6-2.7,9.7-1.1c3.2,1.6,5.1,4.9,5,8.5c-0.3,5.7-0.9,11.4-1.8,17c-5.9,35.2-20.9,63.2-44.4,83.4
			c-17,14.6-38.2,24.4-61.4,28.5C563.7,250,563.1,250,562.6,250z"/>
	</g>
	<g>
		<path class="st0" d="M369.2,133.3c-4.6,0-8.5-3.5-8.9-8.2c-2.1-23.6,0-47.1,6-69.9c2.7-10.1,6.1-20,9.5-29.3
			c1.2-3.5,3.8-10.7,11-13.7c3.5-1.5,6.9-1.4,9.8-1.1c15.5,1.4,30.3,8,41.6,18.7c0.8,0.7,2.8,2.6,3.5,5.9c0.8,3.7-0.6,6.5-1.1,7.6
			c-10.4,21.2-19.3,43.3-26.6,65.8c-1.5,4.7-6.6,7.3-11.3,5.8c-4.7-1.5-7.3-6.6-5.8-11.3c7-21.7,15.5-43.2,25.4-63.8
			c-7.9-6.2-17.4-10-27.4-10.8c-0.5,0-0.8-0.1-1-0.1c-0.3,0.5-0.7,1.4-1.3,3.1c-3.3,9.3-6.5,18.4-9,27.8
			c-5.5,20.8-7.4,42.3-5.5,63.8c0.4,4.9-3.2,9.3-8.1,9.7C369.7,133.3,369.4,133.3,369.2,133.3z M393.3,28.9
			C393.3,28.9,393.3,28.9,393.3,28.9C393.3,28.9,393.3,28.9,393.3,28.9z"/>
	</g>
	<g>
		<path class="st0" d="M325.8,217.2c-4.3,0-8.1-3.1-8.8-7.4c-1.6-9.2-1.6-18.5,0.1-27.6c1-5.4,2.5-10.8,4.6-16
			c1.9-4.6,7.1-6.8,11.7-4.9c4.6,1.9,6.8,7.1,4.9,11.7c-1.6,4-2.8,8.1-3.6,12.4c-1.3,7-1.3,14.2,0,21.4c0.8,4.9-2.4,9.5-7.3,10.3
			C326.8,217.2,326.3,217.2,325.8,217.2z"/>
	</g>
	<g>
		<g>
			<path class="st0" d="M237.4,409.3c-0.3,0-0.5,0-0.8,0c-11.8-1.4-21.9-6.8-27.6-14.8c-2.1-2.9-1.5-7,1.5-9.2
				c2.9-2.1,7-1.5,9.2,1.5c3.6,5.1,10.4,8.5,18.6,9.5c3.6,0.4,6.2,3.7,5.7,7.3C243.5,406.9,240.7,409.3,237.4,409.3z"/>
		</g>
		<g>
			<path class="st0" d="M219.4,425.6c-2.6,0-5.3-0.3-7.8-0.8c-3.9-0.8-7.7-2.3-11.2-4.4c-3.1-1.8-4.2-5.9-2.3-9s5.9-4.2,9-2.3
				c2.3,1.3,4.7,2.3,7.3,2.8c4.9,1.1,9.3,0.3,12-0.4c3.5-1,7.1,1,8.1,4.5c1,3.5-1,7.1-4.5,8.1C226.5,425.1,222.9,425.6,219.4,425.6z
				"/>
		</g>
		<g>
			
				<ellipse transform="matrix(4.916956e-02 -0.9988 0.9988 4.916956e-02 -263.8625 700.2075)" class="st8" cx="235.8" cy="488.7" rx="17.3" ry="27.5"/>
		</g>
		<g>
			
				<ellipse transform="matrix(4.916956e-02 -0.9988 0.9988 4.916956e-02 -193.5491 662.7537)" class="st0" cx="251.3" cy="433" rx="43.5" ry="37.4"/>
		</g>
		<g>
			
				<ellipse transform="matrix(4.916956e-02 -0.9988 0.9988 4.916956e-02 -187.0711 624.7274)" class="st9" cx="234.6" cy="410.6" rx="7.7" ry="7.1"/>
		</g>
		<g>
			
				<ellipse transform="matrix(4.916956e-02 -0.9988 0.9988 4.916956e-02 -219.7269 676.7097)" class="st9" cx="245.6" cy="453.8" rx="13.1" ry="11.8"/>
		</g>
		<g>
			
				<ellipse transform="matrix(4.916956e-02 -0.9988 0.9988 4.916956e-02 -28.1279 973.574)" class="st8" cx="497.3" cy="501.6" rx="17.3" ry="27.5"/>
		</g>
		<g>
			
				<ellipse transform="matrix(4.916956e-02 -0.9988 0.9988 4.916956e-02 25.4341 916.6945)" class="st0" cx="494.2" cy="445" rx="43.5" ry="37.4"/>
		</g>
		<g>
			
				<ellipse transform="matrix(4.916956e-02 -0.9988 0.9988 4.916956e-02 31.9121 878.6682)" class="st9" cx="477.5" cy="422.6" rx="7.7" ry="7.1"/>
		</g>
		<g>
			
				<ellipse transform="matrix(4.916956e-02 -0.9988 0.9988 4.916956e-02 -0.7437 930.6505)" class="st9" cx="488.4" cy="465.7" rx="13.1" ry="11.8"/>
		</g>
		<g>
			<path class="st0" d="M368.6,534.3c-0.3,0-0.5,0-0.8,0c-10.5-0.2-20.6-5.2-27.7-13.5c-7.3-8.6-10.7-19.9-9.2-31
				c0.5-3.6,3.8-6.1,7.4-5.6c3.6,0.5,6.1,3.8,5.6,7.4c-1,7.4,1.2,15,6.2,20.8c4.7,5.5,11.3,8.7,18,8.9c6.5,0.1,13.1-2.6,18-7.6
				c5.2-5.3,7.9-12.3,7.6-19.6c-0.1-3.6,2.7-6.7,6.3-6.8c3.6-0.1,6.7,2.7,6.8,6.3c0.4,10.9-3.8,21.6-11.4,29.3
				C388.2,530.1,378.4,534.3,368.6,534.3z"/>
		</g>
		<g>
			<path class="st0" d="M507,421.4c-3.2,0-6.1-2.4-6.5-5.7c-0.5-3.6,2-6.9,5.6-7.4c8.1-1.1,14.9-4.7,18.4-9.8c2.1-3,6.2-3.7,9.1-1.6
				c3,2.1,3.7,6.2,1.6,9.1c-5.7,8.1-15.7,13.7-27.4,15.3C507.6,421.4,507.3,421.4,507,421.4z"/>
		</g>
		<g>
			<path class="st0" d="M525.2,437.4c-3.4,0-6.7-0.4-10-1.3c-3.5-0.9-5.6-4.5-4.6-8.1c0.9-3.5,4.6-5.6,8.1-4.6
				c2.8,0.7,7.1,1.4,12,0.3c2.5-0.6,5-1.6,7.2-2.9c3.1-1.9,7.1-0.9,9,2.2c1.9,3.1,0.9,7.1-2.2,9c-3.5,2.1-7.2,3.6-11.1,4.5
				C530.9,437.1,528.1,437.4,525.2,437.4z"/>
		</g>
	</g>
	<g>
		<path class="st0" d="M717.5,540.3c-8.8,0.7-17.8,2.9-26.2,7.3c-2.6,1.4-17.9,11.6-17.3,24.6c0.1,1.3,0.2,4.7,2.6,7.6
			c4.7,5.7,15.2,5.8,16.3,3.4c0.1-0.2,0.2-0.5,0.2-0.4c-2.2,15.1,0.1,26.8,11.3,31.8c16,7,33.5,1.7,48.3-9.2
			c14.1-10.4,21.9-30.2,9.9-47.5c-6.1-8.8-15.3-13.4-24.1-15.7C731.9,540.3,724.7,539.7,717.5,540.3z"/>
	</g>
	<g>
		<path class="st0" d="M717.8,576.8c-0.6,0-1.2-0.1-1.8-0.2c-7.7-1.6-15.3-4.7-21.8-9.2c-0.3-0.2-0.7-0.5-1-0.7
			c-1-0.7-2-1.4-2.6-1.7c-4.6-1.8-6.8-7.1-5-11.7c1.8-4.6,7.1-6.8,11.7-5c2.6,1,4.6,2.5,6.3,3.7c0.3,0.2,0.6,0.4,0.9,0.6
			c4.5,3.1,9.7,5.3,15.1,6.4c4.9,1,8,5.7,7,10.5C725.7,573.8,722,576.8,717.8,576.8z"/>
	</g>
	<path class="st10" d="M86.9,539.5c-23.2,7.2-48.5,16.1-60.6,37.3c-9.7,17-8.5,37.9-6.2,57.3c5.1,44.1,13.9,87.7,26.3,130.3"/>
</g>
</svg>
