<svg id="e0zLVG5f6nj1" xmlns="http://www.w3.org/2000/svg" xmlns:xlink="http://www.w3.org/1999/xlink" viewBox="0 0 1000 1000" shape-rendering="geometricPrecision" text-rendering="geometricPrecision" project-id="453cde30557c4869ae26c77a7bc45b40" export-id="13085eaa19414ab8bb4d79a65119cbbd" cached="false">
<style><![CDATA[
#e0zLVG5f6nj94_to {animation: e0zLVG5f6nj94_to__to 3000ms linear infinite normal forwards}@keyframes e0zLVG5f6nj94_to__to { 0% {transform: translate(136.749px,-44.2099px)} 100% {transform: translate(163.209729px,-49.619845px)}} #e0zLVG5f6nj138_tr {animation: e0zLVG5f6nj138_tr__tr 3000ms linear infinite normal forwards}@keyframes e0zLVG5f6nj138_tr__tr { 0% {transform: translate(135.33781px,207.03926px) rotate(720deg);animation-timing-function: cubic-bezier(0.415,0.08,0.115,0.955)} 100% {transform: translate(135.33781px,207.03926px) rotate(439.480519deg)}} #e0zLVG5f6nj138 {animation: e0zLVG5f6nj138_f_p 3000ms linear infinite normal forwards}@keyframes e0zLVG5f6nj138_f_p { 0% {fill: #d2dbed} 100% {fill: #d2dbed}} #e0zLVG5f6nj139_tr {animation: e0zLVG5f6nj139_tr__tr 3000ms linear infinite normal forwards}@keyframes e0zLVG5f6nj139_tr__tr { 0% {transform: translate(11.12px,29.9px) rotate(-720deg);animation-timing-function: cubic-bezier(0.415,0.08,0.115,0.955)} 100% {transform: translate(11.12px,29.9px) rotate(-439.480519deg)}}
]]></style>
<defs><linearGradient id="e0zLVG5f6nj132-fill" x1="0.5" y1="0" x2="0.5" y2="1" spreadMethod="pad" gradientUnits="objectBoundingBox" gradientTransform="translate(0 0)"><stop id="e0zLVG5f6nj132-fill-0" offset="0%" stop-color="rgba(255,255,255,0)"/><stop id="e0zLVG5f6nj132-fill-1" offset="100%" stop-color="#010022"/></linearGradient></defs><g transform="matrix(-.9091 0 0 0.9091 509.471 490.987)"><g><g transform="translate(-84.9583 460.799)"><path d="M879.3,1469.9c6.6,3.3,14.4,3.8,21.8,3.8c11.5,0,23-.9,34.3-3.2c4.9-1,9.7-1.9,14-4.5c2.1-1.3,7.1-3.8,6.2-7-.2-.8-.9-1.5-1.6-2-3.6-2.6-8.4-3.8-12.7-4.8-5.4-1.3-10.9-2.4-16.4-3.2-9.4-1.2-18.8-1.1-28.3-1.1-2.4,0-4.9,0-7.2.6-3.8.9-7.2,3.1-10,5.8-2.6,2.5-4.8,5.6-5,9.1-.1,1.2.1,2.5.9,3.5.5.8,1.4,1.3,2.2,1.8.6.6,1.2.9,1.8,1.2Z" transform="translate(-915.042-1460.8)" fill="#410b09"/></g><g transform="translate(101.596 472.327)"><path d="M1119.7,1460.2c11.9,6.1,23.9,19.4,20.8,25.4-1.7,3.3-7,3.4-10.2,3.4-10.5,0-21.2-2.7-31.3-5.3-5.9-1.5-11.7-3.1-17.5-4.9-3.5-1-7-2.1-10.4-3.2-1.8-.6-3.6-1.2-5.5-1.7-1.2-.4-3.3-.5-3.4-2.1-.1-1.7,3.4-3.7,4.6-4.6c3.7-2.8,7.8-5.3,12.1-7.1c8-3.5,16.9-5.1,25.6-4.2c5.3.4,10.5,1.9,15.2,4.3Z" transform="translate(-1101.6-1472.33)" fill="#410b09"/></g><g transform="translate(-84.4018 382.966)"><path d="M925.6,1289.2c-.6,23,.6,52.5,7.2,85.9c6.7,34.1,17.1,62.2,26.6,83.5-2.5-.8-53.3-17.5-73.2-9.3-2.9,1.2-9.1,3.7-12.3,9.9-2.5,4.9-2.6,11-1.2,13.7c3.4,6.3,22.5,6.9,86.7-14.4" transform="translate(-915.598-1382.97)" fill="none" stroke="#410b09" stroke-width="17.9247" stroke-linecap="round" stroke-linejoin="round" stroke-miterlimit="10"/></g><g transform="translate(100.948 389.81)"><path d="M1062.5,1290.7c12.4,28.2,15.5,59.8,13.7,90.5-1.9,30.8-8.6,61-15.3,91c17.1-16.8,40.8-21.3,58.8-12.1c11.9,6.1,23.9,19.4,20.8,25.4-2.8,5.3-18.5,6.8-79.6-13.3" transform="translate(-1100.95-1389.81)" fill="none" stroke="#410b09" stroke-width="17.9247" stroke-linecap="round" stroke-linejoin="round" stroke-miterlimit="10"/></g><g transform="translate(142.032-320.886)"><path d="M1439.8,772.3c-24.3-7-47.3-26.5-73.6-24.9-.6,0-1.2.1-1.6-.3-1-.7-.4-2.2.1-3.2.8-1.4,1.4-2.8,2-4.1c20.1-18.1,29.8-39,33.1-46.2c2.8-6.1,4.7-11.4,5.8-14.9-10.2,4.7-21.9,4.1-33,3-14.1-1.3-26.2-2.6-50.3-7.1-17.5-3.3-21.8-4.8-31.6-5-1.8,0-3.5,0-5.2,0-6.7-.9-13.5-1.6-20.3-2.5c11.3-16.9,18.9-36.3,24-56c2.3-8.9,4.1-18.2,2.6-27.3-17.4,8.4-36.3,13.6-55.6,15-12.8,1-25.6.3-38.5.2-12.4-.2-24.9.2-37.3,1.4c3.3-6.4,6.9-12.7,11.1-18.8c10.2-14.4,21.1-28.3,32.8-41.6.4-.5.8-1,.8-1.6c0-.5-.3-1-.5-1.5-7.1-11.5-18.1-20.6-30.8-25.2-1.8-.6-3.6-1.2-5.5-1-3.5.5-6,3.6-8,6.5-5.7,8.2-11.4,16.5-16.4,25.1-8.2,14.2-14.6,29.5-19,45.3-2.1,7.4-4,14.3-6.5,21.5-17.7,6.3-34.3,15.9-47.2,29.6-6.7-15.6-16.5-29.9-28.7-41.8-11.3-11-24.4-19.8-35.9-30.5-8-7.5-15.1-15.9-21.8-24.5-3.4-4.5-12.1-21.9-18.4-20.6-1.6.3-2.9,1.4-4.1,2.5-22.5,20.4-34.6,51.3-33.1,81.6-.5-.1-.9-.3-1.3-.4-13.1-3.6-24.1-11.5-37-16.4-14.9-5.7-21.8-6.3-34.4-11.3-10.8-4.3-25.8-11.8-42.2-26.1-3.1,13-3.5,24.3-2.9,33.5c4.4,61,60.6,97.7,70.8,104.2l465.2,156.5c10.2,2,37.3,6,67-7.2c40-17.8,55.3-53.5,58.5-61.4-14.3.1-25.5-2.4-33.1-4.5Z" transform="translate(-1142.03-679.114)" fill="#63c070"/></g><g transform="translate(134.1-298.717)"><path d="M1445.2,811.1c-41.2,5.8-84.4-2.9-120-24.5-6.7-4-14-11.8-10-18.5c1.8-3,5.2-4.4,8.4-5.7c32.6-13.8,60.4-38.7,77.7-69.6-29.4,17.6-61,32.3-94.7,38.4s-69.8,2.8-99.9-13.6c29.1-23.5,53.8-52.5,72.3-84.9-43,49.7-123.1,62.2-179.2,27.9-3.1-1.9-6.1-3.9-8-7-5.6-9,1.7-20.3,8.6-28.3-11.3,9.1-22.6,18.3-33.9,27.4-2.9,2.3-5.8,4.7-9.3,6.1-5.6,2.2-12,1.6-17.9.5-50.1-9.6-91.5-54-97.5-104.6-11.5,27.8-14.2,59.2-7.6,88.5.5,2.2,1,4.8-.5,6.5-1.3,1.5-3.5,1.7-5.4,1.8-44.3,1.3-88.7-20.1-115.3-55.6c7.6,25.1,16.5,45.8,35,65.2c8.6,9,22,24,34.3,28.1.1,0,465.2,156.5,465.2,156.5c10.2,2,37.3,6,67-7.2c14.3-6.3,29.6-17.9,40.7-28.9-3.2.5-6.6,1-10,1.5Z" transform="translate(-1134.1-701.283)" opacity="0.74" fill="#177d59"/></g><g transform="translate(57.9649 20.81)"><path d="M898.9,682.8c-27.7,9.1-53.2,24.3-75.8,47.4C722,833.8,728.6,1000,768.8,1128.8c20.9,66.7,52.6,130.2,96.1,185.1c108.4,136.8,282.7-9.8,366.8-98.6c28.6-30.2,54.9-62.6,78.7-96.7c38.3-54.8,72-119.5,65-188.4-13.1-129.2-139.7-203.8-253.2-235.5-37.2-10.4-75.7-16.9-114.1-20.9-38.3-4-75.3-2.1-109.2,9Z" transform="translate(-1058.87-1020.81)" fill="#fe4153"/></g><g transform="translate(136.314 30.2084)"><path d="M1375.5,930.2c-13.1-129.2-139.7-203.8-253.2-235.5-5-1.4-10-2.7-15.1-4c93.7,39,180.9,108.3,191.7,214.3c7,68.9-26.7,133.6-65,188.4-23.9,34.1-50.1,66.5-78.7,96.7-59.5,62.9-164.4,154.8-259,154.4c108.3,79.9,259.2-48.5,335.6-129.2c28.6-30.2,54.9-62.6,78.7-96.7c38.3-54.8,72-119.5,65-188.4Z" transform="translate(-1136.31-1030.21)" opacity="0.74" fill="#d30b2f"/></g><g transform="translate(-91.8212-244.592)"><path d="M913.5,781.1c-.6.3-14.1,7.7-23.1,1.2-8.2-5.9-6.7-19.1-6.5-20.8c2.8-22.3,33.4-40.9,43.5-34.3c10.2,6.7,5.7,42.9-13.9,53.9Z" transform="translate(-908.179-755.407)" fill="#ffcf63"/></g><g transform="translate(-91.8071-244.64)"><path d="M927.5,727.2c-1.2-.8-2.6-1.2-4.3-1.3c5.2,9.1.7,33.9-13.8,42-.5.3-11.6,6.4-19.1,1-4-2.9-5.2-7.8-5.5-11.7-.4,1.4-.7,2.8-.9,4.2-.2,1.7-1.7,14.9,6.5,20.8c9,6.4,22.5-.9,23.1-1.2c19.6-10.9,24.1-47.1,14-53.8Z" transform="translate(-908.193-755.36)" fill="#ffb04a"/></g><g transform="translate(-92.4172-243.624)"><path d="M916.3,786l-.8.4-.7.4c-.5.2-.9.5-1.4.7-.9.4-1.9.8-2.8,1.2-1.9.7-3.9,1.3-6,1.8-2.1.4-4.3.7-6.7.5-2.3-.1-4.8-.6-7.1-1.6-2.4-.9-4.5-2.5-6.3-4.3-.4-.5-.8-.9-1.3-1.4l-1.1-1.5c-.4-.5-.6-1-.9-1.6-.3-.5-.6-1.1-.8-1.6-1-2.1-1.5-4.3-1.9-6.4s-.5-4.2-.5-6.3c0-4,.8-8.4,2.2-12.3s3.5-7.4,5.8-10.6s5-6,7.9-8.6s6-4.9,9.3-6.8c3.3-2,6.8-3.7,10.6-4.9c1.9-.6,3.9-1.1,6.1-1.3s4.5-.2,7,.6c.6.2,1.3.4,1.9.8l.9.5c.3.2.6.4.9.6.6.4,1.1.9,1.5,1.4.5.5.8,1,1.2,1.5c1.4,2.1,2.2,4.2,2.7,6.2.6,2,.9,4.1,1,6c.2,2,.2,3.9.1,5.9-.1,3.9-.7,7.7-1.6,11.4s-2.1,7.4-3.7,11-3.6,7-6.2,10.2c-2.5,3-5.6,5.9-9.3,8.1Zm-5.5-9.7c2.5-1.3,4.7-3.2,6.8-5.4c2-2.3,3.7-4.9,5.2-7.7c3-5.6,4.8-12.1,5.4-18.5.1-1.6.2-3.2.1-4.7-.1-1.6-.3-3.1-.6-4.5s-.9-2.6-1.4-3.5c-.2-.2-.3-.4-.4-.6s-.3-.3-.4-.4c-.1,0-.1-.1-.2-.2-.1,0-.2-.1-.2-.1-.1-.1-.4-.1-.6-.2-.8-.3-2.1-.3-3.5-.2-1.4.2-2.8.5-4.3,1-2.9,1-5.8,2.5-8.5,4.3s-5.2,3.9-7.5,6.1c-2.3,2.3-4.4,4.7-6.1,7.4-1.7,2.6-3.1,5.4-4,8.2-.9,2.9-1.2,5.6-1.1,8.6s.7,5.8,1.7,8c1.1,2.2,2.5,3.5,4.3,4.2.9.4,2,.6,3.2.7s2.5,0,3.9-.1c1.4-.2,2.8-.5,4.3-1c.7-.2,1.4-.5,2.1-.8.3-.1.7-.3,1-.4l.8-.2Z" transform="translate(-907.583-756.376)" fill="#410b09"/></g><g transform="translate(-112.658 230.796)"><path d="M905.8,1249.3c-.3.6-6.8,14.5-17.8,14.7-10.1.1-16.8-11.4-17.6-12.9-11-19.6,2.6-52.8,14.6-53.5c12.1-.6,30,31.2,20.8,51.7Z" transform="translate(-887.342-1230.8)" fill="#ffcf63"/></g><g transform="translate(-111.533 230.895)"><path d="M885,1197.7c-1.4.1-2.8.6-4.2,1.5c9.6,4.2,20.7,26.8,13.9,42-.2.5-5.6,12-14.7,12.2-4.9.1-8.8-3.2-11.4-6.1.5,1.4,1.1,2.7,1.8,3.9.8,1.5,7.5,13,17.6,12.9c11.1-.2,17.5-14.1,17.8-14.7c9.2-20.6-8.7-52.4-20.8-51.7Z" transform="translate(-888.468-1230.89)" fill="#ffb04a"/></g><g transform="translate(-112.692 231.61)"><path d="M910.8,1251.6l-.4.8-.4.7c-.2.5-.5.9-.7,1.4-.5.9-1,1.8-1.6,2.6-1.1,1.7-2.4,3.4-3.8,5-1.5,1.6-3.1,3.1-5,4.4-2,1.3-4.2,2.4-6.7,2.9-2.5.6-5.1.7-7.6.2-.6-.1-1.2-.3-1.9-.4l-1.8-.6c-.6-.2-1.1-.5-1.7-.7-.5-.3-1.1-.5-1.6-.8-2.1-1.1-3.8-2.6-5.3-4.1-1.6-1.5-2.9-3.1-4.1-4.7-2.4-3.2-4.4-7.2-5.5-11.2s-1.6-8-1.6-11.9.4-7.8,1.2-11.6s1.9-7.4,3.4-11c1.4-3.6,3.3-7,5.6-10.3c1.2-1.6,2.5-3.2,4.1-4.7s3.5-2.9,6-3.7c.7-.2,1.3-.4,2-.5l1.1-.1c.4,0,.7,0,1.1,0c.7,0,1.4.1,2,.2.7.1,1.3.3,1.9.5c2.4.8,4.2,2.1,5.9,3.4s3.1,2.8,4.4,4.3s2.5,3.1,3.6,4.7c2.2,3.2,4,6.6,5.5,10.1s2.7,7.2,3.5,11s1.2,7.8,1.1,11.9c-.2,4-1,8.2-2.7,12.2Zm-10.1-4.6c1.2-2.5,1.9-5.4,2.2-8.4s.1-6.2-.3-9.3c-1-6.3-3.3-12.6-6.7-18.1-.8-1.4-1.7-2.7-2.8-3.9-1-1.2-2.1-2.3-3.2-3.2s-2.3-1.6-3.2-2c-.2-.1-.5-.2-.7-.2s-.4-.1-.6-.1c-.1,0-.2,0-.3,0s-.2,0-.3,0c-.2,0-.4.1-.6.2-.8.3-1.9,1-2.9,1.9s-1.9,2.1-2.8,3.3c-1.7,2.6-3.2,5.5-4.3,8.5s-1.9,6.2-2.4,9.4-.7,6.4-.5,9.6c.2,3.1.7,6.2,1.7,9s2.3,5.2,4.3,7.6c1.8,2.3,4,4.3,6.2,5.4c2.1,1.1,4.1,1.4,6,.8c1-.2,2-.7,3-1.3s2.1-1.5,3.1-2.4c1-1,2-2.1,2.8-3.3.4-.6.9-1.2,1.3-1.9.2-.3.4-.6.6-1l.4-.6Z" transform="translate(-887.308-1231.61)" fill="#410b09"/></g><g transform="translate(136.081-201.538)"><path d="M1148.8,822.1c-.4.5-11.2,11.5-21.7,8-9.6-3.2-12.1-16.3-12.4-18-3.9-22.2,19.9-48.9,31.4-45.7c11.7,3.4,18.1,39.3,2.7,55.7Z" transform="translate(-1136.08-798.462)" fill="#ffcf63"/></g><g transform="translate(136.158-201.589)"><path d="M1146.2,766.4c-1.4-.4-2.9-.3-4.5,0c7.7,7.1,10.7,32.1-.7,44.2-.4.4-9.2,9.5-17.9,6.6-4.7-1.6-7.3-5.9-8.7-9.5c0,1.5.2,2.9.4,4.3.3,1.7,2.8,14.8,12.4,18c10.5,3.5,21.2-7.5,21.7-8c15.3-16.3,8.9-52.2-2.7-55.6Z" transform="translate(-1136.16-798.411)" fill="#ffb04a"/></g><g transform="translate(135.796-200.548)"><path d="M1152.8,825.9l-.6.6-.6.6c-.4.4-.8.7-1.1,1.1-.8.7-1.5,1.3-2.4,2-1.6,1.2-3.3,2.4-5.2,3.5-1.9,1-3.9,1.9-6.2,2.5-2.3.5-4.7.9-7.3.6-2.5-.2-5.1-1.1-7.3-2.3-.5-.3-1.1-.6-1.6-1l-1.5-1.1c-.5-.4-.9-.8-1.3-1.2s-.9-.8-1.2-1.3c-1.6-1.8-2.7-3.7-3.7-5.6s-1.7-3.9-2.3-5.8c-1.2-3.8-1.8-8.3-1.5-12.4.2-4.1,1.1-8.1,2.4-11.8s3-7.2,5-10.5s4.3-6.4,6.8-9.3s5.4-5.5,8.7-7.9c1.7-1.1,3.4-2.2,5.4-3.1c2-.8,4.2-1.5,6.9-1.5.7,0,1.3,0,2,.2l1,.2c.3.1.7.2,1,.3.7.2,1.3.6,1.9.9s1.1.7,1.6,1.1c2,1.6,3.3,3.4,4.4,5.1c1.1,1.8,2,3.6,2.7,5.5.7,1.8,1.3,3.7,1.8,5.6c1,3.7,1.6,7.5,1.9,11.4.3,3.8.2,7.7-.3,11.6s-1.4,7.8-2.9,11.5c-1.5,3.6-3.6,7.3-6.5,10.5Zm-8.1-7.7c2-2,3.6-4.4,4.9-7.1c1.2-2.8,2.1-5.8,2.7-8.9c1.2-6.3,1.1-13-.3-19.2-.3-1.6-.8-3.1-1.3-4.6s-1.2-2.8-1.9-4.1c-.7-1.2-1.6-2.3-2.4-2.9-.2-.1-.4-.3-.6-.4s-.4-.2-.5-.3c-.1,0-.2-.1-.2-.1-.1,0-.2,0-.3,0-.1-.1-.4,0-.6,0-.9,0-2.1.3-3.4.9s-2.5,1.3-3.8,2.2c-2.5,1.8-4.8,4.1-6.8,6.6-2.1,2.5-3.9,5.2-5.4,8.1s-2.8,5.8-3.7,8.8-1.4,6.1-1.4,9c0,3,.5,5.7,1.5,8.6c1,2.8,2.4,5.4,4,7.1c1.7,1.8,3.4,2.6,5.4,2.8c1,.1,2.1,0,3.3-.3c1.2-.2,2.4-.7,3.7-1.3s2.5-1.3,3.8-2.2c.6-.4,1.2-.9,1.8-1.4.3-.2.6-.5.9-.7l.6-.6Z" transform="translate(-1135.8-799.452)" fill="#410b09"/></g><g transform="translate(83.9218 76.2933)"><path d="M1047.1,1086.2c-.4.5-11.2,11.5-21.7,8-9.6-3.2-12.1-16.3-12.4-18-3.9-22.2,19.9-48.9,31.4-45.7c11.8,3.4,18.1,39.4,2.7,55.7Z" transform="translate(-1034.4-1062.56)" fill="#ffcf63"/></g><g transform="translate(83.9642 76.3131)"><path d="M1044.5,1030.6c-1.4-.4-2.9-.3-4.5,0c7.7,7.1,10.7,32.1-.7,44.2-.4.4-9.2,9.5-17.9,6.6-4.7-1.6-7.3-5.9-8.7-9.5c0,1.5.2,2.9.4,4.3.3,1.7,2.8,14.8,12.4,18c10.5,3.5,21.2-7.5,21.7-8c15.3-16.3,9-52.3-2.7-55.6Z" transform="translate(-1034.47-1062.61)" fill="#ffb04a"/></g><g transform="translate(82.0473 77.7796)"><path d="M1051.1,1090.1l-.6.6-.6.6c-.4.4-.8.7-1.1,1.1-.8.7-1.5,1.3-2.4,2-1.6,1.2-3.3,2.4-5.2,3.5-1.9,1-3.9,1.9-6.2,2.5-2.3.5-4.7.9-7.3.6-2.5-.2-5.1-1.1-7.3-2.3-.5-.3-1.1-.6-1.6-1l-1.5-1.1c-.5-.4-.9-.8-1.3-1.2s-.9-.8-1.2-1.3c-1.6-1.8-2.7-3.7-3.7-5.6s-1.7-3.9-2.3-5.8c-1.2-3.8-1.8-8.3-1.5-12.4.2-4.1,1.1-8.1,2.4-11.8s3-7.2,5-10.5s4.3-6.4,6.8-9.3s5.4-5.5,8.7-7.9c1.7-1.1,3.4-2.2,5.4-3.1c2-.8,4.2-1.5,6.9-1.5.7,0,1.3,0,2,.2l1,.2c.3.1.7.2,1,.3.7.2,1.3.6,1.9.9s1.1.7,1.6,1.1c2,1.6,3.3,3.4,4.4,5.1c1.1,1.8,2,3.6,2.7,5.5.7,1.8,1.3,3.7,1.8,5.6c1,3.7,1.6,7.5,1.9,11.4.3,3.8.2,7.7-.3,11.6s-1.4,7.8-2.9,11.5c-1.4,3.6-3.6,7.3-6.5,10.5Zm-8.1-7.7c2-2,3.6-4.4,4.9-7.1c1.2-2.8,2.1-5.8,2.7-8.9c1.2-6.3,1.1-13-.3-19.2-.3-1.6-.8-3.1-1.3-4.6s-1.2-2.8-1.9-4.1c-.7-1.2-1.6-2.3-2.4-2.9-.2-.1-.4-.3-.6-.4s-.4-.2-.5-.3c-.1,0-.2-.1-.2-.1-.1,0-.2,0-.3,0-.1-.1-.4,0-.6,0-.9,0-2.1.3-3.4.9s-2.5,1.3-3.8,2.2c-2.5,1.8-4.8,4.1-6.8,6.6-2.1,2.5-3.9,5.2-5.4,8.1s-2.8,5.8-3.7,8.8-1.4,6.1-1.4,9c0,3,.5,5.7,1.5,8.6c1,2.8,2.4,5.4,4,7.1c1.7,1.8,3.4,2.6,5.4,2.8c1,.1,2.1,0,3.3-.3c1.2-.2,2.4-.7,3.7-1.3s2.5-1.3,3.8-2.2c.6-.4,1.2-.9,1.8-1.4.3-.2.6-.5.9-.7l.6-.6Z" transform="translate(-1034.1-1063.65)" fill="#410b09"/></g><g transform="translate(294.995-56.8005)"><path d="M1310.9,964.5c-.4.5-9.1,13.2-20,11.6-10-1.5-14.7-14-15.2-15.6-7.6-21.2,11.2-51.6,23.2-50.3c12,1.2,24.4,35.6,12,54.3Z" transform="translate(-1294.99-943.2)" fill="#ffcf63"/></g><g transform="translate(295.323-56.8338)"><path d="M1298.9,910.1c-1.4-.1-2.9.1-4.4.8c8.8,5.7,16,29.9,6.8,43.7-.3.4-7.5,10.9-16.5,9.6-4.9-.7-8.2-4.6-10.2-7.9.3,1.4.7,2.8,1.1,4.2.6,1.6,5.2,14.1,15.2,15.6c10.9,1.7,19.6-11,20-11.6c12.4-18.7,0-53.1-12-54.4Z" transform="translate(-1295.32-943.166)" fill="#ffb04a"/></g><g transform="translate(294.804-56.2745)"><path d="M1315.5,967.5l-.5.7-.5.6c-.3.4-.6.8-.9,1.2-.6.8-1.3,1.6-2,2.3-1.4,1.5-2.9,3-4.6,4.3s-3.5,2.5-5.7,3.5c-2.1.9-4.5,1.6-7.1,1.8-2.5.2-5.2-.2-7.6-1-.6-.2-1.2-.5-1.8-.7l-1.6-.9c-.6-.3-1-.6-1.5-1-.5-.3-1-.7-1.4-1.1-1.8-1.5-3.3-3.2-4.6-4.9s-2.4-3.5-3.3-5.4c-1.9-3.6-3.1-7.9-3.6-11.9-.5-4.1-.2-8.1.4-12s1.7-7.6,3.1-11.2s3.1-7,5.1-10.3s4.4-6.4,7.2-9.2c1.4-1.4,3-2.8,4.8-3.9c1.8-1.2,3.9-2.2,6.5-2.7.7-.1,1.3-.2,2-.2h1.1c.4,0,.7.1,1.1.2.7.1,1.4.3,2,.6.7.2,1.2.5,1.8.8c2.2,1.2,3.8,2.7,5.2,4.3s2.6,3.2,3.6,4.9s2,3.4,2.8,5.2c1.6,3.5,2.9,7.2,3.8,10.9s1.5,7.5,1.7,11.5c.2,3.9-.1,7.9-.9,11.9-.8,4.1-2.3,8.1-4.6,11.7Zm-9.3-6.1c1.6-2.3,2.8-5,3.6-7.9s1.1-6,1.2-9.2c.1-6.4-1.2-13-3.6-18.9-.6-1.5-1.3-2.9-2.1-4.3s-1.6-2.6-2.6-3.7c-.9-1.1-2-2-2.9-2.5-.2-.1-.5-.3-.7-.3-.2-.1-.4-.2-.6-.2-.1,0-.2,0-.3-.1-.1,0-.2,0-.3,0-.2,0-.4,0-.6.1-.9.1-2,.7-3.2,1.4-1.1.8-2.3,1.7-3.3,2.8-2.1,2.2-4,4.9-5.6,7.7s-2.9,5.8-3.9,8.9-1.8,6.2-2.1,9.3-.3,6.2.2,9.1s1.5,5.5,2.9,8.2c1.4,2.6,3.3,4.9,5.2,6.3c1.9,1.5,3.8,2,5.8,1.8c1,0,2-.4,3.2-.8c1.1-.4,2.3-1.1,3.4-1.9s2.3-1.8,3.3-2.8c.5-.5,1.1-1.1,1.5-1.6.2-.3.5-.6.7-.8l.8-.6Z" transform="translate(-1294.8-943.726)" fill="#410b09"/></g><g transform="translate(64.3773 245.615)"><path d="M1066.8,1271.4c-.6.3-14.8,6.2-23.1-1.2-7.5-6.7-4.7-19.7-4.3-21.4c5.2-21.9,37.6-37.1,46.9-29.5c9.5,7.7,1.1,43.3-19.5,52.1Z" transform="translate(-1064.38-1245.61)" fill="#ffcf63"/></g><g transform="translate(64.4816 245.756)"><path d="M1086.4,1219.3c-1.1-.9-2.5-1.5-4.1-1.7c4.2,9.6-2.9,33.8-18.1,40.3-.5.2-12.2,5.1-19.1-1-3.7-3.3-4.3-8.3-4.2-12.2-.5,1.3-1,2.7-1.3,4.1-.4,1.7-3.3,14.6,4.3,21.4c8.2,7.4,22.5,1.5,23.1,1.2c20.4-8.8,28.8-44.4,19.4-52.1Z" transform="translate(-1064.48-1245.76)" fill="#ffb04a"/></g><g transform="translate(63.8201 246.316)"><path d="M1069,1276.6l-.8.3-.7.3c-.5.2-1,.4-1.5.5-1,.3-1.9.6-2.9.9-2,.5-4,.9-6.2,1.1s-4.4.2-6.7-.2-4.7-1.1-6.9-2.4c-2.3-1.2-4.2-3-5.8-5-.4-.5-.7-1-1.1-1.5l-.9-1.6c-.3-.5-.5-1.1-.7-1.7s-.5-1.1-.6-1.7c-.7-2.2-1-4.4-1.2-6.6-.1-2.2-.1-4.2.2-6.3.4-4,1.7-8.3,3.5-12s4.2-7,6.9-9.9c2.6-2.9,5.6-5.5,8.7-7.7c3.1-2.3,6.4-4.2,9.9-5.8c3.5-1.7,7.1-3,11.1-3.8c2-.4,4-.7,6.2-.7s4.5.3,6.9,1.3c.6.3,1.2.6,1.8,1l.9.6c.3.2.5.5.8.7.5.5,1,1,1.4,1.6.4.5.7,1.1,1,1.6c1.2,2.2,1.7,4.4,2,6.5s.4,4.1.4,6.1c-.1,2-.2,3.9-.5,5.9-.6,3.8-1.5,7.6-2.8,11.2s-2.8,7.2-4.8,10.5c-2,3.4-4.4,6.6-7.2,9.5-3.1,2.9-6.5,5.5-10.4,7.3Zm-4.4-10.3c2.6-1,5-2.6,7.3-4.6c2.2-2,4.2-4.5,6-7.1c3.5-5.3,6.1-11.5,7.3-17.8.3-1.6.5-3.2.6-4.7.1-1.6,0-3.1-.2-4.5s-.6-2.7-1.1-3.6c-.1-.2-.2-.5-.4-.6-.1-.2-.2-.4-.4-.4-.1-.1-.1-.1-.2-.2-.1,0-.2-.1-.2-.1-.1-.1-.3-.2-.5-.3-.8-.4-2.1-.6-3.4-.5-1.4,0-2.9.2-4.3.5-3,.7-6,1.9-8.9,3.4s-5.6,3.3-8.1,5.3-4.9,4.2-6.9,6.7c-2,2.4-3.7,5-4.8,7.8-1.2,2.8-1.8,5.4-2,8.5-.2,3,.1,5.9.9,8.1.8,2.3,2.1,3.8,3.8,4.7.8.5,1.9.8,3.1,1c1.2.3,2.5.3,3.9.3c1.4-.1,2.9-.2,4.3-.5.7-.2,1.5-.3,2.2-.5.4-.1.7-.2,1.1-.3l.9-.6Z" transform="translate(-1063.82-1246.32)" fill="#410b09"/></g><g transform="translate(219.328 108.578)"><path d="M1227.7,1133.7c-.5.4-13.1,9.3-22.7,4-8.9-4.9-8.9-18.2-8.9-19.9.2-22.5,28.3-44.6,39.1-39.2c10.9,5.3,10.7,41.9-7.5,55.1Z" transform="translate(-1219.33-1108.58)" fill="#ffcf63"/></g><g transform="translate(219.328 108.63)"><path d="M1235.2,1078.6c-1.3-.6-2.8-.9-4.4-.8c6.3,8.4,4.7,33.5-8.7,43.4-.4.3-10.8,7.7-18.8,3.3-4.3-2.4-6.1-7.1-6.8-10.9-.2,1.4-.4,2.9-.4,4.3c0,1.7.1,15,8.9,19.9c9.7,5.3,22.2-3.6,22.7-4c18.2-13.3,18.4-49.9,7.5-55.2Z" transform="translate(-1219.33-1108.63)" fill="#ffb04a"/></g><g transform="translate(218.767 109.137)"><path d="M1231,1138.2l-.7.5-.7.4c-.4.3-.9.6-1.3.8-.9.5-1.8,1-2.7,1.5-1.8.9-3.7,1.8-5.8,2.5-2.1.6-4.2,1.2-6.6,1.3-2.3.1-4.8,0-7.3-.8-2.5-.7-4.8-2-6.7-3.6-.5-.4-1-.8-1.4-1.3l-1.2-1.4c-.4-.5-.8-1-1.1-1.4-.3-.5-.7-1-1-1.5-1.2-2-2-4.1-2.6-6.2s-1-4.1-1.2-6.2c-.5-4-.2-8.5.7-12.4c1-4,2.6-7.7,4.5-11.2c1.9-3.4,4.2-6.6,6.8-9.5c2.5-2.9,5.3-5.5,8.4-7.9c3-2.4,6.3-4.5,9.9-6.2c1.8-.8,3.8-1.6,5.9-2c2.1-.5,4.4-.8,7.1-.3.7.2,1.3.3,2,.6l1,.4c.3.2.6.3.9.5.6.4,1.2.8,1.7,1.2s.9.9,1.4,1.4c1.6,1.9,2.6,3.9,3.4,5.8.8,2,1.3,3.9,1.7,5.9s.7,3.9.8,5.8c.3,3.9.2,7.7-.2,11.5s-1.2,7.6-2.4,11.3-2.8,7.4-4.9,10.8c-2.2,3.9-5,7.1-8.4,9.7Zm-6.6-9c2.3-1.6,4.3-3.7,6.1-6.2c1.7-2.5,3.1-5.3,4.3-8.3c2.3-5.9,3.4-12.6,3.1-19-.1-1.6-.2-3.2-.5-4.7s-.6-3-1.2-4.3c-.5-1.3-1.2-2.5-1.9-3.3-.2-.2-.3-.4-.5-.5s-.3-.3-.5-.3c-.1,0-.1-.1-.2-.1s-.2-.1-.2-.1c-.1-.1-.4-.1-.6-.2-.9-.2-2.1-.1-3.5.3-1.3.3-2.7.9-4.1,1.5-2.8,1.4-5.4,3.2-7.9,5.3s-4.7,4.5-6.8,7c-2,2.5-3.8,5.2-5.2,8s-2.5,5.7-3,8.6-.5,5.7,0,8.7c.5,2.9,1.4,5.7,2.7,7.7s2.9,3.2,4.8,3.7c.9.3,2.1.4,3.2.3c1.2,0,2.5-.3,3.9-.6c1.4-.4,2.7-.9,4.1-1.5.7-.3,1.4-.6,2-1c.3-.2.7-.4,1-.5l.9-.5Z" transform="translate(-1218.77-1109.14)" fill="#410b09"/></g><g transform="translate(58.8662 20.8101)"><path d="M898.9,682.8c-27.7,9.1-53.2,24.3-75.8,47.4C722,833.8,728.6,1000,768.8,1128.8c20.9,66.7,52.6,130.2,96.1,185.1c108.4,136.8,282.7-9.8,366.8-98.6c28.6-30.2,54.9-62.6,78.7-96.7c38.3-54.8,72-119.5,65-188.4-13.1-129.2-139.7-203.8-253.2-235.5-37.2-10.4-75.7-16.9-114.1-20.9-38.3-4-75.3-2.1-109.2,9Z" transform="translate(-1058.87-1020.81)" fill="none" stroke="#410b09" stroke-width="17.9247" stroke-linecap="round" stroke-linejoin="round" stroke-miterlimit="10"/></g><g transform="translate(110.9-381.485)"><path d="M965.2,668.3c-15.9-6-26.2-21.8-31.3-37.9-11.8-37-.1-80.3,28.7-106.4c1.2-1.1,2.5-2.2,4.1-2.5c6.3-1.3,15,16.1,18.4,20.6c6.7,8.7,13.8,17,21.8,24.5c11.5,10.7,24.6,19.6,35.9,30.5c12.2,11.9,22,26.1,28.7,41.8c15.6-16.6,36.7-27.3,58.6-33.2c22-5.9,45-7.1,67.7-6.8c12.8.2,25.7.8,38.5-.2c19.2-1.5,38.2-6.6,55.6-15c1.5,9.1-.3,18.4-2.6,27.3-6.3,24.5-16.4,48.3-32.7,67.7-16.2,19.3-39.1,33.8-64.1,36.9" transform="translate(-1110.9-618.515)" fill="none" stroke="#410b09" stroke-width="17.9247" stroke-linecap="round" stroke-linejoin="round" stroke-miterlimit="10"/></g><g transform="translate(410.35-204.646)"><path d="M1363.2,742.9c2.8.5,7.6,1.4,13.4,3c29.3,7.8,39.8,19.7,63.2,26.4c7.6,2.2,18.8,4.6,33.3,4.7-3.1,7.9-18.4,43.6-58.5,61.4-29.7,13.2-56.8,9.3-67,7.2" transform="translate(-1410.35-795.354)" fill="none" stroke="#410b09" stroke-width="17.9247" stroke-linecap="round" stroke-linejoin="round" stroke-miterlimit="10"/></g><g transform="translate(-129.518-379.85)"><path d="M929.6,608.5c-8.3-5.5-21.4-13.2-38.5-19.8-14.9-5.7-21.8-6.3-34.4-11.3-10.8-4.3-25.8-11.8-42.2-26.1-3.1,13-3.5,24.3-2.9,33.5c4.4,61,60.6,97.7,70.8,104.2" transform="translate(-870.482-620.15)" fill="none" stroke="#410b09" stroke-width="17.9247" stroke-linecap="round" stroke-linejoin="round" stroke-miterlimit="10"/></g><g transform="translate(333.45-280.702)"><path d="M1261.2,672.9c6.9-1.7,17.1-3.6,29.6-3.4c9.8.2,14.1,1.6,31.6,5c24.1,4.6,36.2,5.8,50.3,7.1c11.1,1.1,22.9,1.6,33-3-1.2,3.5-3,8.8-5.8,14.9-4.6,10-21.1,45.9-60.4,64.5-24.9,11.8-48.6,11.8-62.1,10.6" transform="translate(-1333.45-719.298)" fill="none" stroke="#410b09" stroke-width="17.9247" stroke-linecap="round" stroke-linejoin="round" stroke-miterlimit="10"/></g><g transform="translate(163.21-441.922)"><path d="M1121.1,605.4c4-22.1,11.8-43.6,23-63c5-8.7,10.7-16.9,16.4-25.1c2-2.9,4.5-6.1,8-6.5c1.9-.2,3.7.3,5.5,1c12.7,4.7,23.7,13.7,30.8,25.2.3.4.6.9.5,1.5c0,.6-.5,1.1-.8,1.6-15.9,18.1-30.5,37.4-43.7,57.6" transform="translate(-1163.21-558.078)" fill="none" stroke="#410b09" stroke-width="17.9247" stroke-linecap="round" stroke-linejoin="round" stroke-miterlimit="10"/></g><g transform="translate(64.4001-343.1)"><path d="M1071.5,638.8c-2.5,3.3-5.3,7.5-7.7,12.6-4.3,9.2-5.9,17.6-6.5,23.6" transform="translate(-1064.4-656.9)" fill="none" stroke="#410b09" stroke-width="17.9247" stroke-linecap="round" stroke-linejoin="round" stroke-miterlimit="10"/></g><g transform="translate(-88.45-169.3)"><path d="M921.1,839.6c-8.3-3.4-16-9.4-19.1-17.8" transform="translate(-911.55-830.7)" fill="none" stroke="#410b09" stroke-width="13.1352" stroke-linecap="round" stroke-linejoin="round" stroke-miterlimit="10"/></g><g transform="translate(-103.15-153)"><path d="M908.2,851.7c-3.1,0-8.7-.3-14.8-3.5-3.6-1.9-6.2-4.1-7.9-5.9" transform="translate(-896.85-847)" fill="none" stroke="#410b09" stroke-width="13.1352" stroke-linecap="round" stroke-linejoin="round" stroke-miterlimit="10"/></g><g transform="matrix(.3088-.9511 0.9511 0.3088-102.952-77.8171)"><ellipse rx="17.3" ry="27.5" fill="#fea6a4"/></g><g transform="matrix(.3088-.9511 0.9511 0.3088-73.3807-127.456)"><ellipse rx="43.5" ry="37.4" fill="#410b09"/></g><g transform="matrix(.3088-.9511 0.9511 0.3088-83.6586-153.451)"><ellipse rx="7.7" ry="7.1" fill="#fffff6"/></g><g transform="matrix(.3088-.9511 0.9511 0.3088-103.104-111.872)"><ellipse rx="13.1" ry="11.8" transform="translate(7.02259 8.5647)" fill="#fffff6"/></g><g transform="matrix(.3088-.9511 0.9511 0.3088 146.096 3.0135)"><ellipse rx="17.3" ry="27.5" fill="#fea6a4"/></g><g transform="matrix(.3088-.9511 0.9511 0.3088 157.92-52.3792)"><ellipse rx="43.5" ry="37.4" fill="#410b09"/></g><g transform="matrix(.3088-.9511 0.9511 0.3088 147.642-78.3742)"><ellipse rx="7.7" ry="7.1" fill="#fffff6"/></g><g id="e0zLVG5f6nj94_to" transform="translate(136.749,-44.2099)"><g transform="rotate(-72.012595) scale(0.999974,0.999974) translate(0,0)"><ellipse rx="13.1" ry="11.8" fill="#fffff6"/></g></g><g transform="translate(-1.7986-11.0066)"><path d="M1015.2,907.2c-7.6,18.2,2.5,38.7,19.8,43.8c16.8,5,35.8-5.8,40.1-24.4" transform="translate(-1043.87-929.71)" fill="none" stroke="#410b09" stroke-width="13.1352" stroke-linecap="round" stroke-linejoin="round" stroke-miterlimit="10"/></g><g transform="translate(190.9-81.058)"><path d="M1178.2,921.8c8.9,1.2,18.5-.3,25.4-6.1" transform="translate(-1190.9-918.942)" fill="none" stroke="#410b09" stroke-width="13.1352" stroke-linecap="round" stroke-linejoin="round" stroke-miterlimit="10"/></g><g transform="translate(196-59.0327)"><path d="M1183.8,938.8c2.6,1.5,7.8,4,14.6,4.3c4.1.2,7.4-.5,9.8-1.2" transform="translate(-1196-940.967)" fill="none" stroke="#410b09" stroke-width="13.1352" stroke-linecap="round" stroke-linejoin="round" stroke-miterlimit="10"/></g><g transform="translate(-325.617-211.478)"><path d="M536.7,773.3c1.6-7.3,8.6-11.8,15-15.6c18.1-10.6,36.1-21.2,54.2-31.8c2.3-1.3,4.6-2.7,7.2-3c2.4-.3,4.8.3,7.1.9c59.2,15,120,25,177.1,46.7c4,1.5,8.2,3.2,11,6.5c3.8,4.3,4.5,10.6,3.1,16.1-1.5,5.5-4.8,10.3-8.6,14.6-19.1,22.1-47.8,33.3-76.1,40.6-15.7,4.1-31.9,7.2-48,5.4-18.9-2.1-36.2-10.9-53.6-18.7-24.1-10.7-49.9-20.4-67.2-40.3" transform="translate(-674.383-788.522)" fill="#fbfcee"/></g><g transform="translate(-245.4-8)"><path d="M825.7,773.8c-8.4,8.2-19.9,18-35.1,26.8-19.2,11.2-37,16.9-50.1,20L526.8,766.7L698,1161.1l189.3,56.2c14.6-1.5,43.8-6.7,70.9-28.5c10.7-8.7,18.6-17.9,24.2-25.8-52.3-129.7-104.5-259.5-156.7-389.2Z" transform="translate(-754.6-992)" fill="#548df4"/></g><g transform="translate(-179.435 14.85)"><path d="M767.8,812.5c-5.1,2.7-21.7,9.5-27.2,8.1-8.8-2.2-22.7-9.1-31.5-7.5c12.6,30.7,94,231.5,63.2,278.2-5.6,8.6-13.4,12.9-13.4,12.9-34.4,18.9-90.6-27.4-100.4-35.7c2.5,6.2,6.5,16.1,11.6,28.1c4.5,10.6,7.3,16.9,14.7,33.8c4.4,10.2,8.9,20.4,13.3,30.6l189.3,56.2c14.6-1.5,43.8-6.7,70.9-28.5c10.7-8.7,18.6-17.9,24.2-25.8c1.3-1.8-7.6-18.9-8.6-21.5-2.9-7.2-5.8-14.3-8.6-21.5-5.4-13.5-7.3-20.6-23.3-20.7-11.9,0-23-5.9-32.2-13.4-21.4-17.2-34.5-42.3-47.1-66.7-12-23.3-24-46.5-35.9-69.8-11.4-22.2-22.9-44.4-33.1-67.2-10.5-22.5-16.5-46.8-25.9-69.6Z" transform="translate(-820.565-1014.85)" fill="#546af4"/></g><g transform="translate(-245.35-34.9)"><path d="M747.6,839.9c13.1-3.1,31-8.8,50.1-20c15.2-8.9,26.7-18.6,35.1-26.8c49.7,123.5,99.4,247,149.1,370.5.2-.2.3-.4.5-.7C930.2,1033.2,878,903.5,825.8,773.7c-8.4,8.2-19.9,18-35.1,26.8-19.2,11.2-37,16.9-50.1,20L526.9,766.6l8.5,19.7l212.2,53.6Z" transform="translate(-754.65-965.1)" fill="#98ccf8"/></g><g transform="translate(-292.95-7.95)"><polygon points="-180.25,-225.25 33.45,-171.45 180.25,225.25 -9.05,169.05" fill="none" stroke="#410b09" stroke-width="17.9247" stroke-linecap="round" stroke-linejoin="round" stroke-miterlimit="10"/></g><g transform="translate(-138.6-4.4501)"><path d="M740.5,820.6c13.1-3.1,31-8.8,50.1-20c15.2-8.9,26.7-18.6,35.1-26.8c52.2,129.7,104.4,259.4,156.6,389.2-5.6,7.9-13.4,17.2-24.2,25.8-27,21.9-56.3,27-70.9,28.5" transform="translate(-861.4-995.55)" fill="none" stroke="#410b09" stroke-width="17.9247" stroke-linecap="round" stroke-linejoin="round" stroke-miterlimit="10"/></g><g transform="translate(-319.25-248.35)"><path d="M539.4,769.9c21.7-14.6,43.3-29.3,65-43.9c72.6,17.1,145.1,34.2,217.7,51.3" transform="translate(-680.75-751.65)" fill="none" stroke="#410b09" stroke-width="17.9247" stroke-linecap="round" stroke-linejoin="round" stroke-miterlimit="10"/></g><g transform="translate(-290.3-254.45)"><path d="M597.5,730.7c-1.3-4.5-2.6-9-3.9-13.5C671,736.1,748.4,755,825.8,773.9" transform="translate(-709.7-745.55)" fill="none" stroke="#410b09" stroke-width="17.9247" stroke-linecap="round" stroke-linejoin="round" stroke-miterlimit="10"/></g><g transform="translate(-156.518 50.6562)"><path d="M888.5,1036.4c-2.4-7.6-5.3-15.1-9.1-22.2-2.9-5.4-5.8-13.6-12.6-14.7-3.7-.6-7.7,1-9.9,4-2.2,2.9-2.8,6.8-3,10.5-.5,7.4-.1,14.9,1.2,22.3-12.5-5-26-7.5-39.5-7.2-4,.1-8.1.5-11.7,2-11.5,5-12.2,20.9-7.8,30.9c8.8,20.3,29.9,33,51.4,38.1c7.5,1.8,15.5,2.8,22.9.5c11.8-3.7,19.9-15.4,22.1-27.6c2.3-12.3-.3-24.8-4-36.6Z" transform="translate(-843.482-1050.66)" fill="#410b09"/></g><g transform="translate(-1.8 97.6772)"><path d="M853,1062.6c19.7,12.1,47.8,27.6,83.5,41.6c33.5,13.2,64.9,25.5,107.5,28.1c22.2,1.3,57.2.6,99.4-12.9" transform="translate(-998.2-1097.68)" fill="none" stroke="#410b09" stroke-width="17.9247" stroke-linecap="round" stroke-linejoin="round" stroke-miterlimit="10"/></g><g transform="translate(-365.409 11.8973)"><path d="M591.5,992c.1-.4.1-.7.2-1.1c2.2-10.6,10.7-35.6,24.9-35.1c4.1.1,8,2.7,9.8,6.4c1.8,3.6,1.5,7.9,1,11.9-1.1,8.1-3.1,16.1-6,23.7c8.5-1.6,17.1-2.2,25.7-1.8c7.9.4,13.9.1,19.2,6.6c9.7,11.9,15,28.1,11.3,43-1.3,5.4-3.9,10.7-7.8,14.6-17.4,17.3-48.1,2.5-62-12.2-11.9-12.6-18.3-30.1-17.3-47.4.1-2.8.5-5.8,1-8.6Z" transform="translate(-634.591-1011.9)" fill="#410b09"/></g></g></g><g transform="matrix(2.85714 0 0 2.85714 514.286 800)"><path d="M100.296,3.59097h1.86105v8.05706h-1.86105v-8.05706Zm.93793-1.32776c-.33752,0-.62035-.10561-.84864-.31684-.22829-.22129-.34251-.49288-.34251-.81477s.11422-.58843.34251-.79967c.22829-.22129.51112-.33193.84864-.33193s.62035.10562.84864.31685c.22829.20117.34251.45766.34251.76949c0,.33195-.11422.61358-.34251.84494-.21832.22129-.5013.33193-.84864.33193Zm17.50762,4.76743v4.61696h-1.86105v-4.37556c0-.70411-.16378-1.23218-.49133-1.58425-.32755-.3621-.7941-.54316-1.39949-.54316-.68501,0-1.2259.21123-1.62294.63369-.39705.41241-.59557,1.0109-.59557,1.7955v4.07379h-1.86105v-11.19538h1.86105v4.07379c.30776-.33195.68486-.58341,1.13162-.75441.45658-.18106.96271-.27159,1.51855-.27159c1.00259,0,1.80651.29673,2.41206.8902.60539.59346.90817,1.4736.90817,2.64042h-.00002ZM107.5923,11.7549c-.87342,0-1.54846-.23136-2.02483-.69407-.47652-.46269-.71478-1.13663-.71478-2.02181v-3.87763h-1.3102v-1.50882h1.3102v-1.84075h1.8612v1.84075h2.12908v1.50882h-2.12908v3.83237c0,.39231.09428.69407.28283.9053.18855.20117.46156.30176.81888.30176.41684,0,.76433-.11065,1.04218-.33195l.52109,1.34285c-.21832.18106-.48634.31685-.80392.40738-.30776.09053-.63531.13579-.98265.13579v.00001Zm-13.2957-.10591L92.24186,6.09656L90.1575,11.64899h-1.78672L85.45259,3.59193h1.75696l2.09931,5.94472l2.18861-5.94472h1.56327l2.14403,5.97489l2.15884-5.97489h1.65271l-2.93315,8.05706h-1.78657ZM80.71172,7.66404c0,.13076-.00982.31685-.02976.55826h-6.23841c.10923.59347.39221,1.06623.84879,1.41829.4664.34199,1.04218.51299,1.72704.51299.87342,0,1.59303-.2917,2.15884-.87511l.99761,1.16179c-.35731.43252-.80906.75943-1.35492.98072s-1.16138.33195-1.84625.33195c-.87342,0-1.64274-.17603-2.30766-.52808-.66507-.35206-1.18118-.83991-1.54846-1.46355-.35731-.63369-.53605-1.34787-.53605-2.14251c0-.78458.17375-1.48869.52109-2.11234.35731-.63371.84864-1.12657,1.47398-1.47863s1.33015-.52808,2.11427-.52808c.77415,0,1.464.17603,2.06955.52808.61537.34199,1.09189.82985,1.42926,1.46354.34749.62364.52109,1.34788.52109,2.1727l-.00001-.00002ZM76.69183,5.00853c-.59557,0-1.1017.18106-1.5187.54318-.40687.35206-.6551.82481-.74439,1.41829h4.51122c-.07932-.58341-.32256-1.05617-.72943-1.41829-.40702-.36212-.9133-.54318-1.5187-.54318ZM69.01645,11.6476v-1.04108c-.30776.38223-.68985.66889-1.14643.86002-.44676.19112-.94291.28668-1.48893.28668-.76433,0-1.45403-.17101-2.06955-.51301-.60539-.34199-1.08191-.82481-1.42925-1.44846-.34749-.63369-.52109-1.35793-.52109-2.17268s.17359-1.53397.52109-2.1576c.34734-.62364.82386-1.10646,1.42925-1.44846C64.92706,3.671,65.61676,3.5,66.38109,3.5c.52607,0,1.00743.09053,1.44421.27159s.8089.45265,1.11666.81477v-4.13414h1.86105v11.19538h-1.78656Zm-.35731-2.70078c.20834-.38223.31259-.82481.31259-1.32774s-.10425-.94553-.31259-1.32776c-.2085-.38223-.49133-.67394-.84864-.87511-.35746-.21125-.75935-.31685-1.2061-.31685-.4466,0-.84864.10561-1.20595.31685-.35731.20117-.64014.49288-.84864.87511s-.31259.82481-.31259,1.32776.1041.94551.31259,1.32774.49132.67897.84864.8902c.35731.20118.75935.30176,1.20595.30176.44676,0,.84864-.10058,1.2061-.30176.35731-.21123.64014-.50796.84864-.8902ZM56.93698,3.49973c1.1712,0,2.06456.28667,2.67993.86002.62534.56329.93793,1.41829.93793,2.56499v4.72257h-1.75681v-.98072c-.22829.35206-.55584.62363-.98265.81475-.41699.18106-.92312.27159-1.5187.27159s-1.11666-.10059-1.56327-.30176c-.44671-.21125-.79411-.49791-1.04225-.86003-.23823-.37217-.35733-.78961-.35733-1.25231c0-.72424.26304-1.30262.7891-1.73514.536-.44259,1.37467-.66388,2.51626-.66388h2.05459v-.1207c0-.56329-.16876-.99581-.50628-1.29757-.32755-.30178-.81888-.45265-1.47398-.45265-.4466,0-.88837.0704-1.32501.21123-.42681.14083-.78911.33696-1.08691.58844l-.72956-1.37302c.41689-.32189.91812-.56832,1.50373-.73932s1.20595-.2565,1.8612-.2565l.00001.00001Zm-.25322,6.88017c.46655,0,.8784-.10562,1.23587-.31685.36714-.22129.62519-.53312.77415-.93545v-.93547h-1.92073c-1.07194,0-1.60784.35709-1.60784,1.07126c0,.34199.13386.61357.40188.81475s.6403.30176,1.11666.30176h.00001Zm-10.69116.06065h-.86354l-3.42441-5.7033v6.91036h-1.8462v-10.56169h1.59309l4.13907,7.00089l4.06463-7.00089h1.59309l.01488,10.56169h-1.8313l-.0149-7.00089-3.42441,5.79383Zm63.34121,18.8993v15.15h-3.372v-1.962c-.57764.71189-1.32435,1.2678-2.172,1.617-.90563.36793-1.87555.55151-2.853.54-1.37977.02378-2.74245-.30785-3.957-.963-1.13745-.62625-2.07375-1.56255-2.7-2.7-1.30391-2.56373-1.30391-5.59627,0-8.16.6281-1.13606,1.56394-2.0719,2.7-2.7c1.21546-.65275,2.57751-.98423,3.957-.963.92501-.00857,1.84259.16578,2.7.513.8172.33509,1.54983.84741,2.145,1.5v-.762c0-.28643.11378-.56114.31633-.76367s.47724-.31633.76367-.31633l2.472-.03Zm-4.767,11.01c1.70241-1.9736,1.70241-4.8964,0-6.87-1.79985-1.74394-4.65915-1.74394-6.459,0-1.68467,1.98016-1.68467,4.88984,0,6.87.84101.87157,2.01145,1.34672,3.222,1.308c1.21374.03854,2.38799-.43377,3.237-1.302v-.006Zm17.94,3.324c-.4506.35546-.96927.61479-1.524.762-.61408.17233-1.2492.25816-1.887.255-1.41013.09088-2.79902-.37927-3.864-1.308-.9622-1.0234-1.45181-2.403-1.35-3.804v-13.59h2.469c.28643,0,.56114.11378.76367.31633s.31633.47724.31633.76367v2.379h4.047v2.853h-4.047v7.2c-.04376.61441.15433,1.2216.552,1.692.40613.41048.96838.62774,1.545.597.22613.00135.45196-.01672.675-.054.80958-.16952,1.6251.26156,1.941,1.026l.363.912Zm5.079.027c-1.20043-.63362-2.19844-1.59212-2.88-2.766-1.3796-2.49392-1.3796-5.52208,0-8.016.68541-1.16705,1.68279-2.11975,2.88-2.751c2.61457-1.32565,5.70443-1.32565,8.319,0c1.19702.63151,2.19433,1.58416,2.88,2.751c1.3796,2.49392,1.3796,5.52208,0,8.016-.68182,1.17368-1.67976,2.13211-2.88,2.766-2.61457,1.32565-5.70443,1.32565-8.319,0Zm7.392-3.369c1.70241-1.9736,1.70241-4.8964,0-6.87-1.79985-1.74394-4.65915-1.74394-6.459,0-1.68467,1.98016-1.68467,4.88984,0,6.87.84101.87157,2.01145,1.34672,3.222,1.308c1.21059.04404,2.38438-.42048,3.237-1.281v-.027Zm17.022-11.16v3.372c-.27077-.05406-.54592-.08318-.822-.087-1.19439-.06706-2.36247.36798-3.222,1.2-.83467.95959-1.25439,2.2112-1.167,3.48v7.353h-3.552v-15.15h2.298c.28643,0,.56113.11379.76367.31633s.31633.47724.31633.76367v1.134c1.014-1.588,2.809-2.382,5.385-2.382Zm-107.022,15.042c-.99952-.24447-1.95011-.65737-2.811-1.221l.621-1.233c.3744-.7399,1.2508-1.07278,2.022-.768.37389.15524.75654.28847,1.146.399.91807.26884,1.86939.4072,2.826.411c2.118,0,3.179-.557,3.183-1.671.01432-.51063-.31898-.96614-.81-1.107-.84397-.28199-1.7129-.4829-2.595-.6-1.03337-.14877-2.05419-.3744-3.054-.675-.77526-.24876-1.47221-.69547-2.022-1.296-.61143-.71083-.9214-1.63215-.864-2.568-.02956-1.38298.6493-2.68527,1.8-3.453c1.44674-.93234,3.1502-1.38576,4.869-1.296c1.05397.00022,2.10457.11896,3.132.354.90209.18897,1.76874.51902,2.568.978l-.675,1.296c-.363.73034-1.21602,1.07232-1.983.795-.9848-.3605-2.02631-.54137-3.075-.534-.81824-.04818-1.63519.11397-2.373.471-.48302.22293-.79719.70118-.81,1.233-.01041.54748.34149,1.03623.864,1.2.87464.31646,1.77934.54264,2.7.675c1.00825.15143,2.00395.37704,2.979.675.77042.2345,1.46702.66444,2.022,1.248.59601.69214.89656,1.59055.837,2.502.02092,1.37985-.67962,2.67062-1.848,3.405-1.50499.92728-3.25673,1.37412-5.022,1.281-1.22607-.00259-2.44614-.17112-3.627-.501Zm44.883-14.874v12.858c0,5.336-2.724,8.004-8.172,8.004-1.40084.00811-2.79608-.17765-4.146-.552-1.17835-.30549-2.28055-.85199-3.237-1.605l1.026-1.713c.30567-.49262.95204-.6455,1.446-.342.51805.29338,1.06493.53264,1.632.714.99571.32459,2.03673.48864,3.084.486c1.664,0,2.884-.378,3.66-1.134.84612-.94702,1.26781-2.19906,1.167-3.465v-.795c-.61114.66419-1.36796,1.17763-2.211,1.5-.91436.34924-1.88627.52327-2.865.513-1.35633.0185-2.69615-.29893-3.9-.924-1.14224-.59206-2.09694-1.49066-2.757-2.595-.68212-1.15978-1.02996-2.48573-1.005-3.831-.02691-1.34077.32116-2.66242,1.005-3.816.65985-1.09557,1.61266-1.98501,2.751-2.568c1.20751-.61258,2.54617-.9215,3.9-.9c1.02537-.01399,2.04386.16934,3,.54.88145.34534,1.65934.91145,2.259,1.644v-.936c0-.28643.11379-.56114.31633-.76367s.47724-.31633.76367-.31633l2.283-.003Zm-4.782,10.263c.86632-.80774,1.34014-1.95125,1.299-3.135.03647-1.17094-.43625-2.30022-1.296-3.096-1.9293-1.58787-4.7127-1.58787-6.642,0-.85642.7974-1.32577,1.92647-1.287,3.096-.04421,1.18189.4251,2.3251,1.287,3.135c1.92186,1.60535,4.71714,1.60535,6.639,0Zm-12.057-10.278l-5.892,13.743c-.36888.86087-1.21443,1.41985-2.151,1.422h-1.902l5.763-13.404.3-.675c.28294-.65223.92704-1.07338,1.638-1.071l2.244-.015Zm-10.785,13.263l-5.889-13.236h2.511c.71819-.00121,1.36666.42953,1.644,1.092l3.492,8.046-1.758,4.098Z" opacity="0.7" clip-rule="evenodd" fill="rgba(255,255,255,0)" fill-rule="evenodd"/><g transform="matrix(.3 0 0 0.3-18.1224-25.9059)" opacity="0"><path d="M129.5,243.58426c-8.76,2.18-20.08,1.79-37.33-19.63-2.35828-2.9281-4.38181-6.36293-5.93416-10.02849c3.00814.97918,6.21933,1.50849,9.55416,1.50849c17.03246,0,30.84-13.80754,30.84-30.84c0-5.42003-1.39819-10.5135-3.85355-14.93939c22.54068-3.14789,48.24701-1.18662,56.01355,6.19939c12.32,11.73-14.11,59.03-49.29,67.73Z" fill="rgba(255,255,255,0)"/><g><mask mask-type="alpha" x="-150%" y="-150%" height="400%" width="400%"><path d="M78.37454,207.03926c0-31.45994,25.50332-56.96327,56.96327-56.96327s56.96327,25.50332,56.96327,56.96327-25.50332,56.96327-56.96327,56.96327-56.96327-25.50332-56.96327-56.96327Zm89.23546-4.715c-.16775-.93858-1.05962-1.56734-2-1.41h-.06c-4.15414.71597-8.30501-1.28258-10.33588-4.97651s-1.49439-8.26953,1.33588-11.39349c.33036-.3301.51598-.77798.51598-1.245s-.18561-.9149-.51598-1.245l-.11-.1c-2.70671-2.31865-5.78705-4.16144-9.11-5.45-.43613-.17299-.92328-.16468-1.35326.02308s-.76719.53944-.93674.97692v.06c-1.40364,3.98681-5.18789,6.63916-9.41438,6.59848s-7.95898-2.76539-9.28562-6.77848c-.13404-.44903-.44162-.82607-.85458-1.04757s-.8972-.26916-1.34542-.13243h-.11c-3.26392,1.21388-6.31249,2.94242-9.03,5.12-.37331.28196-.619.70095-.6828,1.16441s.05956.93325.3428,1.30559l.1.12c2.68294,3.2243,3.03751,7.79124.8844,11.39101s-6.34454,5.44763-10.4544,4.60899c-.45624-.10445-.9353-.02286-1.33126.22672s-.67619.6466-.77874,1.10328v.09c-.55386,3.43784-.55386,6.94217,0,10.38.06433.46505.31181.88512.68739,1.16681s.84815.40164,1.31261.33319h.11c4.15414-.71597,8.30501,1.28258,10.33588,4.97651s1.49439,8.26953-1.33588,11.39349c-.33036.3301-.51598.77798-.51598,1.245s.18561.9149.51598,1.245l.11.1c2.70914,2.30768,5.7893,4.14023,9.11,5.42.43613.17299.92328.16468,1.35326-.02308s.76719-.53944.93674-.97692v-.06c1.40815-3.97311,5.18194-6.61524,9.39704-6.57914s7.94308,2.7425,9.28296,6.73914c.13404.44903.44162.82607.85458,1.04757s.8972.26916,1.34542.13243h.11c3.30375-1.22537,6.38706-2.97809,9.13-5.19.37164-.28659.61343-.70974.67164-1.17542s-.07198-.93533-.36164-1.30458l-.1-.12c-2.83001-3.19588-3.28744-7.84789-1.13412-11.53378s6.43037-5.57199,10.60412-4.67622c.93041.23341,1.87421-.33019,2.11-1.26v-.09c.5347-3.37898.5347-6.82102,0-10.2Zm-41.67,4.69c0-5.197,4.213-9.41,9.41-9.41s9.41,4.213,9.41,9.41-4.213,9.41-9.41,9.41-9.41-4.213-9.41-9.41Z" fill="rgba(210,219,237,0)" stroke-width="0"/></mask></g></g><path d="M116.33,114.77l-3.64-2.18c-1.023263-.593162-1.652267-1.687247-1.65-2.87v-2c-.002267-1.182753.626737-2.276838,1.65-2.87l3.64-2.18c.762973-.435835,1.321342-1.157154,1.552062-2.005003s.114855-1.752643-.322062-2.514997v0l-1.74-3c-.935215-1.566004-2.961067-2.080293-4.53-1.15v0l-3.68,2.18c-1.024118.591275-2.285882.591275-3.31,0l-1.7-1c-1.023263-.593162-1.652267-1.687247-1.65-2.87v-4.38c0-.877867-.348731-1.719778-.969477-2.340523s-1.462656-.969477-2.340523-.969477h-3.47c-.877867,0-1.719778.348731-2.340523.969477s-.969477,1.462656-.969477,2.340523s0,.06,0,.09v4.35c.002267,1.182753-.626737,2.276838-1.65,2.87l-1.68,1c-1.024118.591275-2.285882.591275-3.31,0L80.56,94c-.767143-.448916-1.682599-.570435-2.540292-.337203s-1.585543.801616-2.019708,1.577203v0l-1.74,3c-.443418.7584-.567152,1.661967-.343945,2.511654s.775044,1.575787,1.533945,2.018346v0L79.1,105c1.023263.593162,1.652267,1.687247,1.65,2.87v2c.002267,1.182753-.626737,2.276838-1.65,2.87l-3.61,2.18c-1.578036.917936-2.114924,2.940216-1.2,4.52v0l1.74,3c.917936,1.578036,2.940216,2.114924,4.52,1.2v0l3.66-2.18c1.024118-.591275,2.285882-.591275,3.31,0l1.68,1c1.023263.593162,1.652267,1.687247,1.65,2.87v3.67c0,.877867.348731,1.719778.969477,2.340523s1.462656.969477,2.340523.969477h3.46c.877867,0,1.719778-.348731,2.340523-.969477s.969477-1.462656.969477-2.340523v0-3.77c-.002267-1.182753.626737-2.276838,1.65-2.87l1.7-1c1.024118-.591275,2.285882-.591275,3.31,0l3.66,2.18c1.5824.913239,3.605483.371662,4.52-1.21v0l1.74-3c.938839-1.568495.428452-3.601089-1.14-4.54l-.04-.02Zm-20.49.91c-3.865993,0-7-3.134007-7-7s3.134007-7,7-7s7,3.134007,7,7v0c0,3.865993-3.134007,7-7,7v0Z" transform="matrix(.3 0 0 0.3-17.6508-2.6395)" opacity="0.7" fill="rgba(255,255,255,0)"/></g><rect id="e0zLVG5f6nj132" style="mix-blend-mode:multiply" width="1000" height="500" rx="0" ry="0" transform="matrix(1 0 0 1 0 500)" opacity="0.8" fill="url(#e0zLVG5f6nj132-fill)" stroke-width="0"/><g id="e0zLVG5f6nj133" transform="matrix(2.857143 0 0 2.857143 514.285714 800)"><path id="e0zLVG5f6nj134" d="M100.296,3.59097h1.86105v8.05706h-1.86105v-8.05706Zm.93793-1.32776c-.33752,0-.62035-.10561-.84864-.31684-.22829-.22129-.34251-.49288-.34251-.81477s.11422-.58843.34251-.79967c.22829-.22129.51112-.33193.84864-.33193s.62035.10562.84864.31685c.22829.20117.34251.45766.34251.76949c0,.33195-.11422.61358-.34251.84494-.21832.22129-.5013.33193-.84864.33193Zm17.50762,4.76743v4.61696h-1.86105v-4.37556c0-.70411-.16378-1.23218-.49133-1.58425-.32755-.3621-.7941-.54316-1.39949-.54316-.68501,0-1.2259.21123-1.62294.63369-.39705.41241-.59557,1.0109-.59557,1.7955v4.07379h-1.86105v-11.19538h1.86105v4.07379c.30776-.33195.68486-.58341,1.13162-.75441.45658-.18106.96271-.27159,1.51855-.27159c1.00259,0,1.80651.29673,2.41206.8902.60539.59346.90817,1.4736.90817,2.64042h-.00002ZM107.5923,11.7549c-.87342,0-1.54846-.23136-2.02483-.69407-.47652-.46269-.71478-1.13663-.71478-2.02181v-3.87763h-1.3102v-1.50882h1.3102v-1.84075h1.8612v1.84075h2.12908v1.50882h-2.12908v3.83237c0,.39231.09428.69407.28283.9053.18855.20117.46156.30176.81888.30176.41684,0,.76433-.11065,1.04218-.33195l.52109,1.34285c-.21832.18106-.48634.31685-.80392.40738-.30776.09053-.63531.13579-.98265.13579v.00001Zm-13.2957-.10591L92.24186,6.09656L90.1575,11.64899h-1.78672L85.45259,3.59193h1.75696l2.09931,5.94472l2.18861-5.94472h1.56327l2.14403,5.97489l2.15884-5.97489h1.65271l-2.93315,8.05706h-1.78657ZM80.71172,7.66404c0,.13076-.00982.31685-.02976.55826h-6.23841c.10923.59347.39221,1.06623.84879,1.41829.4664.34199,1.04218.51299,1.72704.51299.87342,0,1.59303-.2917,2.15884-.87511l.99761,1.16179c-.35731.43252-.80906.75943-1.35492.98072s-1.16138.33195-1.84625.33195c-.87342,0-1.64274-.17603-2.30766-.52808-.66507-.35206-1.18118-.83991-1.54846-1.46355-.35731-.63369-.53605-1.34787-.53605-2.14251c0-.78458.17375-1.48869.52109-2.11234.35731-.63371.84864-1.12657,1.47398-1.47863s1.33015-.52808,2.11427-.52808c.77415,0,1.464.17603,2.06955.52808.61537.34199,1.09189.82985,1.42926,1.46354.34749.62364.52109,1.34788.52109,2.1727l-.00001-.00002ZM76.69183,5.00853c-.59557,0-1.1017.18106-1.5187.54318-.40687.35206-.6551.82481-.74439,1.41829h4.51122c-.07932-.58341-.32256-1.05617-.72943-1.41829-.40702-.36212-.9133-.54318-1.5187-.54318ZM69.01645,11.6476v-1.04108c-.30776.38223-.68985.66889-1.14643.86002-.44676.19112-.94291.28668-1.48893.28668-.76433,0-1.45403-.17101-2.06955-.51301-.60539-.34199-1.08191-.82481-1.42925-1.44846-.34749-.63369-.52109-1.35793-.52109-2.17268s.17359-1.53397.52109-2.1576c.34734-.62364.82386-1.10646,1.42925-1.44846C64.92706,3.671,65.61676,3.5,66.38109,3.5c.52607,0,1.00743.09053,1.44421.27159s.8089.45265,1.11666.81477v-4.13414h1.86105v11.19538h-1.78656Zm-.35731-2.70078c.20834-.38223.31259-.82481.31259-1.32774s-.10425-.94553-.31259-1.32776c-.2085-.38223-.49133-.67394-.84864-.87511-.35746-.21125-.75935-.31685-1.2061-.31685-.4466,0-.84864.10561-1.20595.31685-.35731.20117-.64014.49288-.84864.87511s-.31259.82481-.31259,1.32776.1041.94551.31259,1.32774.49132.67897.84864.8902c.35731.20118.75935.30176,1.20595.30176.44676,0,.84864-.10058,1.2061-.30176.35731-.21123.64014-.50796.84864-.8902ZM56.93698,3.49973c1.1712,0,2.06456.28667,2.67993.86002.62534.56329.93793,1.41829.93793,2.56499v4.72257h-1.75681v-.98072c-.22829.35206-.55584.62363-.98265.81475-.41699.18106-.92312.27159-1.5187.27159s-1.11666-.10059-1.56327-.30176c-.44671-.21125-.79411-.49791-1.04225-.86003-.23823-.37217-.35733-.78961-.35733-1.25231c0-.72424.26304-1.30262.7891-1.73514.536-.44259,1.37467-.66388,2.51626-.66388h2.05459v-.1207c0-.56329-.16876-.99581-.50628-1.29757-.32755-.30178-.81888-.45265-1.47398-.45265-.4466,0-.88837.0704-1.32501.21123-.42681.14083-.78911.33696-1.08691.58844l-.72956-1.37302c.41689-.32189.91812-.56832,1.50373-.73932s1.20595-.2565,1.8612-.2565l.00001.00001Zm-.25322,6.88017c.46655,0,.8784-.10562,1.23587-.31685.36714-.22129.62519-.53312.77415-.93545v-.93547h-1.92073c-1.07194,0-1.60784.35709-1.60784,1.07126c0,.34199.13386.61357.40188.81475s.6403.30176,1.11666.30176h.00001Zm-10.69116.06065h-.86354l-3.42441-5.7033v6.91036h-1.8462v-10.56169h1.59309l4.13907,7.00089l4.06463-7.00089h1.59309l.01488,10.56169h-1.8313l-.0149-7.00089-3.42441,5.79383Zm63.34121,18.8993v15.15h-3.372v-1.962c-.57764.71189-1.32435,1.2678-2.172,1.617-.90563.36793-1.87555.55151-2.853.54-1.37977.02378-2.74245-.30785-3.957-.963-1.13745-.62625-2.07375-1.56255-2.7-2.7-1.30391-2.56373-1.30391-5.59627,0-8.16.6281-1.13606,1.56394-2.0719,2.7-2.7c1.21546-.65275,2.57751-.98423,3.957-.963.92501-.00857,1.84259.16578,2.7.513.8172.33509,1.54983.84741,2.145,1.5v-.762c0-.28643.11378-.56114.31633-.76367s.47724-.31633.76367-.31633l2.472-.03Zm-4.767,11.01c1.70241-1.9736,1.70241-4.8964,0-6.87-1.79985-1.74394-4.65915-1.74394-6.459,0-1.68467,1.98016-1.68467,4.88984,0,6.87.84101.87157,2.01145,1.34672,3.222,1.308c1.21374.03854,2.38799-.43377,3.237-1.302v-.006Zm17.94,3.324c-.4506.35546-.96927.61479-1.524.762-.61408.17233-1.2492.25816-1.887.255-1.41013.09088-2.79902-.37927-3.864-1.308-.9622-1.0234-1.45181-2.403-1.35-3.804v-13.59h2.469c.28643,0,.56114.11378.76367.31633s.31633.47724.31633.76367v2.379h4.047v2.853h-4.047v7.2c-.04376.61441.15433,1.2216.552,1.692.40613.41048.96838.62774,1.545.597.22613.00135.45196-.01672.675-.054.80958-.16952,1.6251.26156,1.941,1.026l.363.912Zm5.079.027c-1.20043-.63362-2.19844-1.59212-2.88-2.766-1.3796-2.49392-1.3796-5.52208,0-8.016.68541-1.16705,1.68279-2.11975,2.88-2.751c2.61457-1.32565,5.70443-1.32565,8.319,0c1.19702.63151,2.19433,1.58416,2.88,2.751c1.3796,2.49392,1.3796,5.52208,0,8.016-.68182,1.17368-1.67976,2.13211-2.88,2.766-2.61457,1.32565-5.70443,1.32565-8.319,0Zm7.392-3.369c1.70241-1.9736,1.70241-4.8964,0-6.87-1.79985-1.74394-4.65915-1.74394-6.459,0-1.68467,1.98016-1.68467,4.88984,0,6.87.84101.87157,2.01145,1.34672,3.222,1.308c1.21059.04404,2.38438-.42048,3.237-1.281v-.027Zm17.022-11.16v3.372c-.27077-.05406-.54592-.08318-.822-.087-1.19439-.06706-2.36247.36798-3.222,1.2-.83467.95959-1.25439,2.2112-1.167,3.48v7.353h-3.552v-15.15h2.298c.28643,0,.56113.11379.76367.31633s.31633.47724.31633.76367v1.134c1.014-1.588,2.809-2.382,5.385-2.382Zm-107.022,15.042c-.99952-.24447-1.95011-.65737-2.811-1.221l.621-1.233c.3744-.7399,1.2508-1.07278,2.022-.768.37389.15524.75654.28847,1.146.399.91807.26884,1.86939.4072,2.826.411c2.118,0,3.179-.557,3.183-1.671.01432-.51063-.31898-.96614-.81-1.107-.84397-.28199-1.7129-.4829-2.595-.6-1.03337-.14877-2.05419-.3744-3.054-.675-.77526-.24876-1.47221-.69547-2.022-1.296-.61143-.71083-.9214-1.63215-.864-2.568-.02956-1.38298.6493-2.68527,1.8-3.453c1.44674-.93234,3.1502-1.38576,4.869-1.296c1.05397.00022,2.10457.11896,3.132.354.90209.18897,1.76874.51902,2.568.978l-.675,1.296c-.363.73034-1.21602,1.07232-1.983.795-.9848-.3605-2.02631-.54137-3.075-.534-.81824-.04818-1.63519.11397-2.373.471-.48302.22293-.79719.70118-.81,1.233-.01041.54748.34149,1.03623.864,1.2.87464.31646,1.77934.54264,2.7.675c1.00825.15143,2.00395.37704,2.979.675.77042.2345,1.46702.66444,2.022,1.248.59601.69214.89656,1.59055.837,2.502.02092,1.37985-.67962,2.67062-1.848,3.405-1.50499.92728-3.25673,1.37412-5.022,1.281-1.22607-.00259-2.44614-.17112-3.627-.501Zm44.883-14.874v12.858c0,5.336-2.724,8.004-8.172,8.004-1.40084.00811-2.79608-.17765-4.146-.552-1.17835-.30549-2.28055-.85199-3.237-1.605l1.026-1.713c.30567-.49262.95204-.6455,1.446-.342.51805.29338,1.06493.53264,1.632.714.99571.32459,2.03673.48864,3.084.486c1.664,0,2.884-.378,3.66-1.134.84612-.94702,1.26781-2.19906,1.167-3.465v-.795c-.61114.66419-1.36796,1.17763-2.211,1.5-.91436.34924-1.88627.52327-2.865.513-1.35633.0185-2.69615-.29893-3.9-.924-1.14224-.59206-2.09694-1.49066-2.757-2.595-.68212-1.15978-1.02996-2.48573-1.005-3.831-.02691-1.34077.32116-2.66242,1.005-3.816.65985-1.09557,1.61266-1.98501,2.751-2.568c1.20751-.61258,2.54617-.9215,3.9-.9c1.02537-.01399,2.04386.16934,3,.54.88145.34534,1.65934.91145,2.259,1.644v-.936c0-.28643.11379-.56114.31633-.76367s.47724-.31633.76367-.31633l2.283-.003Zm-4.782,10.263c.86632-.80774,1.34014-1.95125,1.299-3.135.03647-1.17094-.43625-2.30022-1.296-3.096-1.9293-1.58787-4.7127-1.58787-6.642,0-.85642.7974-1.32577,1.92647-1.287,3.096-.04421,1.18189.4251,2.3251,1.287,3.135c1.92186,1.60535,4.71714,1.60535,6.639,0Zm-12.057-10.278l-5.892,13.743c-.36888.86087-1.21443,1.41985-2.151,1.422h-1.902l5.763-13.404.3-.675c.28294-.65223.92704-1.07338,1.638-1.071l2.244-.015Zm-10.785,13.263l-5.889-13.236h2.511c.71819-.00121,1.36666.42953,1.644,1.092l3.492,8.046-1.758,4.098Z" opacity="0.7" clip-rule="evenodd" fill="#fff" fill-rule="evenodd"/><g id="e0zLVG5f6nj135" transform="matrix(.3 0 0 0.3-18.12243-25.905895)" opacity="0.7" mask="url(#e0zLVG5f6nj137)"><path id="e0zLVG5f6nj136" d="M129.5,243.58426c-8.76,2.18-20.08,1.79-37.33-19.63-2.35828-2.9281-4.38181-6.36293-5.93416-10.02849c3.00814.97918,6.21933,1.50849,9.55416,1.50849c17.03246,0,30.84-13.80754,30.84-30.84c0-5.42003-1.39819-10.5135-3.85355-14.93939c22.54068-3.14789,48.24701-1.18662,56.01355,6.19939c12.32,11.73-14.11,59.03-49.29,67.73Z" fill="#fff"/><mask id="e0zLVG5f6nj137" mask-type="alpha" x="-150%" y="-150%" height="400%" width="400%"><g id="e0zLVG5f6nj138_tr" transform="translate(135.33781,207.03926) rotate(720)"><path id="e0zLVG5f6nj138" d="M78.37454,207.03926c0-31.45994,25.50332-56.96327,56.96327-56.96327s56.96327,25.50332,56.96327,56.96327-25.50332,56.96327-56.96327,56.96327-56.96327-25.50332-56.96327-56.96327Zm89.23546-4.715c-.16775-.93858-1.05962-1.56734-2-1.41h-.06c-4.15414.71597-8.30501-1.28258-10.33588-4.97651s-1.49439-8.26953,1.33588-11.39349c.33036-.3301.51598-.77798.51598-1.245s-.18561-.9149-.51598-1.245l-.11-.1c-2.70671-2.31865-5.78705-4.16144-9.11-5.45-.43613-.17299-.92328-.16468-1.35326.02308s-.76719.53944-.93674.97692v.06c-1.40364,3.98681-5.18789,6.63916-9.41438,6.59848s-7.95898-2.76539-9.28562-6.77848c-.13404-.44903-.44162-.82607-.85458-1.04757s-.8972-.26916-1.34542-.13243h-.11c-3.26392,1.21388-6.31249,2.94242-9.03,5.12-.37331.28196-.619.70095-.6828,1.16441s.05956.93325.3428,1.30559l.1.12c2.68294,3.2243,3.03751,7.79124.8844,11.39101s-6.34454,5.44763-10.4544,4.60899c-.45624-.10445-.9353-.02286-1.33126.22672s-.67619.6466-.77874,1.10328v.09c-.55386,3.43784-.55386,6.94217,0,10.38.06433.46505.31181.88512.68739,1.16681s.84815.40164,1.31261.33319h.11c4.15414-.71597,8.30501,1.28258,10.33588,4.97651s1.49439,8.26953-1.33588,11.39349c-.33036.3301-.51598.77798-.51598,1.245s.18561.9149.51598,1.245l.11.1c2.70914,2.30768,5.7893,4.14023,9.11,5.42.43613.17299.92328.16468,1.35326-.02308s.76719-.53944.93674-.97692v-.06c1.40815-3.97311,5.18194-6.61524,9.39704-6.57914s7.94308,2.7425,9.28296,6.73914c.13404.44903.44162.82607.85458,1.04757s.8972.26916,1.34542.13243h.11c3.30375-1.22537,6.38706-2.97809,9.13-5.19.37164-.28659.61343-.70974.67164-1.17542s-.07198-.93533-.36164-1.30458l-.1-.12c-2.83001-3.19588-3.28744-7.84789-1.13412-11.53378s6.43037-5.57199,10.60412-4.67622c.93041.23341,1.87421-.33019,2.11-1.26v-.09c.5347-3.37898.5347-6.82102,0-10.2Zm-41.67,4.69c0-5.197,4.213-9.41,9.41-9.41s9.41,4.213,9.41,9.41-4.213,9.41-9.41,9.41-9.41-4.213-9.41-9.41Z" transform="translate(-135.33781,-207.03926)" fill="#d2dbed" stroke-width="0"/></g></mask></g><g id="e0zLVG5f6nj139_tr" transform="translate(11.12,29.9) rotate(-720)"><path id="e0zLVG5f6nj139" d="M116.33,114.77l-3.64-2.18c-1.023263-.593162-1.652267-1.687247-1.65-2.87v-2c-.002267-1.182753.626737-2.276838,1.65-2.87l3.64-2.18c.762973-.435835,1.321342-1.157154,1.552062-2.005003s.114855-1.752643-.322062-2.514997v0l-1.74-3c-.935215-1.566004-2.961067-2.080293-4.53-1.15v0l-3.68,2.18c-1.024118.591275-2.285882.591275-3.31,0l-1.7-1c-1.023263-.593162-1.652267-1.687247-1.65-2.87v-4.38c0-.877867-.348731-1.719778-.969477-2.340523s-1.462656-.969477-2.340523-.969477h-3.47c-.877867,0-1.719778.348731-2.340523.969477s-.969477,1.462656-.969477,2.340523s0,.06,0,.09v4.35c.002267,1.182753-.626737,2.276838-1.65,2.87l-1.68,1c-1.024118.591275-2.285882.591275-3.31,0L80.56,94c-.767143-.448916-1.682599-.570435-2.540292-.337203s-1.585543.801616-2.019708,1.577203v0l-1.74,3c-.443418.7584-.567152,1.661967-.343945,2.511654s.775044,1.575787,1.533945,2.018346v0L79.1,105c1.023263.593162,1.652267,1.687247,1.65,2.87v2c.002267,1.182753-.626737,2.276838-1.65,2.87l-3.61,2.18c-1.578036.917936-2.114924,2.940216-1.2,4.52v0l1.74,3c.917936,1.578036,2.940216,2.114924,4.52,1.2v0l3.66-2.18c1.024118-.591275,2.285882-.591275,3.31,0l1.68,1c1.023263.593162,1.652267,1.687247,1.65,2.87v3.67c0,.877867.348731,1.719778.969477,2.340523s1.462656.969477,2.340523.969477h3.46c.877867,0,1.719778-.348731,2.340523-.969477s.969477-1.462656.969477-2.340523v0-3.77c-.002267-1.182753.626737-2.276838,1.65-2.87l1.7-1c1.024118-.591275,2.285882-.591275,3.31,0l3.66,2.18c1.5824.913239,3.605483.371662,4.52-1.21v0l1.74-3c.938839-1.568495.428452-3.601089-1.14-4.54Zm-20.49.91c-3.865993,0-7-3.134007-7-7s3.134007-7,7-7s7,3.134007,7,7v0c0,3.865993-3.134007,7-7,7v0Z" transform="scale(0.3,0.3) translate(-95.902813,-108.465)" opacity="0.7" fill="#fff"/></g></g></svg>
