<svg xmlns="http://www.w3.org/2000/svg" xmlns:xlink="http://www.w3.org/1999/xlink" version="1.1" width="1000" height="1000" xml:space="preserve" viewBox="0 0 1000 1000" data-app="Xyris">
    <defs>
    </defs>
    <g transform="matrix(-0.9091 0 0 0.9091 500 500)" id="166112" transform-origin="">
        <g vector-effect="non-scaling-stroke" transform-origin="center" style="transform-box: fill-box;" transform="matrix(1.0812578201293945,0,0,1.0623449087142944,9.52579940855503,3.3819198608398438)">
            <g transform="matrix(1 0 0 1 -84.9583 460.799)" id="Layer_1" transform-origin="">
                <path stroke-width="1" stroke-dasharray="none" stroke-linecap="round" stroke-dashoffset="0" stroke-linejoin="miter" stroke-miterlimit="4" fill-rule="nonzero" opacity="1" transform=" translate(-915.0417, -1460.799)" d="M 875.516 1473.28 C 882.117 1476.58 889.917 1477.08 897.317 1477.08 C 908.817 1477.08 920.317 1476.18 931.617 1473.88 C 936.516 1472.88 941.317 1471.98 945.617 1469.38 C 947.716 1468.08 952.716 1465.58 951.817 1462.38 C 951.617 1461.58 950.917 1460.88 950.216 1460.38 C 946.617 1457.78 941.817 1456.58 937.516 1455.58 C 932.117 1454.28 926.617 1453.18 921.117 1452.38 C 911.716 1451.18 902.317 1451.28 892.817 1451.28 C 890.417 1451.28 887.917 1451.28 885.617 1451.88 C 881.817 1452.78 878.417 1454.98 875.617 1457.68 C 873.016 1460.18 870.817 1463.28 870.617 1466.78 C 870.516 1467.98 870.716 1469.28 871.516 1470.28 C 872.016 1471.08 872.917 1471.58 873.716 1472.08 C 874.317 1472.68 874.917 1472.98 875.516 1473.28 Z" stroke="none" fill="rgb(65, 11, 9)" transform-origin="">
                </path>
            </g>
            <g transform="matrix(1 0 0 1 101.5965 472.3267)" id="Layer_1" transform-origin="">
                <path stroke-width="1" stroke-dasharray="none" stroke-linecap="round" stroke-dashoffset="0" stroke-linejoin="miter" stroke-miterlimit="4" fill-rule="nonzero" opacity="1" transform=" translate(-1101.5965, -1472.3267)" d="M 1115.92 1463.58 C 1127.82 1469.68 1139.82 1482.98 1136.72 1488.98 C 1135.02 1492.28 1129.72 1492.38 1126.52 1492.38 C 1116.02 1492.38 1105.32 1489.68 1095.22 1487.08 C 1089.32 1485.58 1083.52 1483.98 1077.72 1482.18 C 1074.22 1481.18 1070.72 1480.08 1067.32 1478.98 C 1065.52 1478.38 1063.72 1477.78 1061.82 1477.28 C 1060.62 1476.88 1058.52 1476.78 1058.42 1475.18 C 1058.32 1473.48 1061.82 1471.48 1063.02 1470.58 C 1066.72 1467.78 1070.82 1465.28 1075.12 1463.48 C 1083.12 1459.98 1092.02 1458.38 1100.72 1459.28 C 1106.02 1459.68 1111.22 1461.18 1115.92 1463.58 Z" stroke="none" fill="rgb(65, 11, 9)" transform-origin="">
                </path>
            </g>
            <g transform="matrix(1 0 0 1 -84.4018 382.9663)" id="Layer_1" transform-origin="">
                <path stroke-width="17.9247" stroke-dasharray="none" stroke-linecap="round" stroke-dashoffset="0" stroke-linejoin="round" stroke-miterlimit="10" fill-rule="nonzero" opacity="1" transform=" translate(-915.5982, -1382.9663)" d="M 921.817 1292.58 C 921.216 1315.58 922.417 1345.08 929.016 1378.48 C 935.716 1412.58 946.117 1440.68 955.617 1461.98 C 953.117 1461.18 902.317 1444.48 882.417 1452.68 C 879.516 1453.88 873.317 1456.38 870.117 1462.58 C 867.617 1467.48 867.516 1473.58 868.917 1476.28 C 872.317 1482.58 891.417 1483.18 955.617 1461.88" stroke="rgb(65, 11, 9)" fill="none" transform-origin="">
                </path>
            </g>
            <g transform="matrix(1 0 0 1 100.9476 389.8104)" id="Layer_1" transform-origin="">
                <path stroke-width="17.9247" stroke-dasharray="none" stroke-linecap="round" stroke-dashoffset="0" stroke-linejoin="round" stroke-miterlimit="10" fill-rule="nonzero" opacity="1" transform=" translate(-1100.9476, -1389.8105)" d="M 1058.72 1294.08 C 1071.12 1322.28 1074.22 1353.88 1072.42 1384.58 C 1070.52 1415.38 1063.82 1445.58 1057.12 1475.58 C 1074.22 1458.78 1097.92 1454.28 1115.92 1463.48 C 1127.82 1469.58 1139.82 1482.88 1136.72 1488.88 C 1133.92 1494.18 1118.22 1495.68 1057.12 1475.58" stroke="rgb(65, 11, 9)" fill="none" transform-origin="">
                </path>
            </g>
            <g transform="matrix(1 0 0 1 142.032 -320.8864)" id="Layer_1" transform-origin="">
                <path stroke-width="1" stroke-dasharray="none" stroke-linecap="round" stroke-dashoffset="0" stroke-linejoin="miter" stroke-miterlimit="4" fill-rule="nonzero" opacity="1" transform=" translate(-1142.032, -679.1135)" d="M 1436.02 775.682 C 1411.72 768.682 1388.72 749.182 1362.42 750.782 C 1361.82 750.782 1361.22 750.882 1360.82 750.482 C 1359.82 749.782 1360.42 748.282 1360.92 747.282 C 1361.72 745.882 1362.32 744.482 1362.92 743.182 C 1383.02 725.082 1392.72 704.182 1396.02 696.982 C 1398.82 690.882 1400.72 685.582 1401.82 682.082 C 1391.62 686.782 1379.92 686.182 1368.82 685.082 C 1354.72 683.782 1342.62 682.482 1318.52 677.982 C 1301.02 674.682 1296.72 673.182 1286.92 672.982 C 1285.12 672.982 1283.42 672.982 1281.72 672.982 C 1275.02 672.082 1268.22 671.382 1261.42 670.482 C 1272.72 653.582 1280.32 634.182 1285.42 614.482 C 1287.72 605.582 1289.52 596.282 1288.02 587.182 C 1270.62 595.582 1251.72 600.782 1232.42 602.182 C 1219.62 603.182 1206.82 602.482 1193.92 602.382 C 1181.52 602.182 1169.02 602.582 1156.62 603.782 C 1159.92 597.382 1163.52 591.082 1167.72 584.982 C 1177.92 570.582 1188.82 556.682 1200.52 543.382 C 1200.92 542.882 1201.32 542.382 1201.32 541.782 C 1201.32 541.282 1201.02 540.782 1200.82 540.282 C 1193.72 528.782 1182.72 519.682 1170.02 515.082 C 1168.22 514.482 1166.42 513.882 1164.52 514.082 C 1161.02 514.582 1158.52 517.682 1156.52 520.582 C 1150.82 528.782 1145.12 537.082 1140.12 545.682 C 1131.92 559.882 1125.52 575.182 1121.12 590.982 C 1119.02 598.382 1117.12 605.282 1114.62 612.482 C 1096.92 618.782 1080.32 628.382 1067.42 642.082 C 1060.72 626.482 1050.92 612.182 1038.72 600.282 C 1027.42 589.282 1014.32 580.482 1002.82 569.782 C 994.817 562.282 987.716 553.882 981.016 545.282 C 977.617 540.782 968.917 523.382 962.617 524.682 C 961.016 524.982 959.716 526.082 958.516 527.182 C 936.016 547.582 923.917 578.482 925.417 608.782 C 924.917 608.682 924.516 608.482 924.117 608.382 C 911.016 604.782 900.016 596.882 887.117 591.982 C 872.216 586.282 865.317 585.682 852.716 580.682 C 841.917 576.382 826.917 568.882 810.516 554.582 C 807.417 567.582 807.016 578.882 807.617 588.082 C 812.016 649.082 868.216 685.782 878.417 692.282 L 1343.62 848.782 C 1353.82 850.782 1380.92 854.782 1410.62 841.582 C 1450.62 823.782 1465.92 788.082 1469.12 780.182 C 1454.82 780.282 1443.62 777.782 1436.02 775.682 Z" stroke="none" fill="rgb(99, 192, 112)" transform-origin="">
                </path>
            </g>
            <g transform="matrix(1 0 0 1 134.1 -298.7169)" id="Layer_1" transform-origin="">
                <path stroke-width="1" stroke-dasharray="none" stroke-linecap="round" stroke-dashoffset="0" stroke-linejoin="miter" stroke-miterlimit="4" fill-rule="nonzero" opacity="0.74" transform=" translate(-1134.1, -701.2831)" d="M 1441.42 814.482 C 1400.22 820.282 1357.02 811.582 1321.42 789.982 C 1314.72 785.982 1307.42 778.182 1311.42 771.482 C 1313.22 768.482 1316.62 767.082 1319.82 765.782 C 1352.42 751.982 1380.22 727.082 1397.52 696.182 C 1368.12 713.782 1336.52 728.482 1302.82 734.582 C 1269.12 740.682 1233.02 737.382 1202.92 720.982 C 1232.02 697.482 1256.72 668.482 1275.22 636.082 C 1232.22 685.782 1152.12 698.282 1096.02 663.982 C 1092.92 662.082 1089.92 660.082 1088.02 656.982 C 1082.42 647.982 1089.72 636.682 1096.62 628.682 C 1085.32 637.782 1074.02 646.982 1062.72 656.082 C 1059.82 658.382 1056.92 660.782 1053.42 662.182 C 1047.82 664.382 1041.42 663.782 1035.52 662.682 C 985.417 653.082 944.016 608.682 938.016 558.082 C 926.516 585.882 923.817 617.282 930.417 646.582 C 930.917 648.782 931.417 651.382 929.917 653.082 C 928.617 654.582 926.417 654.782 924.516 654.882 C 880.216 656.182 835.817 634.782 809.216 599.282 C 816.817 624.382 825.716 645.082 844.216 664.482 C 852.817 673.482 866.216 688.482 878.516 692.582 C 878.617 692.582 1343.72 849.082 1343.72 849.082 C 1353.92 851.082 1381.02 855.082 1410.72 841.882 C 1425.02 835.582 1440.32 823.982 1451.42 812.982 C 1448.22 813.482 1444.82 813.982 1441.42 814.482 Z" stroke="none" fill="rgb(23, 125, 89)" transform-origin="">
                </path>
            </g>
            <g transform="matrix(1 0 0 1 58.8662 20.81)" id="Layer_1" transform-origin="">
                <path stroke-width="1" stroke-dasharray="none" stroke-linecap="round" stroke-dashoffset="0" stroke-linejoin="miter" stroke-miterlimit="4" fill-rule="nonzero" opacity="1" transform=" translate(-1058.8662, -1020.81)" d="M 895.117 686.182 C 867.417 695.282 841.917 710.482 819.317 733.582 C 718.216 837.182 724.817 1003.38 765.016 1132.18 C 785.917 1198.88 817.617 1262.38 861.117 1317.28 C 969.516 1454.08 1143.82 1307.48 1227.92 1218.68 C 1256.52 1188.48 1282.82 1156.08 1306.62 1121.98 C 1344.92 1067.18 1378.62 1002.48 1371.62 933.582 C 1358.52 804.382 1231.92 729.782 1118.42 698.082 C 1081.22 687.682 1042.72 681.182 1004.32 677.182 C 966.016 673.182 929.016 675.082 895.117 686.182 Z" stroke="none" fill="rgb(254, 65, 83)" transform-origin="">
                </path>
            </g>
            <g transform="matrix(1 0 0 1 136.3137 30.2084)" id="Layer_1" transform-origin="">
                <path stroke-width="1" stroke-dasharray="none" stroke-linecap="round" stroke-dashoffset="0" stroke-linejoin="miter" stroke-miterlimit="4" fill-rule="nonzero" opacity="0.74" transform=" translate(-1136.3137, -1030.2084)" d="M 1371.72 933.582 C 1358.62 804.382 1232.02 729.782 1118.52 698.082 C 1113.52 696.682 1108.52 695.382 1103.42 694.082 C 1197.12 733.082 1284.32 802.382 1295.12 908.382 C 1302.12 977.282 1268.42 1041.98 1230.12 1096.78 C 1206.22 1130.88 1180.02 1163.28 1151.42 1193.48 C 1091.92 1256.38 987.016 1348.28 892.417 1347.88 C 1000.72 1427.78 1151.62 1299.38 1228.02 1218.68 C 1256.62 1188.48 1282.92 1156.08 1306.72 1121.98 C 1345.02 1067.18 1378.72 1002.48 1371.72 933.582 Z" stroke="none" fill="rgb(211, 11, 47)" transform-origin="">
                </path>
            </g>
            <g transform="matrix(1 0 0 1 -91.8212 -244.5925)" id="Layer_1" transform-origin="">
                <path stroke-width="1" stroke-dasharray="none" stroke-linecap="round" stroke-dashoffset="0" stroke-linejoin="miter" stroke-miterlimit="4" fill-rule="nonzero" opacity="1" transform=" translate(-908.1788, -755.4075)" d="M 909.716 784.482 C 909.117 784.782 895.617 792.182 886.617 785.682 C 878.417 779.782 879.917 766.582 880.117 764.882 C 882.917 742.582 913.516 723.982 923.617 730.582 C 933.817 737.282 929.317 773.482 909.716 784.482 Z" stroke="none" fill="rgb(255, 207, 99)" transform-origin="">
                </path>
            </g>
            <g transform="matrix(1 0 0 1 -91.8071 -244.64)" id="Layer_1" transform-origin="">
                <path stroke-width="1" stroke-dasharray="none" stroke-linecap="round" stroke-dashoffset="0" stroke-linejoin="miter" stroke-miterlimit="4" fill-rule="nonzero" opacity="1" transform=" translate(-908.1928, -755.36)" d="M 923.716 730.582 C 922.516 729.782 921.117 729.382 919.417 729.282 C 924.617 738.382 920.117 763.182 905.617 771.282 C 905.117 771.582 894.016 777.682 886.516 772.282 C 882.516 769.382 881.317 764.482 881.016 760.582 C 880.617 761.982 880.317 763.382 880.117 764.782 C 879.917 766.482 878.417 779.682 886.617 785.582 C 895.617 791.982 909.117 784.682 909.716 784.382 C 929.317 773.482 933.817 737.282 923.716 730.582 Z" stroke="none" fill="rgb(255, 176, 74)" transform-origin="">
                </path>
            </g>
            <g transform="matrix(1 0 0 1 -92.4172 -243.6237)" id="Layer_1" transform-origin="">
                <path stroke-width="1" stroke-dasharray="none" stroke-linecap="round" stroke-dashoffset="0" stroke-linejoin="miter" stroke-miterlimit="4" fill-rule="nonzero" opacity="1" transform=" translate(-907.5828, -756.3763)" d="M 912.516 789.382 L 911.716 789.782 L 911.016 790.182 C 910.516 790.382 910.117 790.682 909.617 790.882 C 908.716 791.282 907.716 791.682 906.817 792.082 C 904.917 792.782 902.917 793.382 900.817 793.882 C 898.716 794.282 896.516 794.582 894.117 794.382 C 891.817 794.282 889.317 793.782 887.016 792.782 C 884.617 791.882 882.516 790.282 880.716 788.482 C 880.317 787.982 879.917 787.582 879.417 787.082 L 878.317 785.582 C 877.917 785.082 877.716 784.582 877.417 783.982 C 877.117 783.482 876.817 782.882 876.617 782.382 C 875.617 780.282 875.117 778.082 874.716 775.982 C 874.317 773.882 874.216 771.782 874.216 769.682 C 874.216 765.682 875.016 761.282 876.417 757.382 C 877.817 753.482 879.917 749.982 882.216 746.782 C 884.516 743.582 887.216 740.782 890.117 738.182 C 893.016 735.582 896.117 733.282 899.417 731.382 C 902.716 729.382 906.216 727.682 910.016 726.482 C 911.917 725.882 913.917 725.382 916.117 725.182 C 918.317 724.982 920.617 724.982 923.117 725.782 C 923.716 725.982 924.417 726.182 925.016 726.582 L 925.917 727.082 C 926.216 727.282 926.516 727.482 926.817 727.682 C 927.417 728.082 927.917 728.582 928.317 729.082 C 928.817 729.582 929.117 730.082 929.516 730.582 C 930.917 732.682 931.716 734.782 932.216 736.782 C 932.817 738.782 933.117 740.882 933.216 742.782 C 933.417 744.782 933.417 746.682 933.317 748.682 C 933.216 752.582 932.617 756.382 931.716 760.082 C 930.817 763.782 929.617 767.482 928.016 771.082 C 926.417 774.682 924.417 778.082 921.817 781.282 C 919.317 784.282 916.216 787.182 912.516 789.382 Z M 907.016 779.682 C 909.516 778.382 911.716 776.482 913.817 774.282 C 915.817 771.982 917.516 769.382 919.016 766.582 C 922.016 760.982 923.817 754.482 924.417 748.082 C 924.516 746.482 924.617 744.882 924.516 743.382 C 924.417 741.782 924.216 740.282 923.917 738.882 C 923.617 737.482 923.016 736.282 922.516 735.382 C 922.317 735.182 922.216 734.982 922.117 734.782 C 922.016 734.582 921.817 734.482 921.716 734.382 C 921.617 734.382 921.617 734.282 921.516 734.182 C 921.417 734.182 921.317 734.082 921.317 734.082 C 921.216 733.982 920.917 733.982 920.716 733.882 C 919.917 733.582 918.617 733.582 917.216 733.682 C 915.817 733.882 914.417 734.182 912.917 734.682 C 910.016 735.682 907.117 737.182 904.417 738.982 C 901.716 740.782 899.216 742.882 896.917 745.082 C 894.617 747.382 892.516 749.782 890.817 752.482 C 889.117 755.082 887.716 757.882 886.817 760.682 C 885.917 763.582 885.617 766.282 885.716 769.282 C 885.817 772.282 886.417 775.082 887.417 777.282 C 888.516 779.482 889.917 780.782 891.716 781.482 C 892.617 781.882 893.716 782.082 894.917 782.182 C 896.117 782.282 897.417 782.182 898.817 782.082 C 900.216 781.882 901.617 781.582 903.117 781.082 C 903.817 780.882 904.516 780.582 905.216 780.282 C 905.516 780.182 905.917 779.982 906.216 779.882 L 907.016 779.682 Z" stroke="none" fill="rgb(65, 11, 9)" transform-origin="">
                </path>
            </g>
            <g transform="matrix(1 0 0 1 -112.6583 230.7961)" id="Layer_1" transform-origin="">
                <path stroke-width="1" stroke-dasharray="none" stroke-linecap="round" stroke-dashoffset="0" stroke-linejoin="miter" stroke-miterlimit="4" fill-rule="nonzero" opacity="1" transform=" translate(-887.3417, -1230.7961)" d="M 902.016 1252.68 C 901.716 1253.28 895.216 1267.18 884.216 1267.38 C 874.117 1267.48 867.417 1255.98 866.617 1254.48 C 855.617 1234.88 869.216 1201.68 881.216 1200.98 C 893.317 1200.38 911.216 1232.18 902.016 1252.68 Z" stroke="none" fill="rgb(255, 207, 99)" transform-origin="">
                </path>
            </g>
            <g transform="matrix(1 0 0 1 -111.5325 230.8946)" id="Layer_1" transform-origin="">
                <path stroke-width="1" stroke-dasharray="none" stroke-linecap="round" stroke-dashoffset="0" stroke-linejoin="miter" stroke-miterlimit="4" fill-rule="nonzero" opacity="1" transform=" translate(-888.4675, -1230.8946)" d="M 881.216 1201.08 C 879.817 1201.18 878.417 1201.68 877.016 1202.58 C 886.617 1206.78 897.716 1229.38 890.917 1244.58 C 890.716 1245.08 885.317 1256.58 876.216 1256.78 C 871.317 1256.88 867.417 1253.58 864.817 1250.68 C 865.317 1252.08 865.917 1253.38 866.617 1254.58 C 867.417 1256.08 874.117 1267.58 884.216 1267.48 C 895.317 1267.28 901.716 1253.38 902.016 1252.78 C 911.216 1232.18 893.317 1200.38 881.216 1201.08 Z" stroke="none" fill="rgb(255, 176, 74)" transform-origin="">
                </path>
            </g>
            <g transform="matrix(1 0 0 1 -112.6924 231.6101)" id="Layer_1" transform-origin="">
                <path stroke-width="1" stroke-dasharray="none" stroke-linecap="round" stroke-dashoffset="0" stroke-linejoin="miter" stroke-miterlimit="4" fill-rule="nonzero" opacity="1" transform=" translate(-887.3076, -1231.6101)" d="M 907.016 1254.98 L 906.617 1255.78 L 906.216 1256.48 C 906.016 1256.98 905.716 1257.38 905.516 1257.88 C 905.016 1258.78 904.516 1259.68 903.917 1260.48 C 902.817 1262.18 901.516 1263.88 900.117 1265.48 C 898.617 1267.08 897.016 1268.58 895.117 1269.88 C 893.117 1271.18 890.917 1272.28 888.417 1272.78 C 885.917 1273.38 883.317 1273.48 880.817 1272.98 C 880.216 1272.88 879.617 1272.68 878.917 1272.58 L 877.117 1271.98 C 876.516 1271.78 876.016 1271.48 875.417 1271.28 C 874.917 1270.98 874.317 1270.78 873.817 1270.48 C 871.716 1269.38 870.016 1267.88 868.516 1266.38 C 866.917 1264.88 865.617 1263.28 864.417 1261.68 C 862.016 1258.48 860.016 1254.48 858.917 1250.48 C 857.817 1246.48 857.317 1242.48 857.317 1238.58 C 857.317 1234.68 857.716 1230.78 858.516 1226.98 C 859.317 1223.18 860.417 1219.58 861.917 1215.98 C 863.317 1212.38 865.216 1208.98 867.516 1205.68 C 868.716 1204.08 870.016 1202.48 871.617 1200.98 C 873.216 1199.48 875.117 1198.08 877.617 1197.28 C 878.317 1197.08 878.917 1196.88 879.617 1196.78 L 880.716 1196.68 C 881.117 1196.68 881.417 1196.68 881.817 1196.68 C 882.516 1196.68 883.216 1196.78 883.817 1196.88 C 884.516 1196.98 885.117 1197.18 885.716 1197.38 C 888.117 1198.18 889.917 1199.48 891.617 1200.78 C 893.317 1202.08 894.716 1203.58 896.016 1205.08 C 897.317 1206.58 898.516 1208.18 899.617 1209.78 C 901.817 1212.98 903.617 1216.38 905.117 1219.88 C 906.617 1223.38 907.817 1227.08 908.617 1230.88 C 909.417 1234.68 909.817 1238.68 909.716 1242.78 C 909.516 1246.78 908.716 1250.98 907.016 1254.98 Z M 896.917 1250.38 C 898.117 1247.88 898.817 1244.98 899.117 1241.98 C 899.417 1238.98 899.216 1235.78 898.817 1232.68 C 897.817 1226.38 895.516 1220.08 892.117 1214.58 C 891.317 1213.18 890.417 1211.88 889.317 1210.68 C 888.317 1209.48 887.216 1208.38 886.117 1207.48 C 885.016 1206.58 883.817 1205.88 882.917 1205.48 C 882.716 1205.38 882.417 1205.28 882.216 1205.28 C 882.016 1205.28 881.817 1205.18 881.617 1205.18 C 881.516 1205.18 881.417 1205.18 881.317 1205.18 C 881.216 1205.18 881.117 1205.18 881.016 1205.18 C 880.817 1205.18 880.617 1205.28 880.417 1205.38 C 879.617 1205.68 878.516 1206.38 877.516 1207.28 C 876.516 1208.18 875.617 1209.38 874.716 1210.58 C 873.016 1213.18 871.516 1216.08 870.417 1219.08 C 869.317 1222.08 868.516 1225.28 868.016 1228.48 C 867.516 1231.68 867.317 1234.88 867.516 1238.08 C 867.716 1241.18 868.216 1244.28 869.216 1247.08 C 870.216 1249.88 871.516 1252.28 873.516 1254.68 C 875.317 1256.98 877.516 1258.98 879.716 1260.08 C 881.817 1261.18 883.817 1261.48 885.716 1260.88 C 886.716 1260.68 887.716 1260.18 888.716 1259.58 C 889.716 1258.98 890.817 1258.08 891.817 1257.18 C 892.817 1256.18 893.817 1255.08 894.617 1253.88 C 895.016 1253.28 895.516 1252.68 895.917 1251.98 C 896.117 1251.68 896.317 1251.38 896.516 1250.98 L 896.917 1250.38 Z" stroke="none" fill="rgb(65, 11, 9)" transform-origin="">
                </path>
            </g>
            <g transform="matrix(1 0 0 1 136.0814 -201.538)" id="Layer_1" transform-origin="">
                <path stroke-width="1" stroke-dasharray="none" stroke-linecap="round" stroke-dashoffset="0" stroke-linejoin="miter" stroke-miterlimit="4" fill-rule="nonzero" opacity="1" transform=" translate(-1136.0815, -798.462)" d="M 1145.02 825.482 C 1144.62 825.982 1133.82 836.982 1123.32 833.482 C 1113.72 830.282 1111.22 817.182 1110.92 815.482 C 1107.02 793.282 1130.82 766.582 1142.32 769.782 C 1154.02 773.182 1160.42 809.082 1145.02 825.482 Z" stroke="none" fill="rgb(255, 207, 99)" transform-origin="">
                </path>
            </g>
            <g transform="matrix(1 0 0 1 136.1584 -201.5887)" id="Layer_1" transform-origin="">
                <path stroke-width="1" stroke-dasharray="none" stroke-linecap="round" stroke-dashoffset="0" stroke-linejoin="miter" stroke-miterlimit="4" fill-rule="nonzero" opacity="1" transform=" translate(-1136.1584, -798.4113)" d="M 1142.42 769.782 C 1141.02 769.382 1139.52 769.482 1137.92 769.782 C 1145.62 776.882 1148.62 801.882 1137.22 813.982 C 1136.82 814.382 1128.02 823.482 1119.32 820.582 C 1114.62 818.982 1112.02 814.682 1110.62 811.082 C 1110.62 812.582 1110.82 813.982 1111.02 815.382 C 1111.32 817.082 1113.82 830.182 1123.42 833.382 C 1133.92 836.882 1144.62 825.882 1145.12 825.382 C 1160.42 809.082 1154.02 773.182 1142.42 769.782 Z" stroke="none" fill="rgb(255, 176, 74)" transform-origin="">
                </path>
            </g>
            <g transform="matrix(1 0 0 1 135.7961 -200.5483)" id="Layer_1" transform-origin="">
                <path stroke-width="1" stroke-dasharray="none" stroke-linecap="round" stroke-dashoffset="0" stroke-linejoin="miter" stroke-miterlimit="4" fill-rule="nonzero" opacity="1" transform=" translate(-1135.7961, -799.4517)" d="M 1149.02 829.282 L 1148.42 829.882 L 1147.82 830.482 C 1147.42 830.882 1147.02 831.182 1146.72 831.582 C 1145.92 832.282 1145.22 832.882 1144.32 833.582 C 1142.72 834.782 1141.02 835.982 1139.12 837.082 C 1137.22 838.082 1135.22 838.982 1132.92 839.582 C 1130.62 840.082 1128.22 840.482 1125.62 840.182 C 1123.12 839.982 1120.52 839.082 1118.32 837.882 C 1117.82 837.582 1117.22 837.282 1116.72 836.882 L 1115.22 835.782 C 1114.72 835.382 1114.32 834.982 1113.92 834.582 C 1113.52 834.182 1113.02 833.782 1112.72 833.282 C 1111.12 831.482 1110.02 829.582 1109.02 827.682 C 1108.02 825.782 1107.32 823.782 1106.72 821.882 C 1105.52 818.082 1104.92 813.582 1105.22 809.482 C 1105.42 805.382 1106.32 801.382 1107.62 797.682 C 1108.92 793.982 1110.62 790.482 1112.62 787.182 C 1114.62 783.882 1116.92 780.782 1119.42 777.882 C 1121.92 774.982 1124.82 772.382 1128.12 769.982 C 1129.82 768.882 1131.52 767.782 1133.52 766.882 C 1135.52 766.082 1137.72 765.382 1140.42 765.382 C 1141.12 765.382 1141.72 765.382 1142.42 765.582 L 1143.42 765.782 C 1143.72 765.882 1144.12 765.982 1144.42 766.082 C 1145.12 766.282 1145.72 766.682 1146.32 766.982 C 1146.92 767.282 1147.42 767.682 1147.92 768.082 C 1149.92 769.682 1151.22 771.482 1152.32 773.182 C 1153.42 774.982 1154.32 776.782 1155.02 778.682 C 1155.72 780.482 1156.32 782.382 1156.82 784.282 C 1157.82 787.982 1158.42 791.782 1158.72 795.682 C 1159.02 799.482 1158.92 803.382 1158.42 807.282 C 1157.92 811.182 1157.02 815.082 1155.52 818.782 C 1154.02 822.382 1151.92 826.082 1149.02 829.282 Z M 1140.92 821.582 C 1142.92 819.582 1144.52 817.182 1145.82 814.482 C 1147.02 811.682 1147.92 808.682 1148.52 805.582 C 1149.72 799.282 1149.62 792.582 1148.22 786.382 C 1147.92 784.782 1147.42 783.282 1146.92 781.782 C 1146.42 780.282 1145.72 778.982 1145.02 777.682 C 1144.32 776.482 1143.42 775.382 1142.62 774.782 C 1142.42 774.682 1142.22 774.482 1142.02 774.382 C 1141.82 774.282 1141.62 774.182 1141.52 774.082 C 1141.42 774.082 1141.32 773.982 1141.32 773.982 C 1141.22 773.982 1141.12 773.982 1141.02 773.982 C 1140.92 773.882 1140.62 773.982 1140.42 773.982 C 1139.52 773.982 1138.32 774.282 1137.02 774.882 C 1135.72 775.482 1134.52 776.182 1133.22 777.082 C 1130.72 778.882 1128.42 781.182 1126.42 783.682 C 1124.32 786.182 1122.52 788.882 1121.02 791.782 C 1119.52 794.682 1118.22 797.582 1117.32 800.582 C 1116.42 803.582 1115.92 806.682 1115.92 809.582 C 1115.92 812.582 1116.42 815.282 1117.42 818.182 C 1118.42 820.982 1119.82 823.582 1121.42 825.282 C 1123.12 827.082 1124.82 827.882 1126.82 828.082 C 1127.82 828.182 1128.92 828.082 1130.12 827.782 C 1131.32 827.582 1132.52 827.082 1133.82 826.482 C 1135.12 825.882 1136.32 825.182 1137.62 824.282 C 1138.22 823.882 1138.82 823.382 1139.42 822.882 C 1139.72 822.682 1140.02 822.382 1140.32 822.182 L 1140.92 821.582 Z" stroke="none" fill="rgb(65, 11, 9)" transform-origin="">
                </path>
            </g>
            <g transform="matrix(1 0 0 1 34.3968 62.562)" id="Layer_1" transform-origin="">
                <path stroke-width="1" stroke-dasharray="none" stroke-linecap="round" stroke-dashoffset="0" stroke-linejoin="miter" stroke-miterlimit="4" fill-rule="nonzero" opacity="1" transform=" translate(-1034.3968, -1062.562)" d="M 1043.32 1089.58 C 1042.92 1090.08 1032.12 1101.08 1021.62 1097.58 C 1012.02 1094.38 1009.52 1081.28 1009.22 1079.58 C 1005.32 1057.38 1029.12 1030.68 1040.62 1033.88 C 1052.42 1037.28 1058.72 1073.28 1043.32 1089.58 Z" stroke="none" fill="rgb(255, 207, 99)" transform-origin="">
                </path>
            </g>
            <g transform="matrix(1 0 0 1 34.4738 62.6113)" id="Layer_1" transform-origin="">
                <path stroke-width="1" stroke-dasharray="none" stroke-linecap="round" stroke-dashoffset="0" stroke-linejoin="miter" stroke-miterlimit="4" fill-rule="nonzero" opacity="1" transform=" translate(-1034.4738, -1062.6113)" d="M 1040.72 1033.98 C 1039.32 1033.58 1037.82 1033.68 1036.22 1033.98 C 1043.92 1041.08 1046.92 1066.08 1035.52 1078.18 C 1035.12 1078.58 1026.32 1087.68 1017.62 1084.78 C 1012.92 1083.18 1010.32 1078.88 1008.92 1075.28 C 1008.92 1076.78 1009.12 1078.18 1009.32 1079.58 C 1009.62 1081.28 1012.12 1094.38 1021.72 1097.58 C 1032.22 1101.08 1042.92 1090.08 1043.42 1089.58 C 1058.72 1073.28 1052.42 1037.28 1040.72 1033.98 Z" stroke="none" fill="rgb(255, 176, 74)" transform-origin="">
                </path>
            </g>
            <g transform="matrix(1 0 0 1 34.0961 63.6517)" id="Layer_1" transform-origin="">
                <path stroke-width="1" stroke-dasharray="none" stroke-linecap="round" stroke-dashoffset="0" stroke-linejoin="miter" stroke-miterlimit="4" fill-rule="nonzero" opacity="1" transform=" translate(-1034.0961, -1063.6517)" d="M 1047.32 1093.48 L 1046.72 1094.08 L 1046.12 1094.68 C 1045.72 1095.08 1045.32 1095.38 1045.02 1095.78 C 1044.22 1096.48 1043.52 1097.08 1042.62 1097.78 C 1041.02 1098.98 1039.32 1100.18 1037.42 1101.28 C 1035.52 1102.28 1033.52 1103.18 1031.22 1103.78 C 1028.92 1104.28 1026.52 1104.68 1023.92 1104.38 C 1021.42 1104.18 1018.82 1103.28 1016.62 1102.08 C 1016.12 1101.78 1015.52 1101.48 1015.02 1101.08 L 1013.52 1099.98 C 1013.02 1099.58 1012.62 1099.18 1012.22 1098.78 C 1011.82 1098.38 1011.32 1097.98 1011.02 1097.48 C 1009.42 1095.68 1008.32 1093.78 1007.32 1091.88 C 1006.32 1089.98 1005.62 1087.98 1005.02 1086.08 C 1003.82 1082.28 1003.22 1077.78 1003.52 1073.68 C 1003.72 1069.58 1004.62 1065.58 1005.92 1061.88 C 1007.22 1058.18 1008.92 1054.68 1010.92 1051.38 C 1012.92 1048.08 1015.22 1044.98 1017.72 1042.08 C 1020.22 1039.18 1023.12 1036.58 1026.42 1034.18 C 1028.12 1033.08 1029.82 1031.98 1031.82 1031.08 C 1033.82 1030.28 1036.02 1029.58 1038.72 1029.58 C 1039.42 1029.58 1040.02 1029.58 1040.72 1029.78 L 1041.72 1029.98 C 1042.02 1030.08 1042.42 1030.18 1042.72 1030.28 C 1043.42 1030.48 1044.02 1030.88 1044.62 1031.18 C 1045.22 1031.48 1045.72 1031.88 1046.22 1032.28 C 1048.22 1033.88 1049.52 1035.68 1050.62 1037.38 C 1051.72 1039.18 1052.62 1040.98 1053.32 1042.88 C 1054.02 1044.68 1054.62 1046.58 1055.12 1048.48 C 1056.12 1052.18 1056.72 1055.98 1057.02 1059.88 C 1057.32 1063.68 1057.22 1067.58 1056.72 1071.48 C 1056.22 1075.38 1055.32 1079.28 1053.82 1082.98 C 1052.42 1086.58 1050.22 1090.28 1047.32 1093.48 Z M 1039.22 1085.78 C 1041.22 1083.78 1042.82 1081.38 1044.12 1078.68 C 1045.32 1075.88 1046.22 1072.88 1046.82 1069.78 C 1048.02 1063.48 1047.92 1056.78 1046.52 1050.58 C 1046.22 1048.98 1045.72 1047.48 1045.22 1045.98 C 1044.72 1044.48 1044.02 1043.18 1043.32 1041.88 C 1042.62 1040.68 1041.72 1039.58 1040.92 1038.98 C 1040.72 1038.88 1040.52 1038.68 1040.32 1038.58 C 1040.12 1038.48 1039.92 1038.38 1039.82 1038.28 C 1039.72 1038.28 1039.62 1038.18 1039.62 1038.18 C 1039.52 1038.18 1039.42 1038.18 1039.32 1038.18 C 1039.22 1038.08 1038.92 1038.18 1038.72 1038.18 C 1037.82 1038.18 1036.62 1038.48 1035.32 1039.08 C 1034.02 1039.68 1032.82 1040.38 1031.52 1041.28 C 1029.02 1043.08 1026.72 1045.38 1024.72 1047.88 C 1022.62 1050.38 1020.82 1053.08 1019.32 1055.98 C 1017.82 1058.88 1016.52 1061.78 1015.62 1064.78 C 1014.72 1067.78 1014.22 1070.88 1014.22 1073.78 C 1014.22 1076.78 1014.72 1079.48 1015.72 1082.38 C 1016.72 1085.18 1018.12 1087.78 1019.72 1089.48 C 1021.42 1091.28 1023.12 1092.08 1025.12 1092.28 C 1026.12 1092.38 1027.22 1092.28 1028.42 1091.98 C 1029.62 1091.78 1030.82 1091.28 1032.12 1090.68 C 1033.42 1090.08 1034.62 1089.38 1035.92 1088.48 C 1036.52 1088.08 1037.12 1087.58 1037.72 1087.08 C 1038.02 1086.88 1038.32 1086.58 1038.62 1086.38 L 1039.22 1085.78 Z" stroke="none" fill="rgb(65, 11, 9)" transform-origin="">
                </path>
            </g>
            <g transform="matrix(1 0 0 1 294.9949 -56.8005)" id="Layer_1" transform-origin="">
                <path stroke-width="1" stroke-dasharray="none" stroke-linecap="round" stroke-dashoffset="0" stroke-linejoin="miter" stroke-miterlimit="4" fill-rule="nonzero" opacity="1" transform=" translate(-1294.9949, -943.1995)" d="M 1307.12 967.882 C 1306.72 968.382 1298.02 981.082 1287.12 979.482 C 1277.12 977.982 1272.42 965.482 1271.92 963.882 C 1264.32 942.682 1283.12 912.282 1295.12 913.582 C 1307.12 914.782 1319.52 949.182 1307.12 967.882 Z" stroke="none" fill="rgb(255, 207, 99)" transform-origin="">
                </path>
            </g>
            <g transform="matrix(1 0 0 1 295.3232 -56.8338)" id="Layer_1" transform-origin="">
                <path stroke-width="1" stroke-dasharray="none" stroke-linecap="round" stroke-dashoffset="0" stroke-linejoin="miter" stroke-miterlimit="4" fill-rule="nonzero" opacity="1" transform=" translate(-1295.3232, -943.1662)" d="M 1295.12 913.482 C 1293.72 913.382 1292.22 913.582 1290.72 914.282 C 1299.52 919.982 1306.72 944.182 1297.52 957.982 C 1297.22 958.382 1290.02 968.882 1281.02 967.582 C 1276.12 966.882 1272.82 962.982 1270.82 959.682 C 1271.12 961.082 1271.52 962.482 1271.92 963.882 C 1272.52 965.482 1277.12 977.982 1287.12 979.482 C 1298.02 981.182 1306.72 968.482 1307.12 967.882 C 1319.52 949.182 1307.12 914.782 1295.12 913.482 Z" stroke="none" fill="rgb(255, 176, 74)" transform-origin="">
                </path>
            </g>
            <g transform="matrix(1 0 0 1 294.8038 -56.2745)" id="Layer_1" transform-origin="">
                <path stroke-width="1" stroke-dasharray="none" stroke-linecap="round" stroke-dashoffset="0" stroke-linejoin="miter" stroke-miterlimit="4" fill-rule="nonzero" opacity="1" transform=" translate(-1294.8038, -943.7255)" d="M 1311.72 970.882 L 1311.22 971.582 L 1310.72 972.182 C 1310.42 972.582 1310.12 972.982 1309.82 973.382 C 1309.22 974.182 1308.52 974.982 1307.82 975.682 C 1306.42 977.182 1304.92 978.682 1303.22 979.982 C 1301.52 981.282 1299.72 982.482 1297.52 983.482 C 1295.42 984.382 1293.02 985.082 1290.42 985.282 C 1287.92 985.482 1285.22 985.082 1282.82 984.282 C 1282.22 984.082 1281.62 983.782 1281.02 983.582 L 1279.42 982.682 C 1278.82 982.382 1278.42 982.082 1277.92 981.682 C 1277.42 981.382 1276.92 980.982 1276.52 980.582 C 1274.72 979.082 1273.22 977.382 1271.92 975.682 C 1270.62 973.982 1269.52 972.182 1268.62 970.282 C 1266.72 966.682 1265.52 962.382 1265.02 958.382 C 1264.52 954.282 1264.82 950.282 1265.42 946.382 C 1266.02 942.482 1267.12 938.782 1268.52 935.182 C 1269.92 931.582 1271.62 928.182 1273.62 924.882 C 1275.62 921.582 1278.02 918.482 1280.82 915.682 C 1282.22 914.282 1283.82 912.882 1285.62 911.782 C 1287.42 910.582 1289.52 909.582 1292.12 909.082 C 1292.82 908.982 1293.42 908.882 1294.12 908.882 L 1295.22 908.882 C 1295.62 908.882 1295.92 908.982 1296.32 909.082 C 1297.02 909.182 1297.72 909.382 1298.32 909.682 C 1299.02 909.882 1299.52 910.182 1300.12 910.482 C 1302.32 911.682 1303.92 913.182 1305.32 914.782 C 1306.72 916.382 1307.92 917.982 1308.92 919.682 C 1309.92 921.382 1310.92 923.082 1311.72 924.882 C 1313.32 928.382 1314.62 932.082 1315.52 935.782 C 1316.42 939.482 1317.02 943.282 1317.22 947.282 C 1317.42 951.182 1317.12 955.182 1316.32 959.182 C 1315.52 963.282 1314.02 967.282 1311.72 970.882 Z M 1302.42 964.782 C 1304.02 962.482 1305.22 959.782 1306.02 956.882 C 1306.82 953.982 1307.12 950.882 1307.22 947.682 C 1307.32 941.282 1306.02 934.682 1303.62 928.782 C 1303.02 927.282 1302.32 925.882 1301.52 924.482 C 1300.72 923.082 1299.92 921.882 1298.92 920.782 C 1298.02 919.682 1296.92 918.782 1296.02 918.282 C 1295.82 918.182 1295.52 917.982 1295.32 917.982 C 1295.12 917.882 1294.92 917.782 1294.72 917.782 C 1294.62 917.782 1294.52 917.782 1294.42 917.682 C 1294.32 917.682 1294.22 917.682 1294.12 917.682 C 1293.92 917.682 1293.72 917.682 1293.52 917.782 C 1292.62 917.882 1291.52 918.482 1290.32 919.182 C 1289.22 919.982 1288.02 920.882 1287.02 921.982 C 1284.92 924.182 1283.02 926.882 1281.42 929.682 C 1279.82 932.482 1278.52 935.482 1277.52 938.582 C 1276.52 941.682 1275.72 944.782 1275.42 947.882 C 1275.12 950.982 1275.12 954.082 1275.62 956.982 C 1276.12 959.882 1277.12 962.482 1278.52 965.182 C 1279.92 967.782 1281.82 970.082 1283.72 971.482 C 1285.62 972.982 1287.52 973.482 1289.52 973.282 C 1290.52 973.282 1291.52 972.882 1292.72 972.482 C 1293.82 972.082 1295.02 971.382 1296.12 970.582 C 1297.22 969.782 1298.42 968.782 1299.42 967.782 C 1299.92 967.282 1300.52 966.682 1300.92 966.182 C 1301.12 965.882 1301.42 965.582 1301.62 965.382 L 1302.42 964.782 Z" stroke="none" fill="rgb(65, 11, 9)" transform-origin="">
                </path>
            </g>
            <g transform="matrix(1 0 0 1 64.3773 245.6148)" id="Layer_1" transform-origin="">
                <path stroke-width="1" stroke-dasharray="none" stroke-linecap="round" stroke-dashoffset="0" stroke-linejoin="miter" stroke-miterlimit="4" fill-rule="nonzero" opacity="1" transform=" translate(-1064.3773, -1245.6148)" d="M 1063.02 1274.78 C 1062.42 1275.08 1048.22 1280.98 1039.92 1273.58 C 1032.42 1266.88 1035.22 1253.88 1035.62 1252.18 C 1040.82 1230.28 1073.22 1215.08 1082.52 1222.68 C 1092.02 1230.38 1083.62 1265.98 1063.02 1274.78 Z" stroke="none" fill="rgb(255, 207, 99)" transform-origin="">
                </path>
            </g>
            <g transform="matrix(1 0 0 1 64.4816 245.7558)" id="Layer_1" transform-origin="">
                <path stroke-width="1" stroke-dasharray="none" stroke-linecap="round" stroke-dashoffset="0" stroke-linejoin="miter" stroke-miterlimit="4" fill-rule="nonzero" opacity="1" transform=" translate(-1064.4816, -1245.7558)" d="M 1082.62 1222.68 C 1081.52 1221.78 1080.12 1221.18 1078.52 1220.98 C 1082.72 1230.58 1075.62 1254.78 1060.42 1261.28 C 1059.92 1261.48 1048.22 1266.38 1041.32 1260.28 C 1037.62 1256.98 1037.02 1251.98 1037.12 1248.08 C 1036.62 1249.38 1036.12 1250.78 1035.82 1252.18 C 1035.42 1253.88 1032.52 1266.78 1040.12 1273.58 C 1048.32 1280.98 1062.62 1275.08 1063.22 1274.78 C 1083.62 1265.98 1092.02 1230.38 1082.62 1222.68 Z" stroke="none" fill="rgb(255, 176, 74)" transform-origin="">
                </path>
            </g>
            <g transform="matrix(1 0 0 1 63.8201 246.3157)" id="Layer_1" transform-origin="">
                <path stroke-width="1" stroke-dasharray="none" stroke-linecap="round" stroke-dashoffset="0" stroke-linejoin="miter" stroke-miterlimit="4" fill-rule="nonzero" opacity="1" transform=" translate(-1063.8201, -1246.3157)" d="M 1065.22 1279.98 L 1064.42 1280.28 L 1063.72 1280.58 C 1063.22 1280.78 1062.72 1280.98 1062.22 1281.08 C 1061.22 1281.38 1060.32 1281.68 1059.32 1281.98 C 1057.32 1282.48 1055.32 1282.88 1053.12 1283.08 C 1050.92 1283.28 1048.72 1283.28 1046.42 1282.88 C 1044.12 1282.48 1041.72 1281.78 1039.52 1280.48 C 1037.22 1279.28 1035.32 1277.48 1033.72 1275.48 C 1033.32 1274.98 1033.02 1274.48 1032.62 1273.98 L 1031.72 1272.38 C 1031.42 1271.88 1031.22 1271.28 1031.02 1270.68 C 1030.82 1270.08 1030.52 1269.58 1030.42 1268.98 C 1029.72 1266.78 1029.42 1264.58 1029.22 1262.38 C 1029.12 1260.18 1029.12 1258.18 1029.42 1256.08 C 1029.82 1252.08 1031.12 1247.78 1032.92 1244.08 C 1034.72 1240.38 1037.12 1237.08 1039.82 1234.18 C 1042.42 1231.28 1045.42 1228.68 1048.52 1226.48 C 1051.62 1224.18 1054.92 1222.28 1058.42 1220.68 C 1061.92 1218.98 1065.52 1217.68 1069.52 1216.88 C 1071.52 1216.48 1073.52 1216.18 1075.72 1216.18 C 1077.92 1216.18 1080.22 1216.48 1082.62 1217.48 C 1083.22 1217.78 1083.82 1218.08 1084.42 1218.48 L 1085.32 1219.08 C 1085.62 1219.28 1085.82 1219.58 1086.12 1219.78 C 1086.62 1220.28 1087.12 1220.78 1087.52 1221.38 C 1087.92 1221.88 1088.22 1222.48 1088.52 1222.98 C 1089.72 1225.18 1090.22 1227.38 1090.52 1229.48 C 1090.82 1231.58 1090.92 1233.58 1090.92 1235.58 C 1090.82 1237.58 1090.72 1239.48 1090.42 1241.48 C 1089.82 1245.28 1088.92 1249.08 1087.62 1252.68 C 1086.32 1256.28 1084.82 1259.88 1082.82 1263.18 C 1080.82 1266.58 1078.42 1269.78 1075.62 1272.68 C 1072.52 1275.58 1069.12 1278.18 1065.22 1279.98 Z M 1060.82 1269.68 C 1063.42 1268.68 1065.82 1267.08 1068.12 1265.08 C 1070.32 1263.08 1072.32 1260.58 1074.12 1257.98 C 1077.62 1252.68 1080.22 1246.48 1081.42 1240.18 C 1081.72 1238.58 1081.92 1236.98 1082.02 1235.48 C 1082.12 1233.88 1082.02 1232.38 1081.82 1230.98 C 1081.62 1229.58 1081.22 1228.28 1080.72 1227.38 C 1080.62 1227.18 1080.52 1226.88 1080.32 1226.78 C 1080.22 1226.58 1080.12 1226.38 1079.92 1226.38 C 1079.82 1226.28 1079.82 1226.28 1079.72 1226.18 C 1079.62 1226.18 1079.52 1226.08 1079.52 1226.08 C 1079.42 1225.98 1079.22 1225.88 1079.02 1225.78 C 1078.22 1225.38 1076.92 1225.18 1075.62 1225.28 C 1074.22 1225.28 1072.72 1225.48 1071.32 1225.78 C 1068.32 1226.48 1065.32 1227.68 1062.42 1229.18 C 1059.52 1230.68 1056.82 1232.48 1054.32 1234.48 C 1051.82 1236.48 1049.42 1238.68 1047.42 1241.18 C 1045.42 1243.58 1043.72 1246.18 1042.62 1248.98 C 1041.42 1251.78 1040.82 1254.38 1040.62 1257.48 C 1040.42 1260.48 1040.72 1263.38 1041.52 1265.58 C 1042.32 1267.88 1043.62 1269.38 1045.32 1270.28 C 1046.12 1270.78 1047.22 1271.08 1048.42 1271.28 C 1049.62 1271.58 1050.92 1271.58 1052.32 1271.58 C 1053.72 1271.48 1055.22 1271.38 1056.62 1271.08 C 1057.32 1270.88 1058.12 1270.78 1058.82 1270.58 C 1059.22 1270.48 1059.52 1270.38 1059.92 1270.28 L 1060.82 1269.68 Z" stroke="none" fill="rgb(65, 11, 9)" transform-origin="">
                </path>
            </g>
            <g transform="matrix(1 0 0 1 219.3278 108.5784)" id="Layer_1" transform-origin="">
                <path stroke-width="1" stroke-dasharray="none" stroke-linecap="round" stroke-dashoffset="0" stroke-linejoin="miter" stroke-miterlimit="4" fill-rule="nonzero" opacity="1" transform=" translate(-1219.3278, -1108.5784)" d="M 1223.92 1137.08 C 1223.42 1137.48 1210.82 1146.38 1201.22 1141.08 C 1192.32 1136.18 1192.32 1122.88 1192.32 1121.18 C 1192.52 1098.68 1220.62 1076.58 1231.42 1081.98 C 1242.32 1087.28 1242.12 1123.88 1223.92 1137.08 Z" stroke="none" fill="rgb(255, 207, 99)" transform-origin="">
                </path>
            </g>
            <g transform="matrix(1 0 0 1 219.3278 108.6303)" id="Layer_1" transform-origin="">
                <path stroke-width="1" stroke-dasharray="none" stroke-linecap="round" stroke-dashoffset="0" stroke-linejoin="miter" stroke-miterlimit="4" fill-rule="nonzero" opacity="1" transform=" translate(-1219.3278, -1108.6304)" d="M 1231.42 1081.98 C 1230.12 1081.38 1228.62 1081.08 1227.02 1081.18 C 1233.32 1089.58 1231.72 1114.68 1218.32 1124.58 C 1217.92 1124.88 1207.52 1132.28 1199.52 1127.88 C 1195.22 1125.48 1193.42 1120.78 1192.72 1116.98 C 1192.52 1118.38 1192.32 1119.88 1192.32 1121.28 C 1192.32 1122.98 1192.42 1136.28 1201.22 1141.18 C 1210.92 1146.48 1223.42 1137.58 1223.92 1137.18 C 1242.12 1123.88 1242.32 1087.28 1231.42 1081.98 Z" stroke="none" fill="rgb(255, 176, 74)" transform-origin="">
                </path>
            </g>
            <g transform="matrix(1 0 0 1 218.7668 109.1375)" id="Layer_1" transform-origin="">
                <path stroke-width="1" stroke-dasharray="none" stroke-linecap="round" stroke-dashoffset="0" stroke-linejoin="miter" stroke-miterlimit="4" fill-rule="nonzero" opacity="1" transform=" translate(-1218.7668, -1109.1375)" d="M 1227.22 1141.58 L 1226.52 1142.08 L 1225.82 1142.48 C 1225.42 1142.78 1224.92 1143.08 1224.52 1143.28 C 1223.62 1143.78 1222.72 1144.28 1221.82 1144.78 C 1220.02 1145.68 1218.12 1146.58 1216.02 1147.28 C 1213.92 1147.88 1211.82 1148.48 1209.42 1148.58 C 1207.12 1148.68 1204.62 1148.58 1202.12 1147.78 C 1199.62 1147.08 1197.32 1145.78 1195.42 1144.18 C 1194.92 1143.78 1194.42 1143.38 1194.02 1142.88 L 1192.82 1141.48 C 1192.42 1140.98 1192.02 1140.48 1191.72 1140.08 C 1191.42 1139.58 1191.02 1139.08 1190.72 1138.58 C 1189.52 1136.58 1188.72 1134.48 1188.12 1132.38 C 1187.52 1130.28 1187.12 1128.28 1186.92 1126.18 C 1186.42 1122.18 1186.72 1117.68 1187.62 1113.78 C 1188.62 1109.78 1190.22 1106.08 1192.12 1102.58 C 1194.02 1099.18 1196.32 1095.98 1198.92 1093.08 C 1201.42 1090.18 1204.22 1087.58 1207.32 1085.18 C 1210.32 1082.78 1213.62 1080.68 1217.22 1078.98 C 1219.02 1078.18 1221.02 1077.38 1223.12 1076.98 C 1225.22 1076.48 1227.52 1076.18 1230.22 1076.68 C 1230.92 1076.88 1231.52 1076.98 1232.22 1077.28 L 1233.22 1077.68 C 1233.52 1077.88 1233.82 1077.98 1234.12 1078.18 C 1234.72 1078.58 1235.32 1078.98 1235.82 1079.38 C 1236.32 1079.78 1236.72 1080.28 1237.22 1080.78 C 1238.82 1082.68 1239.82 1084.68 1240.62 1086.58 C 1241.42 1088.58 1241.92 1090.48 1242.32 1092.48 C 1242.72 1094.48 1243.02 1096.38 1243.12 1098.28 C 1243.42 1102.18 1243.32 1105.98 1242.92 1109.78 C 1242.52 1113.58 1241.72 1117.38 1240.52 1121.08 C 1239.32 1124.78 1237.72 1128.48 1235.62 1131.88 C 1233.42 1135.78 1230.62 1138.98 1227.22 1141.58 Z M 1220.62 1132.58 C 1222.92 1130.98 1224.92 1128.88 1226.72 1126.38 C 1228.42 1123.88 1229.82 1121.08 1231.02 1118.08 C 1233.32 1112.18 1234.42 1105.48 1234.12 1099.08 C 1234.02 1097.48 1233.92 1095.88 1233.62 1094.38 C 1233.32 1092.88 1233.02 1091.38 1232.42 1090.08 C 1231.92 1088.78 1231.22 1087.58 1230.52 1086.78 C 1230.32 1086.58 1230.22 1086.38 1230.02 1086.28 C 1229.82 1086.18 1229.72 1085.98 1229.52 1085.98 C 1229.42 1085.98 1229.42 1085.88 1229.32 1085.88 C 1229.22 1085.88 1229.12 1085.78 1229.12 1085.78 C 1229.02 1085.68 1228.72 1085.68 1228.52 1085.58 C 1227.62 1085.38 1226.42 1085.48 1225.02 1085.88 C 1223.72 1086.18 1222.32 1086.78 1220.92 1087.38 C 1218.12 1088.78 1215.52 1090.58 1213.02 1092.68 C 1210.52 1094.78 1208.32 1097.18 1206.22 1099.68 C 1204.22 1102.18 1202.42 1104.88 1201.02 1107.68 C 1199.62 1110.48 1198.52 1113.38 1198.02 1116.28 C 1197.52 1119.18 1197.52 1121.98 1198.02 1124.98 C 1198.52 1127.88 1199.42 1130.68 1200.72 1132.68 C 1202.02 1134.68 1203.62 1135.88 1205.52 1136.38 C 1206.42 1136.68 1207.62 1136.78 1208.72 1136.68 C 1209.92 1136.68 1211.22 1136.38 1212.62 1136.08 C 1214.02 1135.68 1215.32 1135.18 1216.72 1134.58 C 1217.42 1134.28 1218.12 1133.98 1218.72 1133.58 C 1219.02 1133.38 1219.42 1133.18 1219.72 1133.08 L 1220.62 1132.58 Z" stroke="none" fill="rgb(65, 11, 9)" transform-origin="">
                </path>
            </g>
            <g transform="matrix(1 0 0 1 58.8662 20.8101)" id="Layer_1" transform-origin="">
                <path stroke-width="17.9247" stroke-dasharray="none" stroke-linecap="round" stroke-dashoffset="0" stroke-linejoin="round" stroke-miterlimit="10" fill-rule="nonzero" opacity="1" transform=" translate(-1058.8662, -1020.81)" d="M 895.117 686.182 C 867.417 695.282 841.917 710.482 819.317 733.582 C 718.216 837.182 724.817 1003.38 765.016 1132.18 C 785.917 1198.88 817.617 1262.38 861.117 1317.28 C 969.516 1454.08 1143.82 1307.48 1227.92 1218.68 C 1256.52 1188.48 1282.82 1156.08 1306.62 1121.98 C 1344.92 1067.18 1378.62 1002.48 1371.62 933.582 C 1358.52 804.382 1231.92 729.782 1118.42 698.082 C 1081.22 687.682 1042.72 681.182 1004.32 677.182 C 966.016 673.182 929.016 675.082 895.117 686.182 Z" stroke="rgb(65, 11, 9)" fill="none" transform-origin="">
                </path>
            </g>
            <g transform="matrix(1 0 0 1 110.8998 -381.4846)" id="Layer_1" transform-origin="">
                <path stroke-width="17.9247" stroke-dasharray="none" stroke-linecap="round" stroke-dashoffset="0" stroke-linejoin="round" stroke-miterlimit="10" fill-rule="nonzero" opacity="1" transform=" translate(-1110.8997, -618.5154)" d="M 961.417 671.682 C 945.516 665.682 935.216 649.882 930.117 633.782 C 918.317 596.782 930.016 553.482 958.817 527.382 C 960.016 526.282 961.317 525.182 962.917 524.882 C 969.216 523.582 977.917 540.982 981.317 545.482 C 988.016 554.182 995.117 562.482 1003.12 569.982 C 1014.62 580.682 1027.72 589.582 1039.02 600.482 C 1051.22 612.382 1061.02 626.582 1067.72 642.282 C 1083.32 625.682 1104.42 614.982 1126.32 609.082 C 1148.32 603.182 1171.32 601.982 1194.02 602.282 C 1206.82 602.482 1219.72 603.082 1232.52 602.082 C 1251.72 600.582 1270.72 595.482 1288.12 587.082 C 1289.62 596.182 1287.82 605.482 1285.52 614.382 C 1279.22 638.882 1269.12 662.682 1252.82 682.082 C 1236.62 701.382 1213.72 715.882 1188.72 718.982" stroke="rgb(65, 11, 9)" fill="none" transform-origin="">
                </path>
            </g>
            <g transform="matrix(1 0 0 1 410.3501 -204.6463)" id="Layer_1" transform-origin="">
                <path stroke-width="17.9247" stroke-dasharray="none" stroke-linecap="round" stroke-dashoffset="0" stroke-linejoin="round" stroke-miterlimit="10" fill-rule="nonzero" opacity="1" transform=" translate(-1410.35, -795.3538)" d="M 1359.42 746.282 C 1362.22 746.782 1367.02 747.682 1372.82 749.282 C 1402.12 757.082 1412.62 768.982 1436.02 775.682 C 1443.62 777.882 1454.82 780.282 1469.32 780.382 C 1466.22 788.282 1450.92 823.982 1410.82 841.782 C 1381.12 854.982 1354.02 851.082 1343.82 848.982" stroke="rgb(65, 11, 9)" fill="none" transform-origin="">
                </path>
            </g>
            <g transform="matrix(1 0 0 1 -129.518 -379.8499)" id="Layer_1" transform-origin="">
                <path stroke-width="17.9247" stroke-dasharray="none" stroke-linecap="round" stroke-dashoffset="0" stroke-linejoin="round" stroke-miterlimit="10" fill-rule="nonzero" opacity="1" transform=" translate(-870.482, -620.15)" d="M 925.817 611.882 C 917.516 606.382 904.417 598.682 887.317 592.082 C 872.417 586.382 865.516 585.782 852.917 580.782 C 842.117 576.482 827.117 568.982 810.716 554.682 C 807.617 567.682 807.216 578.982 807.817 588.182 C 812.216 649.182 868.417 685.882 878.617 692.382" stroke="rgb(65, 11, 9)" fill="none" transform-origin="">
                </path>
            </g>
            <g transform="matrix(1 0 0 1 333.4499 -280.7022)" id="Layer_1" transform-origin="">
                <path stroke-width="17.9247" stroke-dasharray="none" stroke-linecap="round" stroke-dashoffset="0" stroke-linejoin="round" stroke-miterlimit="10" fill-rule="nonzero" opacity="1" transform=" translate(-1333.45, -719.2978)" d="M 1257.42 676.282 C 1264.32 674.582 1274.52 672.682 1287.02 672.882 C 1296.82 673.082 1301.12 674.482 1318.62 677.882 C 1342.72 682.482 1354.82 683.682 1368.92 684.982 C 1380.02 686.082 1391.82 686.582 1401.92 681.982 C 1400.72 685.482 1398.92 690.782 1396.12 696.882 C 1391.52 706.882 1375.02 742.782 1335.72 761.382 C 1310.82 773.182 1287.12 773.182 1273.62 771.982" stroke="rgb(65, 11, 9)" fill="none" transform-origin="">
                </path>
            </g>
            <g transform="matrix(1 0 0 1 163.2098 -441.9222)" id="Layer_1" transform-origin="">
                <path stroke-width="17.9247" stroke-dasharray="none" stroke-linecap="round" stroke-dashoffset="0" stroke-linejoin="round" stroke-miterlimit="10" fill-rule="nonzero" opacity="1" transform=" translate(-1163.2098, -558.0778)" d="M 1117.32 608.782 C 1121.32 586.682 1129.12 565.182 1140.32 545.782 C 1145.32 537.082 1151.02 528.882 1156.72 520.682 C 1158.72 517.782 1161.22 514.582 1164.72 514.182 C 1166.62 513.982 1168.42 514.482 1170.22 515.182 C 1182.92 519.882 1193.92 528.882 1201.02 540.382 C 1201.32 540.782 1201.62 541.282 1201.52 541.882 C 1201.52 542.482 1201.02 542.982 1200.72 543.482 C 1184.82 561.582 1170.22 580.882 1157.02 601.082" stroke="rgb(65, 11, 9)" fill="none" transform-origin="">
                </path>
            </g>
            <g transform="matrix(1 0 0 1 64.4001 -343.1)" id="Layer_1" transform-origin="">
                <path stroke-width="17.9247" stroke-dasharray="none" stroke-linecap="round" stroke-dashoffset="0" stroke-linejoin="round" stroke-miterlimit="10" fill-rule="nonzero" opacity="1" transform=" translate(-1064.4, -656.9)" d="M 1067.72 642.182 C 1065.22 645.482 1062.42 649.682 1060.02 654.782 C 1055.72 663.982 1054.12 672.382 1053.52 678.382" stroke="rgb(65, 11, 9)" fill="none" transform-origin="">
                </path>
            </g>
            <g transform="matrix(1 0 0 1 -88.45 -169.3)" id="Layer_1" transform-origin="">
                <path stroke-width="13.1352" stroke-dasharray="none" stroke-linecap="round" stroke-dashoffset="0" stroke-linejoin="round" stroke-miterlimit="10" fill-rule="nonzero" opacity="1" transform=" translate(-911.55, -830.7)" d="M 917.317 842.982 C 909.016 839.582 901.317 833.582 898.216 825.182" stroke="rgb(65, 11, 9)" fill="none" transform-origin="">
                </path>
            </g>
            <g transform="matrix(1 0 0 1 -103.15 -153)" id="Layer_1" transform-origin="">
                <path stroke-width="13.1352" stroke-dasharray="none" stroke-linecap="round" stroke-dashoffset="0" stroke-linejoin="round" stroke-miterlimit="10" fill-rule="nonzero" opacity="1" transform=" translate(-896.85, -847)" d="M 904.417 855.082 C 901.317 855.082 895.716 854.782 889.617 851.582 C 886.016 849.682 883.417 847.482 881.716 845.682" stroke="rgb(65, 11, 9)" fill="none" transform-origin="">
                </path>
            </g>
            <g transform="matrix(0.3088000118732452,-0.95110023021698,0.95110023021698,0.3088000118732452,-106.73583649190915,-74.43511313199997)" id="Layer_1" transform-origin="">
                <ellipse stroke-width="1" stroke-dasharray="none" stroke-linecap="butt" stroke-dashoffset="0" stroke-linejoin="miter" stroke-miterlimit="4" fill-rule="nonzero" opacity="1" cx="0" cy="0" rx="17.3" ry="27.5" stroke="none" fill="rgb(254, 166, 164)" transform="">
                </ellipse>
            </g>
            <g transform="matrix(0.3088000118732452,-0.95110023021698,0.95110023021698,0.3088000118732452,-77.16463898214352,-124.07371634244919)" id="Layer_1" transform-origin="">
                <ellipse stroke-width="1" stroke-dasharray="none" stroke-linecap="butt" stroke-dashoffset="0" stroke-linejoin="miter" stroke-miterlimit="4" fill-rule="nonzero" opacity="1" cx="0" cy="0" rx="43.5" ry="37.4" stroke="none" fill="rgb(65, 11, 9)" transform="">
                </ellipse>
            </g>
            <g transform="matrix(0.3088000118732452,-0.95110023021698,0.95110023021698,0.3088000118732452,-87.44253967794431,-150.06869620084763)" id="Layer_1" transform-origin="">
                <ellipse stroke-width="1" stroke-dasharray="none" stroke-linecap="butt" stroke-dashoffset="0" stroke-linejoin="miter" stroke-miterlimit="4" fill-rule="nonzero" opacity="1" cx="0" cy="0" rx="7.7" ry="7.1" stroke="none" fill="rgb(255, 255, 246)" transform="">
                </ellipse>
            </g>
            <g transform="matrix(0.3088000118732452,-0.95110023021698,0.95110023021698,0.3088000118732452,-88.15173767599117,-105.55680960416795)" id="Layer_1" transform-origin="">
                <ellipse stroke-width="1" stroke-dasharray="none" stroke-linecap="butt" stroke-dashoffset="0" stroke-linejoin="miter" stroke-miterlimit="4" fill-rule="nonzero" opacity="1" cx="0" cy="0" rx="13.1" ry="11.8" stroke="none" fill="rgb(255, 255, 246)" transform="">
                    <animate attributeName="cx" keyTimes="0; 0.17370056396375919; 0.21723679043038166; 0.491559306974678; 0.5553087516659263; 1" values="0.626368; 0.62649; 17.43; 17.4303; 0.626368; 0.626368" begin="-0.00001" dur="9.004019999999999" fill="freeze" calcMode="spline" keySplines="0 0 1 1; 0 0 1 1; 0 0 1 1; 0 0 1 1; 0 0 1 1" repeatCount="indefinite">
                    </animate>
                    <animate attributeName="cy" keyTimes="0; 0.17370056396375919; 0.21723679043038166; 0.491559306974678; 0.5553087516659263; 1" values="-8.83467; -8.83463; 5.52004; 5.51993; -8.83467; -8.83467" begin="-0.00001" dur="9.004019999999999" fill="freeze" calcMode="spline" keySplines="0 0 1 1; 0 0 1 1; 0 0 1 1; 0 0 1 1; 0 0 1 1" repeatCount="indefinite">
                    </animate>
                </ellipse>
            </g>
            <g transform="matrix(0.3088000118732452,-0.95110023021698,0.95110023021698,0.3088000118732452,142.3124652048682,6.395495474338526)" id="Layer_1" transform-origin="">
                <ellipse stroke-width="1" stroke-dasharray="none" stroke-linecap="butt" stroke-dashoffset="0" stroke-linejoin="miter" stroke-miterlimit="4" fill-rule="nonzero" opacity="1" cx="0" cy="0" rx="17.3" ry="27.5" stroke="none" fill="rgb(254, 166, 164)" transform="">
                </ellipse>
            </g>
            <g transform="matrix(0.3088000118732452,-0.95110023021698,0.95110023021698,0.3088000118732452,154.1357531687354,-48.99720495939255)" id="Layer_1" transform-origin="">
                <ellipse stroke-width="1" stroke-dasharray="none" stroke-linecap="butt" stroke-dashoffset="0" stroke-linejoin="miter" stroke-miterlimit="4" fill-rule="nonzero" opacity="1" cx="0" cy="0" rx="43.5" ry="37.4" stroke="none" fill="rgb(65, 11, 9)" transform="">
                </ellipse>
            </g>
            <g transform="matrix(0.3088000118732452,-0.95110023021698,0.95110023021698,0.3088000118732452,143.85766173807133,-74.99221152067186)" id="Layer_1" transform-origin="">
                <ellipse stroke-width="1" stroke-dasharray="none" stroke-linecap="butt" stroke-dashoffset="0" stroke-linejoin="miter" stroke-miterlimit="4" fill-rule="nonzero" opacity="1" cx="0" cy="0" rx="7.7" ry="7.1" stroke="none" fill="rgb(255, 255, 246)" transform="">
                </ellipse>
            </g>
            <g transform="matrix(0.3088000118732452,-0.95110023021698,0.95110023021698,0.3088000118732452,143.14846374002445,-30.48040503263474)" id="Layer_1" transform-origin="">
                <ellipse stroke-width="1" stroke-dasharray="none" stroke-linecap="butt" stroke-dashoffset="0" stroke-linejoin="miter" stroke-miterlimit="4" fill-rule="nonzero" opacity="1" cx="0" cy="0" rx="13.1" ry="11.8" stroke="none" fill="rgb(255, 255, 246)" transform="">
                    <animate attributeName="cx" keyTimes="0; 0.17370056396375919; 0.21723679043038166; 0.491559306974678; 0.5553087516659263; 1" values="-2.19906; -2.19899; 16.5369; 16.5367; -2.199; -2.19904" begin="-0.00001" dur="9.004019999999999" fill="freeze" calcMode="spline" keySplines="0 0 1 1; 0 0 1 1; 0 0 1 1; 0 0 1 1; 0 0 1 1" repeatCount="indefinite">
                    </animate>
                    <animate attributeName="cy" keyTimes="0; 0.17370056396375919; 0.21723679043038166; 0.491559306974678; 0.5553087516659263; 1" values="-7.712; -7.71182; 5.1988; 5.19856; -7.712; -7.71201" begin="-0.00001" dur="9.004019999999999" fill="freeze" calcMode="spline" keySplines="0 0 1 1; 0 0 1 1; 0 0 1 1; 0 0 1 1; 0 0 1 1" repeatCount="indefinite">
                    </animate>
                </ellipse>
            </g>
            <g transform="matrix(1 0 0 1 43.8686 -70.2898)" id="Layer_1" transform-origin="">
                <path stroke-width="13.1352" stroke-dasharray="none" stroke-linecap="round" stroke-dashoffset="0" stroke-linejoin="round" stroke-miterlimit="10" fill-rule="nonzero" opacity="1" transform=" translate(-1043.8686, -929.7102)" d="M 1011.42 910.582 C 1003.82 928.782 1013.92 949.282 1031.22 954.382 C 1048.02 959.382 1067.02 948.582 1071.32 929.982" stroke="rgb(65, 11, 9)" fill="none" transform-origin="">
                </path>
            </g>
            <g transform="matrix(1 0 0 1 190.9 -81.058)" id="Layer_1" transform-origin="">
                <path stroke-width="13.1352" stroke-dasharray="none" stroke-linecap="round" stroke-dashoffset="0" stroke-linejoin="round" stroke-miterlimit="10" fill-rule="nonzero" opacity="1" transform=" translate(-1190.9, -918.942)" d="M 1174.42 925.182 C 1183.32 926.382 1192.92 924.882 1199.82 919.082" stroke="rgb(65, 11, 9)" fill="none" transform-origin="">
                </path>
            </g>
            <g transform="matrix(1 0 0 1 196 -59.0327)" id="Layer_1" transform-origin="">
                <path stroke-width="13.1352" stroke-dasharray="none" stroke-linecap="round" stroke-dashoffset="0" stroke-linejoin="round" stroke-miterlimit="10" fill-rule="nonzero" opacity="1" transform=" translate(-1196, -940.9673)" d="M 1180.02 942.182 C 1182.62 943.682 1187.82 946.182 1194.62 946.482 C 1198.72 946.682 1202.02 945.982 1204.42 945.282" stroke="rgb(65, 11, 9)" fill="none" transform-origin="">
                </path>
            </g>
            <g transform="matrix(1 0 0 1 -325.6166 -211.4783)" id="Layer_1" transform-origin="">
                <path stroke-width="1" stroke-dasharray="none" stroke-linecap="round" stroke-dashoffset="0" stroke-linejoin="miter" stroke-miterlimit="4" fill-rule="nonzero" opacity="1" transform=" translate(-674.3834, -788.5217)" d="M 532.917 776.682 C 534.516 769.382 541.516 764.882 547.917 761.082 C 566.016 750.482 584.016 739.882 602.117 729.282 C 604.417 727.982 606.716 726.582 609.317 726.282 C 611.716 725.982 614.117 726.582 616.417 727.182 C 675.617 742.182 736.417 752.182 793.516 773.882 C 797.516 775.382 801.716 777.082 804.516 780.382 C 808.317 784.682 809.016 790.982 807.617 796.482 C 806.117 801.982 802.817 806.782 799.016 811.082 C 779.917 833.182 751.216 844.382 722.917 851.682 C 707.216 855.782 691.016 858.882 674.917 857.082 C 656.016 854.982 638.716 846.182 621.317 838.382 C 597.216 827.682 571.417 817.982 554.117 798.082" stroke="none" fill="rgb(251, 252, 238)" transform-origin="">
                </path>
            </g>
            <g transform="matrix(1 0 0 1 -245.4 -8)" id="Layer_1" transform-origin="">
                <path stroke-width="1" stroke-dasharray="none" stroke-linecap="round" stroke-dashoffset="0" stroke-linejoin="miter" stroke-miterlimit="4" fill-rule="nonzero" opacity="1" transform=" translate(-754.6, -992)" d="M 821.917 777.182 C 813.516 785.382 802.016 795.182 786.817 803.982 C 767.617 815.182 749.817 820.882 736.716 823.982 L 523.016 770.082 L 694.216 1164.48 L 883.516 1220.68 C 898.117 1219.18 927.317 1213.98 954.417 1192.18 C 965.117 1183.48 973.016 1174.28 978.617 1166.38 C 926.317 1036.68 874.117 906.882 821.917 777.182 Z" stroke="none" fill="rgb(84, 141, 244)" transform-origin="">
                </path>
            </g>
            <g transform="matrix(1 0 0 1 -179.4353 14.85)" id="Layer_1" transform-origin="">
                <path stroke-width="1" stroke-dasharray="none" stroke-linecap="round" stroke-dashoffset="0" stroke-linejoin="miter" stroke-miterlimit="4" fill-rule="nonzero" opacity="1" transform=" translate(-820.5647, -1014.85)" d="M 764.016 815.882 C 758.917 818.582 742.317 825.382 736.817 823.982 C 728.016 821.782 714.117 814.882 705.317 816.482 C 717.917 847.182 799.317 1047.98 768.516 1094.68 C 762.917 1103.28 755.117 1107.58 755.117 1107.58 C 720.716 1126.48 664.516 1080.18 654.716 1071.88 C 657.216 1078.08 661.216 1087.98 666.317 1099.98 C 670.817 1110.58 673.617 1116.88 681.016 1133.78 C 685.417 1143.98 689.917 1154.18 694.317 1164.38 L 883.617 1220.58 C 898.216 1219.08 927.417 1213.88 954.516 1192.08 C 965.216 1183.38 973.117 1174.18 978.716 1166.28 C 980.016 1164.48 971.117 1147.38 970.117 1144.78 C 967.216 1137.58 964.317 1130.48 961.516 1123.28 C 956.117 1109.78 954.216 1102.68 938.216 1102.58 C 926.317 1102.58 915.216 1096.68 906.016 1089.18 C 884.617 1071.98 871.516 1046.88 858.917 1022.48 C 846.917 999.182 834.917 975.982 823.016 952.682 C 811.617 930.482 800.117 908.282 789.917 885.482 C 779.417 862.982 773.417 838.682 764.016 815.882 Z" stroke="none" fill="rgb(84, 106, 244)" transform-origin="">
                </path>
            </g>
            <g transform="matrix(1 0 0 1 -245.35 -34.9)" id="Layer_1" transform-origin="">
                <path stroke-width="1" stroke-dasharray="none" stroke-linecap="round" stroke-dashoffset="0" stroke-linejoin="miter" stroke-miterlimit="4" fill-rule="nonzero" opacity="1" transform=" translate(-754.65, -965.1)" d="M 743.817 843.282 C 756.917 840.182 774.817 834.482 793.917 823.282 C 809.117 814.382 820.617 804.682 829.016 796.482 C 878.716 919.982 928.417 1043.48 978.117 1166.98 C 978.317 1166.78 978.417 1166.58 978.617 1166.28 C 926.417 1036.58 874.216 906.882 822.016 777.082 C 813.617 785.282 802.117 795.082 786.917 803.882 C 767.716 815.082 749.917 820.782 736.817 823.882 L 523.117 769.982 L 531.617 789.682 L 743.817 843.282 Z" stroke="none" fill="rgb(152, 204, 248)" transform-origin="">
                </path>
            </g>
            <g transform="matrix(1 0 0 1 -292.95 -7.95)" id="Layer_1" transform-origin="">
                <polygon stroke-width="17.9247" stroke-dasharray="none" stroke-linecap="round" stroke-dashoffset="0" stroke-linejoin="round" stroke-miterlimit="10" fill-rule="nonzero" opacity="1" points="-184.033935546875,-221.8679962158203 29.66606330871582,-168.0679931640625 176.466064453125,228.6320037841797 -12.833938598632812,172.4320068359375" stroke="rgb(65, 11, 9)" fill="none" transform="">
                </polygon>
            </g>
            <g transform="matrix(1 0 0 1 -138.5999 -4.4501)" id="Layer_1" transform-origin="">
                <path stroke-width="17.9247" stroke-dasharray="none" stroke-linecap="round" stroke-dashoffset="0" stroke-linejoin="round" stroke-miterlimit="10" fill-rule="nonzero" opacity="1" transform=" translate(-861.4, -995.55)" d="M 736.716 823.982 C 749.817 820.882 767.716 815.182 786.817 803.982 C 802.016 795.082 813.516 785.382 821.917 777.182 C 874.117 906.882 926.317 1036.58 978.516 1166.38 C 972.917 1174.28 965.117 1183.58 954.317 1192.18 C 927.317 1214.08 898.016 1219.18 883.417 1220.68" stroke="rgb(65, 11, 9)" fill="none" transform-origin="">
                </path>
            </g>
            <g transform="matrix(1 0 0 1 -319.25 -248.3501)" id="Layer_1" transform-origin="">
                <path stroke-width="17.9247" stroke-dasharray="none" stroke-linecap="round" stroke-dashoffset="0" stroke-linejoin="round" stroke-miterlimit="10" fill-rule="nonzero" opacity="1" transform=" translate(-680.75, -751.65)" d="M 535.617 773.282 C 557.317 758.682 578.917 743.982 600.617 729.382 C 673.216 746.482 745.716 763.582 818.317 780.682" stroke="rgb(65, 11, 9)" fill="none" transform-origin="">
                </path>
            </g>
            <g transform="matrix(1 0 0 1 -290.3 -254.4499)" id="Layer_1" transform-origin="">
                <path stroke-width="17.9247" stroke-dasharray="none" stroke-linecap="round" stroke-dashoffset="0" stroke-linejoin="round" stroke-miterlimit="10" fill-rule="nonzero" opacity="1" transform=" translate(-709.7, -745.55)" d="M 593.716 734.082 C 592.417 729.582 591.117 725.082 589.817 720.582 C 667.216 739.482 744.617 758.382 822.016 777.282" stroke="rgb(65, 11, 9)" fill="none" transform-origin="">
                </path>
            </g>
            <g transform="matrix(1 0 0 1 -156.5181 50.6562)" id="Layer_1" transform-origin="">
                <path stroke-width="1" stroke-dasharray="none" stroke-linecap="round" stroke-dashoffset="0" stroke-linejoin="miter" stroke-miterlimit="4" fill-rule="nonzero" opacity="1" transform=" translate(-843.4819, -1050.6562)" d="M 884.716 1039.78 C 882.317 1032.18 879.417 1024.68 875.617 1017.58 C 872.716 1012.18 869.817 1003.98 863.016 1002.88 C 859.317 1002.28 855.317 1003.88 853.117 1006.88 C 850.917 1009.78 850.317 1013.68 850.117 1017.38 C 849.617 1024.78 850.016 1032.28 851.317 1039.68 C 838.817 1034.68 825.317 1032.18 811.817 1032.48 C 807.817 1032.58 803.716 1032.98 800.117 1034.48 C 788.617 1039.48 787.917 1055.38 792.317 1065.38 C 801.117 1085.68 822.216 1098.38 843.716 1103.48 C 851.216 1105.28 859.216 1106.28 866.617 1103.98 C 878.417 1100.28 886.516 1088.58 888.716 1076.38 C 891.016 1064.08 888.417 1051.58 884.716 1039.78 Z" stroke="none" fill="rgb(65, 11, 9)" transform-origin="">
                </path>
            </g>
            <g transform="matrix(1 0 0 1 -1.8 97.6772)" id="Layer_1" transform-origin="">
                <path stroke-width="17.9247" stroke-dasharray="none" stroke-linecap="round" stroke-dashoffset="0" stroke-linejoin="round" stroke-miterlimit="10" fill-rule="nonzero" opacity="1" transform=" translate(-998.2, -1097.6772)" d="M 849.216 1065.98 C 868.917 1078.08 897.016 1093.58 932.716 1107.58 C 966.216 1120.78 997.617 1133.08 1040.22 1135.68 C 1062.42 1136.98 1097.42 1136.28 1139.62 1122.78" stroke="rgb(65, 11, 9)" fill="none" transform-origin="">
                </path>
            </g>
            <g transform="matrix(1 0 0 1 -365.4088 11.8973)" id="Layer_1" transform-origin="">
                <path stroke-width="1" stroke-dasharray="none" stroke-linecap="round" stroke-dashoffset="0" stroke-linejoin="miter" stroke-miterlimit="4" fill-rule="nonzero" opacity="1" transform=" translate(-634.5912, -1011.8974)" d="M 587.716 995.382 C 587.817 994.982 587.817 994.682 587.917 994.282 C 590.117 983.682 598.617 958.682 612.817 959.182 C 616.917 959.282 620.817 961.882 622.617 965.582 C 624.417 969.182 624.117 973.482 623.617 977.482 C 622.516 985.582 620.516 993.582 617.617 1001.18 C 626.117 999.582 634.716 998.982 643.317 999.382 C 651.216 999.782 657.216 999.482 662.516 1005.98 C 672.216 1017.88 677.516 1034.08 673.817 1048.98 C 672.516 1054.38 669.917 1059.68 666.016 1063.58 C 648.617 1080.88 617.917 1066.08 604.016 1051.38 C 592.117 1038.78 585.716 1021.28 586.716 1003.98 C 586.817 1001.18 587.216 998.182 587.716 995.382 Z" stroke="none" fill="rgb(65, 11, 9)" transform-origin="">
                </path>
            </g>
        </g>
    </g>
</svg>
