<svg version="1.2" xmlns="http://www.w3.org/2000/svg" viewBox="0 0 460 220" width="460" height="220">
	<title>1832731_254897-P4GHGX-364</title>
	<style>
		.s0 { fill: #c9f3f4 } 
		.s1 { fill: #9dd8e0 } 
	</style>
	<g id="OBJECTS">
		<path class="s0" d="m260.7 156.8v-13.8h-4.5q0.4-2.2 0.4-4.4c0-11.5-8.1-21.1-18.9-23.5-0.5-14.3-5.1-19.5-5.1-19.5 0 0-4.5 5.2-5.1 19.5-10.8 2.4-18.9 12-18.9 23.5q0 2.2 0.4 4.4h-4.5v13.8h-90.3v47.4h236.8v-47.4z"/>
		<path class="s0" d="m125.5 112.6c-1.1-43.6-17.8-87.7-30.7-87.7q0 0 0 0c-12.9 0-29.6 44.1-30.6 87.7-1.1 43.5 8.6 92.5 8.6 92.5h22 22.1c0 0 9.7-49 8.6-92.5z"/>
		<path class="s0" d="m367-3.9l-2.1 24.9h-7.7l-1.4-14.1-25.2 197.3 56 0.9zm-8.5 37.8h5.3l-0.7 8.6h-3.8zm6.3-10.8l-0.8 8.6h-5.7l-0.8-8.6zm-5.2 21.5h3.4l-1.6 18.1z"/>
		<g>
			<path class="s1" d="m10 220.4q54.9 0 109.7 0 103.6 0 207.2 0 61.2 0 122.4 0 0.3 0 0.7 0c10.4 0 10.4-16.2 0-16.2q-54.9 0-109.7 0-103.6 0-207.2 0-61.2 0-122.4 0-0.3 0-0.7 0c-10.4 0-10.4 16.2 0 16.2z"/>
		</g>
		<path class="s1" d="m354.6 181.7v-4.9h-5.4c-11.4-4.5-22.8-11.7-30.5-21.4v-6.3h1.2c0.6 0 1.2-0.5 1.2-1.1 0-0.7-0.6-1.2-1.2-1.2h-1.2v-19.2h1.2c0.6 0 1.2-0.5 1.2-1.2 0-0.6-0.6-1.1-1.2-1.1h-1.2v-16l-2.7-11.1-2.7 11.1h-3.3l-3.8-15.9-3.9 15.9h-3.2l-2.7-11.1-2.7 11.1v16h-1.2c-0.7 0-1.2 0.5-1.2 1.1 0 0.7 0.5 1.2 1.2 1.2h1.2v3.8h-74v-3.8h1.2c0.7 0 1.2-0.5 1.2-1.2 0-0.6-0.5-1.1-1.2-1.1h-1.2v-16l-2.7-11.1-2.6 11.1h-3.3l-3.9-15.9-3.8 15.9h-3.3l-2.7-11.1-2.7 11.1v16h-1.2c-0.6 0-1.1 0.5-1.1 1.1 0 0.7 0.5 1.2 1.1 1.2h1.2v19.2h-1.2c-0.6 0-1.1 0.5-1.1 1.2 0 0.6 0.5 1.1 1.1 1.1h1.2v5.5c-7.7 10.1-19.4 17.6-31.2 22.2h-4.7v1.7q-0.1 0.1-0.1 0.1c-0.8 0.2-0.6 1.3 0.1 1.3v1.8h35.9v1.8c-3 0-5.4 2.5-5.4 5.4v16.2h35.9v-12.7c18.4-13.3 43.8-11.7 63.1-0.4v13.1h35.8v-16.2c0-2.9-2.4-5.4-5.4-5.4v-1.8zm-36-11.1h1.3c0.6 0 1.1-0.5 1.1-1.1 0-0.7-0.5-1.2-1.1-1.2h-1.3v-3.1c4.9 4.7 10.7 8.6 16.6 11.6h-16.6zm27.1 6.2h-7.7c-7-3.2-13.8-7.7-19.4-13.3v-6c7.2 8.4 17 14.9 27.1 19.3zm-126-39.5h74v2.3h-74zm1.2 31h-1.2v-19.2h1.2c0.7 0 1.2-0.5 1.2-1.2 0-0.6-0.5-1.1-1.2-1.1h-1.2v-5h74v5h-1.3c-0.6 0-1.1 0.5-1.1 1.1 0 0.7 0.5 1.2 1.1 1.2h1.3v19.2h-1.3c-0.6 0-1.1 0.5-1.1 1.1 0 0.7 0.5 1.2 1.1 1.2h1.3v6.2h-74v-6.2h1.2c0.7 0 1.2-0.5 1.2-1.2 0-0.6-0.5-1.1-1.2-1.1zm-26.2-11.5v6c-5.7 5.9-12.8 10.6-20 14h-7.7c10.4-4.5 20.5-11.3 27.7-20zm-17.2 20c6.2-3.2 12.2-7.3 17.2-12.3v3.8h-1.2c-0.6 0-1.2 0.5-1.2 1.1 0 0.7 0.6 1.2 1.2 1.2h1.2v6.2zm42.2 6.7v-1.9h23.1c-6.2 1.4-12.2 3.9-17.7 7.6v-0.3c0-3-2.4-5.4-5.4-5.4zm74 0h-0.1c-2.9 0-5.3 2.4-5.4 5.3-5.9-3.3-12.4-5.8-19.1-7.2h24.6z"/>
		<path class="s1" d="m444.4 141.6q-0.1 0-0.1 0-0.1-0.5-0.2-1.1 0 0 0 0 0-0.1 0-0.1-0.4-3.1-1.2-6 0 0 0 0 0 0 0.1 0c1.5-0.6 2-3.1 1-5.5-0.9-2.5-2.9-4-4.4-3.4q-0.1 0-0.2 0.1-0.7-1.4-1.5-2.7 0 0 0 0 0-0.1-0.1-0.1-1.5-2.6-3.5-4.9 0-0.1 0-0.1 0-0.1-0.1-0.1 0.1-0.1 0.2-0.1c1.1-1.2 0.6-3.6-1.3-5.5-1.9-1.9-4.3-2.4-5.5-1.3q0 0.1-0.1 0.2-1.1-0.8-2.2-1.6-0.1-0.1-0.1-0.2-0.1 0-0.2 0-1.7-1.2-3.6-2.3 0.1-0.1 0.2-0.2c0.6-1.5-0.8-3.6-3.2-4.7-2.4-1-4.9-0.7-5.6 0.8q0 0.1 0 0.3-2.3-0.8-4.7-1.3 0 0 0 0h-0.1q-2.2-0.4-4.4-0.7 0-0.1 0-0.2c0-1.7-2.2-3-4.8-3-2.6 0-4.8 1.3-4.8 3q0 0.1 0.1 0.2-2.4 0.2-4.6 0.7h-0.1q0 0 0 0-1.3 0.3-2.6 0.6 0-0.1 0-0.2c-0.6-1.5-3.1-2-5.5-1-2.5 0.9-4 2.9-3.4 4.5q0.1 0 0.1 0.1-0.1 0.1-0.2 0.1-0.1 0.1-0.2 0.1 0 0-0.1 0.1-2.6 1.4-5.1 3.1 0 0-0.1 0-0.1 0.1-0.1 0.2-1.1 0.7-2.1 1.6-0.1-0.1-0.1-0.2c-1.2-1.1-3.6-0.6-5.5 1.3-1.9 1.9-2.4 4.3-1.3 5.5q0.1 0 0.1 0 0 0 0 0.1-0.1 0-0.1 0.1-0.1 0-0.1 0.1-1.9 2.3-3.5 4.9 0 0 0 0.1-0.1 0-0.1 0-0.2 0.4-0.4 0.8 0 0 0 0c-1.5-0.7-3.6 0.7-4.7 3.1-1 2.4-0.7 4.9 0.8 5.6q0 0 0 0-0.3 0.9-0.6 1.8 0 0.1 0 0.1 0 0.1 0 0.1-0.8 2.9-1.3 6 0 0 0 0.1 0 0 0 0-0.1 0.6-0.1 1.1c-1.6 0.1-2.9 2.2-2.9 4.8 0 2.6 1.3 4.6 2.8 4.8q0.1 0.8 0.2 1.7 0 0 0 0 0 0.1 0 0.1 0.4 2.8 1.2 5.5c-1.4 0.7-1.8 3.1-0.9 5.4 0.9 2.4 2.7 3.8 4.2 3.4q0.8 1.6 1.7 3.1 0 0.1 0.1 0.1 0 0 0 0.1 1.6 2.5 3.5 4.9c-0.9 1.2-0.3 3.4 1.4 5.2 1.8 1.7 4 2.3 5.2 1.4q1.2 1 2.5 1.9 0 0.1 0.1 0.1 0.1 0.1 0.2 0.1 1.7 1.2 3.5 2.2c-0.4 1.5 1 3.4 3.2 4.4q0.1 0 0.1 0-2.7 7.1-5.5 14.2c-1 2.6 3.2 3.7 4.2 1.2q3-7.7 5.9-15.3 0.4-0.2 0.7-0.6 2.3 0.7 4.8 1.3 0 0 0 0h0.1q2.2 0.4 4.6 0.7c0.2 1.5 2.3 2.6 4.7 2.6 2.5 0 4.5-1.2 4.7-2.6q2.3-0.3 4.5-0.7h0.1q0 0 0 0 1.4-0.4 2.9-0.8c0.5 0.9 1.6 1.3 3 1.3q2.7 7 5.4 14.1c1 2.5 5.2 1.4 4.2-1.2q-2.8-7.2-5.5-14.3c1.2-1 1.9-2.2 1.7-3.3q0 0 0 0 0.1 0 0.1-0.1 2.7-1.4 5.1-3.1 0.1 0 0.2-0.1 0 0 0.1-0.1 1.3-0.9 2.5-1.9c1.2 1 3.5 0.4 5.3-1.4 1.8-1.8 2.4-4.2 1.4-5.4q1.8-2.2 3.3-4.7 0.1-0.1 0.1-0.1 0 0 0-0.1 0.4-0.6 0.7-1.2c1.5 0.5 3.5-0.9 4.6-3.2 1-2.4 0.7-4.9-0.8-5.6q0.2-0.6 0.4-1.2 0.1-0.1 0.1-0.1 0-0.1 0-0.1 0.8-3 1.2-6 0 0 0-0.1 0 0 0 0 0.1-0.9 0.2-1.7 0 0 0 0c1.7 0 3-2.2 3-4.8 0-2.6-1.3-4.8-2.9-4.8zm-6.2 3.6q0.9 0.2 2.3 0.6 0.4 0.1 0.9 0.2 0 0.2 0 0.4 0 0.5 0.1 1-0.6 0.1-1 0.2-1.4 0.3-2.3 0.6 0-0.7 0-1.5 0-0.8 0-1.5zm5.2-3.3c-0.9 0.5-1.6 1.7-1.9 3.2q-0.4-0.1-0.8-0.2c-0.8-0.2-1.9-0.4-2.6-0.7q0-0.2 0-0.5c0.6-0.3 1.7-0.7 2.5-1 1.3-0.5 2.2-0.9 2.8-1.2q0 0.2 0 0.4zm-3.1 0q-1.4 0.5-2.3 0.9-0.1-1.5-0.4-3 0.9 0.2 2.4 0.3c1.1 0.1 2.6 0.3 3.2 0.5-0.5 0.3-1.9 0.9-2.9 1.3zm2.8-2.2c-0.6-0.2-1.6-0.3-3-0.5-0.8 0-2-0.2-2.7-0.3q0-0.2-0.1-0.5c0.6-0.4 1.6-1 2.3-1.4 1.3-0.6 2.1-1.1 2.7-1.6q0.5 2.1 0.8 4.3zm-5-10.7q0 0.6 0.2 1.2-0.5 0.4-0.9 0.7-1.2 0.9-1.9 1.5-0.5-1.5-1.2-2.8c0.7-0.1 1.5-0.2 2.4-0.4q0.7-0.1 1.4-0.2zm2.2 4.6q-0.8 0-1.6 0.1c-0.7 0-1.3 0-1.9 0q-0.5 0-0.8 0-0.1-0.2-0.2-0.5c0.6-0.5 1.5-1.1 2.2-1.7q0.3-0.2 0.6-0.4c0.4 1.1 1 1.9 1.7 2.5zm-4.8 27.4q0.7 0.6 1.9 1.5 0.3 0.3 0.7 0.5-0.2 0.3-0.3 0.6-0.2 0.4-0.3 0.7-0.4-0.1-0.8-0.1c-0.9-0.2-1.7-0.3-2.4-0.4q0.7-1.4 1.2-2.8zm3 1.3q-0.2-0.2-0.6-0.5c-0.6-0.5-1.5-1.2-2.1-1.7q0.1-0.2 0.2-0.4 0.3 0 0.8-0.1c0.6 0 1.2 0.1 1.9 0.1 0.6 0 1.3 0 1.9 0q0.7 0.1 1.2 0-0.1 0.3-0.2 0.6c-1.1 0-2.2 0.8-3.1 2zm2.1-3.4c-0.6 0-1.2 0-1.9-0.1-0.6 0-1.3 0-1.9 0q-0.3 0-0.5 0 0.5-1.4 0.8-2.9 0.8 0.5 2.1 1.2c1 0.5 2.3 1.3 2.7 1.7-0.2 0-0.6 0.1-1.3 0.1zm-4.3-24.3q0.2 0 0.5 0c0.6 0 1.3 0 1.9-0.1 0.7 0 1.3 0 1.9 0 0.7 0 1.1 0 1.3 0.1-0.4 0.4-1.7 1.1-2.7 1.7q-1.3 0.7-2.1 1.2-0.3-1.5-0.8-2.9zm2.4-8.4c-0.4 0.4-0.6 1.1-0.7 1.9q-0.7 0.1-1.5 0.3c-0.9 0.1-1.9 0.3-2.6 0.3q-0.1-0.2-0.3-0.4c0.5-0.5 1.3-1.4 1.9-1.9 1-1 1.7-1.7 2.1-2.3q0.6 1 1.1 2.1zm-11.2 52.3q-0.5-0.4-0.9-0.7-1.3-0.8-2.1-1.3 1.2-1 2.2-2 0.5 0.8 1.2 2.1 0.2 0.3 0.4 0.7-0.5 0.5-0.8 1.2zm1.2-2.3c-0.5-0.8-1-1.7-1.3-2.4q0.2-0.2 0.3-0.4c0.7 0.3 1.7 0.7 2.5 1.1q0.5 0.3 1 0.5c-0.8 0.3-1.6 0.8-2.3 1.5q0 0 0 0.1-0.1-0.2-0.2-0.4zm3.8-1.5c-0.6-0.3-1.3-0.6-1.9-0.9q-1.4-0.7-2.3-1.1 1-1.1 2-2.3 0.5 0.8 1.4 2c0.6 0.7 1.3 1.7 1.7 2.3q-0.4-0.1-0.9 0zm-8.3-3.8l-20.2-20.2q0.3-0.4 0.5-0.8l26.6 10.4c-1.7 4-4 7.5-6.9 10.6zm-8.1 14.7q-0.4-1.1-0.9-2.3c0.5 0.5 0.9 1 1.3 1.5q0.4 0.5 0.8 0.9-0.6-0.1-1.2-0.1zm1.1-1.4q-1-1.2-1.7-1.8 1.4-0.6 2.7-1.4 0.2 0.9 0.6 2.4c0.2 1 0.6 2.5 0.6 3.1-0.5-0.3-1.5-1.5-2.2-2.3zm-3.6-5.7l-1.8-4.1q-4.3-11-8.5-22l19.6 19.7c-2.7 2.6-5.9 4.8-9.3 6.4zm-2 7.4q-0.6-0.9-1.1-1.5 0.2-0.1 0.4-0.2 0.4 0.9 0.7 1.7zm-9.1 2.4c-0.1 0.5-0.2 1-0.3 1.6q-0.5-0.4-1.2-0.6-0.2-0.4-0.3-0.8-0.4-1.5-0.8-2.4 1.5 0 3-0.2-0.2 0.9-0.4 2.4zm-7.2 1.7c-0.1-0.6-0.2-1.2-0.3-1.7q-0.3-1.5-0.5-2.4 1.5 0.2 3 0.2-0.3 0.9-0.7 2.4-0.2 0.4-0.3 0.9-0.7 0.2-1.2 0.6zm-11.2-11.4c-3.6-1.6-6.8-3.8-9.6-6.5l19.7-19.7q-5.1 13.1-10.1 26.2zm2.8 5.8q-0.4 0.6-1 1.5 0.3-0.8 0.6-1.7 0.2 0.1 0.4 0.2zm-7.1 0.4q-0.8-0.1-1.4 0c0.1-0.5 0.2-1 0.3-1.4q0.4-1.5 0.5-2.4 1.4 0.8 2.7 1.4-0.6 0.6-1.6 1.8-0.3 0.3-0.5 0.6zm0.9 0.2q0.1-0.1 0.2-0.2c0.4-0.5 0.9-1 1.3-1.5q-0.4 1-0.7 2-0.4-0.2-0.8-0.3zm-15.8-10.4q-0.4 0-0.9 0.2c0.4-0.6 1.2-1.7 1.7-2.4q1-1.2 1.5-2 0.9 1.2 1.9 2.3-0.9 0.4-2.2 1.1c-0.6 0.3-1.3 0.6-2 0.8zm1.5 0.4q0.4-0.2 0.9-0.5c0.8-0.4 1.8-0.8 2.4-1.1q0.2 0.2 0.4 0.4c-0.3 0.7-0.9 1.6-1.3 2.4q-0.1 0.1-0.2 0.3c-0.7-0.7-1.5-1.2-2.2-1.5zm2.9 2.1q0.1-0.2 0.3-0.5 0.7-1.3 1.1-2.1 1.1 1 2.2 2-0.8 0.5-2 1.3-0.4 0.3-0.9 0.6-0.3-0.6-0.7-1.3zm-2.4-15.6l26.2-11.4q0.2 0.3 0.4 0.6l-20.2 20.2c-2.6-2.8-4.8-5.9-6.4-9.4zm2.9-46.7q0.6 0.4 1.1 0.7 1.2 0.9 2 1.3-1.1 1-2.2 2.1-0.4-0.8-1.1-2.1-0.3-0.4-0.5-0.9 0.4-0.5 0.7-1.1zm-1.4 1.7q0.2 0.3 0.4 0.7c0.4 0.7 1 1.7 1.3 2.4q-0.2 0.2-0.4 0.3c-0.6-0.2-1.6-0.7-2.4-1.1q-1-0.4-1.7-0.7c0.9-0.2 1.9-0.8 2.8-1.6zm0.7 4.1q-1 1.2-1.9 2.4-0.5-0.8-1.5-2c-0.6-0.8-1.5-2.1-1.8-2.6 0.6 0.1 1.9 0.7 3 1.2q1.3 0.7 2.2 1zm4.2 1.9l20.2 20.2q-0.3 0.3-0.5 0.8l-26.6-10.5c1.6-3.9 4-7.5 6.9-10.5zm9.6-15.7q0.1 0.4 0.1 0.9c0.1 0.8 0.2 2 0.2 2.7q-0.2 0.1-0.4 0.2c-0.5-0.5-1.3-1.4-1.8-2q-0.9-1-1.5-1.6c0.9 0.3 2.2 0.2 3.4-0.2zm2-0.9c0.2 0.4 0.5 0.8 0.7 1.1 0.5 0.9 1 1.5 1.3 2q-1.4 0.5-2.8 1 0-0.9-0.2-2.4-0.1-0.5-0.1-1.1 0.6-0.2 1.1-0.6zm10.1-0.8c0.1-0.7 0.2-1.5 0.4-2.2q0.4 0.3 0.9 0.5c0.1 0.5 0.3 1 0.5 1.5q0.4 1.5 0.7 2.3-1.5 0.1-3 0.2 0.2-0.9 0.5-2.3zm7.1-2.1c0.1 0.6 0.3 1.4 0.4 2.1q0.2 1.4 0.4 2.3-1.5-0.1-3-0.2 0.4-0.8 0.8-2.3c0.1-0.4 0.3-1 0.5-1.5q0.5-0.2 0.9-0.4zm29.8 15.1q-0.7 0.3-1.7 0.7c-0.8 0.4-1.8 0.9-2.5 1.1q-0.1-0.1-0.3-0.3c0.3-0.7 0.8-1.7 1.3-2.4q0.2-0.4 0.4-0.8c0.9 0.9 1.9 1.4 2.8 1.7zm-1.3 1.5c1-0.5 2.3-1.1 2.9-1.2-0.2 0.5-1.1 1.8-1.8 2.6q-0.9 1.2-1.4 2-0.9-1.2-2-2.4 0.9-0.3 2.3-1zm-2.1-3.8q-0.3 0.5-0.6 1-0.7 1.3-1.2 2.1-1-1.1-2.2-2.1 0.8-0.4 2.1-1.3c0.4-0.2 0.8-0.5 1.2-0.7q0.3 0.5 0.7 1zm2.1 16l-26.2 11.5q-0.2-0.4-0.4-0.6l20.1-20.2c2.7 2.7 4.8 5.9 6.5 9.3zm0.7 1.6c1.5 3.9 2.4 8 2.5 12.4h-28.5q-0.1-0.5-0.2-1zm-28.6 8.1q-0.3-0.3-0.8-0.6l10.5-26.6c3.9 1.7 7.5 4.1 10.5 7zm15.5-29.1q-1.3-0.7-2.7-1.4 0.7-0.6 1.7-1.8c0.3-0.4 0.6-0.8 1-1.2q0.5 0.1 1 0c-0.1 0.7-0.3 1.4-0.4 2q-0.4 1.5-0.6 2.4zm-2.2-4.9q0.6 0.2 1.2 0.4-0.3 0.3-0.7 0.7c-0.5 0.7-1.3 1.5-1.8 2q-0.2-0.1-0.5-0.2c0-0.7 0.2-1.8 0.2-2.7q0.1-0.6 0.2-1.1 0.6 0.5 1.4 0.9zm-2.3-1.6c0 0.6-0.1 1.2-0.1 1.7q-0.2 1.5-0.2 2.5-1.4-0.6-2.9-1.1c0.4-0.4 0.8-1.1 1.4-2 0.4-0.6 0.9-1.3 1.3-1.9q0.2 0.4 0.5 0.8zm-2.9 7.8l-10.5 26.6q-0.3-0.1-0.7-0.1v-28.6c3.9 0.1 7.7 0.8 11.2 2.1zm-10.9-9c-0.3 0.8-0.6 1.9-0.9 2.6q-0.1-0.1-0.3-0.1-0.1 0-0.2 0.1c-0.3-0.7-0.7-1.8-0.9-2.6q-0.2-0.6-0.3-1 0.7 0.1 1.5 0.1 0.7 0 1.4-0.1-0.2 0.5-0.3 1zm-2 6.9v28.6q-0.5 0-1 0.2l-11.4-26.2c3.8-1.6 8-2.5 12.4-2.6zm-17.6-2.4q1 1.2 1.6 1.8-1.3 0.7-2.6 1.4-0.2-0.9-0.6-2.4c-0.2-1-0.6-2.5-0.6-3.1 0.5 0.3 1.5 1.5 2.2 2.3zm3.6 5.7l11.4 26.2q-0.3 0.1-0.6 0.4l-20.2-20.2c2.8-2.6 5.9-4.8 9.4-6.4zm8.4 30.2q-0.1 0.4-0.1 0.7h-28.6c0.1-3.9 0.9-7.6 2.1-11.1zm-0.1 2.4q0 0.5 0.2 1l-26.2 11.4c-1.6-3.9-2.5-8-2.6-12.4zm5.7 7.4v26.9c-3.4-0.1-6.7-0.7-9.8-1.6q4.9-12.7 9.8-25.3zm1 34.1q-0.7 0-1.4 0.1 0.1-0.2 0.1-0.4c0.3-0.8 0.6-1.9 0.9-2.6q0.1 0 0.3 0 0.1 0 0.2 0c0.3 0.7 0.7 1.8 0.9 2.6q0.1 0.2 0.1 0.4-0.5-0.1-1.1-0.1zm0.7-7.2v-26.9q4.9 12.6 9.8 25.2c-3.1 1-6.4 1.6-9.8 1.7zm5.6-33.6q0.1-0.3 0.1-0.7h28.6c-0.1 3.9-0.8 7.7-2.1 11.2zm29.7-22.5q-1 1-1.6 1.7-0.8-1.3-1.6-2.6c0.6-0.1 1.5-0.4 2.3-0.7 1.2-0.3 2.5-0.8 3.1-0.8-0.3 0.5-1.4 1.6-2.2 2.4zm1.8-3.2c-0.8 0.1-1.8 0.4-3 0.8-0.9 0.3-1.9 0.6-2.6 0.8q-0.1-0.2-0.2-0.4c0.3-0.6 1-1.6 1.5-2.2 0.9-1.1 1.5-1.9 1.8-2.5q1.3 1.7 2.5 3.5zm-11.3-12.1q0.9 0.7 1.8 1.4c-0.2 0.6-0.1 1.4 0.2 2.1q-0.5 0.4-1.2 0.8c-0.8 0.5-1.7 1.1-2.3 1.5q-0.2-0.2-0.4-0.3c0.2-0.7 0.6-1.8 0.9-2.6 0.5-1.3 0.9-2.2 1-2.9zm-1.8 2.6q-0.6 1.4-0.9 2.3-1.2-0.9-2.4-1.8 0.7-0.5 1.8-1.5c0.8-0.7 2-1.8 2.5-2 0 0.6-0.6 2-1 3zm-2-1.7c-0.7 0.6-1.5 1.3-2.1 1.7q-0.2-0.1-0.4-0.2c0.1-0.7 0.3-1.8 0.5-2.7q0.4-1.4 0.6-2.3 0.3-0.2 0.6-0.3 1.6 0.9 3.2 1.9c-0.6 0.4-1.4 1-2.4 1.9zm-8.8-7.4q0 0.1 0 0.2c-0.4 0.5-0.9 1.3-1.6 2.4-0.5 0.7-1.1 1.6-1.5 2.2q-0.3-0.1-0.5-0.2c-0.1-0.7-0.1-1.8-0.2-2.6 0-1.4-0.1-2.4-0.2-3.1q2 0.5 4 1.1zm-4.6 2q0 1.5 0.1 2.4-1.5-0.4-3-0.6 0.5-0.8 1.1-2.2c0.5-1 1.1-2.4 1.5-2.8 0.2 0.6 0.2 2.1 0.3 3.2zm-1.2-3.5c-0.3 0.6-0.8 1.4-1.4 2.7-0.3 0.8-0.8 1.8-1.2 2.5q-0.2-0.1-0.5-0.1c-0.2-0.7-0.4-1.8-0.5-2.6q-0.3-1.6-0.5-2.6 0.2-0.2 0.4-0.4 1.9 0.2 3.7 0.5zm-12.6-0.5q0.1 0.2 0.3 0.3c-0.2 0.7-0.3 1.5-0.5 2.7-0.2 0.8-0.4 1.9-0.6 2.6q-0.2 0-0.5 0.1c-0.3-0.7-0.8-1.7-1.2-2.5-0.6-1.3-1-2.1-1.4-2.7q1.9-0.3 3.9-0.5zm-5 4c0-1.1 0.1-2.6 0.2-3.2 0.4 0.4 1.1 1.8 1.5 2.8q0.7 1.4 1.1 2.2-1.5 0.2-2.9 0.6 0.1-0.9 0.1-2.4zm-0.9 0c0 0.8 0 1.9-0.1 2.6q-0.3 0.1-0.5 0.2c-0.5-0.6-1.1-1.5-1.6-2.2q-0.4-0.7-0.7-1.2c0.7-0.6 1.2-1.3 1.3-2q0.9-0.3 1.8-0.5c-0.1 0.7-0.1 1.7-0.2 3.1zm-11.2 1.2c0 0.7 0.3 1.7 0.6 3 0.2 0.9 0.5 2 0.6 2.7q-0.2 0.1-0.4 0.2c-0.6-0.4-1.5-1.1-2.1-1.7-1-0.9-1.8-1.5-2.4-1.9q1.8-1.2 3.7-2.3zm-1.9 4.9q1.1 1 1.9 1.5-1.3 0.9-2.5 1.8-0.3-0.9-0.9-2.3c-0.4-1-0.9-2.4-1-3 0.5 0.2 1.7 1.3 2.5 2zm-3.3-1.6c0.2 0.7 0.5 1.6 1 2.9 0.4 0.8 0.8 1.9 1 2.6q-0.2 0.1-0.4 0.3c-0.7-0.4-1.6-1-2.3-1.5q-0.6-0.4-1.2-0.7c0.4-0.8 0.5-1.7 0.3-2.3q0.8-0.7 1.6-1.3zm-8.7 8.6c0.3 0.6 0.9 1.4 1.7 2.5 0.5 0.6 1.2 1.5 1.6 2.2q-0.2 0.2-0.3 0.4c-0.7-0.2-1.7-0.5-2.6-0.8-1.1-0.4-2.2-0.7-2.9-0.8q1.1-1.8 2.5-3.5zm0.1 5.1c0.9 0.3 1.7 0.6 2.4 0.7q-0.9 1.3-1.6 2.6-0.6-0.7-1.7-1.7c-0.8-0.8-1.9-1.9-2.1-2.4 0.6 0 1.9 0.5 3 0.8zm-1.5 2.2c0.6 0.6 1.4 1.4 1.9 1.9q-0.2 0.3-0.3 0.5c-0.7-0.1-1.7-0.2-2.6-0.4q-0.4-0.1-0.8-0.1c0.5-1.6 0.3-3.2-0.4-4q0.1-0.1 0.1-0.2c0.4 0.6 1.1 1.3 2.1 2.3zm-2.4 38q0-0.7-0.1-1.4 0.3-0.2 0.6-0.4 1.2-0.9 1.9-1.6 0.6 1.5 1.2 2.8c-0.7 0.1-1.5 0.2-2.4 0.4q-0.6 0.1-1.2 0.2zm-0.8-33.4q0.3 0.3 0.8 0.6c0.6 0.5 1.5 1.2 2.1 1.7q-0.1 0.2-0.2 0.4-0.3 0.1-0.8 0.1c-0.6 0-1.2-0.1-1.9-0.1-0.6 0-1.3 0-1.9 0q-0.7 0-1.2 0 0.2-0.6 0.4-1.2c0.9 0 1.9-0.6 2.7-1.5zm-1.9 3.5c0.6 0 1.2 0 1.9 0.1 0.6 0 1.3 0 1.9 0q0.3 0 0.5 0-0.5 1.5-0.8 2.9-0.8-0.5-2.1-1.2c-1-0.5-2.3-1.3-2.7-1.7 0.2 0 0.6-0.1 1.3-0.1zm4.3 24.3q-0.2 0-0.5 0c-0.6 0-1.3 0-1.9 0.1-0.6 0-1.3 0-1.8 0q-0.5-0.3-0.9-0.5c0.6-0.4 1.5-0.9 2.2-1.3q1.3-0.7 2.1-1.2 0.3 1.5 0.8 2.9zm-2.1 3c-0.3-0.8-0.7-1.5-1.2-2q0.5-0.1 0.9-0.1c0.7 0 1.3 0 1.9 0q0.5 0 0.8 0 0.1 0.2 0.2 0.5c-0.6 0.5-1.5 1.2-2.1 1.7q-0.2 0.1-0.4 0.2 0-0.1-0.1-0.3zm2.9-29.4q-0.7-0.6-1.9-1.5-0.4-0.3-0.8-0.6 0.3-0.5 0.6-1.1 0 0 0-0.1 0.5 0.1 0.9 0.1c0.9 0.2 1.7 0.3 2.4 0.4q-0.7 1.4-1.2 2.8zm-6.8 3.1c0.6 0.4 1.4 0.9 2.7 1.6 0.7 0.4 1.7 0.9 2.3 1.3q-0.1 0.3-0.1 0.5c-0.7 0.2-1.8 0.3-2.7 0.4-1.4 0.1-2.4 0.2-3 0.4q0.3-2.2 0.8-4.2zm2.3 4.6q1.5-0.1 2.4-0.3-0.3 1.5-0.4 3-0.9-0.4-2.3-0.9c-1-0.4-2.4-0.9-2.9-1.3 0.6-0.2 2.1-0.4 3.2-0.5zm-0.6 2.6c0.8 0.3 1.9 0.7 2.5 1.1q0 0.2 0 0.5c-0.7 0.2-1.8 0.5-2.6 0.7q-0.3 0-0.6 0.1c-0.3-1.6-1.1-2.8-2.1-3.3q0-0.1 0-0.3c0.6 0.3 1.5 0.7 2.8 1.2zm2.4 5.5q-0.8-0.2-2.3-0.6-0.4-0.1-0.8-0.2 0.1-0.5 0.1-1 0-0.2 0-0.4 0.4-0.1 0.7-0.2 1.5-0.3 2.3-0.6 0 0.8 0 1.5 0 0.8 0 1.5zm-5.3 2.8c0.9-0.3 1.7-1.4 2-2.7q0.4 0.1 0.8 0.2c0.8 0.2 1.9 0.4 2.6 0.7q0 0.2 0 0.5c-0.6 0.3-1.7 0.7-2.5 1-1.3 0.5-2.2 0.9-2.8 1.2q0-0.4-0.1-0.9zm3.2 0.5q1.4-0.5 2.3-0.9 0.1 1.5 0.4 3-0.9-0.2-2.4-0.3c-1.1-0.1-2.6-0.3-3.2-0.5 0.5-0.3 1.9-0.9 2.9-1.3zm0.2 2.7c0.9 0 2 0.2 2.7 0.3q0 0.3 0.1 0.5c-0.6 0.4-1.6 1-2.3 1.4-1.3 0.7-2.1 1.2-2.7 1.6q-0.5-2.1-0.8-4.3c0.6 0.2 1.6 0.3 3 0.5zm1.3 12.8c0.4-0.4 0.7-1 0.8-1.7q0.7-0.1 1.5-0.3c0.9-0.1 1.9-0.3 2.6-0.3q0.1 0.2 0.3 0.4c-0.5 0.6-1.3 1.4-1.9 2-1 0.9-1.7 1.6-2.1 2.2q-0.6-1.1-1.2-2.3zm3.9 0.7q1.1-1.1 1.7-1.8 0.7 1.3 1.6 2.6c-0.7 0.2-1.5 0.4-2.4 0.7-1.1 0.4-2.4 0.8-3 0.8 0.2-0.5 1.3-1.6 2.1-2.3zm1.2 2.3c0.9-0.3 1.9-0.6 2.6-0.7q0.1 0.2 0.3 0.4c-0.4 0.6-1.1 1.5-1.6 2.2-0.8 1.1-1.4 1.9-1.8 2.5q-1.3-1.7-2.4-3.6c0.7-0.1 1.8-0.4 2.9-0.8zm8.3 12.9q-0.9-0.7-1.7-1.4c0.3-0.6 0.3-1.4 0-2.3q0.5-0.3 1-0.6c0.7-0.5 1.6-1.1 2.3-1.4q0.2 0.1 0.4 0.3c-0.2 0.7-0.6 1.7-1 2.5-0.5 1.3-0.8 2.2-1 2.9zm1.8-2.6q0.6-1.4 0.9-2.3 1.2 1 2.5 1.8-0.8 0.6-1.9 1.6c-0.8 0.7-2 1.7-2.5 2 0.1-0.6 0.6-2.1 1-3.1zm2.1 1.7c0.6-0.5 1.5-1.3 2.1-1.7q0.2 0.1 0.4 0.3c-0.1 0.7-0.4 1.8-0.6 2.6q-0.3 1-0.4 1.8-0.7 0.2-1.1 0.7-1.4-0.8-2.8-1.7c0.6-0.4 1.4-1.1 2.4-2zm9 7.5q0-0.3-0.1-0.6c0.4-0.5 0.9-1.1 1.4-2 0.5-0.7 1.1-1.7 1.6-2.3q0.2 0.1 0.5 0.2c0.1 0.7 0.1 1.8 0.1 2.7 0.1 1.4 0.1 2.4 0.2 3q-1.9-0.4-3.7-1zm4.4-2.1q0-1.4-0.1-2.4 1.4 0.4 2.9 0.6-0.4 0.8-1.1 2.2c-0.4 1-1.1 2.4-1.5 2.8-0.1-0.5-0.2-2.1-0.2-3.2zm2.5 0.8c0.4-0.8 0.9-1.8 1.2-2.4q0.3 0 0.5 0c0.2 0.7 0.4 1.9 0.6 2.7q0.2 1.3 0.4 2.2-0.3 0.3-0.4 0.7-1.9-0.2-3.7-0.5c0.4-0.5 0.8-1.4 1.4-2.7zm11.6 3.2q-0.1-0.5-0.5-0.9 0.2-0.8 0.4-2c0.1-0.8 0.3-2 0.5-2.7q0.3 0 0.5 0c0.4 0.6 0.9 1.6 1.2 2.4 0.6 1.3 1.1 2.2 1.4 2.7q-1.7 0.3-3.5 0.5zm4.7-4c-0.1 1.1-0.1 2.7-0.3 3.2-0.4-0.4-1-1.8-1.5-2.8q-0.6-1.4-1.1-2.2 1.5-0.2 3-0.6-0.1 1-0.1 2.4zm0.8 0.1c0.1-0.9 0.1-2 0.2-2.7q0.2-0.1 0.5-0.2c0.4 0.6 1 1.6 1.5 2.3q0.3 0.5 0.6 0.8c-0.7 0.8-1.1 1.6-1.1 2.3q-0.9 0.3-1.9 0.5c0.1-0.6 0.2-1.6 0.2-3zm11.3-1.3c-0.1-0.7-0.3-1.7-0.7-3-0.2-0.8-0.4-1.9-0.5-2.6q0.2-0.2 0.4-0.3c0.6 0.4 1.4 1.2 2.1 1.7 1 0.9 1.8 1.6 2.4 1.9q-1.8 1.3-3.7 2.3zm1.8-4.8q-1.1-1-1.8-1.6 1.2-0.8 2.4-1.8 0.3 0.9 0.9 2.3c0.4 1 1 2.5 1 3.1-0.5-0.3-1.7-1.3-2.5-2zm2.3-1.4c-0.3-0.8-0.7-1.8-0.9-2.5q0.2-0.2 0.4-0.3c0.6 0.3 1.5 0.9 2.3 1.4q0.6 0.4 1.1 0.7c-0.3 0.8-0.3 1.5 0 2.1q-0.9 0.8-1.9 1.5c-0.1-0.7-0.5-1.6-1-2.9zm9.8-5.6c-0.3-0.6-0.9-1.4-1.8-2.5-0.5-0.7-1.2-1.6-1.5-2.2q0.1-0.2 0.2-0.4c0.7 0.1 1.7 0.4 2.6 0.7 1.2 0.4 2.2 0.7 3 0.8q-1.2 1.9-2.5 3.6zm-0.2-5.2c-0.8-0.3-1.7-0.5-2.3-0.7q0.8-1.3 1.5-2.6 0.7 0.7 1.7 1.8c0.8 0.7 1.9 1.8 2.2 2.3-0.6 0-1.9-0.4-3.1-0.8zm3.6 0.1c-0.4-0.6-1.1-1.3-2-2.2-0.6-0.6-1.4-1.4-1.9-2q0.1-0.2 0.2-0.4c0.7 0 1.7 0.2 2.7 0.3q0.4 0.1 0.7 0.2c-0.3 1.4 0 2.8 0.7 3.5q-0.2 0.3-0.4 0.6zm4.7-11.3c-0.5-0.4-1.4-0.9-2.6-1.6-0.7-0.4-1.7-1-2.3-1.4q0-0.2 0.1-0.5c0.7-0.1 1.8-0.3 2.6-0.3 1.4-0.2 2.4-0.3 3.1-0.5q-0.3 2.2-0.9 4.3zm-2.3-4.7q-1.4 0.1-2.4 0.3 0.3-1.5 0.5-3 0.8 0.4 2.2 0.9c1 0.4 2.4 1 2.9 1.3-0.5 0.2-2.1 0.4-3.2 0.5zm3.4-1.4c-0.6-0.3-1.5-0.7-2.8-1.2-0.8-0.3-1.8-0.7-2.5-1q0-0.3 0.1-0.5c0.6-0.3 1.7-0.5 2.5-0.7q0.5-0.1 1-0.3c0.3 1.3 1 2.4 1.8 2.8q0 0.5-0.1 0.9z"/>
		<g>
			<g>
				<path class="s1" d="m159.7 56.4v-7.2l-7-6.5v-7h0.1c0 0-4.8-12.3-6.6-20.5-1.8 8.2-6.6 20.5-6.6 20.5v7l-6.9 6.5v7.2h-2.6v31.7h2.6v116.1h27v-116.1h2.6v-31.7zm-13.5 26.7c-6.3 0-11.3-5.1-11.3-11.4 0-6.3 5-11.4 11.3-11.4 6.3 0 11.4 5.1 11.4 11.4 0 6.3-5.1 11.4-11.4 11.4z"/>
				<g>
					<g>
						<g>
							<path class="s1" d="m142 71.4q2 1.4 4 2.8c0.1 0.1 0.3 0.1 0.4 0q3.8-2.2 7.6-4.4c0.4-0.3 0-1-0.5-0.8q-3.2 1.9-6.4 3.8-0.5 0.3-1 0.6c-0.2 0.2 0.5 0.2 0.1 0q-0.3-0.3-0.7-0.6-1.5-1.1-3.1-2.1c-0.4-0.4-0.8 0.4-0.4 0.7z"/>
						</g>
					</g>
				</g>
			</g>
		</g>
		<g>
			<path class="s1" d="m109.8 83l-3.6 6.9v2.7h-4.7v-7.6l-3.6-17.1-3.6 17.1v7.6h-4.7v-2.7l-3.6-6.9-3.6 6.9v2.7 39.5l-14-23.9-14.1 23.9v-39.5-2.7l-3.5-6.9-3.6 6.9v2.7h-4.7v-7.6l-3.6-17.1-3.6 17.1v7.6h-4.7v-2.7l-3.6-6.9-3.6 6.9v2.7 113.5h30.9 7.8v-20.1c0-2.4 2.7-4.4 6.1-4.4 3.4 0 6.1 2 6.1 4.4v20.1h8.1 30.9v-113.5-2.7zm-64.7 109.1h-12.3v-25.2c0-3 2.8-5.5 6.2-5.5 3.3 0 6.1 2.5 6.1 5.5zm0-61.1h-12.3v-25.2c0-3 2.8-5.5 6.2-5.5 3.3 0 6.1 2.5 6.1 5.5zm35.4 36.6h-12-12.1v-24.5c0-7.5 12.1-9.6 12.1-9.6 0 0 12 2.1 12 9.6zm23.6 24.5h-12.3v-25.2c0-3.1 2.8-5.5 6.2-5.5 3.3 0 6.1 2.4 6.1 5.5zm0-61.1h-12.3v-25.3c0-3 2.8-5.4 6.2-5.4 3.3 0 6.1 2.4 6.1 5.4z"/>
		</g>
	</g>
</svg>